<svg width="24" height="24" viewBox="0 0 24 24" fill="none" xmlns="http://www.w3.org/2000/svg">
<rect width="24" height="24" rx="2" fill="#F8F5FF"/>
<path d="M16.8539 7.85261L7.8539 16.8526C7.76008 16.9464 7.63283 16.9991 7.50015 16.9991C7.36746 16.9991 7.24022 16.9464 7.1464 16.8526C7.05258 16.7588 6.99987 16.6315 6.99987 16.4989C6.99987 16.3662 7.05258 16.2389 7.1464 16.1451L16.1464 7.14511C16.2401 7.05129 16.3673 6.99855 16.4999 6.99849C16.6325 6.99843 16.7598 7.05106 16.8536 7.14479C16.9474 7.23853 17.0001 7.3657 17.0002 7.49832C17.0003 7.63095 16.9476 7.75816 16.8539 7.85198V7.85261ZM7.1589 10.3401C6.73695 9.91808 6.49994 9.34573 6.5 8.74895C6.50006 8.15217 6.73718 7.57986 7.15921 7.15792C7.58123 6.73598 8.15359 6.49896 8.75037 6.49902C9.34714 6.49908 9.91945 6.73621 10.3414 7.15823C10.7633 7.58026 11.0004 8.15261 11.0003 8.74939C11.0002 9.34617 10.7631 9.91848 10.3411 10.3404C9.91906 10.7624 9.3467 10.9994 8.74993 10.9993C8.15315 10.9993 7.58084 10.7621 7.1589 10.3401ZM7.50015 8.75011C7.50031 8.95564 7.55115 9.15796 7.64816 9.33915C7.74518 9.52034 7.88537 9.67482 8.05634 9.7889C8.2273 9.90298 8.42375 9.97314 8.62831 9.99317C8.83286 10.0132 9.03919 9.98249 9.22904 9.90375C9.41889 9.82501 9.58639 9.70067 9.71672 9.54174C9.84704 9.38281 9.93617 9.1942 9.9762 8.99261C10.0162 8.79101 10.0059 8.58266 9.94624 8.38599C9.88653 8.18933 9.77925 8.01042 9.6339 7.86511C9.45901 7.69027 9.23619 7.57124 8.99363 7.52307C8.75107 7.4749 8.49968 7.49976 8.27125 7.5945C8.04282 7.68924 7.84763 7.84961 7.71037 8.05531C7.57311 8.26102 7.49995 8.50281 7.50015 8.75011ZM17.5001 15.2501C17.5 15.7707 17.3194 16.275 16.9891 16.6774C16.6588 17.0797 16.1992 17.355 15.6886 17.4564C15.1781 17.5579 14.6481 17.4792 14.1891 17.2337C13.7301 16.9882 13.3704 16.5912 13.1712 16.1102C12.9721 15.6293 12.946 15.0941 13.0972 14.596C13.2484 14.0979 13.5676 13.6677 14.0005 13.3786C14.4333 13.0894 14.953 12.9593 15.4711 13.0105C15.9891 13.0616 16.4734 13.2907 16.8414 13.6589C17.051 13.8673 17.2171 14.1153 17.3302 14.3885C17.4433 14.6616 17.501 14.9545 17.5001 15.2501ZM16.5001 15.2501C16.5002 14.9609 16.4 14.6806 16.2166 14.457C16.0332 14.2335 15.7779 14.0804 15.4943 14.0239C15.2106 13.9674 14.9162 14.011 14.6611 14.1473C14.406 14.2836 14.2061 14.5041 14.0954 14.7713C13.9847 15.0384 13.97 15.3357 14.0539 15.6125C14.1378 15.8892 14.3151 16.1284 14.5555 16.2891C14.7959 16.4498 15.0847 16.5221 15.3725 16.4938C15.6603 16.4655 15.9294 16.3383 16.1339 16.1339C16.2503 16.0181 16.3427 15.8804 16.4055 15.7287C16.4684 15.577 16.5006 15.4143 16.5001 15.2501Z" fill="#2C067B"/>
</svg>
