<svg width="24" height="24" viewBox="0 0 24 24" fill="none" xmlns="http://www.w3.org/2000/svg">
<rect width="24" height="24" rx="2" fill="#F8F5FF"/>
<path d="M19.4637 11.3125L18.5887 9.125C18.5145 8.93992 18.3864 8.78139 18.2211 8.66996C18.0557 8.55852 17.8607 8.49931 17.6613 8.5H15.5V8C15.5 7.86739 15.4473 7.74021 15.3536 7.64645C15.2598 7.55268 15.1326 7.5 15 7.5H5.5C5.23478 7.5 4.98043 7.60536 4.79289 7.79289C4.60536 7.98043 4.5 8.23478 4.5 8.5V15.5C4.5 15.7652 4.60536 16.0196 4.79289 16.2071C4.98043 16.3946 5.23478 16.5 5.5 16.5H6.5625C6.67265 16.9302 6.92285 17.3115 7.27366 17.5838C7.62446 17.8561 8.05591 18.0039 8.5 18.0039C8.94409 18.0039 9.37554 17.8561 9.72635 17.5838C10.0771 17.3115 10.3273 16.9302 10.4375 16.5H13.5625C13.6727 16.9302 13.9229 17.3115 14.2737 17.5838C14.6245 17.8561 15.0559 18.0039 15.5 18.0039C15.9441 18.0039 16.3755 17.8561 16.7263 17.5838C17.0771 17.3115 17.3273 16.9302 17.4375 16.5H18.5C18.7652 16.5 19.0196 16.3946 19.2071 16.2071C19.3946 16.0196 19.5 15.7652 19.5 15.5V11.5C19.5002 11.4357 19.4879 11.3721 19.4637 11.3125ZM15.5 9.5H17.6613L18.2612 11H15.5V9.5ZM5.5 8.5H14.5V12.5H5.5V8.5ZM8.5 17C8.30222 17 8.10888 16.9414 7.94443 16.8315C7.77998 16.7216 7.65181 16.5654 7.57612 16.3827C7.50043 16.2 7.48063 15.9989 7.51921 15.8049C7.5578 15.6109 7.65304 15.4327 7.79289 15.2929C7.93275 15.153 8.11093 15.0578 8.30491 15.0192C8.49889 14.9806 8.69996 15.0004 8.88268 15.0761C9.06541 15.1518 9.22159 15.28 9.33147 15.4444C9.44135 15.6089 9.5 15.8022 9.5 16C9.5 16.2652 9.39464 16.5196 9.20711 16.7071C9.01957 16.8946 8.76522 17 8.5 17ZM13.5625 15.5H10.4375C10.3273 15.0698 10.0771 14.6885 9.72635 14.4162C9.37554 14.1439 8.94409 13.9961 8.5 13.9961C8.05591 13.9961 7.62446 14.1439 7.27366 14.4162C6.92285 14.6885 6.67265 15.0698 6.5625 15.5H5.5V13.5H14.5V14.2694C14.2701 14.4023 14.0688 14.5795 13.9079 14.7907C13.747 15.002 13.6296 15.243 13.5625 15.5ZM15.5 17C15.3022 17 15.1089 16.9414 14.9444 16.8315C14.78 16.7216 14.6518 16.5654 14.5761 16.3827C14.5004 16.2 14.4806 15.9989 14.5192 15.8049C14.5578 15.6109 14.653 15.4327 14.7929 15.2929C14.9327 15.153 15.1109 15.0578 15.3049 15.0192C15.4989 14.9806 15.7 15.0004 15.8827 15.0761C16.0654 15.1518 16.2216 15.28 16.3315 15.4444C16.4414 15.6089 16.5 15.8022 16.5 16C16.5 16.2652 16.3946 16.5196 16.2071 16.7071C16.0196 16.8946 15.7652 17 15.5 17ZM18.5 15.5H17.4375C17.326 15.0708 17.0754 14.6908 16.7247 14.4193C16.3741 14.1479 15.9434 14.0004 15.5 14V12H18.5V15.5Z" fill="#2C067B"/>
</svg>
