<svg width="40" height="41" viewBox="0 0 40 41" fill="none" xmlns="http://www.w3.org/2000/svg">
<circle cx="20" cy="20.5" r="20" fill="#EAE6F3"/>
<path d="M27.5 12.25H12.5C11.9033 12.25 11.331 12.4871 10.909 12.909C10.4871 13.331 10.25 13.9033 10.25 14.5V25C10.25 25.5967 10.4871 26.169 10.909 26.591C11.331 27.0129 11.9033 27.25 12.5 27.25H27.5C28.0967 27.25 28.669 27.0129 29.091 26.591C29.5129 26.169 29.75 25.5967 29.75 25V14.5C29.75 13.9033 29.5129 13.331 29.091 12.909C28.669 12.4871 28.0967 12.25 27.5 12.25ZM28.25 25C28.25 25.1989 28.171 25.3897 28.0303 25.5303C27.8897 25.671 27.6989 25.75 27.5 25.75H12.5C12.3011 25.75 12.1103 25.671 11.9697 25.5303C11.829 25.3897 11.75 25.1989 11.75 25V14.5C11.75 14.3011 11.829 14.1103 11.9697 13.9697C12.1103 13.829 12.3011 13.75 12.5 13.75H27.5C27.6989 13.75 27.8897 13.829 28.0303 13.9697C28.171 14.1103 28.25 14.3011 28.25 14.5V25ZM23.75 29.5C23.75 29.6989 23.671 29.8897 23.5303 30.0303C23.3897 30.171 23.1989 30.25 23 30.25H17C16.8011 30.25 16.6103 30.171 16.4697 30.0303C16.329 29.8897 16.25 29.6989 16.25 29.5C16.25 29.3011 16.329 29.1103 16.4697 28.9697C16.6103 28.829 16.8011 28.75 17 28.75H23C23.1989 28.75 23.3897 28.829 23.5303 28.9697C23.671 29.1103 23.75 29.3011 23.75 29.5ZM23.4163 19.1256L18.9163 16.1256C18.8033 16.0502 18.6719 16.007 18.5363 16.0004C18.4006 15.9938 18.2657 16.0242 18.146 16.0883C18.0263 16.1524 17.9262 16.2478 17.8564 16.3644C17.7867 16.4809 17.7499 16.6142 17.75 16.75V22.75C17.7499 22.8858 17.7867 23.0191 17.8564 23.1356C17.9262 23.2522 18.0263 23.3476 18.146 23.4117C18.2657 23.4758 18.4006 23.5062 18.5363 23.4996C18.6719 23.493 18.8033 23.4498 18.9163 23.3744L23.4163 20.3744C23.5191 20.3059 23.6035 20.2131 23.6618 20.1042C23.7202 19.9952 23.7507 19.8736 23.7507 19.75C23.7507 19.6264 23.7202 19.5048 23.6618 19.3958C23.6035 19.2869 23.5191 19.1941 23.4163 19.1256ZM19.25 21.3484V18.1562L21.6481 19.75L19.25 21.3484Z" fill="#300787"/>
</svg>
