<svg width="9" height="5" viewBox="0 0 9 5" fill="#000" xmlns="http://www.w3.org/2000/svg">
<path d="M8.51552 0.765521L4.76552 4.51552C4.73069 4.55039 4.68934 4.57805 4.64381 4.59692C4.59829 4.61579 4.54949 4.6255 4.50021 4.6255C4.45093 4.6255 4.40213 4.61579 4.35661 4.59692C4.31108 4.57805 4.26972 4.55039 4.2349 4.51552L0.484896 0.765521C0.414531 0.695156 0.375 0.59972 0.375 0.500208C0.375 0.400697 0.414531 0.305261 0.484896 0.234896C0.555261 0.164531 0.650697 0.125 0.750208 0.125C0.84972 0.125 0.945156 0.164531 1.01552 0.234896L4.50021 3.72005L7.9849 0.234896C8.01974 0.200054 8.0611 0.172417 8.10662 0.153561C8.15214 0.134705 8.20094 0.125 8.25021 0.125C8.29948 0.125 8.34827 0.134705 8.3938 0.153561C8.43932 0.172417 8.48068 0.200054 8.51552 0.234896C8.55036 0.269737 8.578 0.3111 8.59686 0.356622C8.61571 0.402145 8.62542 0.450935 8.62542 0.500208C8.62542 0.549482 8.61571 0.598272 8.59686 0.643795C8.578 0.689317 8.55036 0.73068 8.51552 0.765521Z" fill="#000"/>
</svg>
