<svg width="10" height="11" viewBox="0 0 10 11" fill="none" xmlns="http://www.w3.org/2000/svg">
<path fill-rule="evenodd" clip-rule="evenodd" d="M0.171875 5.29999C0.171875 4.35064 0.453404 3.42263 0.980835 2.63328C1.50827 1.84392 2.25792 1.22869 3.13501 0.865392C4.01209 0.502091 4.97722 0.40702 5.90833 0.592229C6.83943 0.777438 7.69467 1.2346 8.36597 1.90589C9.03726 2.57718 9.49448 3.43245 9.67969 4.36356C9.8649 5.29467 9.76979 6.25979 9.40649 7.13688C9.04319 8.01396 8.42803 8.76362 7.63867 9.29105C6.84932 9.81848 5.92127 10.1 4.97192 10.1C3.69888 10.1 2.47793 9.5943 1.57776 8.69413C0.677584 7.79395 0.171875 6.57303 0.171875 5.29999ZM4.97192 8.181C4.80219 8.181 4.63931 8.11359 4.51929 7.99357C4.39926 7.87354 4.33191 7.71073 4.33191 7.54099V4.98002C4.33191 4.81014 4.39941 4.64722 4.51953 4.5271C4.63965 4.40699 4.80254 4.33951 4.97241 4.33951C5.14228 4.33951 5.30518 4.40699 5.42529 4.5271C5.54541 4.64722 5.61292 4.81014 5.61292 4.98002V7.54099C5.61318 7.62529 5.5968 7.70883 5.5647 7.78678C5.53259 7.86472 5.48534 7.93556 5.42578 7.99521C5.36622 8.05487 5.29542 8.10214 5.21753 8.13437C5.13963 8.1666 5.05622 8.18315 4.97192 8.18302V8.181ZM4.97192 2.41901C5.0985 2.41901 5.22215 2.45654 5.32739 2.52686C5.43264 2.59718 5.51467 2.69715 5.56311 2.81409C5.61155 2.93104 5.6243 3.05973 5.59961 3.18387C5.57491 3.30802 5.51394 3.42203 5.42444 3.51154C5.33493 3.60105 5.22083 3.66202 5.09668 3.68671C4.97253 3.71141 4.84387 3.69871 4.72693 3.65027C4.60998 3.60183 4.51002 3.5198 4.4397 3.41456C4.36937 3.30931 4.33191 3.18558 4.33191 3.059C4.33244 2.8896 4.40005 2.72735 4.52002 2.60776C4.63999 2.48817 4.80253 2.42099 4.97192 2.42099V2.41901Z" fill="#F85F5F"/>
</svg>
