<svg width="32" height="32" viewBox="0 0 32 32" fill="none" xmlns="http://www.w3.org/2000/svg">
<rect width="32" height="32" rx="6" fill="#7459AF"/>
<path d="M18.4562 15.5759C18.848 15.093 19.1484 14.5214 19.3483 13.8786C19.4686 13.4925 19.5382 13.1283 19.5778 12.8175C19.5933 12.6948 19.4975 12.5859 19.3735 12.5859C19.2697 12.5859 19.1823 12.6632 19.1696 12.766C19.1319 13.0604 19.0664 13.4058 18.9522 13.7701C18.7667 14.3608 18.4905 14.8833 18.1319 15.3238C17.6854 15.8722 17.1064 16.2956 16.4115 16.5826H16.4112C16.4098 16.5829 16.4088 16.5839 16.4071 16.5843C16.4058 16.5846 16.4041 16.5856 16.4028 16.5863C16.4011 16.5873 16.3991 16.588 16.3974 16.5893C16.3923 16.5917 16.3876 16.5943 16.3829 16.5974C16.3809 16.5984 16.3789 16.5997 16.3772 16.6011C16.3735 16.6031 16.3702 16.6058 16.3668 16.6085C16.3651 16.6098 16.3638 16.6108 16.3621 16.6125C16.3601 16.6135 16.3577 16.6158 16.3561 16.6169C16.355 16.6179 16.3537 16.6192 16.3527 16.6199C16.352 16.6209 16.3507 16.6216 16.35 16.6226C16.349 16.6232 16.3483 16.6242 16.347 16.6249C16.345 16.6269 16.3426 16.6293 16.3406 16.6313C16.3393 16.633 16.3376 16.6343 16.3366 16.636C16.3332 16.6394 16.3302 16.6431 16.3272 16.6468C16.3164 16.6609 16.307 16.6767 16.2999 16.6938C16.2973 16.6995 16.2952 16.7059 16.2936 16.7119C16.2929 16.714 16.2922 16.7156 16.2919 16.7177C16.2915 16.718 16.2915 16.7187 16.2915 16.719C16.2912 16.7203 16.2912 16.721 16.2905 16.722C16.2902 16.7227 16.2902 16.724 16.2899 16.7247C16.2895 16.7261 16.2889 16.7274 16.2889 16.7291C16.2889 16.7294 16.2889 16.7294 16.2889 16.7298C16.2885 16.7314 16.2882 16.7331 16.2882 16.7348C16.2872 16.7398 16.2865 16.7449 16.2862 16.7496C16.2855 16.7516 16.2855 16.7533 16.2855 16.7556C16.2852 16.7576 16.2852 16.76 16.2852 16.7623C16.2852 16.765 16.2852 16.7681 16.2852 16.7714V16.7718C16.2852 16.7744 16.2852 16.7768 16.2852 16.7795C16.2852 16.7812 16.2852 16.7828 16.2855 16.7849C16.2855 16.7862 16.2855 16.7876 16.2862 16.7886C16.2862 16.7909 16.2865 16.7926 16.2865 16.7946C16.2868 16.7996 16.2878 16.8047 16.2885 16.8094C16.2889 16.8111 16.2889 16.8131 16.2899 16.8148C16.2905 16.8185 16.2915 16.8222 16.2929 16.8262C16.2932 16.8282 16.2939 16.8299 16.2946 16.8319C16.2949 16.8339 16.2956 16.8363 16.2966 16.8383C16.2973 16.8406 16.2983 16.8437 16.2989 16.8464C16.2996 16.8474 16.2999 16.8484 16.3003 16.849C16.3003 16.8497 16.3006 16.8504 16.3006 16.8507C16.3006 16.8514 16.3013 16.8514 16.3013 16.8517C16.3013 16.8521 16.3016 16.8521 16.3016 16.8524C16.303 16.8554 16.304 16.8585 16.3053 16.8611C16.307 16.8652 16.309 16.8692 16.3114 16.8729C16.313 16.8763 16.3151 16.8796 16.3171 16.883C16.3191 16.886 16.3208 16.889 16.3231 16.8921C16.3231 16.8924 16.3235 16.8924 16.3235 16.8927C16.3248 16.8947 16.3265 16.8964 16.3275 16.8981C16.3369 16.9099 16.347 16.9213 16.3591 16.931C16.3621 16.9334 16.3651 16.9357 16.3678 16.9381C16.3739 16.9425 16.3796 16.9465 16.386 16.9502C16.387 16.9509 16.3876 16.9512 16.388 16.9515C16.391 16.9532 16.3944 16.9549 16.3974 16.9562C16.4021 16.9586 16.4071 16.9609 16.4122 16.963C16.4125 16.963 16.4128 16.963 16.4132 16.9633C17.1077 17.2506 17.6867 17.6736 18.1326 18.222C18.4915 18.6626 18.7673 19.1851 18.9532 19.7758C19.137 20.3615 19.1951 20.9008 19.2109 21.2536C19.2159 21.3635 19.3063 21.4498 19.4165 21.4498C19.5338 21.4498 19.6272 21.3524 19.6222 21.2358C19.6054 20.8588 19.5439 20.2923 19.3493 19.6676C19.1487 19.0244 18.8487 18.4532 18.4569 17.9707C18.0567 17.4767 17.5607 17.0755 16.9774 16.7741C17.5593 16.4707 18.0553 16.0695 18.4562 15.5759Z" fill="white"/>
<path d="M13.5718 17.971C13.1796 18.4542 12.8799 19.0251 12.6793 19.6679C12.4851 20.2926 12.4232 20.8591 12.4064 21.2361C12.4014 21.3527 12.4945 21.4502 12.6118 21.4502C12.7213 21.4502 12.812 21.3642 12.8171 21.2543C12.8329 20.9045 12.8903 20.3722 13.0714 19.7899C13.2562 19.1965 13.5318 18.6716 13.8907 18.2291C14.3369 17.679 14.9159 17.2539 15.6111 16.966C15.6128 16.965 15.6144 16.9643 15.6165 16.9636C15.6215 16.9616 15.6262 16.9596 15.6312 16.9569C15.6343 16.9559 15.6376 16.9535 15.6407 16.9525C15.6413 16.9519 15.6417 16.9515 15.6427 16.9512C15.6491 16.9475 15.6551 16.9431 15.6608 16.9391C15.6642 16.9367 15.6669 16.9344 15.6699 16.9317C15.6816 16.9223 15.6921 16.9112 15.7015 16.8991C15.7028 16.8974 15.7038 16.8957 15.7055 16.8937C15.7055 16.8937 15.7062 16.8931 15.7062 16.8927C15.7082 16.8897 15.7099 16.887 15.7119 16.884C15.7139 16.8806 15.7163 16.8773 15.7179 16.8739C15.72 16.8702 15.722 16.8662 15.7236 16.8621C15.725 16.8591 15.7267 16.8561 15.7273 16.8534C15.7273 16.8534 15.7273 16.8531 15.728 16.8524C15.728 16.8521 15.728 16.8521 15.7284 16.8517C15.7284 16.8514 15.7287 16.8504 15.7287 16.8501C15.729 16.8487 15.7297 16.848 15.73 16.847C15.7307 16.8447 15.7321 16.842 15.7324 16.839C15.7334 16.8369 15.7337 16.8349 15.7347 16.8329C15.7354 16.8306 15.7357 16.8289 15.7364 16.8269C15.7371 16.8232 15.7384 16.8195 15.7391 16.8154C15.7398 16.8138 15.7401 16.8117 15.7405 16.8101C15.7415 16.805 15.7421 16.8 15.7425 16.7953C15.7431 16.7933 15.7431 16.7916 15.7431 16.7896C15.7431 16.7882 15.7435 16.7869 15.7435 16.7859C15.7435 16.7842 15.7435 16.7825 15.7435 16.7802C15.7435 16.7778 15.7435 16.7758 15.7435 16.7728V16.7724C15.7435 16.7694 15.7435 16.766 15.7431 16.763C15.7431 16.761 15.7431 16.7583 15.7425 16.7563C15.7425 16.7543 15.7421 16.7526 15.7421 16.7506C15.7418 16.7455 15.7408 16.7408 15.7401 16.7358C15.7398 16.7341 15.7398 16.7324 15.7391 16.7308C15.7391 16.7304 15.7391 16.7304 15.7391 16.7298C15.7391 16.7287 15.7388 16.7274 15.7384 16.7257C15.7384 16.7254 15.7384 16.7254 15.7384 16.7247C15.7381 16.7224 15.7371 16.7197 15.7364 16.7173C15.7357 16.7153 15.7351 16.7126 15.7341 16.7103C15.7341 16.7096 15.7337 16.7093 15.7337 16.7089C15.7331 16.7069 15.7321 16.7042 15.7314 16.7022C15.7304 16.6995 15.729 16.6968 15.7284 16.6941C15.7263 16.6884 15.7233 16.6824 15.72 16.6767C15.7183 16.6736 15.7166 16.6706 15.7149 16.6676C15.7129 16.6642 15.7112 16.6615 15.7089 16.6585C15.7082 16.6572 15.7068 16.6555 15.7062 16.6542C15.6984 16.6434 15.69 16.6337 15.6803 16.6246C15.6786 16.6229 15.6766 16.6212 15.6749 16.6195C15.6749 16.6195 15.6749 16.6195 15.6749 16.6192C15.6716 16.6165 15.6685 16.6135 15.6652 16.6111C15.6652 16.6111 15.6652 16.6111 15.6648 16.6111C15.6618 16.6091 15.6591 16.6064 15.6561 16.6044C15.6484 16.599 15.641 16.5943 15.6329 16.59C15.6309 16.5893 15.6296 16.5883 15.6275 16.5876C15.6242 16.5859 15.6205 16.5843 15.6171 16.5826C14.9219 16.2956 14.3429 15.8722 13.8964 15.3238C13.5375 14.8833 13.2616 14.3608 13.0758 13.7701C12.9616 13.4065 12.896 13.0604 12.8587 12.766C12.8456 12.6632 12.7583 12.5859 12.6548 12.5859C12.5308 12.5859 12.435 12.6945 12.4505 12.8175C12.4901 13.1279 12.5593 13.4922 12.68 13.8786C12.8802 14.5218 13.1806 15.093 13.5721 15.5759C13.9723 16.0695 14.4686 16.4707 15.0516 16.7724C14.4686 17.0759 13.9723 17.4771 13.5718 17.971Z" fill="white"/>
<path d="M12.0262 21.9168C11.9328 22.0106 11.875 22.1396 11.875 22.2821C11.875 22.5674 12.1062 22.7986 12.3918 22.7986H19.6089C19.7517 22.7986 19.8804 22.7408 19.9741 22.6473C20.0679 22.5539 20.1253 22.4249 20.1253 22.2821C20.1253 22.0025 19.9036 21.775 19.626 21.7663L12.8118 21.7656H12.3915C12.249 21.7656 12.1196 21.8234 12.0262 21.9168Z" fill="white"/>
<path d="M19.6263 11.235L12.8122 11.2344H12.3918C12.249 11.2344 12.12 11.2925 12.0262 11.3856C11.9325 11.4793 11.875 11.608 11.875 11.7508C11.875 12.0361 12.1062 12.2673 12.3918 12.2673H19.6092C19.752 12.2673 19.8807 12.2095 19.9745 12.1161C20.0682 12.0227 20.1257 11.8936 20.1257 11.7508C20.1257 11.4716 19.9039 11.2441 19.6263 11.235Z" fill="white"/>
<path d="M13.6536 14.4479C13.984 15.0981 14.5696 15.8149 15.6066 16.2826C15.7629 16.3532 15.8633 16.5084 15.8633 16.6798V18.9116C15.8633 19.1116 15.7276 19.2863 15.5337 19.335C13.2743 19.8992 13.2266 21.1005 13.2266 21.1005H18.7783C18.7783 21.1005 18.7212 19.9036 16.4725 19.338C16.2786 19.2893 16.1436 19.1146 16.1436 18.915V16.6841C16.1436 16.5124 16.2444 16.3565 16.401 16.2863C17.5834 15.7557 18.1778 14.9005 18.4766 14.1875H13.5327C13.5683 14.2728 13.6086 14.3599 13.6536 14.4479Z" fill="white"/>
<mask id="mask0_10336_27553" style="mask-type:luminance" maskUnits="userSpaceOnUse" x="6" y="5" width="20" height="22">
<path d="M6.45312 5.57812H25.5499V26.3523H6.45312V5.57812Z" fill="white"/>
</mask>
<g mask="url(#mask0_10336_27553)">
<path d="M23.2206 10.5627C23.0832 10.4041 22.8923 10.309 22.683 10.2939C22.4733 10.2788 22.271 10.3463 22.1124 10.4837C22.0331 10.5526 21.9696 10.6343 21.9239 10.7253C21.8785 10.8164 21.8506 10.9165 21.8432 11.021C21.8281 11.2304 21.8957 11.433 22.0331 11.5913C23.2881 13.0389 23.9797 14.8923 23.9797 16.811C23.9797 21.2079 20.4007 24.7848 16.0015 24.7848C11.6027 24.7848 8.02436 21.2079 8.02436 16.811C8.02436 12.4145 11.6033 8.83724 16.0025 8.83724H16.1534V9.86143C16.1534 10.0903 16.2717 10.2952 16.4699 10.4098C16.6682 10.5241 16.9051 10.5241 17.1033 10.4098L20.2377 8.60068C20.436 8.4861 20.5543 8.28146 20.5543 8.05229C20.5543 7.82346 20.436 7.61849 20.2377 7.50424L17.1033 5.69477C16.9051 5.58119 16.6689 5.58052 16.4703 5.6951C16.272 5.81002 16.1537 6.01466 16.1537 6.24315V7.26701H16.0025C13.4518 7.26701 11.0536 8.25995 9.25017 10.0624C7.44674 11.8648 6.45312 14.262 6.45312 16.811C6.45312 19.3604 7.44674 21.7573 9.25017 23.5597C11.0536 25.3621 13.4518 26.355 16.0025 26.355C18.5533 26.355 20.9514 25.3621 22.7549 23.5597C24.5583 21.7569 25.5516 19.3601 25.5516 16.811C25.5516 14.515 24.724 12.2956 23.2206 10.5627Z" fill="white"/>
</g>
</svg>
