<svg width="16" height="18" viewBox="0 0 16 18" fill="none" xmlns="http://www.w3.org/2000/svg">
<path d="M14.125 0.875H4.125C3.79348 0.875 3.47554 1.0067 3.24112 1.24112C3.0067 1.47554 2.875 1.79348 2.875 2.125V4H1.625C1.29348 4 0.975537 4.1317 0.741116 4.36612C0.506696 4.60054 0.375 4.91848 0.375 5.25V12.75C0.375 13.0815 0.506696 13.3995 0.741116 13.6339C0.975537 13.8683 1.29348 14 1.625 14H2.875V15.875C2.875 16.2065 3.0067 16.5245 3.24112 16.7589C3.47554 16.9933 3.79348 17.125 4.125 17.125H14.125C14.4565 17.125 14.7745 16.9933 15.0089 16.7589C15.2433 16.5245 15.375 16.2065 15.375 15.875V2.125C15.375 1.79348 15.2433 1.47554 15.0089 1.24112C14.7745 1.0067 14.4565 0.875 14.125 0.875ZM11 7.125H14.125V10.875H11V7.125ZM14.125 5.875H11V5.25C11 4.91848 10.8683 4.60054 10.6339 4.36612C10.3995 4.1317 10.0815 4 9.75 4V2.125H14.125V5.875ZM4.125 2.125H8.5V4H4.125V2.125ZM1.625 5.25H9.75V11.4867C9.75 11.4914 9.75 11.4953 9.75 11.5C9.75 11.5047 9.75 11.5086 9.75 11.5133V12.75H1.625V5.25ZM4.125 14H8.5V15.875H4.125V14ZM9.75 15.875V14C10.0815 14 10.3995 13.8683 10.6339 13.6339C10.8683 13.3995 11 13.0815 11 12.75V12.125H14.125V15.875H9.75ZM3.64453 10.475L4.87422 9L3.64453 7.525C3.53844 7.39757 3.48732 7.23322 3.50241 7.0681C3.51751 6.90298 3.59757 6.75062 3.725 6.64453C3.85243 6.53844 4.01678 6.48732 4.1819 6.50241C4.34702 6.51751 4.49938 6.59757 4.60547 6.725L5.6875 8.02344L6.76953 6.725C6.82206 6.6619 6.8865 6.60977 6.95918 6.57158C7.03185 6.53339 7.11134 6.50989 7.1931 6.50241C7.27486 6.49494 7.35729 6.50365 7.43568 6.52803C7.51408 6.55242 7.5869 6.592 7.65 6.64453C7.7131 6.69706 7.76523 6.7615 7.80342 6.83418C7.84161 6.90685 7.86511 6.98634 7.87259 7.0681C7.88006 7.14986 7.87135 7.23229 7.84697 7.31068C7.82258 7.38908 7.783 7.4619 7.73047 7.525L6.50078 9L7.73047 10.475C7.83656 10.6024 7.88768 10.7668 7.87259 10.9319C7.85749 11.097 7.77743 11.2494 7.65 11.3555C7.52257 11.4616 7.35822 11.5127 7.1931 11.4976C7.02798 11.4825 6.87562 11.4024 6.76953 11.275L5.6875 9.97656L4.60547 11.275C4.49938 11.4024 4.34702 11.4825 4.1819 11.4976C4.01678 11.5127 3.85243 11.4616 3.725 11.3555C3.59757 11.2494 3.51751 11.097 3.50241 10.9319C3.48732 10.7668 3.53844 10.6024 3.64453 10.475Z" fill="#F6F6F7"/>
</svg>
