<svg width="23" height="23" viewBox="0 0 23 23" fill="none" xmlns="http://www.w3.org/2000/svg">
<path d="M18.6277 6.68577H17.3637V3.92856C17.3637 3.74575 17.2911 3.57042 17.1618 3.44115C17.0326 3.31188 16.8572 3.23926 16.6744 3.23926H5.64558C5.46277 3.23926 5.28744 3.31188 5.15817 3.44115C5.0289 3.57042 4.95628 3.74575 4.95628 3.92856V6.68577H3.69227C2.48858 6.68577 1.50977 7.61375 1.50977 8.75368V15.6467C1.50977 15.8295 1.58239 16.0048 1.71166 16.1341C1.84093 16.2634 2.01625 16.336 2.19907 16.336H4.95628V19.0932C4.95628 19.276 5.0289 19.4514 5.15817 19.5806C5.28744 19.7099 5.46277 19.7825 5.64558 19.7825H16.6744C16.8572 19.7825 17.0326 19.7099 17.1618 19.5806C17.2911 19.4514 17.3637 19.276 17.3637 19.0932V16.336H20.1209C20.3038 16.336 20.4791 16.2634 20.6083 16.1341C20.7376 16.0048 20.8102 15.8295 20.8102 15.6467V8.75368C20.8102 7.61375 19.8314 6.68577 18.6277 6.68577ZM6.33488 4.61786H15.9851V6.68577H6.33488V4.61786ZM15.9851 18.4039H6.33488V14.2681H15.9851V18.4039ZM19.4316 14.9574H17.3637V13.5788C17.3637 13.396 17.2911 13.2207 17.1618 13.0914C17.0326 12.9621 16.8572 12.8895 16.6744 12.8895H5.64558C5.46277 12.8895 5.28744 12.9621 5.15817 13.0914C5.0289 13.2207 4.95628 13.396 4.95628 13.5788V14.9574H2.88837V8.75368C2.88837 8.3737 3.24939 8.06438 3.69227 8.06438H18.6277C19.0706 8.06438 19.4316 8.3737 19.4316 8.75368V14.9574ZM17.3637 10.4769C17.3637 10.6814 17.3031 10.8813 17.1895 11.0514C17.0759 11.2214 16.9144 11.3539 16.7254 11.4322C16.5365 11.5104 16.3286 11.5309 16.1281 11.491C15.9275 11.4511 15.7433 11.3527 15.5987 11.2081C15.4541 11.0635 15.3556 10.8792 15.3157 10.6787C15.2758 10.4781 15.2963 10.2702 15.3745 10.0813C15.4528 9.89233 15.5853 9.73085 15.7553 9.61723C15.9254 9.50362 16.1253 9.44298 16.3298 9.44298C16.604 9.44298 16.867 9.55192 17.0609 9.74582C17.2548 9.93972 17.3637 10.2027 17.3637 10.4769Z" fill="#59399F"/>
</svg>
