<svg width="32" height="32" viewBox="0 0 32 32" fill="none" xmlns="http://www.w3.org/2000/svg">
<rect width="32" height="32" rx="6" fill="#7459AF"/>
<path d="M11.1925 16.9388L10.1821 16.5296C10.1821 16.5282 10.1821 16.5282 10.1821 16.5282C10.1499 16.1972 10.1499 15.8636 10.1942 15.5205L11.1925 15.122C11.295 15.0803 11.373 14.9929 11.3985 14.8851C11.5118 14.4264 11.6946 13.9862 11.9409 13.5786C11.9987 13.4829 12.0057 13.3673 11.9624 13.2648L11.54 12.2584C11.7322 12.0255 11.9624 11.794 12.2597 11.5558L13.249 11.9772C13.3511 12.0215 13.4671 12.0134 13.5625 11.9556C13.9718 11.7093 14.4103 11.5262 14.8693 11.4133C14.9768 11.3874 15.0659 11.3095 15.1062 11.2073L15.5178 10.1966C15.8249 10.1657 16.1694 10.1657 16.5232 10.2087L16.9231 11.2073C16.9634 11.3095 17.0521 11.3874 17.1599 11.4133C17.6186 11.5262 18.0575 11.7093 18.4664 11.9556C18.5608 12.0134 18.6778 12.0215 18.7802 11.9772L19.7866 11.5544C20.0168 11.7443 20.2483 11.9772 20.4879 12.2759L20.0665 13.2648C20.0235 13.3673 20.0302 13.4829 20.088 13.5786C20.3343 13.9862 20.5175 14.4264 20.6304 14.8851C20.6559 14.9929 20.7342 15.0803 20.8364 15.122L21.8471 15.5326C21.8794 15.8636 21.8794 16.1972 21.835 16.5403L20.8364 16.9388C20.7342 16.9805 20.6559 17.0679 20.6304 17.1757C20.5175 17.6347 20.3343 18.0746 20.088 18.4825C20.0302 18.578 20.0235 18.6936 20.0665 18.796L20.4892 19.8028C20.2981 20.0339 20.0665 20.2655 19.7692 20.505L18.7802 20.084C18.6778 20.0393 18.5608 20.0474 18.4664 20.1055C18.0575 20.3518 17.6186 20.5346 17.1599 20.6479C17.0521 20.6734 16.9634 20.7513 16.9231 20.8535L16.5111 21.8643C16.2043 21.8952 15.8599 21.8952 15.5057 21.8522L15.1062 20.8535C15.0659 20.7513 14.9768 20.6734 14.8693 20.6479C14.4103 20.5346 13.9718 20.3518 13.5625 20.1055C13.5074 20.0719 13.4469 20.0554 13.3851 20.0554C13.339 20.0554 13.292 20.0649 13.249 20.084L12.2423 20.5064C12.0124 20.3165 11.7809 20.084 11.5413 19.7849L11.9624 18.796C12.0057 18.6936 11.9987 18.578 11.9409 18.4825C11.6946 18.0746 11.5118 17.6347 11.3985 17.1757C11.373 17.0679 11.295 16.9805 11.1925 16.9388ZM11.0124 20.2466C11.2843 20.5628 11.5427 20.8212 11.7997 21.0339C12 21.2063 12.2816 21.2466 12.5316 21.1388L13.3609 20.785C13.7322 20.9936 14.125 21.1566 14.5316 21.2708L14.8653 22.1092C14.9647 22.3542 15.1949 22.5279 15.4519 22.5507C15.6458 22.5669 15.8411 22.5763 16.0292 22.5763C16.2191 22.5763 16.4036 22.5669 16.5756 22.5507C16.834 22.5279 17.0642 22.3542 17.164 22.1079L17.4976 21.2708C17.9039 21.1566 18.297 20.9936 18.6683 20.785L19.4973 21.1388C19.7476 21.2466 20.0289 21.2063 20.2295 21.0339C20.5457 20.7634 20.8041 20.5037 21.0168 20.2466C21.1888 20.046 21.2295 19.7648 21.1216 19.5145L20.7678 18.6841C20.9751 18.3142 21.1378 17.9214 21.2537 17.5148L22.0907 17.1798C22.337 17.08 22.5091 16.8501 22.5319 16.5971C22.5699 16.2201 22.5699 15.8407 22.5319 15.4681C22.5091 15.211 22.337 14.9808 22.0907 14.8811L21.2537 14.546C21.1378 14.1398 20.9751 13.7466 20.7678 13.3767L21.1216 12.5464C21.2295 12.296 21.1888 12.0148 21.0168 11.8142C20.745 11.498 20.4866 11.2396 20.2295 11.0269C20.0289 10.8545 19.7476 10.8142 19.4973 10.922L18.6683 11.2759C18.297 11.0672 17.9039 10.9046 17.4976 10.79L17.164 9.95162C17.0642 9.70666 16.834 9.53327 16.5769 9.51008C16.1882 9.47514 15.7981 9.47648 15.4533 9.51008C15.1949 9.53327 14.9647 9.70666 14.8653 9.95296L14.5316 10.79C14.125 10.9046 13.7322 11.0672 13.3609 11.2759L12.5316 10.922C12.2802 10.8142 12 10.8545 11.7997 11.0269C11.4849 11.2974 11.2265 11.5558 11.0124 11.8142C10.8401 12.0148 10.7997 12.296 10.9073 12.5464L11.2614 13.3767C11.0541 13.7466 10.8911 14.1398 10.7755 14.546L9.93851 14.8811C9.6922 14.9808 9.51983 15.211 9.49698 15.4637C9.45934 15.8394 9.45934 16.2188 9.49698 16.5944C9.51983 16.8515 9.69355 17.08 9.93851 17.1798L10.7755 17.5148C10.8911 17.9214 11.0541 18.3142 11.2614 18.6841L10.9073 19.5145C10.7997 19.7648 10.8401 20.046 11.0124 20.2466Z" fill="white"/>
<path d="M12.0898 7.20528C12.1772 7.1663 12.2444 7.09372 12.277 7.00333C12.3079 6.91327 12.2998 6.81381 12.2565 6.73014L12.1032 6.43814C12.0979 6.42873 12.0885 6.4126 12.1328 6.38706L13.4624 6.81247C13.4826 6.81784 13.4961 6.84473 13.4907 6.86489L13.0733 8.21872C13.0545 8.22006 13.0411 8.20528 13.037 8.19721L12.9094 7.95091C12.826 7.79197 12.6335 7.72342 12.4678 7.79466C9.37811 9.12833 7.30687 12.0299 7.06191 15.3672C7.04847 15.5463 6.89793 15.6861 6.71883 15.6861C6.62071 15.6861 6.52898 15.6471 6.46178 15.5746C6.39592 15.5033 6.36231 15.4102 6.37038 15.3135C6.63147 11.7607 8.82367 8.65454 12.0898 7.20528ZM6.71883 16.3753C7.2558 16.3753 7.70942 15.9553 7.7484 15.417C7.96782 12.4428 9.75882 9.8417 12.4517 8.55911C12.5972 8.79735 12.861 8.9331 13.1409 8.90487C13.4302 8.87665 13.6738 8.67739 13.7571 8.39479L14.1513 7.05978C14.2632 6.67772 14.0465 6.27147 13.6698 6.15555L12.3428 5.73048C12.0629 5.64009 11.7629 5.72745 11.5743 5.95225C11.3926 6.17167 11.3563 6.47443 11.4789 6.73014C8.16272 8.34103 5.95304 11.5789 5.68254 15.2637C5.66104 15.5477 5.76184 15.833 5.95707 16.043C6.15364 16.254 6.43086 16.3753 6.71883 16.3753Z" fill="white"/>
<mask id="mask0_10336_27513" style="mask-type:luminance" maskUnits="userSpaceOnUse" x="5" y="17" width="12" height="10">
<path d="M5.63281 17.8516H16.3855V26.3865H5.63281V17.8516Z" fill="white"/>
</mask>
<g mask="url(#mask0_10336_27513)">
<path d="M6.79604 18.5862C6.80142 18.566 6.8283 18.5512 6.84846 18.5579L8.20229 18.9749C8.20498 18.9981 8.18885 19.0075 8.18079 19.0116L7.93583 19.1393C7.77588 19.2226 7.70733 19.4151 7.77857 19.5808C9.11224 22.6705 12.0138 24.7417 15.3512 24.9867C15.5303 25.0001 15.67 25.1507 15.67 25.3298C15.67 25.4279 15.6311 25.5196 15.5585 25.5868C15.4869 25.6527 15.3968 25.6876 15.2974 25.6782C11.7446 25.4172 8.63711 23.2249 7.18919 19.9588C7.15021 19.8715 7.07729 19.8042 6.98724 19.7717C6.94961 19.7596 6.91197 19.7528 6.87434 19.7528C6.81889 19.7528 6.76379 19.7663 6.71405 19.7918L6.42205 19.9454C6.41264 19.9508 6.39651 19.9602 6.37098 19.9158L6.79604 18.5862ZM6.71405 20.5697C8.32494 23.8859 11.5628 26.0956 15.2473 26.3661C15.2718 26.3674 15.2974 26.3688 15.3216 26.3688C15.5813 26.3688 15.8343 26.2703 16.0266 26.0915C16.2379 25.895 16.3592 25.6178 16.3592 25.3298C16.3592 24.7928 15.9392 24.3392 15.4009 24.3002C12.4268 24.0808 9.82528 22.2898 8.54302 19.5969C8.78126 19.4514 8.91567 19.1863 8.88879 18.9077C8.86056 18.6184 8.6613 18.3748 8.3787 18.2915L7.04369 17.897C6.66163 17.7841 6.25505 18.0022 6.13811 18.3788L5.71405 19.7058C5.62534 19.9844 5.71137 20.2858 5.93751 20.4743C6.15559 20.6561 6.45834 20.6924 6.71405 20.5697Z" fill="white"/>
</g>
<mask id="mask1_10336_27513" style="mask-type:luminance" maskUnits="userSpaceOnUse" x="17" y="15" width="10" height="12">
<path d="M17.7617 15.6094H26.3639V26.3809H17.7617V15.6094Z" fill="white"/>
</mask>
<g mask="url(#mask1_10336_27513)">
<path d="M19.9388 24.8575C19.8514 24.8965 19.7839 24.9694 19.7516 25.0595C19.7207 25.1495 19.7288 25.248 19.7718 25.3327L19.9254 25.6247C19.9307 25.6341 19.9401 25.6502 19.8958 25.6757L18.5662 25.2507C18.546 25.2453 18.5326 25.2184 18.5379 25.1979L18.9549 23.8441C18.9737 23.8427 18.9872 23.8579 18.9912 23.8659L19.1192 24.1106C19.2026 24.2708 19.3965 24.3394 19.5604 24.2681C22.6505 22.9345 24.7217 20.0329 24.9664 16.6956C24.9798 16.5165 25.1307 16.3767 25.3098 16.3767C25.4079 16.3767 25.4993 16.4157 25.5668 16.4882C25.6327 16.5598 25.6663 16.6526 25.6582 16.7493C25.3971 20.3021 23.2063 23.4096 19.9388 24.8575ZM26.3461 16.7991C26.3662 16.5151 26.2664 16.2298 26.0715 16.0202C25.875 15.8088 25.5977 15.6875 25.3098 15.6875C24.7715 15.6875 24.3192 16.1075 24.2802 16.6458C24.0608 19.62 22.2694 22.2211 19.5766 23.5037C19.4314 23.2655 19.1676 23.1297 18.8877 23.1579C18.5984 23.1862 18.3548 23.3854 18.2715 23.668L17.877 25.003C17.7654 25.3851 17.9821 25.7917 18.3588 25.9086L19.6858 26.3327C19.7584 26.3555 19.8323 26.3663 19.9065 26.3663C20.1149 26.3663 20.3155 26.2759 20.4543 26.1092C20.6357 25.8911 20.6723 25.5884 20.5497 25.3327C23.8655 23.7218 26.0756 20.4839 26.3461 16.7991Z" fill="white"/>
</g>
<path d="M24.8419 12.1057C24.8809 12.1931 24.9535 12.2606 25.0439 12.2929C25.1339 12.3238 25.2334 12.3171 25.317 12.2727L25.609 12.1192C25.6184 12.1138 25.6346 12.1044 25.6601 12.1487L25.2347 13.4784C25.2293 13.4985 25.2011 13.5133 25.1823 13.5066L23.8285 13.0896C23.8258 13.0667 23.8419 13.0573 23.85 13.0533L24.0963 12.9253C24.2552 12.8419 24.3238 12.6494 24.2525 12.4837C22.9189 9.39403 20.0173 7.32279 16.6799 7.07783C16.5008 7.06439 16.3611 6.91385 16.3611 6.73475C16.3611 6.63663 16.4 6.54524 16.4726 6.4777C16.5439 6.41184 16.6369 6.37823 16.7337 6.3863C20.2865 6.64739 23.3926 8.83825 24.8419 12.1057ZM16.0042 5.97299C15.7928 6.16956 15.6719 6.44678 15.6719 6.73475C15.6719 7.27306 16.0919 7.72534 16.6302 7.76432C19.6043 7.98374 22.2055 9.77474 23.4881 12.4676C23.2498 12.6131 23.1154 12.8782 23.1423 13.1568C23.1705 13.4461 23.3698 13.6897 23.6524 13.7731L24.9871 14.1675C25.0559 14.1877 25.1245 14.1971 25.193 14.1971C25.5052 14.1971 25.7959 13.9952 25.8916 13.6857L26.3167 12.3587C26.4057 12.0802 26.3194 11.7788 26.0949 11.5903C25.8742 11.4071 25.5727 11.3722 25.317 11.4948C23.7061 8.17897 20.4682 5.96896 16.7834 5.69846C16.4941 5.67561 16.2142 5.7781 16.0042 5.97299Z" fill="white"/>
<path d="M14.7392 18.0018C14.8037 18.0663 14.8911 18.1026 14.9828 18.1026C14.9895 18.1026 14.9949 18.1026 15.0016 18.1013C15.0998 18.0959 15.1898 18.0502 15.2516 17.9736L18.008 14.5283C18.1263 14.3802 18.1021 14.1638 17.9539 14.0438C17.8061 13.9255 17.5893 13.9497 17.4697 14.0976L14.9543 17.2427L14.5373 16.8254C14.4025 16.691 14.1848 16.691 14.05 16.8254C13.9156 16.9601 13.9156 17.1782 14.05 17.3126L14.7392 18.0018Z" fill="white"/>
</svg>
