<svg width="32" height="32" viewBox="0 0 32 32" fill="none" xmlns="http://www.w3.org/2000/svg">
<rect width="32" height="32" rx="6" fill="#7459AF"/>
<path d="M13.5415 15.5759C13.1494 15.093 12.849 14.5214 12.6491 13.8786C12.5291 13.4925 12.4592 13.1283 12.4199 12.8175C12.4041 12.6948 12.5002 12.5859 12.6239 12.5859C12.7277 12.5859 12.815 12.6632 12.8282 12.766C12.8654 13.0604 12.931 13.4058 13.0452 13.7701C13.231 14.3608 13.5069 14.8833 13.8658 15.3238C14.3124 15.8722 14.891 16.2956 15.5859 16.5826H15.5862C15.5876 16.5829 15.5889 16.5839 15.5906 16.5843C15.5919 16.5846 15.5936 16.5856 15.5946 16.5863C15.5963 16.5873 15.5986 16.588 15.6003 16.5893C15.6054 16.5917 15.6097 16.5943 15.6144 16.5974C15.6165 16.5984 15.6188 16.5997 15.6205 16.6011C15.6242 16.6031 15.6275 16.6058 15.6309 16.6085C15.6326 16.6098 15.6339 16.6108 15.6356 16.6125C15.6376 16.6135 15.6396 16.6158 15.6413 16.6169C15.6427 16.6179 15.644 16.6192 15.6447 16.6199C15.6457 16.6209 15.6467 16.6216 15.6477 16.6226C15.6484 16.6232 15.6494 16.6242 15.6507 16.6249C15.6527 16.6269 15.6548 16.6293 15.6568 16.6313C15.6581 16.633 15.6598 16.6343 15.6611 16.636C15.6645 16.6394 15.6675 16.6431 15.6702 16.6468C15.6813 16.6609 15.6904 16.6767 15.6978 16.6938C15.7001 16.6995 15.7021 16.7059 15.7038 16.7119C15.7048 16.714 15.7052 16.7156 15.7055 16.7177C15.7062 16.718 15.7062 16.7187 15.7062 16.719C15.7065 16.7203 15.7065 16.721 15.7068 16.722C15.7072 16.7227 15.7072 16.724 15.7079 16.7247C15.7082 16.7261 15.7085 16.7274 15.7085 16.7291C15.7085 16.7294 15.7085 16.7294 15.7085 16.7298C15.7089 16.7314 15.7095 16.7331 15.7095 16.7348C15.7102 16.7398 15.7112 16.7449 15.7116 16.7496C15.7119 16.7516 15.7119 16.7533 15.7119 16.7556C15.7122 16.7576 15.7122 16.76 15.7122 16.7623C15.7122 16.765 15.7122 16.7681 15.7122 16.7714V16.7718C15.7122 16.7744 15.7122 16.7768 15.7122 16.7795C15.7122 16.7812 15.7122 16.7828 15.7119 16.7849C15.7119 16.7862 15.7119 16.7876 15.7116 16.7886C15.7116 16.7909 15.7112 16.7926 15.7112 16.7946C15.7105 16.7996 15.7099 16.8047 15.7089 16.8094C15.7085 16.8111 15.7085 16.8131 15.7079 16.8148C15.7068 16.8185 15.7062 16.8222 15.7048 16.8262C15.7045 16.8282 15.7035 16.8299 15.7032 16.8319C15.7028 16.8339 15.7018 16.8363 15.7011 16.8383C15.7001 16.8406 15.6995 16.8437 15.6984 16.8464C15.6981 16.8474 15.6978 16.8484 15.6971 16.849C15.6971 16.8497 15.6968 16.8504 15.6968 16.8507C15.6968 16.8514 15.6964 16.8514 15.6964 16.8517C15.6964 16.8521 15.6961 16.8521 15.6961 16.8524C15.6948 16.8554 15.6934 16.8585 15.6921 16.8611C15.6904 16.8652 15.6884 16.8692 15.6864 16.8729C15.6847 16.8763 15.6827 16.8796 15.6803 16.883C15.6783 16.886 15.6766 16.889 15.6746 16.8921C15.6746 16.8924 15.6743 16.8924 15.6743 16.8927C15.6729 16.8947 15.6712 16.8964 15.6699 16.8981C15.6608 16.9099 15.6507 16.9213 15.6383 16.931C15.6356 16.9334 15.6326 16.9357 15.6296 16.9381C15.6239 16.9425 15.6178 16.9465 15.6114 16.9502C15.6107 16.9509 15.6097 16.9512 15.6094 16.9515C15.6064 16.9532 15.603 16.9549 15.6003 16.9562C15.5956 16.9586 15.5906 16.9609 15.5855 16.963C15.5852 16.963 15.5845 16.963 15.5842 16.9633C14.89 17.2506 14.311 17.6736 13.8648 18.222C13.5062 18.6626 13.23 19.1851 13.0445 19.7758C12.8604 20.3615 12.8026 20.9008 12.7865 21.2536C12.7814 21.3635 12.6911 21.4498 12.5812 21.4498C12.4639 21.4498 12.3702 21.3524 12.3752 21.2358C12.392 20.8588 12.4538 20.2923 12.6484 19.6676C12.8486 19.0244 13.1491 18.4532 13.5405 17.9707C13.9411 17.4767 14.437 17.0755 15.02 16.7741C14.4384 16.4707 13.9421 16.0695 13.5415 15.5759Z" fill="white"/>
<path d="M18.4256 17.971C18.8174 18.4542 19.1175 19.0251 19.3178 19.6679C19.5123 20.2926 19.5741 20.8591 19.5909 21.2361C19.596 21.3527 19.5026 21.4502 19.3856 21.4502C19.2757 21.4502 19.185 21.3642 19.18 21.2543C19.1645 20.9045 19.1071 20.3722 18.9259 19.7899C18.7411 19.1965 18.4656 18.6716 18.1067 18.2291C17.6602 17.679 17.0812 17.2539 16.386 16.966C16.3843 16.965 16.3826 16.9643 16.3806 16.9636C16.3755 16.9616 16.3708 16.9596 16.3658 16.9569C16.3631 16.9559 16.3598 16.9535 16.3567 16.9525C16.3557 16.9519 16.3554 16.9515 16.3547 16.9512C16.3483 16.9475 16.3419 16.9431 16.3366 16.9391C16.3332 16.9367 16.3302 16.9344 16.3272 16.9317C16.3154 16.9223 16.305 16.9112 16.2959 16.8991C16.2946 16.8974 16.2932 16.8957 16.2915 16.8937C16.2915 16.8937 16.2912 16.8931 16.2912 16.8927C16.2892 16.8897 16.2875 16.887 16.2852 16.884C16.2831 16.8806 16.2811 16.8773 16.2794 16.8739C16.2774 16.8702 16.2751 16.8662 16.2734 16.8621C16.2724 16.8591 16.2707 16.8561 16.2697 16.8534C16.2697 16.8534 16.2697 16.8531 16.2694 16.8524C16.2694 16.8521 16.2694 16.8521 16.269 16.8517C16.269 16.8514 16.2684 16.8504 16.2684 16.8501C16.268 16.8487 16.2677 16.848 16.2673 16.847C16.2663 16.8447 16.265 16.842 16.2647 16.839C16.264 16.8369 16.2633 16.8349 16.2626 16.8329C16.2616 16.8306 16.2613 16.8289 16.261 16.8269C16.26 16.8232 16.2589 16.8195 16.2579 16.8154C16.2576 16.8138 16.2573 16.8117 16.2566 16.8101C16.2559 16.805 16.2549 16.8 16.2546 16.7953C16.2542 16.7933 16.2542 16.7916 16.2542 16.7896C16.2542 16.7882 16.2539 16.7869 16.2539 16.7859C16.2539 16.7842 16.2539 16.7825 16.2539 16.7802C16.2539 16.7778 16.2539 16.7758 16.2539 16.7728V16.7724C16.2539 16.7694 16.2539 16.766 16.2542 16.763C16.2542 16.761 16.2542 16.7583 16.2546 16.7563C16.2546 16.7543 16.2549 16.7526 16.2549 16.7506C16.2556 16.7455 16.2563 16.7408 16.2573 16.7358C16.2576 16.7341 16.2576 16.7324 16.2579 16.7308C16.2579 16.7304 16.2579 16.7304 16.2579 16.7298C16.2579 16.7287 16.2583 16.7274 16.2589 16.7257C16.2589 16.7254 16.2589 16.7254 16.2589 16.7247C16.2593 16.7224 16.26 16.7197 16.261 16.7173C16.2613 16.7153 16.2623 16.7126 16.263 16.7103C16.263 16.7096 16.2633 16.7093 16.2633 16.7089C16.2643 16.7069 16.265 16.7042 16.266 16.7022C16.2667 16.6995 16.268 16.6968 16.269 16.6941C16.271 16.6884 16.2741 16.6824 16.2774 16.6767C16.2791 16.6736 16.2808 16.6706 16.2825 16.6676C16.2845 16.6642 16.2862 16.6615 16.2882 16.6585C16.2892 16.6572 16.2902 16.6555 16.2912 16.6542C16.2986 16.6434 16.307 16.6337 16.3167 16.6246C16.3184 16.6229 16.3204 16.6212 16.3221 16.6195C16.3221 16.6195 16.3221 16.6195 16.3221 16.6192C16.3255 16.6165 16.3285 16.6135 16.3319 16.6111C16.3319 16.6111 16.3319 16.6111 16.3322 16.6111C16.3352 16.6091 16.3382 16.6064 16.3413 16.6044C16.3487 16.599 16.3564 16.5943 16.3641 16.59C16.3665 16.5893 16.3675 16.5883 16.3698 16.5876C16.3732 16.5859 16.3769 16.5843 16.3803 16.5826C17.0755 16.2956 17.6544 15.8722 18.101 15.3238C18.4596 14.8833 18.7358 14.3608 18.9212 13.7701C19.0355 13.4065 19.101 13.0604 19.1383 12.766C19.1514 12.6632 19.2388 12.5859 19.3426 12.5859C19.4666 12.5859 19.5624 12.6945 19.5469 12.8175C19.5073 13.1279 19.438 13.4922 19.3174 13.8786C19.1171 14.5218 18.8167 15.093 18.4253 15.5759C18.0247 16.0695 17.5288 16.4707 16.9458 16.7724C17.5288 17.0759 18.0247 17.4771 18.4256 17.971Z" fill="white"/>
<path d="M19.9702 21.9168C20.064 22.0106 20.1214 22.1396 20.1214 22.2821C20.1214 22.5674 19.8906 22.7986 19.605 22.7986H12.3879C12.2451 22.7986 12.1161 22.7408 12.0223 22.6473C11.9289 22.5539 11.8711 22.4249 11.8711 22.2821C11.8711 22.0025 12.0929 21.775 12.3708 21.7663L19.1846 21.7656H19.6053C19.7478 21.7656 19.8771 21.8234 19.9702 21.9168Z" fill="white"/>
<path d="M12.3708 11.235L19.1846 11.2344H19.6053C19.7481 11.2344 19.8771 11.2925 19.9706 11.3856C20.0643 11.4793 20.1221 11.608 20.1221 11.7508C20.1221 12.0361 19.8909 12.2673 19.6053 12.2673H12.3879C12.2451 12.2673 12.1161 12.2095 12.0223 12.1161C11.9289 12.0227 11.8711 11.8936 11.8711 11.7508C11.8711 11.4716 12.0929 11.2441 12.3708 11.235Z" fill="white"/>
<path d="M18.347 14.4479C18.017 15.0981 17.4313 15.8149 16.394 16.2826C16.2378 16.3532 16.1376 16.5084 16.1376 16.6798V18.9116C16.1376 19.1116 16.2731 19.2863 16.4673 19.335C18.7264 19.8992 18.7744 21.1005 18.7744 21.1005H13.2227C13.2227 21.1005 13.2798 19.9036 15.5284 19.338C15.722 19.2893 15.8574 19.1146 15.8574 18.915V16.6841C15.8574 16.5124 15.7566 16.3565 15.5997 16.2863C14.4172 15.7557 13.8228 14.9005 13.5241 14.1875H18.468C18.4323 14.2728 18.392 14.3599 18.347 14.4479Z" fill="white"/>
<mask id="mask0_10336_27535" style="mask-type:luminance" maskUnits="userSpaceOnUse" x="6" y="5" width="20" height="22">
<path d="M6.45312 5.57812H25.5459V26.3523H6.45312V5.57812Z" fill="white"/>
</mask>
<g mask="url(#mask0_10336_27535)">
<path d="M8.7802 10.5627C8.91763 10.4041 9.10883 10.309 9.31817 10.2939C9.52751 10.2788 9.73013 10.3463 9.8884 10.4837C9.96804 10.5526 10.0312 10.6343 10.0772 10.7253C10.1226 10.8164 10.1502 10.9165 10.1579 11.021C10.173 11.2304 10.1051 11.433 9.96804 11.5913C8.71266 13.0389 8.02113 14.8923 8.02113 16.811C8.02113 21.2079 11.6004 24.7848 15.9993 24.7848C20.3985 24.7848 23.9768 21.2079 23.9768 16.811C23.9768 12.4145 20.3975 8.83724 15.9986 8.83724H15.8477V9.86143C15.8477 10.0903 15.7291 10.2952 15.5309 10.4098C15.3326 10.5241 15.0957 10.5241 14.8975 10.4098L11.7634 8.60068C11.5651 8.4861 11.4465 8.28146 11.4465 8.05229C11.4465 7.82346 11.5651 7.61849 11.7634 7.50424L14.8975 5.69477C15.0957 5.58119 15.3323 5.58052 15.5305 5.6951C15.7288 5.81002 15.8474 6.01466 15.8474 6.24315V7.26701H15.9986C18.5494 7.26701 20.9475 8.25995 22.751 10.0624C24.5544 11.8648 25.5477 14.262 25.5477 16.811C25.5477 19.3604 24.5544 21.7573 22.751 23.5597C20.9475 25.3621 18.5494 26.355 15.9986 26.355C13.4479 26.355 11.0497 25.3621 9.24626 23.5597C7.44283 21.7569 6.44922 19.3601 6.44922 16.811C6.44922 14.515 7.27684 12.2956 8.7802 10.5627Z" fill="white"/>
</g>
</svg>
