<svg width="32" height="32" viewBox="0 0 32 32" fill="none" xmlns="http://www.w3.org/2000/svg">
<rect width="32" height="32" rx="6" fill="#7459AF"/>
<path d="M11.8561 21.1749H12.5446C12.7345 21.1749 12.8891 21.0197 12.8891 20.8298C12.8891 20.6396 12.7345 20.4844 12.5446 20.4844H11.8561C11.6663 20.4844 11.5117 20.6396 11.5117 20.8298C11.5117 21.0197 11.6663 21.1749 11.8561 21.1749Z" fill="white"/>
<path d="M22.1867 20.4844H13.9222C13.7327 20.4844 13.5781 20.6396 13.5781 20.8298C13.5781 21.0197 13.7327 21.1749 13.9222 21.1749H22.1867C22.3765 21.1749 22.5311 21.0197 22.5311 20.8298C22.5311 20.6396 22.3765 20.4844 22.1867 20.4844Z" fill="white"/>
<path d="M11.8561 19.1046H12.5446C12.7345 19.1046 12.8891 18.9493 12.8891 18.7592C12.8891 18.5693 12.7345 18.4141 12.5446 18.4141H11.8561C11.6663 18.4141 11.5117 18.5693 11.5117 18.7592C11.5117 18.9493 11.6663 19.1046 11.8561 19.1046Z" fill="white"/>
<path d="M22.1867 18.4141H13.9222C13.7327 18.4141 13.5781 18.5693 13.5781 18.7592C13.5781 18.9493 13.7327 19.1046 13.9222 19.1046H22.1867C22.3765 19.1046 22.5311 18.9493 22.5311 18.7592C22.5311 18.5693 22.3765 18.4141 22.1867 18.4141Z" fill="white"/>
<path d="M11.8561 17.0339H12.5446C12.7345 17.0339 12.8891 16.879 12.8891 16.6888C12.8891 16.4987 12.7345 16.3438 12.5446 16.3438H11.8561C11.6663 16.3438 11.5117 16.4987 11.5117 16.6888C11.5117 16.879 11.6663 17.0339 11.8561 17.0339Z" fill="white"/>
<path d="M22.1867 16.3438H13.9222C13.7327 16.3438 13.5781 16.4987 13.5781 16.6888C13.5781 16.879 13.7327 17.0339 13.9222 17.0339H22.1867C22.3765 17.0339 22.5311 16.879 22.5311 16.6888C22.5311 16.4987 22.3765 16.3438 22.1867 16.3438Z" fill="white"/>
<path d="M11.8561 14.9558H12.5446C12.7345 14.9558 12.8891 14.8009 12.8891 14.6107C12.8891 14.4205 12.7345 14.2656 12.5446 14.2656H11.8561C11.6663 14.2656 11.5117 14.4205 11.5117 14.6107C11.5117 14.8009 11.6663 14.9558 11.8561 14.9558Z" fill="white"/>
<path d="M22.1867 14.2656H13.9222C13.7327 14.2656 13.5781 14.4205 13.5781 14.6107C13.5781 14.8009 13.7327 14.9558 13.9222 14.9558H22.1867C22.3765 14.9558 22.5311 14.8009 22.5311 14.6107C22.5311 14.4205 22.3765 14.2656 22.1867 14.2656Z" fill="white"/>
<path d="M11.8561 12.8855H12.5446C12.7345 12.8855 12.8891 12.7306 12.8891 12.5404C12.8891 12.3502 12.7345 12.1953 12.5446 12.1953H11.8561C11.6663 12.1953 11.5117 12.3502 11.5117 12.5404C11.5117 12.7306 11.6663 12.8855 11.8561 12.8855Z" fill="white"/>
<path d="M13.5781 12.5404C13.5781 12.7306 13.7327 12.8855 13.9222 12.8855H22.1867C22.3765 12.8855 22.5311 12.7306 22.5311 12.5404C22.5311 12.3502 22.3765 12.1953 22.1867 12.1953H13.9222C13.7327 12.1953 13.5781 12.3502 13.5781 12.5404Z" fill="white"/>
<mask id="mask0_10336_27476" style="mask-type:luminance" maskUnits="userSpaceOnUse" x="7" y="5" width="18" height="22">
<path d="M7.375 5.64062H24.6008V26.3503H7.375V5.64062Z" fill="white"/>
</mask>
<g mask="url(#mask0_10336_27476)">
<path d="M8.06741 7.71153H9.44477V23.934C9.44477 24.1242 9.59967 24.2794 9.78919 24.2794H21.8413V25.6598H8.06741V7.71153ZM10.1336 6.33081H19.0866V10.818C19.0866 11.0082 19.2415 11.1631 19.431 11.1631H23.9075V23.5889H10.1336V6.33081ZM23.4206 10.473H19.7754V6.81905L23.4206 10.473ZM7.72299 26.3503H22.1857C22.3755 26.3503 22.5301 26.1951 22.5301 26.0052V24.2794H24.2519C24.4414 24.2794 24.5963 24.1242 24.5963 23.934V10.818C24.5963 10.81 24.5923 10.8033 24.5923 10.7965C24.5896 10.7653 24.5842 10.7371 24.5748 10.7075C24.5708 10.6967 24.5681 10.686 24.5627 10.6752C24.5466 10.6386 24.5251 10.6037 24.4952 10.5741L19.6746 5.74177C19.6447 5.7122 19.6098 5.69036 19.5735 5.67423C19.5627 5.66885 19.552 5.66616 19.5412 5.66213C19.5116 5.65272 19.4834 5.64735 19.4525 5.64466C19.4444 5.64466 19.4391 5.64062 19.431 5.64062H9.78919C9.59967 5.64062 9.44477 5.79553 9.44477 5.98572V7.02134H7.72299C7.53348 7.02134 7.37891 7.17624 7.37891 7.36643V26.0052C7.37891 26.1951 7.53348 26.3503 7.72299 26.3503Z" fill="white"/>
</g>
<path d="M12.2006 9.44019H13.5779V10.8209H12.2006V9.44019ZM11.8561 11.5111H13.922C14.1119 11.5111 14.2664 11.3562 14.2664 11.166V9.09509C14.2664 8.90491 14.1119 8.75 13.922 8.75H11.8561C11.6663 8.75 11.5117 8.90491 11.5117 9.09509V11.166C11.5117 11.3562 11.6663 11.5111 11.8561 11.5111Z" fill="white"/>
</svg>
