<svg xmlns="http://www.w3.org/2000/svg" width="29.345" height="20.753" viewBox="0 0 29.345 20.753">
  <path id="Path_44447" data-name="Path 44447" d="M59.8,140.215H85.279a.44.44,0,0,0,.443-.443V123.417a.439.439,0,0,0-.443-.443H59.8a.439.439,0,0,0-.443.443v16.358a.44.44,0,0,0,.443.439Zm1.278-15.361a.225.225,0,0,1,.222-.222H83.794a.225.225,0,0,1,.222.222v13.485a.222.222,0,0,1-.222.221H61.3a.222.222,0,0,1-.222-.221Zm26.11,16.986v1.673a.159.159,0,0,1-.159.159H58.061a.159.159,0,0,1-.159-.159V141.85a.159.159,0,0,1,.159-.159H87.033a.159.159,0,0,1,.159.159ZM69.224,129.683v-.462a.218.218,0,0,1,.129-.2l3.161-1.377a.217.217,0,0,1,.177,0l3.068,1.377a.218.218,0,0,1,.129.2v.462a.218.218,0,0,1-.218.218H69.43a.218.218,0,0,1-.207-.218Zm1.322.58a.136.136,0,0,1,.137.137v2.847a.136.136,0,0,1-.137.137h-.462a.137.137,0,0,1-.122-.14V130.4a.136.136,0,0,1,.137-.137h.454Zm2.238,0a.136.136,0,0,1,.137.137v2.847a.136.136,0,0,1-.137.137h-.462a.137.137,0,0,1-.144-.14V130.4a.137.137,0,0,1,.137-.137h.454Zm2.238,0h0a.137.137,0,0,1,.137.137v2.847a.137.137,0,0,1-.137.137h-.462a.136.136,0,0,1-.137-.137V130.4a.136.136,0,0,1,.137-.137h.454Zm-5.8,4.01v-.454a.081.081,0,0,1,.081-.081h6.5a.081.081,0,0,1,.081.081v.454a.081.081,0,0,1-.081.081H69.294A.081.081,0,0,1,69.224,134.273Zm-.318.975V134.8a.081.081,0,0,1,.081-.081h7.13a.081.081,0,0,1,.057.024.082.082,0,0,1,.024.057v.454a.081.081,0,0,1-.081.081H68.976a.081.081,0,0,1-.078-.089Zm-2.954-6.122H63.235v-.938h2.707v.938Zm0,2.02H63.235v-.938h2.707v.942Zm0,2.02H63.235v-.945h2.707v.938Zm0,2.02H63.235v-.938h2.707v.927Zm15.915-6.056H79.149v-.942h2.707v.938Zm0,2.02H79.149v-.942h2.707v.942Zm0,2.02H79.149v-.949h2.707v.938Zm0,2.02H79.149v-.941h2.707v.927Z" transform="translate(-57.874 -122.946)" fill="#300787" stroke="#000" stroke-miterlimit="10" stroke-width="0.056"/>
</svg>
