<svg xmlns="http://www.w3.org/2000/svg" width="20.942" height="29.663" viewBox="0 0 20.942 29.663">
  <g id="bhim" transform="translate(-13.127 -5.028)">
    <path id="Path_44449" data-name="Path 44449" d="M20.339,27.456a7.2,7.2,0,0,0-1.364,1.162c-1.776,1.612-3.536,3.242-5.307,4.86a.572.572,0,0,1-.542.284L21.35,5.028l3.545,6.666c1.222,2.35,2.421,4.712,3.681,7.042a.875.875,0,0,1-.211,1.3c-2.664,2.4-5.291,4.847-7.931,7.277a.128.128,0,0,0-.1.151Z" transform="translate(0)" fill="#2f0d6b"/>
    <path id="Path_44450" data-name="Path 44450" d="M24.734,28.149c2.64-2.43,5.267-4.874,7.931-7.278a.875.875,0,0,0,.211-1.3c-1.26-2.329-2.459-4.691-3.681-7.042L30.71,7.382l.148-.5a.373.373,0,0,1,.28.325q3.553,6.776,7.1,13.553a.523.523,0,0,1-.1.774Q30.558,28.455,23,35.4a.435.435,0,0,1-.33.119c.169-.6.335-1.2.506-1.8.471-1.648.947-3.293,1.411-4.941a.562.562,0,0,0,.057-.5l-.01.009c.137.02.1-.082.1-.15Z" transform="translate(-4.3 -0.834)" fill="#300787"/>
    <path id="Path_44451" data-name="Path 44451" d="M26.344,45.61c-.009.068.033.171-.1.15a.128.128,0,0,1,.1-.15Z" transform="translate(-5.911 -18.295)" fill="#fefefe"/>
  </g>
</svg>
