<svg width="40" height="25" viewBox="0 0 40 25" fill="none" xmlns="http://www.w3.org/2000/svg">
<path d="M33.7487 11.75C33.4032 11.7508 33.0583 11.7795 32.7175 11.8359L31.8081 9.47031C32.4446 9.32422 33.0956 9.25031 33.7487 9.25C34.0802 9.25 34.3982 9.1183 34.6326 8.88388C34.867 8.64946 34.9987 8.33152 34.9987 8C34.9987 7.66848 34.867 7.35054 34.6326 7.11612C34.3982 6.8817 34.0802 6.75 33.7487 6.75H30.7612L28.6659 1.30156C28.5752 1.06561 28.4151 0.862688 28.2068 0.719585C27.9984 0.576483 27.7515 0.49992 27.4987 0.5H22.4987C22.1672 0.5 21.8493 0.631696 21.6148 0.866117C21.3804 1.10054 21.2487 1.41848 21.2487 1.75C21.2487 2.08152 21.3804 2.39946 21.6148 2.63388C21.8493 2.8683 22.1672 3 22.4987 3H26.6409L28.0831 6.75H23.7487C20.8581 6.75 18.5143 7.42344 16.9722 8.69687C16.6092 8.98964 16.1717 9.17507 15.7089 9.23222C15.2462 9.28938 14.7766 9.21598 14.3534 9.02031C12.7003 8.26875 4.86279 5.08281 4.17216 4.8125L3.27997 4.4625C3.03136 4.35381 2.76814 4.28221 2.49872 4.25C2.2073 4.2507 1.92528 4.35321 1.70142 4.53979C1.47756 4.72638 1.32593 4.98532 1.27274 5.27184C1.21955 5.55837 1.26814 5.85448 1.41012 6.10898C1.5521 6.36348 1.77853 6.56037 2.05029 6.66562C2.12216 6.69375 9.42372 9.525 13.3206 11.2953C14.1706 11.682 15.1115 11.8241 16.0378 11.7057C16.964 11.5873 17.839 11.2131 18.5643 10.625C19.3237 10 20.8409 9.25 23.7503 9.25H26.6909C24.8662 10.7148 23.5456 12.714 22.9144 14.9672C22.7631 15.4846 22.4473 15.9386 22.0147 16.2603C21.5822 16.5821 21.0565 16.754 20.5175 16.75H12.3737C12.064 15.2324 11.2017 13.884 9.95424 12.966C8.70674 12.048 7.16282 11.626 5.62182 11.7816C4.08082 11.9373 2.65251 12.6596 1.6138 13.8086C0.5751 14.9575 0 16.4512 0 18C0 19.5488 0.5751 21.0425 1.6138 22.1914C2.65251 23.3404 4.08082 24.0627 5.62182 24.2183C7.16282 24.374 8.70674 23.952 9.95424 23.034C11.2017 22.116 12.064 20.7676 12.3737 19.25H20.5175C21.6016 19.2524 22.657 18.9013 23.5237 18.25C24.3905 17.5987 25.0213 16.6826 25.3206 15.6406C25.6324 14.5322 26.1599 13.4963 26.8728 12.5922C27.5858 11.6881 28.4702 10.9335 29.4753 10.3719L30.3847 12.7359C29.1177 13.5468 28.1858 14.7875 27.7598 16.2301C27.3338 17.6728 27.4424 19.2206 28.0657 20.5897C28.689 21.9587 29.7851 23.057 31.1528 23.683C32.5206 24.309 34.0683 24.4208 35.5118 23.9977C36.9553 23.5747 38.1978 22.6452 39.0112 21.3799C39.8247 20.1146 40.1545 18.5984 39.9402 17.1095C39.7259 15.6206 38.9818 14.259 37.8445 13.2745C36.7072 12.29 35.2529 11.7487 33.7487 11.75ZM6.24872 19.25H9.7831C9.48823 20.084 8.90801 20.7869 8.145 21.2345C7.38199 21.6821 6.4853 21.8456 5.61343 21.696C4.74156 21.5464 3.95065 21.0934 3.38047 20.4171C2.81029 19.7407 2.49757 18.8846 2.49757 18C2.49757 17.1154 2.81029 16.2593 3.38047 15.5829C3.95065 14.9066 4.74156 14.4536 5.61343 14.304C6.4853 14.1544 7.38199 14.3179 8.145 14.7655C8.90801 15.2131 9.48823 15.916 9.7831 16.75H6.24872C5.9172 16.75 5.59926 16.8817 5.36484 17.1161C5.13042 17.3505 4.99872 17.6685 4.99872 18C4.99872 18.3315 5.13042 18.6495 5.36484 18.8839C5.59926 19.1183 5.9172 19.25 6.24872 19.25ZM33.7487 21.75C32.9827 21.749 32.2354 21.5136 31.6073 21.0752C30.9791 20.6368 30.5003 20.0166 30.2352 19.298C29.9701 18.5793 29.9314 17.7968 30.1243 17.0555C30.3172 16.3142 30.7325 15.6498 31.3143 15.1516L32.5815 18.4484C32.7005 18.758 32.9375 19.0076 33.2405 19.1424C33.5435 19.2772 33.8876 19.2861 34.1972 19.1672C34.5067 19.0483 34.7564 18.8112 34.8911 18.5082C35.0259 18.2052 35.0348 17.8611 34.9159 17.5516L33.6472 14.25H33.7487C34.7433 14.25 35.6971 14.6451 36.4004 15.3483C37.1036 16.0516 37.4987 17.0054 37.4987 18C37.4987 18.9946 37.1036 19.9484 36.4004 20.6517C35.6971 21.3549 34.7433 21.75 33.7487 21.75Z" fill="#E8567C"/>
</svg>
