<svg width="40" height="40" viewBox="0 0 40 40" fill="none" xmlns="http://www.w3.org/2000/svg">
<path d="M32.5 6.25H7.5C6.50544 6.25 5.55161 6.64509 4.84835 7.34835C4.14509 8.05161 3.75 9.00544 3.75 10V27.5C3.75 28.4946 4.14509 29.4484 4.84835 30.1517C5.55161 30.8549 6.50544 31.25 7.5 31.25H18.75V33.75H15C14.6685 33.75 14.3505 33.8817 14.1161 34.1161C13.8817 34.3505 13.75 34.6685 13.75 35C13.75 35.3315 13.8817 35.6495 14.1161 35.8839C14.3505 36.1183 14.6685 36.25 15 36.25H25C25.3315 36.25 25.6495 36.1183 25.8839 35.8839C26.1183 35.6495 26.25 35.3315 26.25 35C26.25 34.6685 26.1183 34.3505 25.8839 34.1161C25.6495 33.8817 25.3315 33.75 25 33.75H21.25V31.25H32.5C33.4946 31.25 34.4484 30.8549 35.1517 30.1517C35.8549 29.4484 36.25 28.4946 36.25 27.5V10C36.25 9.00544 35.8549 8.05161 35.1517 7.34835C34.4484 6.64509 33.4946 6.25 32.5 6.25ZM7.5 8.75H32.5C32.8315 8.75 33.1495 8.8817 33.3839 9.11612C33.6183 9.35054 33.75 9.66848 33.75 10V22.5H6.25V10C6.25 9.66848 6.3817 9.35054 6.61612 9.11612C6.85054 8.8817 7.16848 8.75 7.5 8.75ZM32.5 28.75H7.5C7.16848 28.75 6.85054 28.6183 6.61612 28.3839C6.3817 28.1495 6.25 27.8315 6.25 27.5V25H33.75V27.5C33.75 27.8315 33.6183 28.1495 33.3839 28.3839C33.1495 28.6183 32.8315 28.75 32.5 28.75Z" fill="#7459AF"/>
</svg>
