<svg width="42" height="42" viewBox="0 0 42 42" fill="none" xmlns="http://www.w3.org/2000/svg">
<path d="M17.5665 12.885V19.042C17.5665 19.2473 17.6343 19.419 17.77 19.557C17.906 19.695 18.0758 19.764 18.2795 19.764C18.4865 19.764 18.6587 19.695 18.796 19.557C18.9333 19.419 19.002 19.2465 19.002 19.0395V11.4445C19.002 11.2791 18.9572 11.1513 18.8675 11.061C18.7778 10.9703 18.6513 10.925 18.488 10.925H18.1315C18.0735 10.925 17.9703 10.958 17.822 11.024L15.917 12.4075C15.7513 12.5145 15.6582 12.6481 15.6375 12.8085C15.6168 12.9691 15.6585 13.1318 15.7625 13.2965C15.8665 13.4711 16.0038 13.5751 16.1745 13.6085C16.3452 13.6418 16.5138 13.6053 16.6805 13.499L17.5665 12.885ZM23.62 12.061C24.029 12.061 24.3708 12.175 24.6455 12.403C24.9202 12.631 25.0575 12.9121 25.0575 13.2465C25.0575 13.6371 24.9722 13.9991 24.8015 14.3325C24.6308 14.6658 24.3915 14.9865 24.0835 15.2945L21.055 18.276C21.0207 18.3103 20.969 18.4303 20.9 18.636V19.0985C20.9 19.2698 20.969 19.4236 21.107 19.56C21.2447 19.696 21.3997 19.764 21.572 19.764H26.035C26.1993 19.764 26.3438 19.6973 26.4685 19.564C26.5932 19.4306 26.6555 19.2771 26.6555 19.1035C26.6555 18.9298 26.5937 18.7841 26.47 18.6665C26.3463 18.5488 26.2002 18.49 26.0315 18.49H22.748V18.4285L25.01 16.163C25.5557 15.6183 25.9393 15.1248 26.161 14.6825C26.3827 14.2401 26.4935 13.7635 26.4935 13.2525C26.4935 12.5588 26.2202 11.9641 25.6735 11.4685C25.1272 10.9728 24.4612 10.725 23.6755 10.725C23.0902 10.725 22.5728 10.8553 22.1235 11.116C21.6745 11.3766 21.3333 11.7306 21.1 12.178C21.0333 12.3456 21.0338 12.5051 21.1015 12.6565C21.1692 12.8078 21.2878 12.917 21.4575 12.984C21.6272 13.0513 21.8002 13.06 21.9765 13.01C22.1532 12.96 22.2948 12.8516 22.4015 12.685C22.5658 12.477 22.7503 12.321 22.955 12.217C23.1593 12.113 23.381 12.061 23.62 12.061ZM17.3045 31.263C18.1962 31.263 18.933 31.0158 19.515 30.5215C20.097 30.0268 20.388 29.3873 20.388 28.603C20.388 28.1253 20.2503 27.689 19.975 27.294C19.6993 26.899 19.3405 26.6156 18.8985 26.444V26.341C19.2712 26.1696 19.5605 25.9038 19.7665 25.5435C19.9728 25.1831 20.076 24.797 20.076 24.385C20.076 23.7093 19.8113 23.147 19.282 22.698C18.753 22.2486 18.0787 22.024 17.259 22.024C16.7733 22.024 16.316 22.1451 15.887 22.3875C15.4583 22.6295 15.1108 22.937 14.8445 23.31C14.7365 23.4766 14.7242 23.637 14.8075 23.791C14.8908 23.9446 15.0178 24.0568 15.1885 24.1275C15.3592 24.1981 15.524 24.2148 15.683 24.1775C15.842 24.1401 15.9745 24.0381 16.0805 23.8715C16.1472 23.7638 16.5238 23.5766 17.2105 23.31C17.6225 23.31 17.9553 23.4123 18.209 23.617C18.463 23.822 18.59 24.1121 18.59 24.4875C18.59 24.8595 18.4438 25.1665 18.1515 25.4085C17.8588 25.6505 17.5058 25.7715 17.0925 25.7715C16.9205 25.7715 16.7672 25.833 16.6325 25.956C16.4978 26.079 16.4305 26.2283 16.4305 26.404C16.4305 26.5796 16.4908 26.7321 16.6115 26.8615C16.7322 26.9908 16.879 27.0555 17.052 27.0555H17.2075C17.6918 27.0555 18.0953 27.1928 18.418 27.4675C18.7407 27.7425 18.902 28.0861 18.902 28.4985C18.902 28.8761 18.747 29.2003 18.437 29.471C18.127 29.7416 17.748 29.877 17.3 29.877C17.0243 29.877 16.7585 29.8083 16.5025 29.671C16.2465 29.5336 16.0358 29.3316 15.8705 29.065C15.7632 28.8983 15.6312 28.7861 15.4745 28.7285C15.3178 28.6705 15.1553 28.676 14.987 28.745C14.8183 28.814 14.6838 28.9435 14.5835 29.1335C14.4828 29.3231 14.4825 29.5043 14.5825 29.677C14.8535 30.1603 15.2293 30.5455 15.71 30.8325C16.1903 31.1195 16.7218 31.263 17.3045 31.263ZM24.5975 31.263C25.4168 31.263 26.1353 30.9673 26.753 30.376C27.3707 29.7846 27.6795 29.0938 27.6795 28.3035C27.6795 27.5128 27.4138 26.8345 26.8825 26.2685C26.3512 25.7025 25.7255 25.4195 25.0055 25.4195C24.8402 25.4195 24.5335 25.4861 24.0855 25.6195H24.0335L25.6315 23.36C25.7315 23.1933 25.7712 23.0163 25.7505 22.829C25.7298 22.6416 25.6362 22.498 25.4695 22.398C25.3042 22.29 25.1342 22.2526 24.9595 22.286C24.7845 22.3193 24.6447 22.4186 24.54 22.584L22.693 25.317C22.2217 26.0013 21.909 26.5488 21.755 26.9595C21.601 27.3705 21.524 27.7985 21.524 28.2435C21.524 29.0991 21.816 29.8163 22.4 30.395C22.9843 30.9736 23.7168 31.263 24.5975 31.263ZM24.5945 29.939C24.1205 29.939 23.7295 29.7845 23.4215 29.4755C23.1138 29.1665 22.96 28.7718 22.96 28.2915C22.96 28.0165 23.0287 27.75 23.166 27.492C23.303 27.2343 23.5038 27.0221 23.7685 26.8555C23.8715 26.7888 24.1465 26.7221 24.5935 26.6555C25.0402 26.6555 25.4268 26.8201 25.7535 27.1495C26.0802 27.4788 26.2435 27.8761 26.2435 28.3415C26.2435 28.7881 26.087 29.1661 25.774 29.4755C25.4613 29.7845 25.0682 29.939 24.5945 29.939ZM21.0015 41.299C18.2195 41.299 15.5943 40.7665 13.126 39.7015C10.6577 38.6368 8.50232 37.1833 6.65999 35.341C4.81732 33.499 3.36349 31.344 2.29849 28.876C1.23349 26.4083 0.700989 23.7835 0.700989 21.0015C0.700989 18.2195 1.23432 15.5938 2.30099 13.1245C3.36766 10.6555 4.82099 8.50096 6.66099 6.66096C8.50099 4.82096 10.6552 3.36563 13.1235 2.29496C15.5918 1.2243 18.2173 0.688965 21 0.688965C23.7827 0.688965 26.4082 1.2243 28.8765 2.29496C31.3448 3.36563 33.499 4.82096 35.339 6.66096C37.179 8.50096 38.6343 10.6551 39.705 13.1235C40.7757 15.5918 41.311 18.2173 41.311 21C41.311 23.7826 40.7757 26.4081 39.705 28.8765C38.6343 31.3448 37.179 33.499 35.339 35.339C33.499 37.179 31.345 38.6323 28.877 39.699C26.409 40.7656 23.7838 41.299 21.0015 41.299ZM20.994 37.8925C25.6327 37.8925 29.6088 36.2396 32.9225 32.934C36.2358 29.6286 37.8925 25.6526 37.8925 21.006C37.8925 16.3593 36.2363 12.3811 32.924 9.07146C29.6117 5.76213 25.637 4.10746 21 4.10746C16.3573 4.10746 12.3812 5.76179 9.07149 9.07046C5.76216 12.3788 4.10749 16.3553 4.10749 21C4.10749 25.6506 5.76216 29.6286 9.07149 32.934C12.3808 36.2396 16.355 37.8925 20.994 37.8925Z" fill="white"/>
</svg>
