<svg width="46" height="29" viewBox="0 0 46 29" fill="none" xmlns="http://www.w3.org/2000/svg">
<path d="M31 25.3807C34.0337 25.3807 36.6055 24.3177 38.7155 22.1917C40.8256 20.0653 41.8806 17.494 41.8806 14.4777C41.8806 11.461 40.8256 8.89717 38.7155 6.78617C36.6055 4.67517 34.0337 3.61967 31 3.61967C30.0454 3.61967 29.1174 3.74017 28.216 3.98117C27.3144 4.22217 26.4746 4.56651 25.6966 5.01417C26.8062 6.28884 27.684 7.729 28.33 9.33467C28.976 10.9403 29.299 12.663 29.299 14.5027C29.299 16.3423 28.976 18.0642 28.33 19.6682C27.684 21.2722 26.8062 22.7115 25.6966 23.9862C26.4746 24.4338 27.3144 24.7782 28.216 25.0192C29.1174 25.2602 30.0454 25.3807 31 25.3807ZM23.0001 21.8467C23.892 20.899 24.5952 19.7882 25.1096 18.5142C25.6236 17.2405 25.8806 15.8983 25.8806 14.4877C25.8806 13.077 25.6236 11.739 25.1096 10.4737C24.5952 9.208 23.892 8.10134 23.0001 7.15367C22.1081 8.10134 21.4049 9.21217 20.8906 10.4862C20.3766 11.7598 20.1196 13.102 20.1196 14.5127C20.1196 15.9233 20.3766 17.2613 20.8906 18.5267C21.4049 19.7923 22.1081 20.899 23.0001 21.8467ZM15.0001 25.3807C15.9547 25.3807 16.8827 25.2603 17.784 25.0197C18.6857 24.7787 19.5294 24.4342 20.3151 23.9862C19.1977 22.7115 18.316 21.2713 17.67 19.6657C17.024 18.06 16.701 16.3373 16.701 14.4977C16.701 12.658 17.024 10.9362 17.67 9.33217C18.316 7.72817 19.1977 6.28884 20.3151 5.01417C19.5294 4.56617 18.6857 4.22167 17.784 3.98067C16.8827 3.74 15.9547 3.61967 15.0001 3.61967C11.9897 3.61967 9.42372 4.6745 7.30205 6.78417C5.18038 8.89384 4.11955 11.4568 4.11955 14.4732C4.11955 17.4898 5.18038 20.0618 7.30205 22.1892C9.42372 24.3168 11.9897 25.3807 15.0001 25.3807ZM15.0001 28.7992C11.0221 28.7992 7.64438 27.4103 4.86705 24.6327C2.08972 21.855 0.70105 18.4768 0.70105 14.4982C0.70105 10.5198 2.08972 7.14251 4.86705 4.36617C7.64438 1.5895 11.0221 0.201172 15.0001 0.201172C16.5001 0.201172 17.9237 0.414003 19.2711 0.83967C20.6181 1.265 21.8611 1.86967 23.0001 2.65367C24.1391 1.86967 25.382 1.265 26.729 0.83967C28.0764 0.414003 29.5 0.201172 31 0.201172C34.9781 0.201172 38.3557 1.59 41.133 4.36767C43.9104 7.14534 45.299 10.5235 45.299 14.5022C45.299 18.4805 43.9104 21.8578 41.133 24.6342C38.3557 27.4108 34.9781 28.7992 31 28.7992C29.5 28.7992 28.0764 28.5863 26.729 28.1607C25.382 27.7353 24.1391 27.1307 23.0001 26.3467C21.8611 27.1307 20.6181 27.7353 19.2711 28.1607C17.9237 28.5863 16.5001 28.7992 15.0001 28.7992Z" fill="white"/>
</svg>
