<svg width="36" height="41" viewBox="0 0 36 41" fill="none" xmlns="http://www.w3.org/2000/svg">
<path d="M19.915 35.7632L17.8795 35.7512C13.0808 35.6555 9.00017 33.8905 5.63751 30.4562C2.27484 27.0219 0.593506 22.9014 0.593506 18.0947C0.593506 13.2164 2.32501 9.05603 5.78801 5.6137C9.25101 2.17136 13.4383 0.450195 18.35 0.450195C20.7723 0.450195 23.0178 0.887194 25.0865 1.76119C27.1548 2.63486 28.957 3.85636 30.493 5.4257C32.0287 6.99503 33.2335 8.8472 34.1075 10.9822C34.9815 13.1175 35.4185 15.4464 35.4185 17.9687C35.4185 22.463 34.2313 26.632 31.857 30.4757C29.4827 34.3197 26.4485 37.4807 22.7545 39.9587C22.4892 40.1414 22.2052 40.2307 21.9025 40.2267C21.6002 40.2227 21.3163 40.1589 21.051 40.0352C20.786 39.9192 20.5725 39.7369 20.4105 39.4882C20.2485 39.2395 20.1548 38.962 20.1295 38.6557L19.915 35.7632ZM23.25 35.4687C25.9833 33.1687 28.125 30.4584 29.675 27.3377C31.225 24.217 32 21.094 32 17.9687C32 13.8354 30.7083 10.452 28.125 7.8187C25.5417 5.18536 22.2833 3.8687 18.35 3.8687C14.35 3.8687 10.9583 5.25836 8.17501 8.0377C5.39167 10.817 4.00001 14.1774 4.00001 18.1187C4.00001 22.052 5.39167 25.4104 8.17501 28.1937C10.9583 30.977 14.3167 32.3687 18.25 32.3687H23.25V35.4687ZM18.362 29.8022C18.9273 29.8022 19.4052 29.607 19.7955 29.2167C20.1862 28.826 20.3815 28.348 20.3815 27.7827C20.3815 27.2254 20.1862 26.7515 19.7955 26.3612C19.4052 25.9705 18.9273 25.7752 18.362 25.7752C17.7967 25.7752 17.3188 25.9705 16.9285 26.3612C16.5378 26.7515 16.3425 27.2254 16.3425 27.7827C16.3425 28.348 16.5378 28.826 16.9285 29.2167C17.3188 29.607 17.7967 29.8022 18.362 29.8022ZM13.464 13.2047C13.8213 13.346 14.1723 13.346 14.517 13.2047C14.8613 13.0634 15.1662 12.8307 15.4315 12.5067C15.7155 12.0894 16.1078 11.7617 16.6085 11.5237C17.1095 11.2857 17.7313 11.1667 18.474 11.1667C19.2847 11.1667 19.9905 11.39 20.5915 11.8367C21.1922 12.2834 21.4925 12.9034 21.4925 13.6967C21.4925 14.3224 21.3155 14.9622 20.9615 15.6162C20.6075 16.2699 20.0132 17.0142 19.1785 17.8492C18.4195 18.6159 17.8572 19.2989 17.4915 19.8982C17.1255 20.4972 16.9425 21.0222 16.9425 21.4732C16.9425 21.8635 17.0608 22.202 17.2975 22.4887C17.5338 22.7754 17.8473 22.9187 18.238 22.9187C18.6207 22.9187 18.945 22.8 19.211 22.5627C19.477 22.3254 19.6552 22.0234 19.7455 21.6567C19.8695 21.298 20.0612 20.906 20.3205 20.4807C20.5802 20.0554 20.9813 19.5674 21.524 19.0167C22.5383 17.986 23.2475 17.0604 23.6515 16.2397C24.0555 15.419 24.2575 14.5635 24.2575 13.6732C24.2575 12.0825 23.7055 10.8125 22.6015 9.8632C21.4975 8.91386 20.1415 8.4392 18.5335 8.4392C17.5432 8.4392 16.509 8.6642 15.431 9.1142C14.353 9.5642 13.568 10.2479 13.076 11.1652C12.8443 11.5719 12.7598 11.978 12.8225 12.3837C12.8852 12.7897 13.099 13.0634 13.464 13.2047Z" fill="white"/>
</svg>
