<svg width="48" height="48" viewBox="0 0 48 48" fill="none" xmlns="http://www.w3.org/2000/svg">
<path fill-rule="evenodd" clip-rule="evenodd" d="M40.127 39.6289H7.87008C7.60758 39.6289 7.39453 39.4141 7.39453 39.1533V25.5357C7.39453 25.2732 7.60931 25.0602 7.87008 25.0602C8.13258 25.0602 8.34563 25.275 8.34563 25.5357V38.6759H39.6512V25.5357C39.6512 25.2732 39.866 25.0602 40.1268 25.0602C40.3893 25.0602 40.6023 25.275 40.6023 25.5357V39.1533C40.6023 39.4158 40.3877 39.6289 40.127 39.6289ZM7.87008 21.6559C7.60758 21.6559 7.39453 21.4412 7.39453 21.1804C7.39453 20.894 7.60931 20.7048 7.87008 20.7048H40.127C40.3895 20.7048 40.6025 20.8957 40.6025 21.1804C40.6025 21.4429 40.3877 21.6559 40.127 21.6559H7.89408H7.87008Z" fill="white"/>
<path fill-rule="evenodd" clip-rule="evenodd" d="M43.8201 43.3654H4.18258C3.92008 43.3654 3.70703 43.1745 3.70703 42.8899V39.1518C3.70703 38.8893 3.92181 38.6763 4.18258 38.6763H43.8201C44.0826 38.6763 44.2957 38.891 44.2957 39.1518V42.8899C44.2957 43.1762 44.0809 43.3654 43.8201 43.3654ZM4.65996 42.4126H43.3445V39.6274H4.65996V42.4126Z" fill="white"/>
<path fill-rule="evenodd" clip-rule="evenodd" d="M42.7218 21.6545H5.27487C5.13169 21.6545 5.01237 21.5829 4.91861 21.4875C4.82316 21.3682 4.77543 21.225 4.79929 21.1074L6.4902 10.0141L4.82316 5.2774C4.77543 5.11035 4.7993 4.96717 4.89475 4.82567C4.96634 4.70636 5.13339 4.63477 5.27487 4.63477H42.7218C42.8889 4.63477 43.0321 4.70636 43.1258 4.84954C43.2213 4.96886 43.2213 5.15977 43.1736 5.30126L41.1503 10.0144L43.1974 21.0361V21.1793C43.1974 21.4418 42.9826 21.6545 42.7218 21.6545ZM5.82207 20.7017H42.1493L40.1976 10.0365C40.1738 9.94106 40.1738 9.86947 40.2215 9.77401L42.0061 5.58422H5.93979L7.43979 9.79784C7.46365 9.86943 7.46365 9.94102 7.46365 10.0365L5.82048 20.7016L5.82207 20.7017Z" fill="white"/>
<path fill-rule="evenodd" clip-rule="evenodd" d="M40.6527 10.4423H6.99117C6.72868 10.4423 6.51562 10.2275 6.51562 9.96676C6.51562 9.70426 6.7304 9.49121 6.99117 9.49121H40.6527C40.9152 9.49121 41.1283 9.70598 41.1283 9.96676C41.1283 10.2293 40.9135 10.4423 40.6527 10.4423Z" fill="white"/>
<path fill-rule="evenodd" clip-rule="evenodd" d="M7.49029 26.0593C6.32437 26.0593 5.34766 25.1064 5.34766 23.9166V21.1792C5.34766 20.8928 5.56243 20.7036 5.82321 20.7036H9.13171C9.39421 20.7036 9.60726 20.8945 9.60726 21.1792V23.9166C9.60726 25.1064 8.65442 26.0593 7.4885 26.0593H7.49029ZM6.3005 21.6546V23.9166C6.3005 24.583 6.84766 25.1063 7.49029 25.1063C8.13292 25.1063 8.65621 24.5831 8.65621 23.9166V21.6546H6.29884H6.3005Z" fill="white"/>
<path fill-rule="evenodd" clip-rule="evenodd" d="M10.7989 26.0593C9.60909 26.0593 8.65625 25.1064 8.65625 23.9166V21.1792C8.65625 20.8928 8.87102 20.7036 9.1318 20.7036H12.4403C12.7028 20.7036 12.9159 20.8945 12.9159 21.1792V23.9166C12.9159 25.1064 11.963 26.0593 10.7971 26.0593H10.7989ZM9.60909 21.6546V23.9166C9.60909 24.583 10.1324 25.1063 10.7989 25.1063C11.4415 25.1063 11.9648 24.5831 11.9648 23.9166V21.6546H9.60744H9.60909Z" fill="white"/>
<path fill-rule="evenodd" clip-rule="evenodd" d="M14.0836 26.0593C12.9177 26.0593 11.9648 25.1064 11.9648 23.9166V21.1792C11.9648 20.8928 12.1796 20.7036 12.4404 20.7036H15.7489C16.0114 20.7036 16.2245 20.8945 16.2245 21.1792V23.9166C16.2245 25.1064 15.2716 26.0593 14.0818 26.0593H14.0836ZM12.9177 21.6546V23.9166C12.9177 24.583 13.441 25.1063 14.0836 25.1063C14.7501 25.1063 15.2734 24.5831 15.2734 23.9166V21.6546H12.916H12.9177Z" fill="white"/>
<path fill-rule="evenodd" clip-rule="evenodd" d="M17.3922 26.0593C16.2263 26.0593 15.2734 25.1064 15.2734 23.9166V21.1792C15.2734 20.8928 15.4882 20.7036 15.749 20.7036H19.0575C19.32 20.7036 19.5092 20.8945 19.5092 21.1792V23.9166C19.5092 25.1064 18.5564 26.0593 17.3905 26.0593H17.3922ZM16.2263 21.6546V23.9166C16.2263 24.583 16.7496 25.1063 17.3922 25.1063C18.0348 25.1063 18.582 24.5831 18.582 23.9166V21.6546H16.2246H16.2263Z" fill="white"/>
<path fill-rule="evenodd" clip-rule="evenodd" d="M20.7047 26.0593C19.5388 26.0593 18.5859 25.1064 18.5859 23.9166V21.1792C18.5859 20.8928 18.7768 20.7036 19.0615 20.7036H22.3461C22.6086 20.7036 22.8217 20.8945 22.8217 21.1792V23.9166C22.8217 25.1064 21.8688 26.0593 20.7029 26.0593H20.7047ZM19.5149 21.6546V23.9166C19.5149 24.583 20.0621 25.1063 20.7047 25.1063C21.3473 25.1063 21.8706 24.5831 21.8706 23.9166V21.6546H19.5133H19.5149Z" fill="white"/>
<path fill-rule="evenodd" clip-rule="evenodd" d="M24.0137 26.0593C22.8239 26.0593 21.8711 25.1064 21.8711 23.9166V21.1792C21.8711 20.8928 22.0859 20.7036 22.3466 20.7036H25.6552C25.9177 20.7036 26.1307 20.8945 26.1307 21.1792V23.9166C26.1307 25.1064 25.1779 26.0593 24.0119 26.0593H24.0137ZM22.8239 21.6546V23.9166C22.8239 24.583 23.3472 25.1063 24.0137 25.1063C24.6564 25.1063 25.1796 24.5831 25.1796 23.9166V21.6546H22.8223H22.8239Z" fill="white"/>
<path fill-rule="evenodd" clip-rule="evenodd" d="M27.2985 26.0593C26.1325 26.0593 25.1797 25.1064 25.1797 23.9166V21.1792C25.1797 20.8928 25.3945 20.7036 25.6552 20.7036H28.9637C29.2262 20.7036 29.4393 20.8945 29.4393 21.1792V23.9166C29.4393 25.1064 28.4865 26.0593 27.2967 26.0593H27.2985ZM26.1325 21.6546V23.9166C26.1325 24.583 26.6558 25.1063 27.2985 25.1063C27.9649 25.1063 28.4882 24.5831 28.4882 23.9166V21.6546H26.1309H26.1325Z" fill="white"/>
<path fill-rule="evenodd" clip-rule="evenodd" d="M30.6068 26.0593C29.4409 26.0593 28.488 25.1064 28.488 23.9166V21.1792C28.488 20.8928 28.7028 20.7036 28.9636 20.7036H32.2721C32.5346 20.7036 32.7476 20.8945 32.7476 21.1792V23.9166C32.7476 25.1064 31.7948 26.0593 30.605 26.0593H30.6068ZM29.4409 21.6546V23.9166C29.4409 24.583 29.9642 25.1063 30.6068 25.1063C31.2494 25.1063 31.7966 24.5831 31.7966 23.9166V21.6546H29.4392H29.4409Z" fill="white"/>
<path fill-rule="evenodd" clip-rule="evenodd" d="M33.9156 26.0593C32.7497 26.0593 31.7969 25.1064 31.7969 23.9166V21.1792C31.7969 20.8928 32.0116 20.7036 32.2724 20.7036H35.5571C35.8196 20.7036 36.0326 20.8945 36.0326 21.1792V23.9166C36.0326 25.1064 35.0798 26.0593 33.9139 26.0593H33.9156ZM32.7497 21.6546V23.9166C32.7497 24.583 33.273 25.1063 33.9156 25.1063C34.5583 25.1063 35.0816 24.5831 35.0816 23.9166V21.6546H32.748H32.7497Z" fill="white"/>
<path fill-rule="evenodd" clip-rule="evenodd" d="M37.2247 26.0593C36.0587 26.0593 35.082 25.1064 35.082 23.9166V21.1792C35.082 20.8928 35.2968 20.7036 35.5576 20.7036H38.8661C39.1286 20.7036 39.3416 20.8945 39.3416 21.1792V23.9166C39.3416 25.1064 38.3888 26.0593 37.2229 26.0593H37.2247ZM36.0349 21.6546V23.9166C36.0349 24.583 36.582 25.1063 37.2247 25.1063C37.8673 25.1063 38.3906 24.5831 38.3906 23.9166V21.6546H36.0332H36.0349Z" fill="white"/>
<path fill-rule="evenodd" clip-rule="evenodd" d="M40.5333 26.0593C39.3435 26.0593 38.3906 25.1064 38.3906 23.9166V21.1792C38.3906 20.8928 38.6054 20.7036 38.8662 20.7036H42.1747C42.4372 20.7036 42.6502 20.8945 42.6502 21.1792V23.9166C42.6502 25.1064 41.6974 26.0593 40.5315 26.0593H40.5333ZM39.3435 21.6546V23.9166C39.3435 24.583 39.8668 25.1063 40.5333 25.1063C41.1759 25.1063 41.6992 24.5831 41.6992 23.9166V21.6546H39.3418H39.3435Z" fill="white"/>
<path fill-rule="evenodd" clip-rule="evenodd" d="M20.4881 16.6791C19.3461 16.6791 18.4648 15.3939 18.4648 13.7746C18.4648 12.1314 19.3461 10.8462 20.4881 10.8462C21.6302 10.8462 22.5114 12.1314 22.5114 13.7746C22.5114 15.3939 21.6302 16.6791 20.4881 16.6791ZM20.4881 11.7988C19.9887 11.7988 19.4177 12.6085 19.4177 13.7744C19.4177 14.9164 19.9887 15.7261 20.4881 15.7261C21.0114 15.7261 21.5586 14.9164 21.5586 13.7744C21.5586 12.6084 21.0114 11.7988 20.4881 11.7988Z" fill="white"/>
<path fill-rule="evenodd" clip-rule="evenodd" d="M20.4873 20.061C20.2248 20.061 20.0117 19.8462 20.0117 19.5854V16.2053C20.0117 15.9428 20.2265 15.7297 20.4873 15.7297C20.7498 15.7297 20.9628 15.9445 20.9628 16.2053V19.5854C20.9628 19.8479 20.748 20.061 20.4873 20.061Z" fill="white"/>
<path fill-rule="evenodd" clip-rule="evenodd" d="M26.5341 20.2739C26.2716 20.2739 26.0586 20.0591 26.0586 19.7984V11.4904C26.0586 11.2279 26.2734 11.0149 26.5341 11.0149C26.7966 11.0149 27.0097 11.2297 27.0097 11.4904V19.7984C27.0097 20.0609 26.7949 20.2739 26.5341 20.2739Z" fill="white"/>
<path fill-rule="evenodd" clip-rule="evenodd" d="M26.1307 16.5136C24.8932 16.5136 24.3221 15.5846 24.2983 15.5369C24.2505 15.4653 24.2267 15.3699 24.2267 15.2744V11.5363C24.2267 11.2738 24.4415 11.0608 24.7022 11.0608C24.9647 11.0608 25.1778 11.2756 25.1778 11.5363V15.1312C25.321 15.2983 25.7249 15.6545 26.463 15.5113C26.7255 15.4636 26.9624 15.6545 27.0102 15.9153C27.0579 16.154 26.8908 16.4147 26.63 16.4625C26.463 16.4863 26.296 16.5102 26.1306 16.5102L26.1307 16.5136Z" fill="white"/>
<path fill-rule="evenodd" clip-rule="evenodd" d="M26.9381 16.5136C26.7949 16.5136 26.6278 16.4898 26.4625 16.4659C26.2 16.4182 26.0347 16.1557 26.0824 15.9187C26.1301 15.6562 26.3688 15.467 26.6296 15.5148C27.3676 15.6579 27.7477 15.3 27.9148 15.1347V11.5398C27.9148 11.2773 28.1296 11.0642 28.3903 11.0642C28.6528 11.0642 28.8659 11.279 28.8659 11.5398V15.2778C28.8659 15.3733 28.842 15.4687 28.7943 15.5403C28.7704 15.5881 28.1994 16.517 26.938 16.517L26.9381 16.5136Z" fill="white"/>
<path fill-rule="evenodd" clip-rule="evenodd" d="M24.0117 39.6288H10.3701C10.1076 39.6288 9.89453 39.414 9.89453 39.1532V30.155C9.89453 29.8925 10.1093 29.6794 10.3701 29.6794H24.0117C24.2742 29.6794 24.4872 29.8942 24.4872 30.155V39.1532C24.4872 39.4157 24.2725 39.6288 24.0117 39.6288ZM10.8475 38.676H23.536V30.629H10.8475V38.676Z" fill="white"/>
<path fill-rule="evenodd" clip-rule="evenodd" d="M35.866 35.2962H28.2724C28.0099 35.2962 27.7969 35.0814 27.7969 34.8206V30.1555C27.7969 29.893 28.0116 29.6799 28.2724 29.6799H35.866C36.1285 29.6799 36.3416 29.8947 36.3416 30.1555V34.8206C36.3416 35.0831 36.1268 35.2962 35.866 35.2962ZM28.7481 34.3433H35.3908V30.6292H28.7481V34.3433Z" fill="white"/>
<path fill-rule="evenodd" clip-rule="evenodd" d="M32.0576 35.2962C31.7951 35.2962 31.582 35.0814 31.582 34.8206V30.1555C31.582 29.893 31.7968 29.6799 32.0576 29.6799C32.3201 29.6799 32.5331 29.8947 32.5331 30.1555V34.8206C32.5331 35.0831 32.3184 35.2962 32.0576 35.2962Z" fill="white"/>
<path fill-rule="evenodd" clip-rule="evenodd" d="M35.866 32.9626H28.2724C28.0099 32.9626 27.7969 32.7478 27.7969 32.487C27.7969 32.2245 28.0116 32.0115 28.2724 32.0115H35.866C36.1285 32.0115 36.3416 32.2263 36.3416 32.487C36.3416 32.7495 36.1268 32.9626 35.866 32.9626Z" fill="white"/>
<path fill-rule="evenodd" clip-rule="evenodd" d="M17.1787 39.6288C16.9162 39.6288 16.7031 39.414 16.7031 39.1532V30.155C16.7031 29.8925 16.9179 29.6794 17.1787 29.6794C17.4412 29.6794 17.6542 29.8942 17.6542 30.155V39.1532C17.6542 39.4157 17.4394 39.6288 17.1787 39.6288Z" fill="white"/>
</svg>
