<svg width="44" height="39" viewBox="0 0 44 39" fill="none" xmlns="http://www.w3.org/2000/svg">
<path d="M34.3 32.7251H29.9315C29.4665 32.7251 29.0783 32.5666 28.767 32.2496C28.4557 31.9326 28.3 31.5404 28.3 31.0731C28.3 30.6054 28.4577 30.2181 28.773 29.9111C29.0883 29.6038 29.4785 29.4501 29.9435 29.4501H34.3V25.0816C34.3 24.6166 34.4585 24.2284 34.7755 23.9171C35.0925 23.6058 35.4848 23.4501 35.9525 23.4501C36.4198 23.4501 36.807 23.6058 37.114 23.9171C37.4213 24.2284 37.575 24.6166 37.575 25.0816V29.4501H41.9435C42.4085 29.4501 42.7967 29.6066 43.108 29.9196C43.4193 30.2329 43.575 30.6233 43.575 31.0906C43.575 31.5579 43.4193 31.9471 43.108 32.2581C42.7967 32.5694 42.4085 32.7251 41.9435 32.7251H37.575V37.1436C37.575 37.6086 37.4185 37.9968 37.1055 38.3081C36.7922 38.6194 36.4018 38.7751 35.9345 38.7751C35.4672 38.7751 35.078 38.6174 34.767 38.3021C34.4557 37.9868 34.3 37.5966 34.3 37.1316V32.7251ZM4.67599 32.8566C4.19532 32.8566 3.79132 32.6929 3.46399 32.3656C3.13665 32.0383 2.97299 31.6343 2.97299 31.1536V20.0066H1.73249C1.19749 20.0066 0.767153 19.8033 0.441487 19.3966C0.116153 18.9903 0.00731984 18.5259 0.114987 18.0036L2.37499 7.8556C2.44965 7.44893 2.64432 7.12143 2.95899 6.8731C3.27399 6.62443 3.62649 6.5001 4.01649 6.5001H31.74C32.138 6.5001 32.4943 6.62443 32.809 6.8731C33.124 7.12143 33.3188 7.44893 33.3935 7.8556L35.5455 17.5966C35.6615 18.1113 35.5547 18.5738 35.225 18.9841C34.8957 19.3948 34.4673 19.6001 33.94 19.6001H32.8V26.2466C32.8 26.7276 32.6355 27.1318 32.3065 27.4591C31.9775 27.7864 31.5713 27.9501 31.088 27.9501C30.6047 27.9501 30.2015 27.7864 29.8785 27.4591C29.5552 27.1318 29.3935 26.7276 29.3935 26.2466V19.8751H19.1315V31.1536C19.1315 31.6343 18.9678 32.0383 18.6405 32.3656C18.3132 32.6929 17.9092 32.8566 17.4285 32.8566H4.67599ZM6.37949 29.4501H15.725V20.0066H6.37949V29.4501ZM4.28049 3.5001C3.81549 3.5001 3.42732 3.3416 3.11599 3.0246C2.80465 2.7076 2.64899 2.31526 2.64899 1.8476C2.64899 1.38026 2.80665 0.993096 3.12199 0.686096C3.43732 0.378763 3.82749 0.225098 4.29249 0.225098H31.526C31.991 0.225098 32.3792 0.381598 32.6905 0.694598C33.0018 1.00793 33.1575 1.39826 33.1575 1.8656C33.1575 2.33293 32.9998 2.7221 32.6845 3.0331C32.3692 3.34443 31.979 3.5001 31.514 3.5001H4.28049ZM3.85549 16.6001H32.013L30.523 9.9066H5.33349L3.85549 16.6001Z" fill="white"/>
</svg>
