<svg width="48" height="48" viewBox="0 0 48 48" fill="none" xmlns="http://www.w3.org/2000/svg">
<path d="M12.94 16.5955C12.035 16.5955 11.269 16.282 10.642 15.655C10.0147 15.0276 9.70099 14.2655 9.70099 13.3685V6.91646C9.70099 6.01913 10.0147 5.25696 10.642 4.62996C11.269 4.00263 12.035 3.68896 12.94 3.68896H35.0715C35.9688 3.68896 36.731 4.00263 37.358 4.62996C37.9853 5.25696 38.299 6.01913 38.299 6.91646V13.3685C38.299 14.2655 37.9853 15.0276 37.358 15.655C36.731 16.282 35.9688 16.5955 35.0715 16.5955H12.94ZM14.165 13.3685H33.835C34.1963 13.3685 34.5068 13.2606 34.7665 13.045C35.0258 12.8293 35.1237 12.5248 35.06 12.1315V8.63146C35.06 8.14246 34.8983 7.7363 34.575 7.41296C34.2517 7.08996 33.8455 6.92846 33.3565 6.92846H14.6435C14.1545 6.92846 13.7483 7.08996 13.425 7.41296C13.1017 7.7363 12.94 8.14246 12.94 8.63146V12.1315C12.8763 12.5248 12.9742 12.8293 13.2335 13.045C13.4932 13.2606 13.8037 13.3685 14.165 13.3685ZM6.92849 44.299C6.03116 44.299 5.26899 43.9853 4.64199 43.358C4.01466 42.731 3.70099 41.9688 3.70099 41.0715V37.751H44.311V41.0715C44.311 41.9688 43.9973 42.731 43.37 43.358C42.743 43.9853 41.9808 44.299 41.0835 44.299H6.92849ZM3.72499 36.1315L11.0465 20.111C11.3292 19.5456 11.7283 19.0883 12.244 18.739C12.7597 18.3896 13.3243 18.215 13.938 18.215H34.074C34.6877 18.215 35.2523 18.3896 35.768 18.739C36.2837 19.0883 36.6827 19.5456 36.965 20.111L44.287 36.1315H3.72499ZM16.99 32.1795H18.9985C19.2662 32.1795 19.5 32.0795 19.7 31.8795C19.9 31.6795 20 31.4461 20 31.1795C20 30.9128 19.9 30.6795 19.7 30.4795C19.5 30.2795 19.2662 30.1795 18.9985 30.1795H16.99C16.722 30.1795 16.488 30.2795 16.288 30.4795C16.088 30.6795 15.988 30.9128 15.988 31.1795C15.988 31.4461 16.088 31.6795 16.288 31.8795C16.488 32.0795 16.722 32.1795 16.99 32.1795ZM16.99 28.1795H18.9985C19.2662 28.1795 19.5 28.0788 19.7 27.8775C19.9 27.6765 20 27.4418 20 27.1735C20 26.9051 19.9 26.6703 19.7 26.469C19.5 26.268 19.2662 26.1675 18.9985 26.1675H16.99C16.722 26.1675 16.488 26.268 16.288 26.469C16.088 26.6703 15.988 26.9051 15.988 27.1735C15.988 27.4418 16.088 27.6765 16.288 27.8775C16.488 28.0788 16.722 28.1795 16.99 28.1795ZM16.99 24.1675H18.9985C19.2662 24.1675 19.5 24.0695 19.7 23.8735C19.9 23.6775 20 23.4441 20 23.1735C20 22.9028 19.9 22.6675 19.7 22.4675C19.5 22.2675 19.2662 22.1675 18.9985 22.1675H16.99C16.722 22.1675 16.488 22.2675 16.288 22.4675C16.088 22.6675 15.988 22.9028 15.988 23.1735C15.988 23.4441 16.088 23.6775 16.288 23.8735C16.488 24.0695 16.722 24.1675 16.99 24.1675ZM23.0015 32.1795H25.01C25.278 32.1795 25.512 32.0795 25.712 31.8795C25.912 31.6795 26.012 31.4461 26.012 31.1795C26.012 30.9128 25.912 30.6795 25.712 30.4795C25.512 30.2795 25.278 30.1795 25.01 30.1795H23.0015C22.7338 30.1795 22.5 30.2795 22.3 30.4795C22.1 30.6795 22 30.9128 22 31.1795C22 31.4461 22.1 31.6795 22.3 31.8795C22.5 32.0795 22.7338 32.1795 23.0015 32.1795ZM23.0015 28.1795H25.01C25.278 28.1795 25.512 28.0788 25.712 27.8775C25.912 27.6765 26.012 27.4418 26.012 27.1735C26.012 26.9051 25.912 26.6703 25.712 26.469C25.512 26.268 25.278 26.1675 25.01 26.1675H23.0015C22.7338 26.1675 22.5 26.268 22.3 26.469C22.1 26.6703 22 26.9051 22 27.1735C22 27.4418 22.1 27.6765 22.3 27.8775C22.5 28.0788 22.7338 28.1795 23.0015 28.1795ZM23.0015 24.1675H25.01C25.278 24.1675 25.512 24.0695 25.712 23.8735C25.912 23.6775 26.012 23.4441 26.012 23.1735C26.012 22.9028 25.912 22.6675 25.712 22.4675C25.512 22.2675 25.278 22.1675 25.01 22.1675H23.0015C22.7338 22.1675 22.5 22.2675 22.3 22.4675C22.1 22.6675 22 22.9028 22 23.1735C22 23.4441 22.1 23.6775 22.3 23.8735C22.5 24.0695 22.7338 24.1675 23.0015 24.1675ZM29.012 32.1795H31.012C31.2867 32.1795 31.524 32.0795 31.724 31.8795C31.924 31.6795 32.024 31.4461 32.024 31.1795C32.024 30.9128 31.924 30.6795 31.724 30.4795C31.524 30.2795 31.2867 30.1795 31.012 30.1795H29.012C28.7373 30.1795 28.502 30.2795 28.306 30.4795C28.11 30.6795 28.012 30.9128 28.012 31.1795C28.012 31.4461 28.11 31.6795 28.306 31.8795C28.502 32.0795 28.7373 32.1795 29.012 32.1795ZM29.012 28.1795H31.012C31.2867 28.1795 31.524 28.0788 31.724 27.8775C31.924 27.6765 32.024 27.4418 32.024 27.1735C32.024 26.9051 31.924 26.6703 31.724 26.469C31.524 26.268 31.2867 26.1675 31.012 26.1675H29.012C28.7373 26.1675 28.502 26.268 28.306 26.469C28.11 26.6703 28.012 26.9051 28.012 27.1735C28.012 27.4418 28.11 27.6765 28.306 27.8775C28.502 28.0788 28.7373 28.1795 29.012 28.1795ZM29.012 24.1675H31.012C31.2867 24.1675 31.524 24.0695 31.724 23.8735C31.924 23.6775 32.024 23.4441 32.024 23.1735C32.024 22.9028 31.924 22.6675 31.724 22.4675C31.524 22.2675 31.2867 22.1675 31.012 22.1675H29.012C28.7373 22.1675 28.502 22.2675 28.306 22.4675C28.11 22.6675 28.012 22.9008 28.012 23.1675C28.012 23.4421 28.11 23.6775 28.306 23.8735C28.502 24.0695 28.7373 24.1675 29.012 24.1675Z" fill="white"/>
</svg>
