<svg width="48" height="48" viewBox="0 0 48 48" fill="none" xmlns="http://www.w3.org/2000/svg">
<path d="M6.95581 13.7725C8.32966 13.7708 9.60978 13.0788 10.3649 11.9316C11.1234 13.0737 12.4036 13.7606 13.774 13.7606C15.1444 13.7606 16.4246 13.0737 17.1831 11.9316C17.9416 13.0737 19.2217 13.7606 20.5922 13.7606C21.9626 13.7606 23.2427 13.0737 24.0013 11.9316C24.7768 13.089 26.0876 13.7742 27.482 13.7452C28.8746 13.718 30.1581 12.9833 30.8877 11.7952C31.6053 12.9662 32.8615 13.6975 34.232 13.7469C35.6041 13.7947 36.9081 13.1503 37.7058 12.0339C38.7337 13.4878 40.5831 14.11 42.2807 13.573C43.9782 13.0361 45.1341 11.4628 45.1375 9.68155C45.1443 9.6253 45.1443 9.56735 45.1375 9.5111C45.1784 9.30826 45.1256 9.09689 44.9926 8.93837C44.8614 8.77814 44.6636 8.68951 44.4557 8.69292L38.4216 2.89757C38.0432 2.44074 37.4807 2.17827 36.8876 2.18167H11.115C10.5219 2.17826 9.95938 2.44076 9.58096 2.89757L3.54693 8.65888C3.33897 8.65547 3.14124 8.74411 3.00998 8.90434C2.87703 9.06286 2.82419 9.27422 2.8651 9.47706C2.85828 9.53331 2.85828 9.59127 2.8651 9.64752C2.85657 10.7384 3.28271 11.7884 4.05148 12.5623C4.81852 13.3361 5.8649 13.7725 6.95581 13.7725ZM6.95581 12.4089C5.58707 12.4021 4.43311 11.3811 4.26262 10.0225H9.64909C9.47864 11.3811 8.32455 12.4021 6.95581 12.4089ZM18.615 3.54549L16.8082 8.65924H11.8651L15.206 3.54549H18.615ZM23.3194 3.54549V8.65924H18.2742L20.0469 3.54549H23.3194ZM27.9558 3.54549L29.7626 8.65924H24.6829V3.54549H27.9558ZM32.8309 3.54549L36.1718 8.65924H31.1946L29.3878 3.54549H32.8309ZM13.774 12.4089C12.4053 12.4021 11.2513 11.3811 11.0808 10.0225H16.4673C16.2968 11.3811 15.1427 12.4021 13.774 12.4089ZM20.5922 12.4089C19.2234 12.4021 18.0695 11.3811 17.899 10.0225H23.2855C23.115 11.3811 21.9609 12.4021 20.5922 12.4089ZM27.4104 12.4089C26.0416 12.4021 24.8877 11.3811 24.7172 10.0225H30.1036C29.9332 11.3811 28.7791 12.4021 27.4104 12.4089ZM34.3992 12.4089C33.0304 12.4021 31.8764 11.3811 31.706 10.0225H36.9899C36.9899 10.1589 37.024 10.2953 37.024 10.3975C36.7018 11.5822 35.6264 12.4055 34.3992 12.4089ZM41.0467 12.4089C39.8195 12.4055 38.7439 11.5822 38.4217 10.3975C38.4558 10.2612 38.4558 10.1589 38.4558 10.0225H43.7397C43.5693 11.3811 42.4155 12.4021 41.0467 12.4089ZM37.3649 3.78375L37.4331 3.85193L42.4783 8.65891H37.8079L34.467 3.54517H36.8875C37.075 3.54857 37.2507 3.63545 37.3649 3.78375ZM10.5355 3.85193L10.6037 3.78375C10.7247 3.62523 10.9156 3.53659 11.1151 3.54511H13.5696L10.2287 8.65885H5.5243L10.5355 3.85193Z" fill="white"/>
<path d="M44.4557 45.1366V39.0005C44.4557 37.8704 43.5404 36.955 42.4103 36.955H41.7285V15.1028H40.3648V36.955H32.0469C32.1304 36.7368 32.1764 36.5067 32.1832 36.2732V28.1594C32.1798 27.6327 31.8747 27.1555 31.3991 26.9322H31.2968L32.0469 25.364C32.3929 24.7213 32.4304 23.9577 32.1491 23.2844C32.0605 23.0782 31.9463 22.8839 31.8082 22.7049C32.7287 20.1822 35.49 18.8186 35.5241 18.8186C35.7986 18.6958 35.9605 18.4061 35.9213 18.1078C35.8821 17.8078 35.652 17.5708 35.3537 17.5231C33.5196 17.1123 31.6088 17.7413 30.3765 19.1595C30.1498 17.2811 28.9038 15.6805 27.1378 15.0004C26.8634 14.8777 26.5413 14.951 26.3452 15.1777C26.1492 15.4061 26.1236 15.7351 26.2856 15.9891C26.2856 16.0232 27.8879 18.7504 27.1719 21.4096L26.7288 21.6482C26.3623 21.8954 26.0674 22.238 25.8765 22.6368C26.3776 23.4192 26.693 24.3056 26.797 25.2277L27.0015 23.5573C27.0322 23.2368 27.2078 22.9488 27.4788 22.7732C27.8521 22.5277 28.3157 22.4647 28.7401 22.6027L29.9333 22.9777C30.3578 23.0937 30.7089 23.3937 30.8879 23.7959C31.0174 24.0925 31.0055 24.4317 30.8538 24.7164L30.547 25.33L29.422 25.1255C29.0811 25.1118 28.7828 25.3505 28.7231 25.6863C28.6634 26.0221 28.8595 26.3493 29.1833 26.455L29.9334 26.5914L29.5243 27.4096H28.3311L27.2402 26.5232C26.7425 26.1244 26.0334 26.1244 25.5356 26.5232L25.3993 26.6255C25.4214 26.4329 25.4317 26.2403 25.4334 26.046C25.4334 23.7619 24.0697 21.9551 22.3311 21.9551C20.5924 21.9551 19.2288 23.7619 19.2288 26.046C19.2305 26.4942 19.2868 26.9409 19.3993 27.3755L18.7515 27.8869L18.0015 27.2733C17.9674 27.1028 17.9333 26.9324 17.9333 26.7619L17.456 26.8983H17.3878L17.1492 25.9437L17.7969 25.7733H17.8651C17.8873 25.3829 17.9452 24.9943 18.0356 24.6142C17.8685 24.4949 17.6555 24.4574 17.456 24.5119L16.8083 24.6824L16.5356 23.6938L17.1833 23.5233C17.5498 23.4296 17.7714 23.0546 17.6776 22.6881C17.5839 22.3216 17.2089 22.1 16.8424 22.1937L16.1946 22.3642L16.0924 22.0233C16.0191 21.7608 16.0532 21.4812 16.1878 21.2443C16.3225 21.0074 16.5458 20.8335 16.8083 20.7619H17.081C17.5412 20.7602 17.9469 21.067 18.0696 21.5119L18.5128 23.2164C18.7685 22.6846 19.1145 22.1988 19.5356 21.7846L19.3651 21.1369C18.9645 19.9437 17.7049 19.267 16.4878 19.5909C15.2708 19.9147 14.5157 21.1301 14.7628 22.3642L15.0356 23.3528L15.6492 25.671L16.0242 27.0687C15.7037 27.3261 15.5145 27.7147 15.5128 28.1255V36.2733C15.5077 36.5051 15.5435 36.7352 15.6151 36.9551H7.63791V15.1029H6.27427V36.9551H5.59245C4.46236 36.9551 3.547 37.8705 3.547 39.0006V45.1367C3.547 45.3174 3.61859 45.4913 3.74643 45.6191C3.87427 45.747 4.04813 45.8186 4.22883 45.8186H43.7743C43.955 45.8186 44.1288 45.747 44.2567 45.6191C44.3845 45.4913 44.4557 45.3173 44.4557 45.1366ZM32.7625 19.0229C31.8813 19.7865 31.1739 20.7274 30.683 21.7842L30.3761 21.6819C30.683 20.8978 31.3988 19.6024 32.7625 19.0229ZM28.6034 21.2047C28.796 20.0473 28.7381 18.8609 28.433 17.7274C29.2511 18.9547 29.1148 20.4206 28.9443 21.2388L28.6034 21.2047ZM22.3307 23.3183C23.2852 23.3183 24.0693 24.5797 24.0693 26.0456C24.0727 26.6388 23.9313 27.2234 23.6602 27.7501L22.1262 26.5229C21.6847 26.1768 21.0762 26.1359 20.5921 26.4206C20.5921 26.2842 20.558 26.1819 20.558 26.0456C20.5921 24.5797 21.3761 23.3183 22.3307 23.3183ZM17.0468 36.75C16.9189 36.6239 16.8456 36.4534 16.8422 36.2727V28.4317H17.1831L17.899 29.0113C18.3967 29.4101 19.1058 29.4101 19.6035 29.0113L21.3081 27.6476L23.0126 29.0113C23.5103 29.4101 24.2194 29.4101 24.7171 29.0113L26.4216 27.6476L27.683 28.6363L27.7512 28.7044L28.1262 29.0113C28.6239 29.4101 29.333 29.4101 29.8307 29.0113L30.8535 28.1931V36.2728C30.8535 36.4535 30.7819 36.6273 30.654 36.7552C30.5262 36.883 30.3523 36.9546 30.1716 36.9546H17.5241C17.3434 36.9512 17.1729 36.8779 17.0468 36.75ZM43.0924 44.4545H4.91062V38.9999C4.91062 38.6232 5.21573 38.3181 5.59243 38.3181H42.4106C42.5913 38.3181 42.7652 38.3897 42.893 38.5175C43.0209 38.6454 43.0924 38.8193 43.0924 38.9999L43.0924 44.4545Z" fill="white"/>
<path d="M40.3661 40.3638H7.63885C7.26215 40.3638 6.95703 40.6689 6.95703 41.0456C6.95703 41.4223 7.26215 41.7274 7.63885 41.7274H40.3661C40.7428 41.7274 41.0479 41.4223 41.0479 41.0456C41.0479 40.6689 40.7428 40.3638 40.3661 40.3638Z" fill="white"/>
</svg>
