<svg width="48" height="48" viewBox="0 0 48 48" fill="none" xmlns="http://www.w3.org/2000/svg">
<path d="M24 9.35547L7.13148 16.0955V38.8685H12.8685V26.6935C12.8685 25.7451 13.2021 24.9383 13.8695 24.273C14.5365 23.6076 15.3383 23.275 16.275 23.275H31.725C32.6616 23.275 33.4635 23.6076 34.1305 24.273C34.7978 24.9383 35.1315 25.7451 35.1315 26.6935V38.8685H40.8685V16.0955L24 9.35547ZM3.72498 38.8685V16.1335C3.72498 15.4245 3.92114 14.7838 4.31348 14.2115C4.70614 13.6391 5.23098 13.219 5.88798 12.951L22.7445 6.21097C23.1591 6.03631 23.5776 5.94897 24 5.94897C24.4223 5.94897 24.8408 6.03631 25.2555 6.21097L42.124 12.951C42.773 13.219 43.2938 13.6391 43.6865 14.2115C44.0788 14.7838 44.275 15.4245 44.275 16.1335V38.8685C44.275 39.8051 43.9413 40.607 43.274 41.274C42.607 41.9413 41.8051 42.275 40.8685 42.275H31.8685V26.55H16.1315V42.275H7.13148C6.19481 42.275 5.39298 41.9413 4.72598 41.274C4.05864 40.607 3.72498 39.8051 3.72498 38.8685ZM18.6315 42.275V39.275H21.6315V42.275H18.6315ZM22.5 36.275V33.275H25.5V36.275H22.5ZM26.3685 42.275V39.275H29.3685V42.275H26.3685Z" fill="white"/>
</svg>
