<svg width="20" height="20" viewBox="0 0 20 20" fill="none" xmlns="http://www.w3.org/2000/svg">
<path d="M19.2183 7.71328L14.8433 2.71328C14.7848 2.64647 14.7128 2.59289 14.6319 2.55612C14.5511 2.51934 14.4634 2.50021 14.3746 2.5H5.62457C5.53577 2.50021 5.44803 2.51934 5.36721 2.55612C5.28638 2.59289 5.21432 2.64647 5.15582 2.71328L0.780819 7.71328C0.678754 7.82981 0.623601 7.98009 0.626055 8.13498C0.628509 8.28987 0.688395 8.43832 0.7941 8.55156L9.5441 17.9266C9.60258 17.9893 9.67333 18.0392 9.75196 18.0734C9.83058 18.1076 9.9154 18.1252 10.0011 18.1252C10.0869 18.1252 10.1717 18.1076 10.2503 18.0734C10.3289 18.0392 10.3997 17.9893 10.4582 17.9266L19.2082 8.55156C19.3134 8.43793 19.3728 8.28926 19.3746 8.13438C19.3765 7.97949 19.3208 7.82943 19.2183 7.71328ZM17.3722 7.5H14.0621L11.2496 3.75H14.091L17.3722 7.5ZM5.82613 8.75L8.18004 14.6352L2.68785 8.75H5.82613ZM12.8261 8.75L9.99957 15.8172L7.17301 8.75H12.8261ZM7.49957 7.5L9.99957 4.16641L12.4996 7.5H7.49957ZM14.173 8.75H17.3113L11.8191 14.6352L14.173 8.75ZM5.90816 3.75H8.74957L5.93707 7.5H2.62691L5.90816 3.75Z" fill="#EAE6F3"/>
</svg>
