<svg width="24" height="19" viewBox="0 0 24 19" fill="none" xmlns="http://www.w3.org/2000/svg">
<path d="M2.25 7.75002H4.5V13.75H3C2.80109 13.75 2.61032 13.829 2.46967 13.9697C2.32902 14.1103 2.25 14.3011 2.25 14.5C2.25 14.6989 2.32902 14.8897 2.46967 15.0304C2.61032 15.171 2.80109 15.25 3 15.25H21C21.1989 15.25 21.3897 15.171 21.5303 15.0304C21.671 14.8897 21.75 14.6989 21.75 14.5C21.75 14.3011 21.671 14.1103 21.5303 13.9697C21.3897 13.829 21.1989 13.75 21 13.75H19.5V7.75002H21.75C21.9132 7.74986 22.0719 7.69647 22.202 7.59797C22.3321 7.49947 22.4265 7.36122 22.4709 7.2042C22.5153 7.04717 22.5073 6.87995 22.4481 6.72788C22.3889 6.57582 22.2817 6.44722 22.1428 6.36159L12.3928 0.361584C12.2747 0.288945 12.1387 0.250488 12 0.250488C11.8613 0.250488 11.7253 0.288945 11.6072 0.361584L1.85719 6.36159C1.71828 6.44722 1.61108 6.57582 1.55187 6.72788C1.49266 6.87995 1.48466 7.04717 1.52908 7.2042C1.57351 7.36122 1.66793 7.49947 1.79803 7.59797C1.92814 7.69647 2.08681 7.74986 2.25 7.75002ZM6 7.75002H9V13.75H6V7.75002ZM13.5 7.75002V13.75H10.5V7.75002H13.5ZM18 13.75H15V7.75002H18V13.75ZM12 1.88033L19.1006 6.25002H4.89937L12 1.88033ZM23.25 17.5C23.25 17.6989 23.171 17.8897 23.0303 18.0304C22.8897 18.171 22.6989 18.25 22.5 18.25H1.5C1.30109 18.25 1.11032 18.171 0.96967 18.0304C0.829018 17.8897 0.75 17.6989 0.75 17.5C0.75 17.3011 0.829018 17.1103 0.96967 16.9697C1.11032 16.829 1.30109 16.75 1.5 16.75H22.5C22.6989 16.75 22.8897 16.829 23.0303 16.9697C23.171 17.1103 23.25 17.3011 23.25 17.5Z" fill="#7459AF"/>
</svg>
