<svg width="20" height="20" viewBox="0 0 20 20" fill="none" xmlns="http://www.w3.org/2000/svg">
<path d="M19.6484 17.8751C18.2206 15.4067 16.0203 13.6367 13.4525 12.7976C14.7226 12.0415 15.7094 10.8893 16.2614 9.51804C16.8134 8.14678 16.8999 6.63224 16.5078 5.20701C16.1157 3.78178 15.2666 2.52467 14.0909 1.62873C12.9151 0.732786 11.4778 0.247559 9.99964 0.247559C8.52146 0.247559 7.08414 0.732786 5.90842 1.62873C4.73269 2.52467 3.88358 3.78178 3.49146 5.20701C3.09935 6.63224 3.18592 8.14678 3.73788 9.51804C4.28984 10.8893 5.27668 12.0415 6.54683 12.7976C3.97902 13.6357 1.77871 15.4057 0.350893 17.8751C0.298533 17.9605 0.263803 18.0555 0.248752 18.1545C0.233701 18.2535 0.238634 18.3545 0.26326 18.4516C0.287886 18.5487 0.331707 18.6399 0.392136 18.7197C0.452565 18.7996 0.528379 18.8666 0.615104 18.9167C0.70183 18.9667 0.79771 18.999 0.897088 19.0114C0.996466 19.0238 1.09733 19.0163 1.19373 18.9891C1.29012 18.9619 1.3801 18.9157 1.45835 18.8532C1.5366 18.7907 1.60154 18.7131 1.64933 18.6251C3.41558 15.5726 6.53746 13.7501 9.99964 13.7501C13.4618 13.7501 16.5837 15.5726 18.35 18.6251C18.3977 18.7131 18.4627 18.7907 18.5409 18.8532C18.6192 18.9157 18.7092 18.9619 18.8056 18.9891C18.902 19.0163 19.0028 19.0238 19.1022 19.0114C19.2016 18.999 19.2975 18.9667 19.3842 18.9167C19.4709 18.8666 19.5467 18.7996 19.6072 18.7197C19.6676 18.6399 19.7114 18.5487 19.736 18.4516C19.7607 18.3545 19.7656 18.2535 19.7505 18.1545C19.7355 18.0555 19.7008 17.9605 19.6484 17.8751ZM4.74964 7.00011C4.74964 5.96176 5.05755 4.94672 5.63443 4.08337C6.21131 3.22001 7.03124 2.5471 7.99056 2.14974C8.94987 1.75238 10.0055 1.64841 11.0239 1.85099C12.0423 2.05356 12.9777 2.55357 13.712 3.2878C14.4462 4.02202 14.9462 4.95748 15.1488 5.97589C15.3513 6.99429 15.2474 8.04989 14.85 9.0092C14.4527 9.96851 13.7797 10.7884 12.9164 11.3653C12.053 11.9422 11.038 12.2501 9.99964 12.2501C8.60771 12.2486 7.27322 11.695 6.28898 10.7108C5.30473 9.72653 4.75113 8.39204 4.74964 7.00011Z" fill="#7459AF"/>
</svg>
