<svg width="24" height="19" viewBox="0 0 24 19" fill="none" xmlns="http://www.w3.org/2000/svg">
<g clip-path="url(#clip0_935_190)">
<path d="M5.45456 18.5303V9.18253L2.57878 6.53036L0 5.05859V16.8807C0 17.7934 0.733594 18.5303 1.63641 18.5303H5.45456Z" fill="#4285F4"/>
<path d="M18.5454 18.5302H22.3636C23.2691 18.5302 24 17.7906 24 16.8806V5.05859L21.0791 6.74433L18.5454 9.18244V18.5302Z" fill="#34A853"/>
<path d="M5.45456 9.18237L5.06325 5.52993L5.45456 2.03418L12 6.98298L18.5454 2.03418L18.9832 5.3412L18.5454 9.18237L12 14.1312L5.45456 9.18237Z" fill="#EA4335"/>
<path d="M18.5454 2.03412V9.18231L24 5.05837V2.85889C24 0.818937 21.69 -0.343982 20.0728 0.879422L18.5454 2.03412Z" fill="#FBBC04"/>
<path d="M0 5.05841L2.50866 6.95518L5.45456 9.18235V2.03416L3.92719 0.879465C2.30719 -0.344033 0 0.81898 0 2.85884V5.05832V5.05841Z" fill="#C5221F"/>
</g>
<defs>
<clipPath id="clip0_935_190">
<rect width="24" height="18.24" fill="white" transform="translate(0 0.379883)"/>
</clipPath>
</defs>
</svg>
