<svg width="20" height="20" viewBox="0 0 20 20" fill="none" xmlns="http://www.w3.org/2000/svg">
<path d="M16.875 3.125H5.625C5.29348 3.125 4.97554 3.2567 4.74112 3.49112C4.5067 3.72554 4.375 4.04348 4.375 4.375V5.625H3.125C2.79348 5.625 2.47554 5.7567 2.24112 5.99112C2.0067 6.22554 1.875 6.54348 1.875 6.875V15.625C1.875 15.9565 2.0067 16.2745 2.24112 16.5089C2.47554 16.7433 2.79348 16.875 3.125 16.875H14.375C14.7065 16.875 15.0245 16.7433 15.2589 16.5089C15.4933 16.2745 15.625 15.9565 15.625 15.625V14.375H16.875C17.2065 14.375 17.5245 14.2433 17.7589 14.0089C17.9933 13.7745 18.125 13.4565 18.125 13.125V4.375C18.125 4.04348 17.9933 3.72554 17.7589 3.49112C17.5245 3.2567 17.2065 3.125 16.875 3.125ZM5.625 4.375H16.875V9.27734L16.0883 8.49141C15.9722 8.3753 15.8344 8.2832 15.6827 8.22037C15.531 8.15753 15.3685 8.12519 15.2043 8.12519C15.0401 8.12519 14.8776 8.15753 14.7259 8.22037C14.5742 8.2832 14.4364 8.3753 14.3203 8.49141L12.7578 10.0539L9.32031 6.61641C9.08592 6.38216 8.7681 6.25058 8.43672 6.25058C8.10534 6.25058 7.78752 6.38216 7.55312 6.61641L5.625 8.54453V4.375ZM14.375 15.625H3.125V6.875H4.375V13.125C4.375 13.4565 4.5067 13.7745 4.74112 14.0089C4.97554 14.2433 5.29348 14.375 5.625 14.375H14.375V15.625ZM16.875 13.125H5.625V10.3125L8.4375 7.5L12.3172 11.3797C12.4344 11.4968 12.5933 11.5626 12.759 11.5626C12.9247 11.5626 13.0836 11.4968 13.2008 11.3797L15.2055 9.375L16.875 11.0453V13.125ZM12.5 6.5625C12.5 6.37708 12.555 6.19582 12.658 6.04165C12.761 5.88748 12.9074 5.76732 13.0787 5.69636C13.25 5.62541 13.4385 5.60684 13.6204 5.64301C13.8023 5.67919 13.9693 5.76848 14.1004 5.89959C14.2315 6.0307 14.3208 6.19775 14.357 6.3796C14.3932 6.56146 14.3746 6.74996 14.3036 6.92127C14.2327 7.09257 14.1125 7.23899 13.9583 7.342C13.8042 7.44502 13.6229 7.5 13.4375 7.5C13.1889 7.5 12.9504 7.40123 12.7746 7.22541C12.5988 7.0496 12.5 6.81114 12.5 6.5625Z" fill="#EAE6F3"/>
</svg>
