<svg width="20" height="20" viewBox="0 0 20 20" fill="none" xmlns="http://www.w3.org/2000/svg">
<path d="M15 5.625C15 5.79076 14.9342 5.94973 14.8169 6.06694C14.6997 6.18415 14.5408 6.25 14.375 6.25H12.5C12.3342 6.25 12.1753 6.18415 12.0581 6.06694C11.9408 5.94973 11.875 5.79076 11.875 5.625C11.875 5.45924 11.9408 5.30027 12.0581 5.18306C12.1753 5.06585 12.3342 5 12.5 5H14.375C14.5408 5 14.6997 5.06585 14.8169 5.18306C14.9342 5.30027 15 5.45924 15 5.625ZM14.375 7.5H12.5C12.3342 7.5 12.1753 7.56585 12.0581 7.68306C11.9408 7.80027 11.875 7.95924 11.875 8.125C11.875 8.29076 11.9408 8.44973 12.0581 8.56694C12.1753 8.68415 12.3342 8.75 12.5 8.75H14.375C14.5408 8.75 14.6997 8.68415 14.8169 8.56694C14.9342 8.44973 15 8.29076 15 8.125C15 7.95924 14.9342 7.80027 14.8169 7.68306C14.6997 7.56585 14.5408 7.5 14.375 7.5ZM5.625 6.25H7.5C7.66576 6.25 7.82473 6.18415 7.94194 6.06694C8.05915 5.94973 8.125 5.79076 8.125 5.625C8.125 5.45924 8.05915 5.30027 7.94194 5.18306C7.82473 5.06585 7.66576 5 7.5 5H5.625C5.45924 5 5.30027 5.06585 5.18306 5.18306C5.06585 5.30027 5 5.45924 5 5.625C5 5.79076 5.06585 5.94973 5.18306 6.06694C5.30027 6.18415 5.45924 6.25 5.625 6.25ZM7.5 7.5H5.625C5.45924 7.5 5.30027 7.56585 5.18306 7.68306C5.06585 7.80027 5 7.95924 5 8.125C5 8.29076 5.06585 8.44973 5.18306 8.56694C5.30027 8.68415 5.45924 8.75 5.625 8.75H7.5C7.66576 8.75 7.82473 8.68415 7.94194 8.56694C8.05915 8.44973 8.125 8.29076 8.125 8.125C8.125 7.95924 8.05915 7.80027 7.94194 7.68306C7.82473 7.56585 7.66576 7.5 7.5 7.5ZM17.5 3.75V17.5C17.5 17.6658 17.4342 17.8247 17.3169 17.9419C17.1997 18.0592 17.0408 18.125 16.875 18.125C16.7092 18.125 16.5503 18.0592 16.4331 17.9419C16.3158 17.8247 16.25 17.6658 16.25 17.5V16.25H10.625V17.5C10.625 17.6658 10.5592 17.8247 10.4419 17.9419C10.3247 18.0592 10.1658 18.125 10 18.125C9.83424 18.125 9.67527 18.0592 9.55806 17.9419C9.44085 17.8247 9.375 17.6658 9.375 17.5V16.25H3.75V17.5C3.75 17.6658 3.68415 17.8247 3.56694 17.9419C3.44973 18.0592 3.29076 18.125 3.125 18.125C2.95924 18.125 2.80027 18.0592 2.68306 17.9419C2.56585 17.8247 2.5 17.6658 2.5 17.5V3.75C2.5 3.41848 2.6317 3.10054 2.86612 2.86612C3.10054 2.6317 3.41848 2.5 3.75 2.5H16.25C16.5815 2.5 16.8995 2.6317 17.1339 2.86612C17.3683 3.10054 17.5 3.41848 17.5 3.75ZM9.375 15V3.75H3.75V15H9.375ZM10.625 15H16.25V3.75H10.625V15Z" fill="#F6F6F7"/>
</svg>
