<svg width="20" height="20" viewBox="0 0 20 20" fill="none" xmlns="http://www.w3.org/2000/svg">
<path d="M16.2505 7.5V2.5C16.2505 2.33424 16.1846 2.17527 16.0674 2.05806C15.9502 1.94085 15.7912 1.875 15.6255 1.875H4.37547C4.2484 1.87471 4.12425 1.91316 4.01959 1.98522C3.91492 2.05728 3.83471 2.15954 3.78965 2.27835C3.74458 2.39717 3.7368 2.5269 3.76735 2.65025C3.7979 2.77359 3.86532 2.8847 3.96063 2.96875L8.35985 6.875H4.37547C4.20971 6.875 4.05074 6.94085 3.93353 7.05806C3.81632 7.17527 3.75047 7.33424 3.75047 7.5V12.5C3.75041 12.5821 3.76652 12.6634 3.79789 12.7393C3.82925 12.8152 3.87526 12.8841 3.93328 12.9422L9.55828 18.5672C9.64569 18.6547 9.7571 18.7143 9.8784 18.7385C9.99971 18.7626 10.1254 18.7502 10.2397 18.7029C10.354 18.6555 10.4516 18.5754 10.5203 18.4725C10.589 18.3696 10.6256 18.2487 10.6255 18.125V13.125H15.6255C15.7525 13.1253 15.8767 13.0868 15.9814 13.0148C16.086 12.9427 16.1662 12.8405 16.2113 12.7216C16.2564 12.6028 16.2641 12.4731 16.2336 12.3498C16.203 12.2264 16.1356 12.1153 16.0403 12.0313L11.6411 8.125H15.6255C15.7912 8.125 15.9502 8.05915 16.0674 7.94194C16.1846 7.82473 16.2505 7.66576 16.2505 7.5ZM13.9848 11.875H10.0005C9.83471 11.875 9.67574 11.9408 9.55853 12.0581C9.44132 12.1753 9.37547 12.3342 9.37547 12.5V16.6164L5.00047 12.2414V8.125H9.7661L13.9848 11.875ZM15.0005 6.875H10.2348L6.0161 3.125H15.0005V6.875Z" fill="#EAE6F3"/>
</svg>
