<svg width="20" height="20" viewBox="0 0 20 20" fill="none" xmlns="http://www.w3.org/2000/svg">
<path d="M6.25 7.5C6.25 7.66576 6.18415 7.82473 6.06694 7.94194C5.94973 8.05915 5.79076 8.125 5.625 8.125H1.875C1.70924 8.125 1.55027 8.05915 1.43306 7.94194C1.31585 7.82473 1.25 7.66576 1.25 7.5C1.25 7.33424 1.31585 7.17527 1.43306 7.05806C1.55027 6.94085 1.70924 6.875 1.875 6.875H5.625C5.79076 6.875 5.94973 6.94085 6.06694 7.05806C6.18415 7.17527 6.25 7.33424 6.25 7.5ZM5.625 9.375H1.875C1.70924 9.375 1.55027 9.44085 1.43306 9.55806C1.31585 9.67527 1.25 9.83424 1.25 10C1.25 10.1658 1.31585 10.3247 1.43306 10.4419C1.55027 10.5592 1.70924 10.625 1.875 10.625H5.625C5.79076 10.625 5.94973 10.5592 6.06694 10.4419C6.18415 10.3247 6.25 10.1658 6.25 10C6.25 9.83424 6.18415 9.67527 6.06694 9.55806C5.94973 9.44085 5.79076 9.375 5.625 9.375ZM5.625 11.875H1.875C1.70924 11.875 1.55027 11.9408 1.43306 12.0581C1.31585 12.1753 1.25 12.3342 1.25 12.5C1.25 12.6658 1.31585 12.8247 1.43306 12.9419C1.55027 13.0592 1.70924 13.125 1.875 13.125H5.625C5.79076 13.125 5.94973 13.0592 6.06694 12.9419C6.18415 12.8247 6.25 12.6658 6.25 12.5C6.25 12.3342 6.18415 12.1753 6.06694 12.0581C5.94973 11.9408 5.79076 11.875 5.625 11.875ZM5.625 14.375H1.875C1.70924 14.375 1.55027 14.4408 1.43306 14.5581C1.31585 14.6753 1.25 14.8342 1.25 15C1.25 15.1658 1.31585 15.3247 1.43306 15.4419C1.55027 15.5592 1.70924 15.625 1.875 15.625H5.625C5.79076 15.625 5.94973 15.5592 6.06694 15.4419C6.18415 15.3247 6.25 15.1658 6.25 15C6.25 14.8342 6.18415 14.6753 6.06694 14.5581C5.94973 14.4408 5.79076 14.375 5.625 14.375ZM11.875 9.375H8.125C7.95924 9.375 7.80027 9.44085 7.68306 9.55806C7.56585 9.67527 7.5 9.83424 7.5 10C7.5 10.1658 7.56585 10.3247 7.68306 10.4419C7.80027 10.5592 7.95924 10.625 8.125 10.625H11.875C12.0408 10.625 12.1997 10.5592 12.3169 10.4419C12.4342 10.3247 12.5 10.1658 12.5 10C12.5 9.83424 12.4342 9.67527 12.3169 9.55806C12.1997 9.44085 12.0408 9.375 11.875 9.375ZM11.875 11.875H8.125C7.95924 11.875 7.80027 11.9408 7.68306 12.0581C7.56585 12.1753 7.5 12.3342 7.5 12.5C7.5 12.6658 7.56585 12.8247 7.68306 12.9419C7.80027 13.0592 7.95924 13.125 8.125 13.125H11.875C12.0408 13.125 12.1997 13.0592 12.3169 12.9419C12.4342 12.8247 12.5 12.6658 12.5 12.5C12.5 12.3342 12.4342 12.1753 12.3169 12.0581C12.1997 11.9408 12.0408 11.875 11.875 11.875ZM11.875 14.375H8.125C7.95924 14.375 7.80027 14.4408 7.68306 14.5581C7.56585 14.6753 7.5 14.8342 7.5 15C7.5 15.1658 7.56585 15.3247 7.68306 15.4419C7.80027 15.5592 7.95924 15.625 8.125 15.625H11.875C12.0408 15.625 12.1997 15.5592 12.3169 15.4419C12.4342 15.3247 12.5 15.1658 12.5 15C12.5 14.8342 12.4342 14.6753 12.3169 14.5581C12.1997 14.4408 12.0408 14.375 11.875 14.375ZM18.125 6.875H14.375C14.2092 6.875 14.0503 6.94085 13.9331 7.05806C13.8158 7.17527 13.75 7.33424 13.75 7.5C13.75 7.66576 13.8158 7.82473 13.9331 7.94194C14.0503 8.05915 14.2092 8.125 14.375 8.125H18.125C18.2908 8.125 18.4497 8.05915 18.5669 7.94194C18.6842 7.82473 18.75 7.66576 18.75 7.5C18.75 7.33424 18.6842 7.17527 18.5669 7.05806C18.4497 6.94085 18.2908 6.875 18.125 6.875ZM14.375 5.625H18.125C18.2908 5.625 18.4497 5.55915 18.5669 5.44194C18.6842 5.32473 18.75 5.16576 18.75 5C18.75 4.83424 18.6842 4.67527 18.5669 4.55806C18.4497 4.44085 18.2908 4.375 18.125 4.375H14.375C14.2092 4.375 14.0503 4.44085 13.9331 4.55806C13.8158 4.67527 13.75 4.83424 13.75 5C13.75 5.16576 13.8158 5.32473 13.9331 5.44194C14.0503 5.55915 14.2092 5.625 14.375 5.625ZM18.125 9.375H14.375C14.2092 9.375 14.0503 9.44085 13.9331 9.55806C13.8158 9.67527 13.75 9.83424 13.75 10C13.75 10.1658 13.8158 10.3247 13.9331 10.4419C14.0503 10.5592 14.2092 10.625 14.375 10.625H18.125C18.2908 10.625 18.4497 10.5592 18.5669 10.4419C18.6842 10.3247 18.75 10.1658 18.75 10C18.75 9.83424 18.6842 9.67527 18.5669 9.55806C18.4497 9.44085 18.2908 9.375 18.125 9.375ZM18.125 11.875H14.375C14.2092 11.875 14.0503 11.9408 13.9331 12.0581C13.8158 12.1753 13.75 12.3342 13.75 12.5C13.75 12.6658 13.8158 12.8247 13.9331 12.9419C14.0503 13.0592 14.2092 13.125 14.375 13.125H18.125C18.2908 13.125 18.4497 13.0592 18.5669 12.9419C18.6842 12.8247 18.75 12.6658 18.75 12.5C18.75 12.3342 18.6842 12.1753 18.5669 12.0581C18.4497 11.9408 18.2908 11.875 18.125 11.875ZM18.125 14.375H14.375C14.2092 14.375 14.0503 14.4408 13.9331 14.5581C13.8158 14.6753 13.75 14.8342 13.75 15C13.75 15.1658 13.8158 15.3247 13.9331 15.4419C14.0503 15.5592 14.2092 15.625 14.375 15.625H18.125C18.2908 15.625 18.4497 15.5592 18.5669 15.4419C18.6842 15.3247 18.75 15.1658 18.75 15C18.75 14.8342 18.6842 14.6753 18.5669 14.5581C18.4497 14.4408 18.2908 14.375 18.125 14.375Z" fill="#EAE6F3"/>
</svg>
