<svg width="20" height="20" viewBox="0 0 20 20" fill="none" xmlns="http://www.w3.org/2000/svg">
<path d="M18.1245 11.2499C18.1231 12.5755 17.5958 13.8464 16.6585 14.7838C15.7211 15.7212 14.4502 16.2484 13.1245 16.2499H6.24952C6.08376 16.2499 5.92478 16.184 5.80757 16.0668C5.69036 15.9496 5.62452 15.7906 5.62452 15.6249C5.62452 15.4591 5.69036 15.3001 5.80757 15.1829C5.92478 15.0657 6.08376 14.9999 6.24952 14.9999H13.1245C14.1191 14.9999 15.0729 14.6048 15.7762 13.9015C16.4794 13.1982 16.8745 12.2444 16.8745 11.2499C16.8745 10.2553 16.4794 9.30147 15.7762 8.59821C15.0729 7.89495 14.1191 7.49986 13.1245 7.49986H4.00811L6.6917 10.1827C6.80898 10.2999 6.87486 10.459 6.87486 10.6249C6.87486 10.7907 6.80898 10.9498 6.6917 11.067C6.57443 11.1843 6.41537 11.2502 6.24952 11.2502C6.08366 11.2502 5.9246 11.1843 5.80733 11.067L2.05733 7.31705C1.99922 7.259 1.95312 7.19007 1.92167 7.1142C1.89021 7.03832 1.87402 6.95699 1.87402 6.87486C1.87402 6.79272 1.89021 6.7114 1.92167 6.63552C1.95312 6.55965 1.99922 6.49072 2.05733 6.43267L5.80733 2.68267C5.9246 2.5654 6.08366 2.49951 6.24952 2.49951C6.41537 2.49951 6.57443 2.5654 6.6917 2.68267C6.80898 2.79995 6.87486 2.95901 6.87486 3.12486C6.87486 3.29071 6.80898 3.44977 6.6917 3.56705L4.00811 6.24986H13.1245C14.4502 6.25131 15.7211 6.77856 16.6585 7.71592C17.5958 8.65329 18.1231 9.92422 18.1245 11.2499Z" fill="#EAE6F3"/>
</svg>
