<svg width="15" height="9" viewBox="0 0 15 9" fill="none" xmlns="http://www.w3.org/2000/svg">
<path d="M14.1925 1.94229L7.94254 8.19229C7.88449 8.2504 7.81556 8.2965 7.73969 8.32795C7.66381 8.35941 7.58248 8.37559 7.50035 8.37559C7.41821 8.37559 7.33688 8.35941 7.26101 8.32795C7.18514 8.2965 7.11621 8.2504 7.05816 8.19229L0.80816 1.94229C0.690885 1.82502 0.625 1.66596 0.625 1.5001C0.625 1.33425 0.690885 1.17519 0.80816 1.05792C0.925435 0.94064 1.0845 0.874756 1.25035 0.874756C1.4162 0.874756 1.57526 0.94064 1.69253 1.05792L7.50035 6.86651L13.3082 1.05792C13.3662 0.999847 13.4352 0.953784 13.511 0.922357C13.5869 0.890931 13.6682 0.874756 13.7503 0.874756C13.8325 0.874756 13.9138 0.890931 13.9897 0.922357C14.0655 0.953784 14.1345 0.999847 14.1925 1.05792C14.2506 1.11598 14.2967 1.18492 14.3281 1.26079C14.3595 1.33666 14.3757 1.41798 14.3757 1.5001C14.3757 1.58223 14.3595 1.66354 14.3281 1.73941C14.2967 1.81528 14.2506 1.88422 14.1925 1.94229Z" fill="#93939D"/>
</svg>
