<svg width="16" height="18" viewBox="0 0 16 18" fill="none" xmlns="http://www.w3.org/2000/svg">
<path d="M14.625 0.875H4.625C4.29348 0.875 3.97554 1.0067 3.74112 1.24112C3.5067 1.47554 3.375 1.79348 3.375 2.125V4H2.125C1.79348 4 1.47554 4.1317 1.24112 4.36612C1.0067 4.60054 0.875 4.91848 0.875 5.25V12.75C0.875 13.0815 1.0067 13.3995 1.24112 13.6339C1.47554 13.8683 1.79348 14 2.125 14H3.375V15.875C3.375 16.2065 3.5067 16.5245 3.74112 16.7589C3.97554 16.9933 4.29348 17.125 4.625 17.125H14.625C14.9565 17.125 15.2745 16.9933 15.5089 16.7589C15.7433 16.5245 15.875 16.2065 15.875 15.875V2.125C15.875 1.79348 15.7433 1.47554 15.5089 1.24112C15.2745 1.0067 14.9565 0.875 14.625 0.875ZM11.5 7.125H14.625V10.875H11.5V7.125ZM14.625 5.875H11.5V5.25C11.5 4.91848 11.3683 4.60054 11.1339 4.36612C10.8995 4.1317 10.5815 4 10.25 4V2.125H14.625V5.875ZM4.625 2.125H9V4H4.625V2.125ZM2.125 5.25H10.25V11.4867C10.25 11.4914 10.25 11.4953 10.25 11.5C10.25 11.5047 10.25 11.5086 10.25 11.5133V12.75H2.125V5.25ZM4.625 14H9V15.875H4.625V14ZM10.25 15.875V14C10.5815 14 10.8995 13.8683 11.1339 13.6339C11.3683 13.3995 11.5 13.0815 11.5 12.75V12.125H14.625V15.875H10.25ZM4.14453 10.475L5.37422 9L4.14453 7.525C4.03844 7.39757 3.98732 7.23322 4.00241 7.0681C4.01751 6.90298 4.09757 6.75062 4.225 6.64453C4.35243 6.53844 4.51678 6.48732 4.6819 6.50241C4.84702 6.51751 4.99938 6.59757 5.10547 6.725L6.1875 8.02344L7.26953 6.725C7.32206 6.6619 7.3865 6.60977 7.45918 6.57158C7.53185 6.53339 7.61134 6.50989 7.6931 6.50241C7.77486 6.49494 7.85729 6.50365 7.93568 6.52803C8.01408 6.55242 8.0869 6.592 8.15 6.64453C8.2131 6.69706 8.26523 6.7615 8.30342 6.83418C8.34161 6.90685 8.36511 6.98634 8.37259 7.0681C8.38006 7.14986 8.37135 7.23229 8.34697 7.31068C8.32258 7.38908 8.283 7.4619 8.23047 7.525L7.00078 9L8.23047 10.475C8.33656 10.6024 8.38768 10.7668 8.37259 10.9319C8.35749 11.097 8.27743 11.2494 8.15 11.3555C8.02257 11.4616 7.85822 11.5127 7.6931 11.4976C7.52798 11.4825 7.37562 11.4024 7.26953 11.275L6.1875 9.97656L5.10547 11.275C4.99938 11.4024 4.84702 11.4825 4.6819 11.4976C4.51678 11.5127 4.35243 11.4616 4.225 11.3555C4.09757 11.2494 4.01751 11.097 4.00241 10.9319C3.98732 10.7668 4.03844 10.6024 4.14453 10.475Z" fill="#F6F6F7"/>
</svg>
