<svg width="10" height="17" viewBox="0 0 10 17" fill="none" xmlns="http://www.w3.org/2000/svg">
<path d="M1.53104 0.469444L9.03104 7.96945C9.10077 8.0391 9.15609 8.12182 9.19384 8.21287C9.23158 8.30391 9.25101 8.40151 9.25101 8.50007C9.25101 8.59863 9.23158 8.69623 9.19384 8.78728C9.15609 8.87832 9.10077 8.96104 9.03104 9.0307L1.53104 16.5307C1.39031 16.6714 1.19944 16.7505 1.00042 16.7505C0.801394 16.7505 0.610522 16.6714 0.469792 16.5307C0.329061 16.39 0.25 16.1991 0.25 16.0001C0.25 15.801 0.329061 15.6102 0.469792 15.4694L7.4401 8.50007L0.469791 1.5307C0.400108 1.46101 0.344833 1.37829 0.307121 1.28724C0.269409 1.1962 0.249999 1.09862 0.249999 1.00007C0.249999 0.901525 0.269409 0.803943 0.307121 0.712898C0.344833 0.621853 0.400108 0.539127 0.469791 0.469444C0.539474 0.399763 0.622199 0.344488 0.713244 0.306776C0.804289 0.269064 0.90187 0.249653 1.00042 0.249653C1.09896 0.249653 1.19654 0.269064 1.28759 0.306776C1.37863 0.344488 1.46136 0.399763 1.53104 0.469444Z" fill="black"/>
</svg>
