<svg width="18" height="18" viewBox="0 0 18 18" fill="none" xmlns="http://www.w3.org/2000/svg">
<path d="M16.9419 16.0577L13.0302 12.1468C14.1639 10.7856 14.7293 9.03977 14.6086 7.27238C14.488 5.505 13.6906 3.85217 12.3823 2.65772C11.074 1.46328 9.35566 0.819195 7.58462 0.859445C5.81357 0.899695 4.12622 1.62118 2.87358 2.87383C1.62094 4.12647 0.899451 5.81382 0.859201 7.58486C0.818951 9.35591 1.46304 11.0743 2.65748 12.3825C3.85192 13.6908 5.50475 14.4882 7.27214 14.6089C9.03953 14.7295 10.7854 14.1642 12.1466 13.0304L16.0575 16.9421C16.1156 17.0002 16.1845 17.0463 16.2604 17.0777C16.3363 17.1091 16.4176 17.1253 16.4997 17.1253C16.5818 17.1253 16.6631 17.1091 16.739 17.0777C16.8149 17.0463 16.8838 17.0002 16.9419 16.9421C16.9999 16.8841 17.046 16.8151 17.0774 16.7392C17.1089 16.6634 17.125 16.5821 17.125 16.4999C17.125 16.4178 17.1089 16.3365 17.0774 16.2606C17.046 16.1848 16.9999 16.1158 16.9419 16.0577ZM2.12469 7.74993C2.12469 6.63741 2.45459 5.54988 3.07267 4.62485C3.69076 3.69983 4.56926 2.97885 5.5971 2.55311C6.62493 2.12737 7.75593 2.01598 8.84707 2.23302C9.93822 2.45006 10.9405 2.98579 11.7272 3.77246C12.5138 4.55913 13.0496 5.56141 13.2666 6.65255C13.4837 7.74369 13.3723 8.87469 12.9465 9.90253C12.5208 10.9304 11.7998 11.8089 10.8748 12.427C9.94975 13.045 8.86221 13.3749 7.74969 13.3749C6.25836 13.3733 4.82858 12.7801 3.77404 11.7256C2.71951 10.6711 2.12634 9.24127 2.12469 7.74993Z" fill="#C0C0C7"/>
</svg>
