<svg width="14" height="9" viewBox="0 0 14 9" fill="none" xmlns="http://www.w3.org/2000/svg">
<path d="M13.6925 1.94229L7.44254 8.19229C7.38449 8.2504 7.31556 8.2965 7.23969 8.32795C7.16381 8.35941 7.08248 8.37559 7.00035 8.37559C6.91821 8.37559 6.83688 8.35941 6.76101 8.32795C6.68514 8.2965 6.61621 8.2504 6.55816 8.19229L0.30816 1.94229C0.190885 1.82502 0.125 1.66596 0.125 1.5001C0.125 1.33425 0.190885 1.17519 0.30816 1.05792C0.425435 0.94064 0.584495 0.874756 0.750347 0.874756C0.9162 0.874756 1.07526 0.94064 1.19253 1.05792L7.00035 6.86651L12.8082 1.05792C12.8662 0.999847 12.9352 0.953784 13.011 0.922357C13.0869 0.890931 13.1682 0.874756 13.2503 0.874756C13.3325 0.874756 13.4138 0.890931 13.4897 0.922357C13.5655 0.953784 13.6345 0.999847 13.6925 1.05792C13.7506 1.11598 13.7967 1.18492 13.8281 1.26079C13.8595 1.33666 13.8757 1.41798 13.8757 1.5001C13.8757 1.58223 13.8595 1.66354 13.8281 1.73941C13.7967 1.81528 13.7506 1.88422 13.6925 1.94229Z" fill="#F6F6F7"/>
</svg>
