<svg width="20" height="20" viewBox="0 0 20 20" fill="none" xmlns="http://www.w3.org/2000/svg">
<path d="M19.2857 9.28571H18.5411C18.3697 7.26736 17.49 5.37465 16.0577 3.94232C14.6254 2.50999 12.7326 1.63033 10.7143 1.45893V0.714286C10.7143 0.524845 10.639 0.343164 10.5051 0.209209C10.3711 0.0752549 10.1894 0 10 0C9.81056 0 9.62888 0.0752549 9.49492 0.209209C9.36097 0.343164 9.28571 0.524845 9.28571 0.714286V1.45893C7.26736 1.63033 5.37465 2.50999 3.94232 3.94232C2.50999 5.37465 1.63033 7.26736 1.45893 9.28571H0.714286C0.524845 9.28571 0.343164 9.36097 0.209209 9.49492C0.0752549 9.62888 0 9.81056 0 10C0 10.1894 0.0752549 10.3711 0.209209 10.5051C0.343164 10.639 0.524845 10.7143 0.714286 10.7143H1.45893C1.63033 12.7326 2.50999 14.6254 3.94232 16.0577C5.37465 17.49 7.26736 18.3697 9.28571 18.5411V19.2857C9.28571 19.4752 9.36097 19.6568 9.49492 19.7908C9.62888 19.9247 9.81056 20 10 20C10.1894 20 10.3711 19.9247 10.5051 19.7908C10.639 19.6568 10.7143 19.4752 10.7143 19.2857V18.5411C12.7326 18.3697 14.6254 17.49 16.0577 16.0577C17.49 14.6254 18.3697 12.7326 18.5411 10.7143H19.2857C19.4752 10.7143 19.6568 10.639 19.7908 10.5051C19.9247 10.3711 20 10.1894 20 10C20 9.81056 19.9247 9.62888 19.7908 9.49492C19.6568 9.36097 19.4752 9.28571 19.2857 9.28571ZM10.7143 17.1071V16.4286C10.7143 16.2391 10.639 16.0574 10.5051 15.9235C10.3711 15.7895 10.1894 15.7143 10 15.7143C9.81056 15.7143 9.62888 15.7895 9.49492 15.9235C9.36097 16.0574 9.28571 16.2391 9.28571 16.4286V17.1071C7.64721 16.94 6.11652 16.2127 4.95191 15.0481C3.7873 13.8835 3.06004 12.3528 2.89286 10.7143H3.57143C3.76087 10.7143 3.94255 10.639 4.0765 10.5051C4.21046 10.3711 4.28571 10.1894 4.28571 10C4.28571 9.81056 4.21046 9.62888 4.0765 9.49492C3.94255 9.36097 3.76087 9.28571 3.57143 9.28571H2.89286C3.06004 7.64721 3.7873 6.11652 4.95191 4.95191C6.11652 3.7873 7.64721 3.06004 9.28571 2.89286V3.57143C9.28571 3.76087 9.36097 3.94255 9.49492 4.0765C9.62888 4.21046 9.81056 4.28571 10 4.28571C10.1894 4.28571 10.3711 4.21046 10.5051 4.0765C10.639 3.94255 10.7143 3.76087 10.7143 3.57143V2.89286C12.3528 3.06004 13.8835 3.7873 15.0481 4.95191C16.2127 6.11652 16.94 7.64721 17.1071 9.28571H16.4286C16.2391 9.28571 16.0574 9.36097 15.9235 9.49492C15.7895 9.62888 15.7143 9.81056 15.7143 10C15.7143 10.1894 15.7895 10.3711 15.9235 10.5051C16.0574 10.639 16.2391 10.7143 16.4286 10.7143H17.1071C16.94 12.3528 16.2127 13.8835 15.0481 15.0481C13.8835 16.2127 12.3528 16.94 10.7143 17.1071ZM10 6.42857C9.29364 6.42857 8.60314 6.63803 8.01582 7.03047C7.4285 7.4229 6.97074 7.98068 6.70043 8.63327C6.43012 9.28587 6.35939 10.004 6.4972 10.6968C6.635 11.3895 6.97515 12.0259 7.47462 12.5254C7.97409 13.0249 8.61046 13.365 9.30325 13.5028C9.99604 13.6406 10.7141 13.5699 11.3667 13.2996C12.0193 13.0293 12.5771 12.5715 12.9695 11.9842C13.362 11.3969 13.5714 10.7064 13.5714 10C13.5714 9.0528 13.1952 8.14439 12.5254 7.47462C11.8556 6.80485 10.9472 6.42857 10 6.42857ZM10 12.1429C9.57618 12.1429 9.16188 12.0172 8.80949 11.7817C8.4571 11.5463 8.18245 11.2116 8.02026 10.82C7.85807 10.4285 7.81563 9.99762 7.89832 9.58195C7.981 9.16628 8.18509 8.78446 8.48477 8.48477C8.78446 8.18509 9.16628 7.981 9.58195 7.89832C9.99762 7.81563 10.4285 7.85807 10.82 8.02026C11.2116 8.18245 11.5463 8.4571 11.7817 8.80949C12.0172 9.16188 12.1429 9.57618 12.1429 10C12.1429 10.5683 11.9171 11.1134 11.5152 11.5152C11.1134 11.9171 10.5683 12.1429 10 12.1429Z" fill="#1D1D21"/>
</svg>
