<svg width="26" height="24" viewBox="0 0 26 24" fill="none" xmlns="http://www.w3.org/2000/svg">
<path d="M23 3.5H19.535L17.8312 0.945C17.74 0.80819 17.6164 0.696004 17.4714 0.618382C17.3264 0.54076 17.1645 0.500099 17 0.5H9C8.83554 0.500099 8.67363 0.54076 8.52864 0.618382C8.38364 0.696004 8.26003 0.80819 8.16875 0.945L6.46375 3.5H3C2.20435 3.5 1.44129 3.81607 0.87868 4.37868C0.316071 4.94129 0 5.70435 0 6.5V20.5C0 21.2956 0.316071 22.0587 0.87868 22.6213C1.44129 23.1839 2.20435 23.5 3 23.5H23C23.7956 23.5 24.5587 23.1839 25.1213 22.6213C25.6839 22.0587 26 21.2956 26 20.5V6.5C26 5.70435 25.6839 4.94129 25.1213 4.37868C24.5587 3.81607 23.7956 3.5 23 3.5ZM24 20.5C24 20.7652 23.8946 21.0196 23.7071 21.2071C23.5196 21.3946 23.2652 21.5 23 21.5H3C2.73478 21.5 2.48043 21.3946 2.29289 21.2071C2.10536 21.0196 2 20.7652 2 20.5V6.5C2 6.23478 2.10536 5.98043 2.29289 5.79289C2.48043 5.60536 2.73478 5.5 3 5.5H7C7.16468 5.50011 7.32683 5.45954 7.47206 5.38191C7.61729 5.30428 7.7411 5.19199 7.8325 5.055L9.535 2.5H16.4638L18.1675 5.055C18.2589 5.19199 18.3827 5.30428 18.5279 5.38191C18.6732 5.45954 18.8353 5.50011 19 5.5H23C23.2652 5.5 23.5196 5.60536 23.7071 5.79289C23.8946 5.98043 24 6.23478 24 6.5V20.5ZM13 7.5C11.9122 7.5 10.8488 7.82257 9.94436 8.42692C9.03989 9.03127 8.33494 9.89025 7.91866 10.8952C7.50238 11.9002 7.39346 13.0061 7.60568 14.073C7.8179 15.1399 8.34172 16.1199 9.11091 16.8891C9.8801 17.6583 10.8601 18.1821 11.927 18.3943C12.9939 18.6065 14.0998 18.4976 15.1048 18.0813C16.1098 17.6651 16.9687 16.9601 17.5731 16.0556C18.1774 15.1512 18.5 14.0878 18.5 13C18.4983 11.5418 17.9184 10.1438 16.8873 9.11274C15.8562 8.08165 14.4582 7.50165 13 7.5ZM13 16.5C12.3078 16.5 11.6311 16.2947 11.0555 15.9101C10.4799 15.5256 10.0313 14.9789 9.76642 14.3394C9.50151 13.6999 9.4322 12.9961 9.56725 12.3172C9.7023 11.6383 10.0356 11.0146 10.5251 10.5251C11.0146 10.0356 11.6383 9.7023 12.3172 9.56725C12.9961 9.4322 13.6999 9.50151 14.3394 9.76642C14.9789 10.0313 15.5256 10.4799 15.9101 11.0555C16.2947 11.6311 16.5 12.3078 16.5 13C16.5 13.9283 16.1313 14.8185 15.4749 15.4749C14.8185 16.1313 13.9283 16.5 13 16.5Z" fill="#F6F6F7"/>
</svg>
