<svg width="18" height="10" viewBox="0 0 18 10" fill="none" xmlns="http://www.w3.org/2000/svg">
<path d="M8.46945 9.03104L0.969444 1.53104C0.899763 1.46136 0.844488 1.37863 0.806776 1.28759C0.769064 1.19654 0.749653 1.09896 0.749653 1.00042C0.749653 0.90187 0.769064 0.804289 0.806776 0.713244C0.844488 0.622199 0.899763 0.539474 0.969444 0.469791C1.03913 0.400108 1.12185 0.344833 1.2129 0.307121C1.30394 0.269409 1.40152 0.249999 1.50007 0.249999C1.59862 0.249999 1.6962 0.269409 1.78724 0.307121C1.87829 0.344833 1.96101 0.400108 2.0307 0.469791L9.00007 7.4401L15.9694 0.469792C16.1102 0.329061 16.301 0.25 16.5001 0.25C16.6991 0.25 16.89 0.329061 17.0307 0.469792C17.1714 0.610522 17.2505 0.801394 17.2505 1.00042C17.2505 1.19944 17.1714 1.39031 17.0307 1.53104L9.5307 9.03104C9.46104 9.10077 9.37832 9.15609 9.28728 9.19384C9.19623 9.23158 9.09863 9.25101 9.00007 9.25101C8.90151 9.25101 8.80391 9.23158 8.71287 9.19384C8.62182 9.15609 8.5391 9.10077 8.46945 9.03104Z" fill="#444448"/>
</svg>
