<svg width="16" height="13" viewBox="0 0 16 13" fill="none" xmlns="http://www.w3.org/2000/svg">
<path d="M0.500486 6.4999C0.500486 6.33414 0.566333 6.17516 0.683544 6.05795C0.800754 5.94074 0.959726 5.8749 1.12549 5.8749L13.3669 5.8749L8.8083 1.31708C8.75023 1.25901 8.70417 1.19008 8.67274 1.11421C8.64131 1.03834 8.62514 0.957017 8.62514 0.874895C8.62514 0.792774 8.64131 0.711456 8.67274 0.635585C8.70417 0.559715 8.75023 0.490776 8.8083 0.432708C8.86637 0.374639 8.9353 0.328576 9.01118 0.29715C9.08705 0.265724 9.16836 0.249547 9.25049 0.249547C9.33261 0.249547 9.41393 0.265724 9.4898 0.29715C9.56567 0.328577 9.6346 0.374639 9.69267 0.432708L15.3177 6.05771C15.3758 6.11575 15.4219 6.18469 15.4533 6.26056C15.4848 6.33643 15.501 6.41776 15.501 6.4999C15.501 6.58203 15.4848 6.66336 15.4533 6.73923C15.4219 6.81511 15.3758 6.88404 15.3177 6.94208L9.69267 12.5671C9.5754 12.6844 9.41634 12.7502 9.25048 12.7502C9.08463 12.7502 8.92557 12.6844 8.8083 12.5671C8.69102 12.4498 8.62514 12.2907 8.62514 12.1249C8.62514 11.959 8.69102 11.8 8.8083 11.6827L13.3669 7.1249L1.12549 7.1249C0.959726 7.1249 0.800754 7.05905 0.683544 6.94184C0.566333 6.82463 0.500486 6.66566 0.500486 6.4999Z" fill="#7459AF"/>
</svg>
