<svg width="17" height="18" viewBox="0 0 17 18" fill="none" xmlns="http://www.w3.org/2000/svg">
<path d="M16.7354 15.7407C16.8122 15.8176 16.8732 15.9088 16.9148 16.0092C16.9564 16.1096 16.9778 16.2172 16.9778 16.3259C16.9778 16.4346 16.9564 16.5422 16.9148 16.6427C16.8732 16.7431 16.8122 16.8343 16.7354 16.9112C16.6585 16.988 16.5673 17.049 16.4669 17.0906C16.3665 17.1322 16.2588 17.1536 16.1502 17.1536C16.0415 17.1536 15.9338 17.1322 15.8334 17.0906C15.733 17.049 15.6418 16.988 15.5649 16.9112L8.70568 10.0509L1.84643 16.9112C1.69123 17.0664 1.48072 17.1536 1.26122 17.1536C1.04172 17.1536 0.831208 17.0664 0.675999 16.9112C0.520789 16.7559 0.433594 16.5454 0.433594 16.3259C0.433594 16.1064 0.520789 15.8959 0.675999 15.7407L7.53628 8.88147L0.675999 2.02222C0.520789 1.86701 0.433594 1.6565 0.433594 1.437C0.433594 1.2175 0.520789 1.00699 0.675999 0.85178C0.831208 0.696571 1.04172 0.609375 1.26122 0.609375C1.48072 0.609375 1.69123 0.696571 1.84643 0.85178L8.70568 7.71206L15.5649 0.85178C15.7201 0.696571 15.9307 0.609375 16.1502 0.609375C16.3697 0.609375 16.5802 0.696571 16.7354 0.85178C16.8906 1.00699 16.9778 1.2175 16.9778 1.437C16.9778 1.6565 16.8906 1.86701 16.7354 2.02222L9.87509 8.88147L16.7354 15.7407Z" fill="black"/>
</svg>
