<svg width="103" height="100" viewBox="0 0 103 100" fill="none" xmlns="http://www.w3.org/2000/svg">
<g clip-path="url(#clip0_12841_62500)">
<path d="M59.1445 3.42614C59.1445 1.54218 61.0054 0 63.3356 0C65.6659 0 67.5267 1.52551 67.5267 3.42614V18.3811C67.5267 20.2568 65.6659 21.8073 63.3356 21.8073C61.0054 21.8073 59.1445 20.2734 59.1445 18.3811V3.42614ZM12.2044 65.8053H21.7936C22.0886 65.8075 22.3709 65.925 22.5795 66.1324C22.7881 66.3399 22.9063 66.6206 22.9085 66.914V73.9747C22.9063 74.268 22.7881 74.5488 22.5795 74.7562C22.3709 74.9637 22.0886 75.0812 21.7936 75.0834H12.1793C11.8851 75.0812 11.6037 74.9634 11.3964 74.7557C11.1891 74.548 11.0728 74.2673 11.0728 73.9747V66.914C11.0728 66.6214 11.1891 66.3406 11.3964 66.1329C11.6037 65.9253 11.8851 65.8075 12.1793 65.8053H12.2044ZM48.9937 45.6736H58.6081C58.8911 45.6752 59.1633 45.7823 59.3709 45.9737C55.6035 48.3209 52.3299 51.3727 49.7314 54.96H48.9937C48.6995 54.9578 48.4181 54.84 48.2108 54.6323C48.0036 54.4246 47.8873 54.1439 47.8873 53.8513V46.7823C47.8873 46.4897 48.0036 46.2089 48.2108 46.0012C48.4181 45.7935 48.6995 45.6758 48.9937 45.6736ZM30.553 45.6736H40.2344C40.5286 45.6736 40.8109 45.7892 41.0197 45.9953C41.2286 46.2015 41.347 46.4813 41.3492 46.7739V53.8429C41.347 54.1363 41.2289 54.4171 41.0203 54.6245C40.8117 54.832 40.5294 54.9495 40.2344 54.9517H30.5865C30.2931 54.9517 30.0116 54.8357 29.8041 54.6294C29.5966 54.423 29.4801 54.1431 29.4801 53.8513V46.7739C29.4823 46.4828 29.5995 46.2042 29.8066 45.9983C30.0136 45.7924 30.2937 45.6757 30.5865 45.6736H30.553ZM12.1122 45.6736H21.7936C22.0878 45.6736 22.3701 45.7892 22.579 45.9953C22.7878 46.2015 22.9062 46.4813 22.9085 46.7739V53.8429C22.9063 54.1363 22.7881 54.4171 22.5795 54.6245C22.3709 54.832 22.0886 54.9495 21.7936 54.9517H12.1793C11.8865 54.9495 11.6064 54.8328 11.3993 54.627C11.1923 54.4211 11.075 54.1424 11.0728 53.8513V46.7739C11.075 46.4828 11.1923 46.2042 11.3993 45.9983C11.6064 45.7924 11.8865 45.6757 12.1793 45.6736H12.1122ZM30.553 65.8053H40.2344C40.5294 65.8075 40.8117 65.925 41.0203 66.1324C41.2289 66.3399 41.347 66.6206 41.3492 66.914V73.9747C41.347 74.268 41.2289 74.5488 41.0203 74.7562C40.8117 74.9637 40.5294 75.0812 40.2344 75.0834H30.5865C30.2923 75.0812 30.0109 74.9634 29.8036 74.7557C29.5964 74.548 29.4801 74.2673 29.4801 73.9747V66.914C29.479 66.7688 29.5068 66.6248 29.5619 66.4903C29.617 66.3559 29.6983 66.2336 29.8012 66.1305C29.904 66.0274 30.0264 65.9456 30.1611 65.8898C30.2959 65.834 30.4405 65.8053 30.5865 65.8053H30.553ZM21.4751 3.42614C21.4751 1.54218 23.3359 0 25.6662 0C27.9964 0 29.8573 1.52551 29.8573 3.42614V18.3811C29.8573 20.2568 27.988 21.8073 25.6662 21.8073C23.3443 21.8073 21.4751 20.2734 21.4751 18.3811V3.42614ZM4.61858 32.7026H84.4922V15.4885C84.4936 15.2125 84.4395 14.939 84.3329 14.6842C84.2264 14.4294 84.0697 14.1983 83.8719 14.0047C83.6764 13.8091 83.4439 13.654 83.1878 13.5481C82.9318 13.4422 82.6572 13.3878 82.3799 13.3878H74.727C74.1112 13.3878 73.5206 13.1445 73.0852 12.7115C72.6497 12.2784 72.4051 11.6911 72.4051 11.0787C72.4051 10.4663 72.6497 9.87895 73.0852 9.44591C73.5206 9.01287 74.1112 8.76959 74.727 8.76959H82.3799C83.2696 8.76849 84.1508 8.94197 84.973 9.28007C85.7952 9.61818 86.5423 10.1143 87.1714 10.7399C87.8006 11.3656 88.2994 12.1086 88.6394 12.9263C88.9793 13.744 89.1538 14.6203 89.1527 15.5052V42.8476C87.6137 42.3199 86.0396 41.8993 84.4419 41.5889V37.3208H4.61858V81.9273C4.61808 82.2032 4.67265 82.4764 4.77913 82.7311C4.8856 82.9858 5.04187 83.2169 5.23886 83.4111C5.62866 83.7985 6.15476 84.0197 6.70573 84.028H44.6853C45.1176 85.6198 45.661 87.1796 46.3114 88.6962H6.77279C5.88307 88.6973 5.00186 88.5239 4.17965 88.1858C3.35744 87.8476 2.61038 87.3516 1.98125 86.7259C1.35212 86.1002 0.85328 85.3572 0.513306 84.5396C0.173332 83.7219 -0.00109799 82.8455 5.20033e-06 81.9607V15.5052C0.00222333 13.7195 0.716495 12.0075 1.98616 10.7448C3.25582 9.48214 4.97722 8.7718 6.77279 8.76959H14.9454C15.5612 8.76959 16.1518 9.01287 16.5872 9.44591C17.0226 9.87895 17.2673 10.4663 17.2673 11.0787C17.2673 11.6911 17.0226 12.2784 16.5872 12.7115C16.1518 13.1445 15.5612 13.3878 14.9454 13.3878H6.77279C6.49528 13.3864 6.2203 13.4402 5.96405 13.5462C5.7078 13.6521 5.47547 13.808 5.28077 14.0047C4.88825 14.4005 4.66583 14.9326 4.66049 15.4885V32.7109L4.61858 32.7026ZM36.563 13.3795C35.9472 13.3795 35.3566 13.1362 34.9212 12.7031C34.4858 12.2701 34.2411 11.6828 34.2411 11.0704C34.2411 10.4579 34.4858 9.87062 34.9212 9.43757C35.3566 9.00453 35.9472 8.76125 36.563 8.76125H52.1538C52.7696 8.76125 53.3602 9.00453 53.7956 9.43757C54.2311 9.87062 54.4757 10.4579 54.4757 11.0704C54.4757 11.6828 54.2311 12.2701 53.7956 12.7031C53.3602 13.1362 52.7696 13.3795 52.1538 13.3795H36.563Z" fill="#212121"/>
<path fill-rule="evenodd" clip-rule="evenodd" d="M77.5015 49.283C82.5432 49.2896 87.4698 50.7824 91.6586 53.5729C95.8474 56.3633 99.1104 60.326 101.035 64.9603C102.96 69.5945 103.46 74.6922 102.473 79.609C101.485 84.5259 99.0537 89.0412 95.4864 92.5843C91.919 96.1274 87.3755 98.5393 82.4302 99.515C77.4849 100.491 72.3597 99.9867 67.7024 98.0664C63.0451 96.1461 59.0648 92.8958 56.2644 88.7264C53.4641 84.5569 51.9695 79.6554 51.9695 74.6414C51.9695 71.3085 52.6301 68.0083 53.9136 64.9295C55.1972 61.8507 57.0784 59.0537 59.4497 56.6985C61.821 54.3433 64.6359 52.4761 67.7334 51.2037C70.8309 49.9313 74.1502 49.2786 77.5015 49.283ZM74.769 84.7698H80.209V89.5631H74.769V84.7698ZM80.209 81.4354H74.769C74.2241 74.8582 73.0925 70.6818 73.0925 64.1046C73.1421 62.9737 73.6287 61.9054 74.4509 61.1226C75.2731 60.3398 76.3675 59.9028 77.5057 59.9028C78.644 59.9028 79.7383 60.3398 80.5605 61.1226C81.3827 61.9054 81.8694 62.9737 81.9189 64.1046C81.9189 70.6734 80.7706 74.8582 80.2425 81.4354H80.209Z" fill="#FF4141"/>
</g>
<defs>
<clipPath id="clip0_12841_62500">
<rect width="103" height="100" fill="white"/>
</clipPath>
</defs>
</svg>
