<svg width="103" height="101" viewBox="0 0 103 101" fill="none" xmlns="http://www.w3.org/2000/svg">
<g clip-path="url(#clip0_12843_62534)">
<path fill-rule="evenodd" clip-rule="evenodd" d="M76.3531 47.5359C83.7042 47.5359 90.3764 50.5295 95.1962 55.3646C100.016 60.2082 103 66.8933 103 74.268C103 81.651 100.016 88.3362 95.1962 93.1713C90.368 98.0065 83.7042 101 76.3531 101C68.9935 101 62.3297 98.0065 57.51 93.1713C52.6902 88.3278 49.7062 81.6426 49.7062 74.268C49.7062 66.8933 52.6902 60.1998 57.51 55.3646C62.3297 50.5295 69.0019 47.5359 76.3531 47.5359ZM81.5668 64.564C82.757 63.3531 84.7017 63.3447 85.9004 64.5556C87.099 65.7665 87.1074 67.7258 85.9087 68.9451L80.6783 74.268L85.9171 79.5993C87.099 80.8017 87.0822 82.7526 85.8836 83.9635C84.6849 85.166 82.7487 85.166 81.5668 83.9551L76.3614 78.6659L71.1477 83.9719C69.9575 85.1912 68.0128 85.1912 66.8142 83.9803C65.6155 82.7694 65.6071 80.8101 66.8058 79.5908L72.0363 74.268L66.7974 68.9367C65.6155 67.7342 65.6323 65.7833 66.8309 64.5724C68.0296 63.37 69.9659 63.37 71.1477 64.5809L76.3531 69.8701L81.5668 64.564Z" fill="#FF4141"/>
<path d="M58.1973 3.39722C58.1973 1.53043 60.033 0 62.3214 0C64.6097 0 66.4454 1.51361 66.4454 3.39722V18.2474C66.4454 20.1142 64.6097 21.6447 62.3214 21.6447C60.033 21.6447 58.1973 20.131 58.1973 18.2474V3.39722ZM11.2405 48.074C11.0058 48.074 10.7962 47.0397 10.7962 45.7784C10.7962 44.5086 10.9806 43.4911 11.2405 43.4911H22.5061C22.7408 43.4911 22.9504 44.5254 22.9504 45.7784C22.9504 47.0397 22.766 48.074 22.5061 48.074H11.2405ZM29.1867 48.074C28.952 48.074 28.7424 47.0397 28.7424 45.7784C28.7424 44.5086 28.9268 43.4911 29.1867 43.4911H40.4523C40.687 43.4911 40.8966 44.5254 40.8966 45.7784C40.8966 47.0397 40.7122 48.074 40.4523 48.074H29.1867ZM47.1413 48.074C46.9066 48.074 46.697 47.0397 46.697 45.7784C46.697 44.5086 46.8814 43.4911 47.1413 43.4911H58.4069C58.6416 43.4911 58.8512 44.517 58.8512 45.77C57.7196 46.4763 56.6383 47.2415 55.5989 48.074H47.1413ZM11.2656 61.2172C11.0309 61.2172 10.8214 60.1829 10.8214 58.9216C10.8214 57.6518 11.0058 56.6259 11.2656 56.6259H22.5312C22.766 56.6259 22.9755 57.6518 22.9755 58.9216C22.9755 60.1829 22.7911 61.2172 22.5312 61.2172H11.2656ZM29.2118 61.2172C28.9771 61.2172 28.7676 60.1829 28.7676 58.9216C28.7676 57.6518 28.952 56.6259 29.2118 56.6259H40.4775C40.7122 56.6259 40.9217 57.6518 40.9217 58.9216C40.9217 60.1829 40.7373 61.2172 40.4775 61.2172H29.2118ZM11.2908 74.3604C11.0561 74.3604 10.8465 73.3345 10.8465 72.0648C10.8465 70.8034 11.0309 69.7691 11.2908 69.7691H22.548C22.7827 69.7691 22.9923 70.8034 22.9923 72.0648C22.9923 73.3345 22.8079 74.3604 22.548 74.3604H11.2908ZM29.237 74.3604C29.0023 74.3604 28.7927 73.3345 28.7927 72.0648C28.7927 70.8034 28.9771 69.7691 29.237 69.7691H40.5026C40.7373 69.7691 40.9469 70.8034 40.9469 72.0648C40.9469 73.3345 40.7625 74.3604 40.5026 74.3604H29.237ZM21.1314 3.39722C21.1314 1.52202 22.9671 0 25.2555 0C27.5438 0 29.3795 1.51361 29.3795 3.39722V18.2474C29.3795 20.1142 27.5354 21.6447 25.2555 21.6447C22.9671 21.6447 21.1314 20.131 21.1314 18.2474V3.39722ZM4.54313 32.467H83.1427V15.3716C83.1427 14.7829 82.908 14.27 82.5308 13.9C82.1536 13.53 81.6171 13.2862 81.0639 13.2862H73.5283C72.271 13.2862 71.24 12.2519 71.24 10.9905C71.24 9.72916 72.271 8.69486 73.5283 8.69486H81.0639C82.908 8.69486 84.5676 9.44326 85.7747 10.6542C86.9901 11.865 87.7277 13.53 87.7277 15.38V42.5241C86.2273 42.0027 84.6766 41.5823 83.0924 41.2712V37.0331H83.1427H4.54313V81.3146C4.54313 81.9033 4.77783 82.4078 5.15503 82.7862C5.53223 83.1646 6.06869 83.4 6.62191 83.4H43.9728C44.4003 84.9893 44.9368 86.545 45.5738 88.0334H6.66382C4.82812 88.0334 3.16007 87.285 1.95304 86.0741C0.746012 84.8632 0 83.2066 0 81.3567V15.3884C0 13.5468 0.746012 11.8734 1.95304 10.6626C3.16007 9.44326 4.81974 8.70327 6.66382 8.70327H14.7107C15.9764 8.70327 16.999 9.73757 16.999 10.9989C16.999 12.2603 15.968 13.2946 14.7107 13.2946H6.66382C6.07707 13.2946 5.56576 13.53 5.19694 13.9084C4.81974 14.2868 4.58504 14.825 4.58504 15.38V32.4754H4.54313V32.467ZM35.9846 13.2862C34.7273 13.2862 33.6963 12.2519 33.6963 10.9905C33.6963 9.72916 34.7273 8.69486 35.9846 8.69486H51.324C52.5813 8.69486 53.6123 9.72916 53.6123 10.9905C53.6123 12.2603 52.5813 13.2862 51.324 13.2862H35.9846Z" fill="#393939"/>
</g>
<defs>
<clipPath id="clip0_12843_62534">
<rect width="103" height="101" fill="white"/>
</clipPath>
</defs>
</svg>
