<svg width="15" height="14" viewBox="0 0 15 14" fill="none" xmlns="http://www.w3.org/2000/svg">
<path d="M0.625 3.87404H3.20312C3.34081 4.4118 3.65356 4.88844 4.09207 5.22882C4.53057 5.56919 5.06989 5.75394 5.625 5.75394C6.18011 5.75394 6.71943 5.56919 7.15793 5.22882C7.59644 4.88844 7.90919 4.4118 8.04688 3.87404H14.375C14.5408 3.87404 14.6997 3.80819 14.8169 3.69098C14.9342 3.57377 15 3.4148 15 3.24904C15 3.08328 14.9342 2.92431 14.8169 2.8071C14.6997 2.68989 14.5408 2.62404 14.375 2.62404H8.04688C7.90919 2.08628 7.59644 1.60964 7.15793 1.26927C6.71943 0.928892 6.18011 0.744141 5.625 0.744141C5.06989 0.744141 4.53057 0.928892 4.09207 1.26927C3.65356 1.60964 3.34081 2.08628 3.20312 2.62404H0.625C0.45924 2.62404 0.300269 2.68989 0.183058 2.8071C0.0658481 2.92431 0 3.08328 0 3.24904C0 3.4148 0.0658481 3.57377 0.183058 3.69098C0.300269 3.80819 0.45924 3.87404 0.625 3.87404ZM5.625 1.99904C5.87223 1.99904 6.1139 2.07235 6.31946 2.20971C6.52502 2.34706 6.68524 2.54228 6.77985 2.77069C6.87446 2.9991 6.89921 3.25043 6.85098 3.49291C6.80275 3.73538 6.6837 3.95811 6.50888 4.13293C6.33407 4.30774 6.11134 4.42679 5.86886 4.47502C5.62639 4.52326 5.37505 4.4985 5.14665 4.40389C4.91824 4.30928 4.72301 4.14907 4.58566 3.94351C4.44831 3.73794 4.375 3.49627 4.375 3.24904C4.375 2.91752 4.5067 2.59958 4.74112 2.36516C4.97554 2.13074 5.29348 1.99904 5.625 1.99904ZM14.375 10.124H13.0469C12.9092 9.58628 12.5964 9.10964 12.1579 8.76927C11.7194 8.42889 11.1801 8.24414 10.625 8.24414C10.0699 8.24414 9.53057 8.42889 9.09207 8.76927C8.65356 9.10964 8.34081 9.58628 8.20312 10.124H0.625C0.45924 10.124 0.300269 10.1899 0.183058 10.3071C0.0658481 10.4243 0 10.5833 0 10.749C0 10.9148 0.0658481 11.0738 0.183058 11.191C0.300269 11.3082 0.45924 11.374 0.625 11.374H8.20312C8.34081 11.9118 8.65356 12.3884 9.09207 12.7288C9.53057 13.0692 10.0699 13.2539 10.625 13.2539C11.1801 13.2539 11.7194 13.0692 12.1579 12.7288C12.5964 12.3884 12.9092 11.9118 13.0469 11.374H14.375C14.5408 11.374 14.6997 11.3082 14.8169 11.191C14.9342 11.0738 15 10.9148 15 10.749C15 10.5833 14.9342 10.4243 14.8169 10.3071C14.6997 10.1899 14.5408 10.124 14.375 10.124ZM10.625 11.999C10.3778 11.999 10.1361 11.9257 9.93054 11.7884C9.72498 11.651 9.56476 11.4558 9.47015 11.2274C9.37554 10.999 9.35079 10.7477 9.39902 10.5052C9.44725 10.2627 9.5663 10.04 9.74112 9.86516C9.91593 9.69034 10.1387 9.57129 10.3811 9.52306C10.6236 9.47483 10.8749 9.49958 11.1034 9.59419C11.3318 9.6888 11.527 9.84902 11.6643 10.0546C11.8017 10.2601 11.875 10.5018 11.875 10.749C11.875 11.0806 11.7433 11.3985 11.5089 11.6329C11.2745 11.8673 10.9565 11.999 10.625 11.999Z" fill="black"/>
</svg>
