<svg width="22" height="22" viewBox="0 0 22 22" fill="none" xmlns="http://www.w3.org/2000/svg">
<path d="M11.0007 10.084C10.7575 10.084 10.5244 10.1806 10.3525 10.3525C10.1806 10.5244 10.084 10.7575 10.084 11.0007V14.6673C10.084 14.9104 10.1806 15.1436 10.3525 15.3155C10.5244 15.4874 10.7575 15.584 11.0007 15.584C11.2438 15.584 11.4769 15.4874 11.6488 15.3155C11.8207 15.1436 11.9173 14.9104 11.9173 14.6673V11.0007C11.9173 10.7575 11.8207 10.5244 11.6488 10.3525C11.4769 10.1806 11.2438 10.084 11.0007 10.084ZM11.349 6.49065C11.1258 6.39897 10.8755 6.39897 10.6523 6.49065C10.5398 6.53428 10.437 6.5997 10.3498 6.68315C10.2689 6.77225 10.2037 6.87456 10.1573 6.98565C10.106 7.09444 10.0809 7.21374 10.084 7.33398C10.0833 7.45462 10.1064 7.57421 10.152 7.6859C10.1976 7.79758 10.2649 7.89916 10.3498 7.98482C10.4389 8.06579 10.5412 8.1309 10.6523 8.17732C10.7912 8.23437 10.942 8.25644 11.0914 8.24159C11.2408 8.22673 11.3842 8.17541 11.5091 8.09213C11.6341 8.00885 11.7366 7.89616 11.8078 7.76397C11.879 7.63177 11.9166 7.48412 11.9173 7.33398C11.9139 7.09128 11.819 6.85882 11.6515 6.68315C11.5643 6.5997 11.4615 6.53428 11.349 6.49065ZM11.0007 1.83398C9.18766 1.83398 7.41538 2.3716 5.90793 3.37885C4.40048 4.38609 3.22556 5.81773 2.53176 7.49272C1.83796 9.16771 1.65643 11.0108 2.01012 12.789C2.36382 14.5671 3.23686 16.2005 4.51884 17.4825C5.80082 18.7644 7.43417 19.6375 9.21233 19.9912C10.9905 20.3449 12.8336 20.1634 14.5086 19.4695C16.1836 18.7757 17.6152 17.6008 18.6225 16.0934C19.6297 14.5859 20.1673 12.8136 20.1673 11.0007C20.1673 9.79687 19.9302 8.60487 19.4696 7.49272C19.0089 6.38057 18.3337 5.37004 17.4825 4.51884C16.6313 3.66764 15.6207 2.99242 14.5086 2.53176C13.3964 2.07109 12.2044 1.83398 11.0007 1.83398ZM11.0007 18.334C9.55026 18.334 8.13243 17.9039 6.92647 17.0981C5.72051 16.2923 4.78058 15.147 4.22554 13.807C3.6705 12.467 3.52527 10.9925 3.80823 9.56999C4.09119 8.14746 4.78962 6.84079 5.81521 5.8152C6.84079 4.78962 8.14747 4.09118 9.56999 3.80823C10.9925 3.52527 12.467 3.67049 13.807 4.22553C15.147 4.78058 16.2923 5.72051 17.0981 6.92647C17.9039 8.13243 18.334 9.55025 18.334 11.0007C18.334 12.9456 17.5614 14.8108 16.1861 16.1861C14.8108 17.5614 12.9456 18.334 11.0007 18.334Z" fill="#111111"/>
</svg>
