<svg width="16" height="20" viewBox="0 0 16 20" fill="none" xmlns="http://www.w3.org/2000/svg">
<path fill-rule="evenodd" clip-rule="evenodd" d="M9.64539 11.0729C9.52822 11.191 9.33784 11.191 9.2198 11.0729C9.10264 10.9549 9.10264 10.763 9.2198 10.6441L11.9535 7.8894C12.0706 7.77134 12.261 7.77134 12.379 7.8894C12.4962 8.00747 12.4962 8.19932 12.379 8.31826L9.64539 11.0729ZM4.77709 8.63962C4.80552 8.80456 4.69611 8.96082 4.53242 8.99033C4.36874 9.01898 4.21367 8.90873 4.18438 8.74378C4.16715 8.64482 4.10254 8.55453 4.00691 8.48683C3.97331 8.46252 3.93541 8.44169 3.89492 8.42345V9.30721C4.10168 9.37493 4.29465 9.46868 4.44542 9.59457C4.65045 9.76559 4.78053 9.98782 4.78053 10.2743C4.78053 10.573 4.63839 10.8386 4.40922 11.0287C4.26708 11.1468 4.09047 11.2344 3.89406 11.2796V11.4775C3.89406 11.6451 3.75966 11.7805 3.59339 11.7805C3.42712 11.7805 3.29272 11.6451 3.29272 11.4775V11.2813C3.12128 11.2431 2.96534 11.1728 2.83269 11.0782C2.61128 10.9193 2.45708 10.6927 2.4114 10.4323C2.38297 10.2674 2.49238 10.1111 2.65607 10.0816C2.81976 10.0529 2.97483 10.1632 3.00411 10.3281C3.02135 10.4271 3.08596 10.5174 3.18158 10.5851C3.21518 10.6094 3.25309 10.6302 3.29358 10.6485V9.76472C3.08682 9.697 2.89384 9.60325 2.74308 9.47736C2.53804 9.30634 2.40796 9.08411 2.40796 8.79762C2.40796 8.49897 2.55011 8.23333 2.77927 8.04323C2.92142 7.92516 3.09802 7.83748 3.29444 7.79234V7.59441C3.29444 7.42686 3.42884 7.29143 3.59511 7.29143C3.76138 7.29143 3.89578 7.42686 3.89578 7.59441V7.7906C4.06721 7.8288 4.22315 7.89912 4.35581 7.99374C4.57721 8.15261 4.73142 8.3792 4.77709 8.63962ZM3.29444 8.42693C3.24447 8.4495 3.19967 8.47728 3.16004 8.51027C3.067 8.58753 3.00928 8.6891 3.00928 8.79849C3.00928 8.88096 3.05408 8.95215 3.12645 9.01205C3.17383 9.05112 3.23069 9.08671 3.29444 9.11709V8.42693ZM4.06376 10.0607C4.01638 10.0217 3.95952 9.98609 3.89577 9.9557V10.6459C3.94574 10.6233 3.99054 10.5955 4.03017 10.5625C4.12321 10.4853 4.18093 10.3837 4.18093 10.2743C4.18093 10.1918 4.13613 10.1206 4.06376 10.0607ZM2.70863 6.4529C2.54236 6.4529 2.40796 6.31748 2.40796 6.14992C2.40796 5.98238 2.54235 5.84695 2.70863 5.84695H5.4447C5.61097 5.84695 5.74537 5.98237 5.74537 6.14992C5.74537 6.31747 5.61098 6.4529 5.4447 6.4529H2.70863ZM2.70863 4.97363C2.54236 4.97363 2.40796 4.8382 2.40796 4.67065C2.40796 4.5031 2.54235 4.36767 2.70863 4.36767H6.4259C6.59218 4.36767 6.72657 4.5031 6.72657 4.67065C6.72657 4.8382 6.59218 4.97363 6.4259 4.97363H2.70863ZM2.70863 3.49436C2.54236 3.49436 2.40796 3.35893 2.40796 3.19138C2.40796 3.02383 2.54235 2.8884 2.70863 2.8884H5.95482C6.12109 2.8884 6.25549 3.02383 6.25549 3.19138C6.25549 3.35893 6.12109 3.49436 5.95482 3.49436H2.70863ZM1.11917 13.3563C1.10711 13.3615 1.09504 13.3649 1.08212 13.3684L0.608304 13.5238L2.49844 19.3863L3.98195 18.9001L2.09182 13.0376L1.11917 13.3563ZM0.707366 12.8553L0.393774 12.9578C0.243873 13.0064 0.128438 13.1123 0.0620978 13.2434C-0.00423753 13.3736 -0.0206063 13.5299 0.0285001 13.681L1.93846 19.6032C1.9867 19.7543 2.0918 19.8706 2.2219 19.9374C2.35113 20.0043 2.50621 20.0208 2.65611 19.9713L4.19906 19.466C4.34896 19.4174 4.4644 19.3115 4.53074 19.1804C4.59707 19.0502 4.61344 18.8939 4.5652 18.7429L4.4868 18.4998L4.7754 18.4052C4.95804 18.3453 5.13293 18.3114 5.30696 18.3019C5.48098 18.2932 5.65932 18.3079 5.84712 18.3487L6.82062 18.5571C7.14109 18.6257 7.45125 18.6387 7.75449 18.5953C8.05774 18.5519 8.35237 18.452 8.64097 18.2949L15.0593 14.8197C15.3246 14.6765 15.546 14.4664 15.6726 14.2164C15.7958 13.9733 15.8311 13.6955 15.7364 13.4039C15.7226 13.3604 15.7045 13.3153 15.683 13.2693C15.5727 13.0323 15.3866 12.8378 15.1678 12.7206C15.3875 12.4202 15.5684 12.0947 15.7054 11.7509C15.8966 11.27 16 10.7543 16 10.2196C16 9.295 15.6873 8.13519 15.1514 7.04486C14.7448 6.2184 14.2072 5.42669 13.5775 4.80158C13.6558 4.7547 13.7282 4.69827 13.792 4.63316C13.9867 4.43696 14.1081 4.16523 14.1081 3.86661C14.1081 3.56799 13.9867 3.29625 13.792 3.10006C13.7032 3.01065 13.5981 2.93599 13.4827 2.88216C13.8523 2.38646 14.0323 1.93678 14.0539 1.57824C14.0685 1.33082 14.0117 1.11727 13.891 0.948853C13.7653 0.774359 13.5809 0.657163 13.344 0.609426C13.02 0.544316 12.5859 0.617239 12.0733 0.86638C11.6701 0.289067 11.2454 0 10.8008 0C10.3563 0 9.93245 0.28909 9.52841 0.86638C9.01582 0.617227 8.58075 0.54431 8.2577 0.609426C8.05266 0.650227 7.88639 0.743117 7.76405 0.881159H1.60954C1.36143 0.881159 1.13573 0.983598 0.972899 1.14767C0.810072 1.31174 0.708423 1.53919 0.708423 1.78921V12.857L0.707366 12.8553ZM1.3087 1.78758V12.6582L1.93675 12.4525C2.08579 12.4039 2.24086 12.4204 2.37095 12.4872C2.50104 12.554 2.60528 12.6704 2.6544 12.8214L2.73279 13.0654L4.11378 12.6131C4.34553 12.5375 4.57123 12.4933 4.8004 12.4811C5.02871 12.469 5.25785 12.4889 5.49562 12.5402L6.45274 12.745C6.27441 12.5037 6.1202 12.2467 5.99443 11.9767C5.74115 11.4333 5.60159 10.8404 5.60159 10.2197C5.60159 9.29511 5.91432 8.13531 6.45018 7.04498C6.85682 6.21851 7.39437 5.42681 8.02414 4.80169C7.94574 4.75481 7.87338 4.69838 7.80962 4.63327C7.61492 4.43708 7.49345 4.16535 7.49345 3.86672C7.49345 3.5681 7.61492 3.29637 7.80962 3.10017C7.89836 3.01076 8.00346 2.9361 8.11889 2.88228C7.7493 2.38657 7.56925 1.93689 7.54773 1.57835C7.546 1.5471 7.54514 1.51758 7.54514 1.4872H1.60941C1.52757 1.4872 1.45176 1.52105 1.39748 1.57574C1.34321 1.63044 1.30961 1.70596 1.30961 1.7893L1.3087 1.78758ZM8.18858 1.31012C8.19117 1.30665 8.19289 1.30317 8.19547 1.2997C8.22993 1.25196 8.28938 1.21897 8.37208 1.2016C8.61589 1.15299 8.99064 1.2424 9.47136 1.51412L9.47223 1.51498C9.61265 1.60267 9.79788 1.55839 9.88489 1.41689C10.2166 0.875176 10.5215 0.604333 10.8007 0.604333C11.0798 0.604333 11.3847 0.875199 11.7164 1.41689C11.8 1.55405 11.9775 1.60093 12.1179 1.52106C12.6038 1.24413 12.9828 1.15299 13.2284 1.20159C13.3111 1.21809 13.3705 1.25194 13.405 1.29969C13.4437 1.35351 13.461 1.43512 13.4549 1.54102C13.4368 1.84833 13.2301 2.27806 12.7907 2.7807H8.80968C8.37117 2.27806 8.16441 1.84833 8.14546 1.54102C8.14029 1.45942 8.14977 1.3917 8.17303 1.33962C8.17906 1.33007 8.18428 1.31967 8.18858 1.31012ZM14.6119 7.31059C14.1683 6.40774 13.5618 5.55439 12.851 4.95019H8.7478C8.03791 5.55441 7.43141 6.40777 6.98688 7.31059C6.49066 8.31936 6.20119 9.38194 6.20119 10.2188C6.20119 10.7518 6.32008 11.2588 6.53545 11.7207C6.74996 12.1816 7.06096 12.6009 7.44691 12.9578L9.15097 13.3224C9.48523 13.3935 9.76091 13.5967 9.93408 13.8667C10.0797 14.0932 10.1546 14.3658 10.1322 14.648L14.2743 12.686C14.3139 12.6669 14.3501 12.653 14.3845 12.6417C14.4173 12.6313 14.45 12.6226 14.4819 12.6157C14.7645 12.2875 14.9902 11.9203 15.147 11.5271C15.3089 11.1191 15.3968 10.6798 15.3968 10.2206C15.3968 9.38456 15.1073 8.32196 14.6111 7.31233L14.6119 7.31059ZM4.29884 17.9243L2.917 13.6402L4.29798 13.1879C4.48062 13.128 4.65551 13.0941 4.82954 13.0846C5.00356 13.0759 5.1819 13.0907 5.3697 13.1315L9.02588 13.9145C9.19904 13.9518 9.34119 14.0569 9.43078 14.1958C9.52036 14.3347 9.55742 14.5083 9.52124 14.6828C9.48419 14.8573 9.37995 15.0005 9.24211 15.0908C9.10428 15.1811 8.93198 15.2184 8.75881 15.182L5.95724 14.5821C5.79528 14.5474 5.63591 14.6515 5.60143 14.8156C5.56698 14.9788 5.67036 15.1394 5.83318 15.1742L8.63476 15.774C8.96901 15.8452 9.30241 15.7732 9.56949 15.5978C9.59361 15.5822 9.61687 15.5657 9.63927 15.5483L14.5283 13.2321C14.5395 13.2269 14.5533 13.2217 14.5705 13.2156C14.6704 13.1827 14.7807 13.2 14.8798 13.2521C14.9909 13.3103 15.0848 13.4066 15.1391 13.5247C15.1477 13.5438 15.1563 13.5655 15.1641 13.5907C15.2046 13.7157 15.1891 13.8355 15.1348 13.9414C15.065 14.0794 14.9341 14.1992 14.773 14.2869L8.35469 17.7621C8.12898 17.8845 7.90067 17.9626 7.6672 17.9956C7.43374 18.0295 7.19339 18.019 6.94181 17.9652L5.96831 17.7569C5.73054 17.7057 5.50137 17.6866 5.27309 17.6978C5.04392 17.71 4.81821 17.7534 4.58647 17.8298L4.29786 17.9244L4.29884 17.9243ZM8.81824 7.48505C8.61751 7.68733 8.51671 7.95298 8.51671 8.21776C8.51671 8.48253 8.61664 8.74817 8.81824 8.95046C9.01897 9.15273 9.28259 9.2543 9.54535 9.2543C9.80811 9.2543 10.0717 9.1536 10.2725 8.95046C10.4723 8.74905 10.5723 8.4834 10.5723 8.21776H10.5731C10.5731 7.95298 10.4732 7.68734 10.2716 7.48505C10.0709 7.28278 9.80725 7.18121 9.54449 7.18121C9.28173 7.18121 9.01812 7.28191 8.81738 7.48505H8.81824ZM9.54535 7.78803C9.43594 7.78803 9.32653 7.8297 9.24382 7.91391C9.16025 7.99812 9.1189 8.1075 9.1189 8.21776C9.1189 8.32801 9.16025 8.43826 9.24382 8.5216C9.32739 8.60581 9.43594 8.64748 9.54535 8.64748C9.65476 8.64748 9.76417 8.60581 9.84688 8.5216C9.9313 8.43653 9.97266 8.32714 9.97266 8.21776H9.9718C9.9718 8.10751 9.93044 7.99725 9.84688 7.91391C9.76331 7.8297 9.65476 7.78803 9.54535 7.78803ZM13.0302 3.38657C13.1603 3.38657 13.2791 3.4404 13.3653 3.52721C13.4514 3.61402 13.5048 3.73382 13.5048 3.8649C13.5048 3.99599 13.4514 4.11579 13.3653 4.20259C13.2791 4.2894 13.1602 4.34323 13.0302 4.34323H8.56856C8.43847 4.34323 8.31959 4.28941 8.23344 4.20259C8.1473 4.11578 8.09388 3.99598 8.09388 3.8649C8.09388 3.73382 8.14729 3.61402 8.23344 3.52721C8.31959 3.4404 8.43848 3.38657 8.56856 3.38657H13.0302ZM12.3556 11.0494C12.4392 10.9652 12.4805 10.8558 12.4805 10.7456C12.4805 10.6353 12.4392 10.5251 12.3556 10.4417C12.272 10.3575 12.1635 10.3158 12.0541 10.3158C11.9447 10.3158 11.8353 10.3575 11.7526 10.4417C11.669 10.5259 11.6276 10.6353 11.6276 10.7456C11.6276 10.8558 11.669 10.9661 11.7526 11.0494C11.8361 11.1336 11.9447 11.1753 12.0541 11.1753C12.1635 11.1753 12.2729 11.1336 12.3556 11.0494ZM13.0819 10.7456C13.0819 10.4808 12.9819 10.2151 12.7803 10.0129C12.5796 9.81058 12.316 9.70901 12.0532 9.70901C11.7905 9.70901 11.5269 9.80971 11.3261 10.0129C11.1254 10.2151 11.0246 10.4808 11.0246 10.7456C11.0246 11.0103 11.1245 11.276 11.3261 11.4783C11.5268 11.6805 11.7905 11.7821 12.0532 11.7821C12.316 11.7821 12.5796 11.6814 12.7803 11.4783C12.9811 11.276 13.0819 11.0103 13.0819 10.7456Z" fill="#FAFAFA"/>
</svg>
