<svg width="21" height="21" viewBox="0 0 21 21" fill="none" xmlns="http://www.w3.org/2000/svg">
<circle cx="10.5" cy="10.5" r="10" fill="#BAF6E1"/>
<path d="M11.6377 6.27787C11.6504 6.23028 11.6724 6.18567 11.7023 6.14657C11.7323 6.10748 11.7697 6.07468 11.8124 6.05004C11.855 6.0254 11.9021 6.00941 11.951 6.00298C11.9998 5.99655 12.0495 5.9998 12.097 6.01256C12.7922 6.19394 13.4265 6.55736 13.9345 7.06539C14.4425 7.57342 14.806 8.20769 14.9873 8.90287C15.0001 8.95046 15.0034 9.00009 14.9969 9.04893C14.9905 9.09778 14.9745 9.14487 14.9499 9.18753C14.9252 9.23019 14.8924 9.26758 14.8533 9.29756C14.8142 9.32754 14.7696 9.34952 14.722 9.36225C14.6904 9.37057 14.6578 9.37482 14.625 9.37491C14.5424 9.3749 14.462 9.34761 14.3965 9.29725C14.331 9.2469 14.2839 9.17632 14.2627 9.09647C14.1147 8.52896 13.8181 8.01118 13.4034 7.59648C12.9887 7.18178 12.4709 6.88518 11.9034 6.73725C11.8558 6.72457 11.8111 6.70262 11.772 6.67267C11.7329 6.64271 11.7 6.60533 11.6753 6.56266C11.6506 6.52 11.6346 6.47288 11.6281 6.42402C11.6217 6.37515 11.6249 6.32549 11.6377 6.27787ZM11.5284 8.23725C12.1748 8.40975 12.5902 8.82506 12.7627 9.47147C12.7839 9.55132 12.831 9.6219 12.8965 9.67225C12.962 9.72261 13.0424 9.7499 13.125 9.74991C13.1578 9.74982 13.1904 9.74557 13.222 9.73725C13.2696 9.72452 13.3142 9.70254 13.3533 9.67256C13.3924 9.64258 13.4252 9.60519 13.4499 9.56253C13.4745 9.51987 13.4905 9.47278 13.4969 9.42393C13.5034 9.37509 13.5001 9.32546 13.4873 9.27787C13.2473 8.37975 12.6202 7.75256 11.722 7.51256C11.6745 7.49985 11.6248 7.49664 11.576 7.5031C11.5272 7.50957 11.4801 7.52559 11.4375 7.55024C11.3948 7.5749 11.3575 7.60772 11.3275 7.64681C11.2976 7.68591 11.2756 7.73052 11.2629 7.77811C11.2502 7.82569 11.247 7.87531 11.2534 7.92414C11.2599 7.97297 11.2759 8.02004 11.3006 8.06268C11.3252 8.10531 11.358 8.14267 11.3971 8.17262C11.4362 8.20258 11.4809 8.22454 11.5284 8.23725ZM15.3694 12.7068C15.2858 13.342 14.9739 13.925 14.4918 14.347C14.0098 14.769 13.3906 15.0011 12.75 14.9999C9.02813 14.9999 6 11.9718 6 8.24991C5.99886 7.60926 6.23095 6.9901 6.65294 6.50807C7.07493 6.02605 7.65796 5.71411 8.29313 5.63053C8.45375 5.61092 8.6164 5.64378 8.75681 5.7242C8.89722 5.80463 9.00785 5.92831 9.07219 6.07678L10.0622 8.28694V8.29256C10.1115 8.40621 10.1318 8.53029 10.1214 8.65372C10.111 8.77715 10.0702 8.89609 10.0027 8.99991C9.99422 9.01256 9.98532 9.02428 9.97594 9.036L9 10.1929C9.3511 10.9063 10.0973 11.646 10.8202 11.998L11.9611 11.0272C11.9723 11.0178 11.984 11.0091 11.9963 11.001C12.1 10.9318 12.2193 10.8896 12.3435 10.8781C12.4676 10.8667 12.5927 10.8863 12.7073 10.9354L12.7134 10.9382L14.9217 11.9277C15.0705 11.9918 15.1944 12.1024 15.2751 12.2428C15.3558 12.3832 15.3889 12.546 15.3694 12.7068ZM14.625 12.613C14.625 12.613 14.6217 12.613 14.6198 12.613L12.4167 11.6263L11.2753 12.5971C11.2642 12.6065 11.2527 12.6152 11.2406 12.6233C11.1327 12.6953 11.0079 12.7381 10.8785 12.7475C10.7491 12.7569 10.6195 12.7325 10.5023 12.6768C9.62438 12.2526 8.74922 11.384 8.32453 10.5154C8.2683 10.3991 8.24306 10.2702 8.25128 10.1412C8.25949 10.0123 8.30087 9.88768 8.37141 9.77944C8.37936 9.76673 8.38829 9.75466 8.39813 9.74334L9.375 8.58506L8.39063 6.38194C8.39044 6.38007 8.39044 6.37818 8.39063 6.37631C7.93606 6.43561 7.5187 6.65858 7.2167 7.00346C6.9147 7.34834 6.74878 7.79149 6.75 8.24991C6.75174 9.84067 7.38444 11.3658 8.50928 12.4906C9.63412 13.6155 11.1592 14.2482 12.75 14.2499C13.2081 14.2515 13.6512 14.0861 13.9962 13.7848C14.3413 13.4834 14.5648 13.0667 14.625 12.6126V12.613Z" fill="#300787"/>
</svg>
