<svg width="88" height="69" viewBox="0 0 88 69" fill="none" xmlns="http://www.w3.org/2000/svg">
<path d="M21.7357 25.7871H19.2007C18.9739 25.7871 18.7565 25.8772 18.5961 26.0375C18.4358 26.1979 18.3457 26.4153 18.3457 26.6421V28.2261C18.3457 28.4529 18.4358 28.6703 18.5961 28.8307C18.7565 28.991 18.9739 29.0811 19.2007 29.0811H21.2527V28.4511C21.8712 28.451 22.4643 28.2054 22.9017 27.7681L23.2097 27.4601L21.7357 25.7871Z" fill="#1FE29E"/>
<path d="M21.7363 25.7875L23.2103 27.4595L29.5413 25.9875L28.6653 23.6455L21.7363 25.7875Z" fill="#1FE29E"/>
<path d="M28.6649 23.6455L28.3559 23.7455L28.2559 26.2905L29.5409 25.9905L28.6649 23.6455Z" fill="#1FE29E"/>
<path d="M40.7848 14.5874C40.3828 14.2722 39.8749 14.1239 39.3665 14.1734C38.8581 14.223 38.3883 14.4665 38.0548 14.8534L31.4878 22.4704L30.3008 22.8704L31.4008 25.8194L32.0238 25.6844C33.0093 25.4709 33.9078 24.9661 34.6028 24.2354L40.9958 17.5184C41.1865 17.3181 41.3334 17.0801 41.4268 16.8197C41.5203 16.5593 41.5583 16.2822 41.5384 16.0063C41.5186 15.7303 41.4412 15.4616 41.3115 15.2172C41.1817 14.9729 41.0023 14.7584 40.7848 14.5874Z" fill="#1FE29E"/>
<path d="M31.439 25.9147L31.404 25.8207L30.304 22.8717L30.195 22.5797C30.1801 22.54 30.1575 22.5036 30.1285 22.4726C30.0996 22.4416 30.0648 22.4166 30.0262 22.399C29.9875 22.3815 29.9458 22.3717 29.9034 22.3703C29.861 22.3689 29.8187 22.3758 29.779 22.3907L28.694 22.7967C28.6543 22.8116 28.6179 22.8342 28.5869 22.8632C28.5558 22.8921 28.5309 22.9269 28.5133 22.9656C28.4958 23.0042 28.486 23.0459 28.4846 23.0883C28.4831 23.1307 28.4901 23.173 28.505 23.2127L28.593 23.4487L29.624 26.2067L29.751 26.5467C29.7659 26.5865 29.7885 26.6229 29.8174 26.6539C29.8464 26.6849 29.8812 26.7099 29.9198 26.7274C29.9585 26.745 30.0002 26.7547 30.0426 26.7562C30.085 26.7576 30.1273 26.7506 30.167 26.7357L31.252 26.3297C31.3316 26.2992 31.396 26.2385 31.431 26.1608C31.4661 26.083 31.4689 25.9946 31.439 25.9147Z" fill="#1FE29E"/>
<path d="M38.4698 15.1704C38.7661 14.8263 39.1707 14.5933 39.6171 14.5097C40.0635 14.4261 40.525 14.4969 40.9258 14.7104C40.8808 14.6674 40.8348 14.6264 40.7848 14.5874C40.3828 14.2722 39.8749 14.1239 39.3665 14.1734C38.8581 14.223 38.3883 14.4665 38.0548 14.8534L31.4878 22.4704L30.3008 22.8704L30.4778 23.3434L31.8108 22.8944L38.4698 15.1704Z" fill="#1FE29E"/>
<path d="M38.5006 30.4376L24.8127 34.0806C24.2614 34.2272 23.7518 34.5 23.3241 34.8773C22.8963 35.2546 22.5621 35.7262 22.3478 36.2547C22.1335 36.7833 22.045 37.3545 22.0892 37.9232C22.1334 38.4918 22.3092 39.0424 22.6026 39.5316L30.5816 52.8315L35.0246 50.8606L28.6406 38.7206L41.6406 36.0036C42.2333 35.8797 42.7929 35.631 43.2819 35.2739C43.771 34.9168 44.1782 34.4596 44.4767 33.9327C44.7751 33.4059 44.9578 32.8215 45.0127 32.2184C45.0675 31.6154 44.9932 31.0076 44.7946 30.4355H38.5006V30.4376Z" fill="#1FE29E"/>
<path d="M34.4449 51.7715L34.1119 51.2715L31.5879 52.3915L32.1819 53.4735L34.9959 52.6835C34.8279 52.3705 34.6449 52.0665 34.4449 51.7715Z" fill="#1FE29E"/>
<path d="M33.7565 53.9497L33.5215 54.5497L33.8355 54.3287C33.9599 54.2412 34.1084 54.1944 34.2605 54.1947H35.7345C35.5199 53.6758 35.2751 53.17 35.0015 52.6797L32.1875 53.4697L32.3575 53.7787H33.6395C33.6599 53.7788 33.6799 53.7838 33.6979 53.7934C33.7159 53.8029 33.7313 53.8167 33.7428 53.8335C33.7543 53.8503 33.7616 53.8697 33.7639 53.8899C33.7663 53.9102 33.7638 53.9307 33.7565 53.9497Z" fill="#1FE29E"/>
<path d="M30.521 56.5293H36.485L36.376 56.1083C36.2068 55.4563 35.992 54.8171 35.733 54.1953H34.259C34.1068 54.1953 33.9583 54.2425 33.834 54.3303L33.52 54.5513L33.755 53.9513C33.7625 53.9321 33.7652 53.9114 33.7628 53.891C33.7605 53.8705 33.7532 53.851 33.7416 53.834C33.7299 53.817 33.7143 53.8032 33.6961 53.7936C33.6778 53.7841 33.6575 53.7792 33.637 53.7793H32.355L31.408 54.6693C30.9788 55.0726 30.412 55.2972 29.823 55.2973H29.177C28.8764 55.2973 28.5814 55.3784 28.323 55.5321C28.0646 55.6857 27.8525 55.9062 27.709 56.1703L28.939 56.3893C29.4612 56.4824 29.9905 56.5293 30.521 56.5293Z" fill="#1FE29E"/>
<path d="M30.5208 56.528C29.9907 56.5278 29.4616 56.4809 28.9398 56.3879L27.7098 56.1689C27.5864 56.3967 27.5179 56.6501 27.5098 56.9089L29.3888 57.0789C29.6861 57.1056 29.9841 57.119 30.2828 57.119H36.6408L36.4878 56.5269L30.5208 56.528Z" fill="#1FE29E"/>
<path d="M34.1158 51.2666L31.5918 52.3866L31.8648 52.8866L34.6138 52.0286L34.1158 51.2666Z" fill="#1FE29E"/>
<path d="M17.3805 29.2109H16.7345L15.0715 35.0939C13.7708 39.6954 14.2948 44.6212 16.5345 48.8459L17.3445 49.1509L17.3805 29.2109Z" fill="#8B75BC"/>
<path d="M15.0713 35.0939L16.7343 29.2109H16.1283L12.7153 41.8809C12.5659 42.436 12.2376 42.9264 11.7813 43.2761C11.325 43.6257 10.7662 43.8151 10.1913 43.8149C10.1485 43.8149 10.1075 43.8319 10.0771 43.862C10.0468 43.8922 10.0296 43.9331 10.0293 43.9759V46.394L16.5293 48.8449C14.2917 44.6197 13.7694 39.6944 15.0713 35.0939Z" fill="#8B75BC"/>
<path d="M9.587 68.2062C14.6056 68.2062 18.674 64.1378 18.674 59.1192C18.674 54.1006 14.6056 50.0322 9.587 50.0322C4.56839 50.0322 0.5 54.1006 0.5 59.1192C0.5 64.1378 4.56839 68.2062 9.587 68.2062Z" fill="#8B75BC"/>
<path d="M9.58792 65.6622C13.2015 65.6622 16.1309 62.7328 16.1309 59.1192C16.1309 55.5056 13.2015 52.5762 9.58792 52.5762C5.97432 52.5762 3.04492 55.5056 3.04492 59.1192C3.04492 62.7328 5.97432 65.6622 9.58792 65.6622Z" fill="#8B75BC"/>
<path d="M9.58614 64.4613C12.5364 64.4613 14.9281 62.0696 14.9281 59.1193C14.9281 56.169 12.5364 53.7773 9.58614 53.7773C6.63584 53.7773 4.24414 56.169 4.24414 59.1193C4.24414 62.0696 6.63584 64.4613 9.58614 64.4613Z" fill="#8B75BC"/>
<path d="M9.58708 53.7773C8.61535 53.776 7.66182 54.0409 6.83008 54.5434C7.52675 54.3669 8.25451 54.3518 8.95789 54.4993C9.66126 54.6468 10.3217 54.9529 10.8888 55.3943C11.4559 55.8357 11.9148 56.4007 12.2305 57.0464C12.5461 57.692 12.7102 58.4012 12.7102 59.1198C12.7102 59.8385 12.5461 60.5477 12.2305 61.1933C11.9148 61.839 11.4559 62.404 10.8888 62.8454C10.3217 63.2868 9.66126 63.5929 8.95789 63.7404C8.25451 63.8879 7.52675 63.8728 6.83008 63.6964C7.53567 64.1217 8.33005 64.378 9.15114 64.4454C9.97223 64.5128 10.7978 64.3895 11.5633 64.0849C12.3288 63.7804 13.0135 63.303 13.5639 62.69C14.1143 62.077 14.5155 61.345 14.7362 60.5512C14.9568 59.7575 14.9909 58.9234 14.8358 58.1143C14.6806 57.3052 14.3405 56.5429 13.8419 55.887C13.3434 55.2312 12.6999 54.6994 11.9618 54.3335C11.2237 53.9675 10.4109 53.7772 9.58708 53.7773Z" fill="#8B75BC"/>
<path d="M9.58647 61.4757C10.8877 61.4757 11.9425 60.4209 11.9425 59.1197C11.9425 57.8185 10.8877 56.7637 9.58647 56.7637C8.28529 56.7637 7.23047 57.8185 7.23047 59.1197C7.23047 60.4209 8.28529 61.4757 9.58647 61.4757Z" fill="#8B75BC"/>
<path d="M9.58623 60.7154C10.4677 60.7154 11.1822 60.0009 11.1822 59.1194C11.1822 58.238 10.4677 57.5234 9.58623 57.5234C8.70479 57.5234 7.99023 58.238 7.99023 59.1194C7.99023 60.0009 8.70479 60.7154 9.58623 60.7154Z" fill="#8B75BC"/>
<path d="M56.2628 68.2062C61.2814 68.2062 65.3498 64.1378 65.3498 59.1192C65.3498 54.1006 61.2814 50.0322 56.2628 50.0322C51.2442 50.0322 47.1758 54.1006 47.1758 59.1192C47.1758 64.1378 51.2442 68.2062 56.2628 68.2062Z" fill="#8B75BC"/>
<path d="M56.2637 65.6622C59.8773 65.6622 62.8067 62.7328 62.8067 59.1192C62.8067 55.5056 59.8773 52.5762 56.2637 52.5762C52.6501 52.5762 49.7207 55.5056 49.7207 59.1192C49.7207 62.7328 52.6501 65.6622 56.2637 65.6622Z" fill="#8B75BC"/>
<path d="M56.2619 64.4613C59.2122 64.4613 61.6039 62.0696 61.6039 59.1193C61.6039 56.169 59.2122 53.7773 56.2619 53.7773C53.3116 53.7773 50.9199 56.169 50.9199 59.1193C50.9199 62.0696 53.3116 64.4613 56.2619 64.4613Z" fill="#8B75BC"/>
<path d="M56.2629 53.7773C55.2911 53.776 54.3376 54.0409 53.5059 54.5434C54.2025 54.3669 54.9303 54.3518 55.6337 54.4993C56.337 54.6468 56.9975 54.9529 57.5646 55.3943C58.1317 55.8357 58.5906 56.4007 58.9062 57.0464C59.2219 57.692 59.386 58.4012 59.386 59.1198C59.386 59.8385 59.2219 60.5477 58.9062 61.1933C58.5906 61.839 58.1317 62.404 57.5646 62.8454C56.9975 63.2868 56.337 63.5929 55.6337 63.7404C54.9303 63.8879 54.2025 63.8728 53.5059 63.6964C54.2114 64.1217 55.0058 64.378 55.8269 64.4454C56.648 64.5128 57.4736 64.3895 58.2391 64.0849C59.0046 63.7804 59.6893 63.303 60.2397 62.69C60.7901 62.077 61.1913 61.345 61.412 60.5512C61.6326 59.7575 61.6667 58.9234 61.5115 58.1143C61.3564 57.3052 61.0163 56.5429 60.5177 55.887C60.0191 55.2312 59.3757 54.6994 58.6376 54.3335C57.8995 53.9675 57.0867 53.7772 56.2629 53.7773Z" fill="#8B75BC"/>
<path d="M56.2622 61.4757C57.5634 61.4757 58.6182 60.4209 58.6182 59.1197C58.6182 57.8185 57.5634 56.7637 56.2622 56.7637C54.9611 56.7637 53.9062 57.8185 53.9062 59.1197C53.9062 60.4209 54.9611 61.4757 56.2622 61.4757Z" fill="#8B75BC"/>
<path d="M56.262 60.7154C57.1435 60.7154 57.858 60.0009 57.858 59.1194C57.858 58.238 57.1435 57.5234 56.262 57.5234C55.3806 57.5234 54.666 58.238 54.666 59.1194C54.666 60.0009 55.3806 60.7154 56.262 60.7154Z" fill="#8B75BC"/>
<path d="M10.0247 47.0837C12.3092 47.177 14.5042 47.9972 16.2901 49.4248C18.076 50.8524 19.3595 52.8129 19.9537 55.0207L20.1537 55.7537L20.3737 55.8617L19.9517 54.3317C19.3575 52.1239 18.074 50.1634 16.2881 48.7358C14.5022 47.3082 12.3072 46.488 10.0227 46.3947C9.90205 46.3907 9.78072 46.3887 9.65872 46.3887C7.67649 46.3848 5.72841 46.9046 4.01172 47.8957L4.32072 48.4127C5.9619 47.5331 7.79569 47.0744 9.65773 47.0777C9.78173 47.0784 9.90405 47.0803 10.0247 47.0837Z" fill="#8B75BC"/>
<path d="M10.8802 51.1971L20.1562 55.7561L19.9562 55.0231C19.362 52.8153 18.0785 50.8548 16.2926 49.4272C14.5067 47.9996 12.3116 47.1794 10.0272 47.0861C9.90651 47.0821 9.78518 47.0801 9.66318 47.0801C7.80115 47.0768 5.96738 47.5356 4.32617 48.4151L5.99217 51.1981H10.8812L10.8802 51.1971Z" fill="#8B75BC"/>
<path d="M20.8145 56.5507H16.4785C15.5128 56.5511 14.5565 56.3611 13.6642 55.9917C12.772 55.6223 11.9613 55.0806 11.2785 54.3977C10.5957 53.7147 9.78503 53.1731 8.89278 52.8036C8.00053 52.4342 7.04421 52.2443 6.07851 52.2447H0.9375L2.5645 50.6177C4.44486 48.7372 6.9952 47.6807 9.6545 47.6807C11.34 47.6807 12.9982 48.1056 14.476 48.916C15.9538 49.7265 17.2035 50.8965 18.1095 52.3177L20.8145 56.5507Z" fill="#8B75BC"/>
<path d="M17.383 29.2109L15.72 35.0939C14.3866 39.8109 14.9718 44.8636 17.348 49.1509L18.178 50.6509C19.3322 52.7336 21.0229 54.4694 23.0745 55.6779C25.1261 56.8865 27.4638 57.5239 29.845 57.5239H70.775L69.309 52.2019C67.8627 46.9516 64.4858 42.4417 59.855 39.5759L57.204 37.9359H34.434V38.9309C34.4341 39.2531 34.5353 39.567 34.7233 39.8286C34.9113 40.0902 35.1767 40.2862 35.482 40.3889C36.6762 40.7908 37.7324 41.5222 38.5287 42.4988C39.325 43.4754 39.8288 44.6572 39.982 45.9079C40.0969 46.8467 40.0112 47.7991 39.7306 48.7022C39.45 49.6054 38.9807 50.4386 38.354 51.1469C37.7272 51.8551 36.9572 52.4222 36.0949 52.8106C35.2327 53.199 34.2977 53.3999 33.352 53.3999H30.023C28.4526 53.3999 26.9078 53.0032 25.5316 52.2468C24.1555 51.4904 22.9926 50.3987 22.151 49.0729L20.607 46.6419C18.9046 43.9613 18.3221 40.7196 18.985 37.6139L20.778 29.2139L17.383 29.2109Z" fill="#8B75BC"/>
<path d="M57.2028 37.9405H32.5938V35.0195H52.2177C52.8923 35.0191 53.5602 35.1534 54.1822 35.4146C54.8042 35.6758 55.3677 36.0586 55.8398 36.5405L57.2028 37.9405Z" fill="#8B75BC"/>
<path d="M42.896 57.9263H31.847C29.3939 57.9257 26.9857 57.2688 24.8721 56.0237C22.7585 54.7786 21.0166 52.9906 19.827 50.8453L18.997 49.3453C17.7887 47.1782 17.0199 44.7941 16.7345 42.3295C16.4492 39.8648 16.6529 37.3681 17.334 34.9823C17.7739 33.4101 17.5718 31.7275 16.772 30.3043C16.7189 30.2115 16.7049 30.1014 16.7331 29.9982C16.7612 29.8951 16.8291 29.8073 16.922 29.7543C17.0148 29.7012 17.1249 29.6873 17.228 29.7154C17.3312 29.7435 17.4189 29.8115 17.472 29.9043C17.9209 30.7026 18.2081 31.5816 18.3172 32.491C18.4263 33.4004 18.3552 34.3224 18.108 35.2043C17.4559 37.4884 17.2609 39.8788 17.5341 42.2384C17.8073 44.598 18.5433 46.8805 19.7 48.9553L20.53 50.4553C21.6497 52.4746 23.2893 54.1575 25.2787 55.3295C27.2682 56.5015 29.535 57.1198 31.844 57.1203H42.893C43.0001 57.1203 43.1029 57.1628 43.1786 57.2386C43.2544 57.3144 43.297 57.4171 43.297 57.5243C43.297 57.6314 43.2544 57.7342 43.1786 57.81C43.1029 57.8857 43.0001 57.9283 42.893 57.9283L42.896 57.9263Z" fill="#8B75BC"/>
<path d="M43.2959 55.9414H68.6119L68.2239 56.3294C67.9173 56.6361 67.5533 56.8794 67.1526 57.0453C66.752 57.2112 66.3226 57.2966 65.8889 57.2964H45.9619C45.4421 57.2966 44.9295 57.1739 44.4661 56.9385C44.0026 56.703 43.6023 56.3614 43.2959 55.9414Z" fill="#8B75BC"/>
<path d="M54.353 60.1014C57.3773 60.1014 59.829 57.6497 59.829 54.6254C59.829 51.6011 57.3773 49.1494 54.353 49.1494C51.3286 49.1494 48.877 51.6011 48.877 54.6254C48.877 57.6497 51.3286 60.1014 54.353 60.1014Z" fill="#8B75BC"/>
<path d="M54.3526 58.841C53.5196 58.841 52.7052 58.594 52.0125 58.1312C51.3199 57.6683 50.78 57.0105 50.4612 56.2409C50.1424 55.4712 50.059 54.6243 50.2216 53.8073C50.3841 52.9902 50.7852 52.2397 51.3743 51.6507C51.9634 51.0616 52.7138 50.6604 53.5309 50.4979C54.3479 50.3354 55.1948 50.4188 55.9645 50.7376C56.7341 51.0564 57.3919 51.5963 57.8548 52.2889C58.3176 52.9816 58.5646 53.7959 58.5646 54.629C58.5635 55.7458 58.1194 56.8165 57.3298 57.6062C56.5401 58.3958 55.4694 58.8399 54.3526 58.841ZM54.3526 50.866C53.6084 50.866 52.8808 51.0867 52.262 51.5002C51.6432 51.9137 51.1609 52.5014 50.8761 53.189C50.5913 53.8766 50.5167 54.6332 50.6619 55.3631C50.8071 56.0931 51.1655 56.7636 51.6918 57.2899C52.218 57.8161 52.8886 58.1745 53.6185 58.3197C54.3485 58.4649 55.1051 58.3904 55.7927 58.1056C56.4803 57.8208 57.068 57.3384 57.4814 56.7196C57.8949 56.1008 58.1156 55.3733 58.1156 54.629C58.1156 53.6305 57.7193 52.6729 57.0138 51.9664C56.3082 51.2599 55.3511 50.8623 54.3526 50.861V50.866Z" fill="#8B75BC"/>
<path d="M57.0885 54.8503H51.6185C51.5891 54.8503 51.56 54.8446 51.5328 54.8333C51.5056 54.8221 51.4809 54.8056 51.4601 54.7848C51.4393 54.764 51.4228 54.7392 51.4116 54.7121C51.4003 54.6849 51.3945 54.6558 51.3945 54.6263C51.3945 54.5969 51.4003 54.5678 51.4116 54.5406C51.4228 54.5134 51.4393 54.4888 51.4601 54.468C51.4809 54.4472 51.5056 54.4307 51.5328 54.4194C51.56 54.4081 51.5891 54.4023 51.6185 54.4023H57.0885C57.1179 54.4023 57.1471 54.4081 57.1743 54.4194C57.2014 54.4307 57.2261 54.4472 57.2469 54.468C57.2677 54.4888 57.2842 54.5134 57.2955 54.5406C57.3067 54.5678 57.3125 54.5969 57.3125 54.6263C57.3125 54.6558 57.3067 54.6849 57.2955 54.7121C57.2842 54.7392 57.2677 54.764 57.2469 54.7848C57.2261 54.8056 57.2014 54.8221 57.1743 54.8333C57.1471 54.8446 57.1179 54.8503 57.0885 54.8503Z" fill="#8B75BC"/>
<path d="M56.6172 53.9539H52.0892C52.0598 53.9539 52.0307 53.9481 52.0035 53.9368C51.9763 53.9256 51.9516 53.909 51.9308 53.8882C51.91 53.8674 51.8936 53.8428 51.8823 53.8156C51.871 53.7884 51.8652 53.7593 51.8652 53.7299C51.8652 53.7004 51.871 53.6713 51.8823 53.6441C51.8936 53.617 51.91 53.5923 51.9308 53.5715C51.9516 53.5507 51.9763 53.5342 52.0035 53.5229C52.0307 53.5117 52.0598 53.5059 52.0892 53.5059H56.6172C56.6466 53.5059 56.6758 53.5117 56.7029 53.5229C56.7301 53.5342 56.7548 53.5507 56.7756 53.5715C56.7964 53.5923 56.8129 53.617 56.8242 53.6441C56.8354 53.6713 56.8412 53.7004 56.8412 53.7299C56.8412 53.7593 56.8354 53.7884 56.8242 53.8156C56.8129 53.8428 56.7964 53.8674 56.7756 53.8882C56.7548 53.909 56.7301 53.9256 56.7029 53.9368C56.6758 53.9481 56.6466 53.9539 56.6172 53.9539Z" fill="#8B75BC"/>
<path d="M55.985 53.0583H52.722C52.6626 53.0583 52.6057 53.0347 52.5637 52.9927C52.5217 52.9507 52.498 52.8938 52.498 52.8344C52.498 52.7749 52.5217 52.718 52.5637 52.676C52.6057 52.634 52.6626 52.6104 52.722 52.6104H55.985C56.0445 52.6104 56.1014 52.634 56.1434 52.676C56.1854 52.718 56.209 52.7749 56.209 52.8344C56.209 52.8938 56.1854 52.9507 56.1434 52.9927C56.1014 53.0347 56.0445 53.0583 55.985 53.0583Z" fill="#8B75BC"/>
<path d="M55.232 52.1619H53.474C53.4146 52.1619 53.3576 52.1383 53.3156 52.0963C53.2736 52.0542 53.25 51.9973 53.25 51.9379C53.25 51.8785 53.2736 51.8215 53.3156 51.7795C53.3576 51.7375 53.4146 51.7139 53.474 51.7139H55.232C55.2914 51.7139 55.3484 51.7375 55.3904 51.7795C55.4324 51.8215 55.456 51.8785 55.456 51.9379C55.456 51.9973 55.4324 52.0542 55.3904 52.0963C55.3484 52.1383 55.2914 52.1619 55.232 52.1619Z" fill="#8B75BC"/>
<path d="M56.6172 55.7458H52.0892C52.0298 55.7458 51.9729 55.7223 51.9308 55.6803C51.8888 55.6383 51.8652 55.5813 51.8652 55.5219C51.8652 55.4624 51.8888 55.4055 51.9308 55.3635C51.9729 55.3215 52.0298 55.2979 52.0892 55.2979H56.6172C56.6766 55.2979 56.7336 55.3215 56.7756 55.3635C56.8176 55.4055 56.8412 55.4624 56.8412 55.5219C56.8412 55.5813 56.8176 55.6383 56.7756 55.6803C56.7336 55.7223 56.6766 55.7458 56.6172 55.7458Z" fill="#8B75BC"/>
<path d="M55.985 56.6472H52.722C52.6626 56.6472 52.6057 56.6236 52.5637 56.5816C52.5217 56.5396 52.498 56.4826 52.498 56.4232C52.498 56.3638 52.5217 56.3068 52.5637 56.2648C52.6057 56.2228 52.6626 56.1992 52.722 56.1992H55.985C56.0445 56.1992 56.1014 56.2228 56.1434 56.2648C56.1854 56.3068 56.209 56.3638 56.209 56.4232C56.209 56.4826 56.1854 56.5396 56.1434 56.5816C56.1014 56.6236 56.0445 56.6472 55.985 56.6472Z" fill="#8B75BC"/>
<path d="M55.232 57.5388H53.474C53.4146 57.5388 53.3576 57.5152 53.3156 57.4732C53.2736 57.4312 53.25 57.3742 53.25 57.3148C53.25 57.2554 53.2736 57.1984 53.3156 57.1564C53.3576 57.1144 53.4146 57.0908 53.474 57.0908H55.232C55.2614 57.0908 55.2905 57.0966 55.3177 57.1079C55.3449 57.1191 55.3696 57.1356 55.3904 57.1564C55.4112 57.1772 55.4277 57.2019 55.4389 57.2291C55.4502 57.2563 55.456 57.2854 55.456 57.3148C55.456 57.3442 55.4502 57.3734 55.4389 57.4005C55.4277 57.4277 55.4112 57.4524 55.3904 57.4732C55.3696 57.494 55.3449 57.5105 55.3177 57.5218C55.2905 57.533 55.2614 57.5388 55.232 57.5388Z" fill="#8B75BC"/>
<path d="M60.2629 42.7667C57.6577 41.1833 54.6676 40.3458 51.619 40.3457H50.5949C48.0774 40.3472 45.6612 41.3376 43.8668 43.1035C42.0725 44.8694 41.0437 47.2695 41.002 49.7867C41.0013 52.0474 41.8154 54.2325 43.295 55.9417H68.6109L67.641 52.4887C66.5013 48.4308 63.8645 44.9564 60.2629 42.7667Z" fill="#8B75BC"/>
<path d="M58.8013 46.2935C56.8935 45.1339 54.7038 44.5205 52.4713 44.5205H51.7223C49.8786 44.521 48.109 45.246 46.7949 46.5392C45.4808 47.8323 44.7274 49.5901 44.6973 51.4335C44.6966 53.0889 45.2927 54.689 46.3763 55.9405H64.9142L64.2043 53.4115C63.3695 50.4403 61.4386 47.8965 58.8013 46.2935Z" fill="#8B75BC"/>
<path d="M58.9168 54.5465H50.3948C50.3305 54.5465 50.2688 54.521 50.2234 54.4755C50.1779 54.43 50.1523 54.3684 50.1523 54.304C50.1523 54.2397 50.1779 54.178 50.2234 54.1326C50.2688 54.0871 50.3305 54.0615 50.3948 54.0615H58.9168C58.9812 54.0615 59.0428 54.0871 59.0883 54.1326C59.1338 54.178 59.1593 54.2397 59.1593 54.304C59.1593 54.3684 59.1338 54.43 59.0883 54.4755C59.0428 54.521 58.9812 54.5465 58.9168 54.5465Z" fill="#8B75BC"/>
<path d="M58.6532 53.5876H50.1312C50.0668 53.5876 50.0052 53.562 49.9597 53.5165C49.9142 53.471 49.8887 53.4094 49.8887 53.3451C49.8887 53.2807 49.9142 53.2191 49.9597 53.1736C50.0052 53.1281 50.0668 53.1025 50.1312 53.1025H58.6532C58.7175 53.1025 58.7792 53.1281 58.8246 53.1736C58.8701 53.2191 58.8957 53.2807 58.8957 53.3451C58.8957 53.4094 58.8701 53.471 58.8246 53.5165C58.7792 53.562 58.7175 53.5876 58.6532 53.5876Z" fill="#8B75BC"/>
<path d="M58.3914 52.6286H49.8694C49.8051 52.6286 49.7435 52.603 49.698 52.5575C49.6525 52.512 49.627 52.4504 49.627 52.386C49.627 52.3217 49.6525 52.2601 49.698 52.2146C49.7435 52.1691 49.8051 52.1436 49.8694 52.1436H58.3914C58.4558 52.1436 58.5174 52.1691 58.5629 52.2146C58.6084 52.2601 58.634 52.3217 58.634 52.386C58.634 52.4504 58.6084 52.512 58.5629 52.5575C58.5174 52.603 58.4558 52.6286 58.3914 52.6286Z" fill="#8B75BC"/>
<path d="M58.1297 51.6686H49.6078C49.5434 51.6686 49.4818 51.643 49.4363 51.5976C49.3908 51.5521 49.3652 51.4904 49.3652 51.4261C49.3652 51.3618 49.3908 51.3001 49.4363 51.2546C49.4818 51.2091 49.5434 51.1836 49.6078 51.1836H58.1297C58.194 51.1836 58.2557 51.2091 58.3012 51.2546C58.3467 51.3001 58.3723 51.3618 58.3723 51.4261C58.3723 51.4904 58.3467 51.5521 58.3012 51.5976C58.2557 51.643 58.194 51.6686 58.1297 51.6686Z" fill="#8B75BC"/>
<path d="M57.8661 50.7115H49.3441C49.2798 50.7115 49.2181 50.686 49.1726 50.6405C49.1271 50.5951 49.1016 50.5334 49.1016 50.4691C49.1016 50.4047 49.1271 50.3431 49.1726 50.2976C49.2181 50.2521 49.2798 50.2266 49.3441 50.2266H57.8661C57.9304 50.2266 57.9921 50.2521 58.0375 50.2976C58.083 50.3431 58.1086 50.4047 58.1086 50.4691C58.1086 50.5334 58.083 50.5951 58.0375 50.6405C57.9921 50.686 57.9304 50.7115 57.8661 50.7115Z" fill="#8B75BC"/>
<path d="M34.4336 37.9355H57.2076C56.7036 38.4394 56.0202 38.7225 55.3076 38.7226H36.5416C35.7671 38.7225 35.0186 38.4431 34.4336 37.9355Z" fill="#8B75BC"/>
<path d="M20.7733 29.2113H13.9883V24.8633H15.4613C16.7256 24.8633 17.9746 25.1405 19.1203 25.6753L20.2103 26.1843C20.5496 26.3427 20.8226 26.6151 20.9817 26.954C21.1409 27.293 21.1761 27.677 21.0813 28.0393L20.7733 29.2113Z" fill="#8B75BC"/>
<path d="M13.9884 24.8633H13.2754V29.2113H13.9884V24.8633Z" fill="#8B75BC"/>
<path d="M13.2761 24.8633H12.9121V29.2113H13.2761V24.8633Z" fill="#8B75BC"/>
<path d="M67.9325 37.3125C67.955 37.2899 67.9729 37.2632 67.9851 37.2338C67.9973 37.2044 68.0036 37.1728 68.0036 37.141C68.0036 37.1091 67.9973 37.0776 67.9851 37.0482C67.9729 37.0187 67.955 36.992 67.9325 36.9695C67.91 36.947 67.8833 36.9291 67.8539 36.9169C67.8244 36.9047 67.7929 36.8984 67.761 36.8984C67.7292 36.8984 67.6976 36.9047 67.6682 36.9169C67.6388 36.9291 67.6121 36.947 67.5895 36.9695L65.5605 38.9985H66.2455L67.9325 37.3125Z" fill="#8B75BC"/>
<path d="M65.5573 38.998L62.2702 42.2851C62.2477 42.3076 62.2299 42.3343 62.2177 42.3637C62.2055 42.3932 62.1992 42.4247 62.1992 42.4565C62.1992 42.4884 62.2055 42.52 62.2177 42.5494C62.2299 42.5788 62.2477 42.6055 62.2702 42.6281C62.2928 42.6506 62.3195 42.6684 62.3489 42.6806C62.3784 42.6928 62.4099 42.6991 62.4417 42.6991C62.4736 42.6991 62.5051 42.6928 62.5345 42.6806C62.564 42.6684 62.5907 42.6506 62.6133 42.6281L66.2433 38.998H65.5583H65.5573Z" fill="#8B75BC"/>
<path d="M55.6313 39.9213H41.9743C41.8672 39.9213 41.7644 39.8787 41.6887 39.803C41.6129 39.7272 41.5703 39.6245 41.5703 39.5173C41.5703 39.4102 41.6129 39.3074 41.6887 39.2316C41.7644 39.1559 41.8672 39.1133 41.9743 39.1133H55.6313C56.1111 39.1145 56.5863 39.0206 57.0295 38.8369C57.4727 38.6533 57.8751 38.3835 58.2133 38.0433C58.6266 37.6279 59.1181 37.2986 59.6595 37.0744C60.2009 36.8502 60.7813 36.7357 61.3673 36.7373H74.6503C74.7575 36.7373 74.8602 36.7799 74.936 36.8556C75.0117 36.9314 75.0543 37.0342 75.0543 37.1413C75.0543 37.2485 75.0117 37.3512 74.936 37.427C74.8602 37.5028 74.7575 37.5453 74.6503 37.5453H61.3673C60.8876 37.5441 60.4123 37.638 59.9691 37.8217C59.5259 38.0054 59.1236 38.2751 58.7853 38.6153C58.3721 39.0307 57.8805 39.3601 57.3391 39.5842C56.7978 39.8084 56.2173 39.923 55.6313 39.9213Z" fill="#8B75BC"/>
<path d="M17.3803 29.2119H20.7733L20.6953 29.5779H17.2773L17.3803 29.2119Z" fill="#300787"/>
<path d="M80.4132 19.0752H56.5332V36.7372H80.4132V19.0752Z" fill="#59399F"/>
<path d="M81.0966 16.1934H55.8496V19.0754H81.0966V16.1934Z" fill="#59399F"/>
<path d="M80.4132 19.0752H56.5332V20.4752H80.4132V19.0752Z" fill="#59399F"/>
<path d="M59.0759 24.1777L59.2159 23.4777H59.5089C59.5809 23.4777 59.6425 23.4897 59.6939 23.5137C59.7459 23.5371 59.7855 23.5707 59.8129 23.6147C59.8402 23.6581 59.8539 23.7097 59.8539 23.7697C59.8539 23.8317 59.8432 23.8877 59.8219 23.9377C59.8012 23.9877 59.7715 24.0307 59.7329 24.0667C59.6942 24.1021 59.6482 24.1294 59.5949 24.1487C59.5415 24.1681 59.4825 24.1777 59.4179 24.1777H59.0759ZM59.2649 24.0447H59.4229C59.4795 24.0447 59.5275 24.0331 59.5669 24.0097C59.6069 23.9864 59.6372 23.9547 59.6579 23.9147C59.6792 23.8747 59.6899 23.8294 59.6899 23.7787C59.6899 23.7441 59.6825 23.7144 59.6679 23.6897C59.6532 23.6644 59.6309 23.6451 59.6009 23.6317C59.5715 23.6177 59.5349 23.6107 59.4909 23.6107H59.3519L59.2649 24.0447ZM60.135 23.7597H60.472L60.447 23.8857H60.11L60.135 23.7597ZM60.089 24.0477H60.471L60.444 24.1777H59.902L60.042 23.4777H60.571L60.544 23.6077H60.177L60.089 24.0477ZM60.5729 24.1777L60.7129 23.4777H60.8759L60.7619 24.0457H61.1129L61.0859 24.1777H60.5729ZM61.1765 24.1777L61.3165 23.4777H61.4795L61.3395 24.1777H61.1765ZM61.7117 24.1777L61.5497 23.4777H61.7167L61.8577 24.0987H61.7527L62.1467 23.4777H62.3147L61.8717 24.1777H61.7117ZM62.4661 23.7597H62.8031L62.7781 23.8857H62.4411L62.4661 23.7597ZM62.4201 24.0477H62.8021L62.7751 24.1777H62.2331L62.3731 23.4777H62.9021L62.8751 23.6077H62.5081L62.4201 24.0477ZM62.904 24.1777L63.044 23.4777H63.329C63.4163 23.4777 63.4837 23.4967 63.531 23.5347C63.579 23.5727 63.603 23.6261 63.603 23.6947C63.603 23.7534 63.589 23.8044 63.561 23.8477C63.5337 23.8904 63.4943 23.9234 63.443 23.9467C63.3923 23.9701 63.3323 23.9817 63.263 23.9817H63.035L63.12 23.9107L63.067 24.1777H62.904ZM63.354 24.1777L63.211 23.9237H63.381L63.525 24.1777H63.354ZM63.116 23.9297L63.06 23.8527H63.269C63.323 23.8527 63.3647 23.8407 63.394 23.8167C63.424 23.7921 63.439 23.7564 63.439 23.7097C63.439 23.6757 63.4273 23.6507 63.404 23.6347C63.3813 23.6181 63.3493 23.6097 63.308 23.6097H63.111L63.196 23.5307L63.116 23.9297ZM63.8036 24.1777L63.8606 23.8897L63.8786 23.9917L63.6726 23.4777H63.8346L63.9916 23.8707L63.8936 23.8717L64.2106 23.4777H64.3776L63.9676 23.9927L64.0226 23.8897L63.9656 24.1777H63.8036Z" fill="#59399F"/>
<path d="M59.3199 28.2425C59.2819 28.2425 59.2449 28.2388 59.2089 28.2315C59.1735 28.2248 59.1412 28.2155 59.1119 28.2035C59.0832 28.1915 59.0589 28.1785 59.0389 28.1645L59.1049 28.0395C59.1269 28.0548 59.1502 28.0681 59.1749 28.0795C59.2002 28.0901 59.2265 28.0985 59.2539 28.1045C59.2812 28.1098 59.3085 28.1125 59.3359 28.1125C59.3659 28.1125 59.3915 28.1091 59.4129 28.1025C59.4349 28.0958 59.4515 28.0865 59.4629 28.0745C59.4749 28.0625 59.4809 28.0478 59.4809 28.0305C59.4809 28.0145 59.4745 28.0015 59.4619 27.9915C59.4492 27.9815 59.4325 27.9731 59.4119 27.9665C59.3919 27.9591 59.3695 27.9521 59.3449 27.9455C59.3202 27.9388 59.2952 27.9311 59.2699 27.9225C59.2452 27.9131 59.2225 27.9018 59.2019 27.8885C59.1819 27.8745 59.1655 27.8568 59.1529 27.8355C59.1402 27.8141 59.1339 27.7875 59.1339 27.7555C59.1339 27.7075 59.1469 27.6658 59.1729 27.6305C59.1995 27.5951 59.2369 27.5678 59.2849 27.5485C59.3329 27.5285 59.3892 27.5185 59.4539 27.5185C59.5012 27.5185 59.5459 27.5238 59.5879 27.5345C59.6299 27.5445 59.6659 27.5591 59.6959 27.5785L59.6349 27.7025C59.6082 27.6845 59.5785 27.6711 59.5459 27.6625C59.5132 27.6531 59.4795 27.6485 59.4449 27.6485C59.4135 27.6485 59.3865 27.6521 59.3639 27.6595C59.3419 27.6668 59.3249 27.6771 59.3129 27.6905C59.3015 27.7031 59.2959 27.7178 59.2959 27.7345C59.2959 27.7511 59.3019 27.7648 59.3139 27.7755C59.3265 27.7855 59.3432 27.7941 59.3639 27.8015C59.3845 27.8081 59.4072 27.8148 59.4319 27.8215C59.4565 27.8281 59.4812 27.8358 59.5059 27.8445C59.5305 27.8531 59.5532 27.8641 59.5739 27.8775C59.5945 27.8908 59.6112 27.9078 59.6239 27.9285C59.6365 27.9485 59.6429 27.9738 59.6429 28.0045C59.6429 28.0525 59.6295 28.0945 59.6029 28.1305C59.5762 28.1658 59.5385 28.1935 59.4899 28.2135C59.4419 28.2328 59.3852 28.2425 59.3199 28.2425ZM59.9466 27.8125H60.2836L60.2586 27.9385H59.9216L59.9466 27.8125ZM59.9006 28.1005H60.2826L60.2556 28.2305H59.7136L59.8536 27.5305H60.3826L60.3556 27.6605H59.9886L59.9006 28.1005ZM60.3845 28.2305L60.5245 27.5305H60.8095C60.8968 27.5305 60.9641 27.5495 61.0115 27.5875C61.0595 27.6255 61.0835 27.6788 61.0835 27.7475C61.0835 27.8061 61.0695 27.8571 61.0415 27.9005C61.0141 27.9431 60.9748 27.9761 60.9235 27.9995C60.8728 28.0228 60.8128 28.0345 60.7435 28.0345H60.5155L60.6005 27.9635L60.5475 28.2305H60.3845ZM60.8345 28.2305L60.6915 27.9765H60.8615L61.0055 28.2305H60.8345ZM60.5965 27.9825L60.5405 27.9055H60.7495C60.8035 27.9055 60.8451 27.8935 60.8745 27.8695C60.9045 27.8448 60.9195 27.8091 60.9195 27.7625C60.9195 27.7285 60.9078 27.7035 60.8845 27.6875C60.8618 27.6708 60.8298 27.6625 60.7885 27.6625H60.5915L60.6765 27.5835L60.5965 27.9825ZM61.3298 28.2305L61.1678 27.5305H61.3348L61.4758 28.1515H61.3708L61.7648 27.5305H61.9328L61.4898 28.2305H61.3298ZM61.8513 28.2305L61.9913 27.5305H62.1543L62.0143 28.2305H61.8513ZM62.5474 28.2425C62.4761 28.2425 62.4144 28.2298 62.3624 28.2045C62.3111 28.1785 62.2714 28.1428 62.2434 28.0975C62.2154 28.0515 62.2014 27.9985 62.2014 27.9385C62.2014 27.8791 62.2117 27.8238 62.2324 27.7725C62.2537 27.7211 62.2834 27.6768 62.3214 27.6395C62.3601 27.6015 62.4057 27.5718 62.4584 27.5505C62.5117 27.5291 62.5711 27.5185 62.6364 27.5185C62.6991 27.5185 62.7544 27.5291 62.8024 27.5505C62.8504 27.5718 62.8867 27.6025 62.9114 27.6425L62.7944 27.7385C62.7764 27.7118 62.7534 27.6915 62.7254 27.6775C62.6974 27.6635 62.6641 27.6565 62.6254 27.6565C62.5861 27.6565 62.5504 27.6635 62.5184 27.6775C62.4864 27.6908 62.4587 27.7101 62.4354 27.7355C62.4127 27.7601 62.3954 27.7891 62.3834 27.8225C62.3714 27.8558 62.3654 27.8911 62.3654 27.9285C62.3654 27.9638 62.3731 27.9948 62.3884 28.0215C62.4037 28.0475 62.4261 28.0678 62.4554 28.0825C62.4847 28.0971 62.5201 28.1045 62.5614 28.1045C62.5974 28.1045 62.6311 28.0981 62.6624 28.0855C62.6937 28.0721 62.7221 28.0515 62.7474 28.0235L62.8434 28.1215C62.8067 28.1641 62.7631 28.1951 62.7124 28.2145C62.6624 28.2331 62.6074 28.2425 62.5474 28.2425ZM63.1458 27.8125H63.4828L63.4578 27.9385H63.1208L63.1458 27.8125ZM63.0998 28.1005H63.4818L63.4548 28.2305H62.9128L63.0528 27.5305H63.5818L63.5548 27.6605H63.1878L63.0998 28.1005Z" fill="#59399F"/>
<path d="M59.5143 22.5928L59.4062 23.0488H68.4743L71.7223 22.5928H59.5143Z" fill="#59399F"/>
<path d="M59.6764 21.874L59.5684 22.33H75.4684L78.7164 21.874H59.6764Z" fill="#59399F"/>
<path d="M59.5143 32.3633L59.4062 32.8193H68.4743L71.7223 32.3633H59.5143Z" fill="#59399F"/>
<path d="M59.6764 31.6484L59.5684 32.1044H75.4684L78.7164 31.6484H59.6764Z" fill="#59399F"/>
<path d="M38.5002 30.4365L27.0852 33.8485C26.4956 34.0248 25.9541 34.3335 25.502 34.751C25.0499 35.1685 24.6991 35.6838 24.4765 36.2575C24.254 36.8313 24.1654 37.4483 24.2177 38.0614C24.27 38.6746 24.4617 39.2677 24.7782 39.7955L32.5982 52.8335L37.0412 50.8625L30.6572 38.7225L43.6572 36.0055C44.2499 35.8817 44.8095 35.6329 45.2985 35.2759C45.7875 34.9188 46.1948 34.4616 46.4933 33.9347C46.7917 33.4078 46.9744 32.8234 47.0293 32.2204C47.0841 31.6174 47.0098 31.0096 46.8112 30.4375H38.5002V30.4365Z" fill="#1FE29E"/>
<path d="M36.4644 51.7705L36.1314 51.2705L33.6074 52.3905L34.2014 53.4725L37.0154 52.6825C36.8414 52.3695 36.6594 52.0655 36.4644 51.7705Z" fill="#1FE29E"/>
<path d="M35.7741 53.9487L35.5391 54.5487L35.8531 54.3277C35.9775 54.2402 36.126 54.1934 36.2781 54.1937H37.7521C37.5375 53.6748 37.2927 53.169 37.0191 52.6787L34.2051 53.4687L34.3751 53.7777H35.6571C35.6774 53.7778 35.6975 53.7829 35.7155 53.7924C35.7335 53.802 35.7489 53.8157 35.7604 53.8326C35.7719 53.8494 35.7791 53.8687 35.7815 53.8889C35.7839 53.9092 35.7814 53.9297 35.7741 53.9487Z" fill="#1FE29E"/>
<path d="M32.5366 56.5283H38.5006L38.3916 56.1073C38.2228 55.4554 38.0082 54.8161 37.7496 54.1943H36.2756C36.1234 54.1943 35.9749 54.2415 35.8506 54.3293L35.5366 54.5503L35.7716 53.9503C35.7791 53.9312 35.7818 53.9105 35.7795 53.89C35.7771 53.8696 35.7699 53.85 35.7582 53.833C35.7466 53.8161 35.7309 53.8022 35.7127 53.7927C35.6945 53.7831 35.6742 53.7782 35.6536 53.7783H34.3716L33.4246 54.6683C32.9954 55.0716 32.4286 55.2962 31.8396 55.2963H31.1926C30.892 55.2964 30.597 55.3775 30.3387 55.5311C30.0803 55.6847 29.8682 55.9052 29.7246 56.1693L30.9546 56.3883C31.4768 56.4814 32.0062 56.5283 32.5366 56.5283Z" fill="#1FE29E"/>
<path d="M32.5364 56.527C32.0063 56.5268 31.4773 56.4799 30.9554 56.387L29.7254 56.168C29.602 56.3957 29.5335 56.6491 29.5254 56.908L31.4044 57.078C31.7017 57.1046 31.9997 57.118 32.2984 57.118H38.6564L38.5034 56.526L32.5364 56.527Z" fill="#1FE29E"/>
<path d="M36.1314 51.2656L33.6074 52.3857L33.8804 52.8857L36.6294 52.0276L36.1314 51.2656Z" fill="#1FE29E"/>
<path d="M35.9677 10.2415L35.6217 8.28149C35.5658 7.96354 35.3996 7.67548 35.1523 7.46791C34.9051 7.26034 34.5926 7.14653 34.2697 7.14648H32.3027L32.4787 8.07748C32.6062 8.75146 32.5939 9.44443 32.4427 10.1135L32.3568 10.4935C32.3484 10.5311 32.3485 10.5702 32.3572 10.6077C32.3659 10.6453 32.383 10.6805 32.407 10.7106C32.4311 10.7407 32.4617 10.765 32.4964 10.7818C32.5311 10.7986 32.5692 10.8074 32.6077 10.8075H33.0077C33.1282 11.2375 33.3523 11.6313 33.6604 11.9546C33.9685 12.2779 34.3512 12.5206 34.7749 12.6617C35.1986 12.8027 35.6504 12.8377 36.0907 12.7636C36.5311 12.6894 36.9465 12.5085 37.3007 12.2365L39.7397 10.3625L38.4397 11.2625C38.2212 11.4147 37.968 11.5096 37.7033 11.5384C37.4386 11.5672 37.1709 11.529 36.9248 11.4274C36.6787 11.3257 36.4621 11.1639 36.2948 10.9566C36.1276 10.7494 36.0151 10.5035 35.9677 10.2415Z" fill="#1FE29E"/>
<path d="M32.1758 6.47461L32.3028 7.14661H34.2698C34.5926 7.14666 34.9051 7.26046 35.1524 7.46803C35.3996 7.6756 35.5658 7.96366 35.6218 8.28161L35.9678 10.2416C36.0144 10.5045 36.1264 10.7513 36.2936 10.9595C36.4608 11.1676 36.6778 11.3302 36.9244 11.4323C37.171 11.5345 37.4394 11.5728 37.7048 11.5439C37.9702 11.5149 38.224 11.4196 38.4428 11.2666L39.7428 10.3666V6.47761L32.1758 6.47461Z" fill="#300787"/>
<path d="M39.7388 10.3643L37.2988 12.2383L37.6238 13.1703L39.7388 10.3643Z" fill="#1FE29E"/>
<path d="M41.4451 12.9523L39.7381 10.3643L37.623 13.1703L38.1761 14.7583L41.4451 12.9523Z" fill="#1FE29E"/>
<path d="M33.6146 9.13638C33.7356 9.11647 33.8037 8.91832 33.7667 8.6938C33.7298 8.46928 33.6018 8.30341 33.4808 8.32332C33.3598 8.34323 33.2917 8.54139 33.3286 8.76591C33.3656 8.99043 33.4936 9.1563 33.6146 9.13638Z" fill="#1FE29E"/>
<path d="M33.192 7.90435C33.2876 7.84929 33.3969 7.82267 33.5071 7.82763C33.6173 7.83259 33.7238 7.86892 33.814 7.93235C34.003 8.05835 34.18 7.75335 33.992 7.63235C33.8476 7.5376 33.6796 7.48482 33.507 7.47987C33.3343 7.47493 33.1636 7.51802 33.014 7.60435C32.9806 7.63079 32.9579 7.66846 32.9502 7.71034C32.9425 7.75223 32.9502 7.7955 32.9719 7.83214C32.9936 7.86877 33.0279 7.89628 33.0684 7.90956C33.1089 7.92284 33.1528 7.92099 33.192 7.90435Z" fill="#1FE29E"/>
<path d="M33.6701 10.0644L34.0641 10.2004C34.6415 10.3993 35.2657 10.4182 35.8541 10.2544L36.8371 9.97739L36.6061 9.5164L35.8531 9.7254C35.2647 9.88916 34.6405 9.87033 34.0631 9.67139L33.6691 9.5354C33.3206 9.41517 32.9631 9.32255 32.6001 9.2584L32.4591 9.2334L32.3301 9.7454L32.6001 9.78739C32.9635 9.85134 33.3213 9.94397 33.6701 10.0644Z" fill="#1FE29E"/>
<path d="M36.8368 9.97614L35.8538 10.2531C35.2654 10.4168 34.6412 10.398 34.0638 10.1991L33.6698 10.0631C33.3213 9.9429 32.9638 9.85027 32.6008 9.78613L32.3308 9.74414L32.2878 9.91313C32.2143 10.206 32.2299 10.5142 32.3328 10.7981L32.5538 11.4071C32.7426 11.9306 33.0812 12.387 33.5275 12.7193C33.9739 13.0517 34.5082 13.2453 35.0638 13.2761C35.7701 13.3147 36.4652 13.0878 37.0128 12.6401L37.8328 11.9701L36.8368 9.97614Z" fill="#1FE29E"/>
<path opacity="0.3" d="M35.875 9.7196L35.967 10.2426C36.0346 10.6265 36.2409 10.9722 36.5468 11.2137C36.8528 11.4553 37.2369 11.5759 37.626 11.5526L36.606 9.5166L35.875 9.7196Z" fill="#1FE29E"/>
<path d="M37.2978 10.7952L36.5528 12.9182C36.547 12.9343 36.5454 12.9516 36.5482 12.9685C36.5511 12.9854 36.5582 13.0013 36.569 13.0147C36.5797 13.028 36.5937 13.0384 36.6096 13.0448C36.6255 13.0512 36.6428 13.0534 36.6598 13.0512C36.9344 13.0185 37.1976 12.9222 37.4285 12.77C37.6594 12.6177 37.8516 12.4137 37.9898 12.1742L38.9348 10.5352L37.2978 10.7952Z" fill="#300787"/>
<path d="M36.5701 7.54996L36.9811 9.87696C36.9975 9.97025 37.0342 10.0588 37.0886 10.1363C37.143 10.2139 37.2138 10.2785 37.2959 10.3256C37.3781 10.3728 37.4696 10.4013 37.564 10.4091C37.6584 10.4169 37.7533 10.4039 37.8421 10.371L41.8871 8.87096V5.97095C41.8871 4.5425 41.3197 3.17255 40.3096 2.16248C39.2995 1.15241 37.9296 0.584961 36.5011 0.584961C35.1009 0.585115 33.7558 1.13065 32.7511 2.10589C31.7464 3.08113 31.161 4.40938 31.1191 5.80896H34.5031C34.9975 5.80945 35.4758 5.98432 35.8539 6.30279C36.232 6.62125 36.4856 7.06289 36.5701 7.54996Z" fill="#300787"/>
<path d="M39.8454 4.96352C39.7124 4.96357 39.582 4.92715 39.4683 4.85821C39.3545 4.78927 39.2619 4.69045 39.2004 4.57252C38.9439 4.078 38.5564 3.66349 38.0802 3.37427C37.604 3.08505 37.0575 2.93224 36.5004 2.93252C36.3076 2.93252 36.1227 2.85592 35.9864 2.71958C35.85 2.58325 35.7734 2.39834 35.7734 2.20552C35.7734 2.01271 35.85 1.82779 35.9864 1.69145C36.1227 1.55512 36.3076 1.47852 36.5004 1.47852C37.3234 1.47765 38.1307 1.70302 38.8342 2.12999C39.5377 2.55696 40.1103 3.1691 40.4894 3.89952C40.5474 4.01031 40.5758 4.13418 40.5719 4.25916C40.568 4.38413 40.5319 4.50599 40.4672 4.61296C40.4024 4.71993 40.3112 4.80839 40.2023 4.8698C40.0934 4.93121 39.9705 4.96349 39.8454 4.96352Z" fill="#300787"/>
<path d="M34.275 3.65181C34.1215 3.65204 33.9719 3.60371 33.8476 3.51373C33.7233 3.42376 33.6307 3.29676 33.5829 3.15092C33.5352 3.00508 33.5349 2.84787 33.5819 2.70181C33.629 2.55576 33.7211 2.42834 33.845 2.33781L33.879 2.31381C34.0357 2.2015 34.2307 2.15604 34.4209 2.18745C34.6112 2.21886 34.7812 2.32457 34.8935 2.48131C35.0058 2.63805 35.0512 2.83299 35.0198 3.02325C34.9884 3.2135 34.8827 3.38349 34.726 3.49581L34.703 3.51181C34.5788 3.60279 34.4289 3.65183 34.275 3.65181Z" fill="#300787"/>
<path d="M37.8412 10.3695C37.7524 10.4024 37.6574 10.4154 37.563 10.4076C37.4686 10.3998 37.3771 10.3713 37.295 10.3242C37.2128 10.277 37.142 10.2124 37.0876 10.1349C37.0332 10.0573 36.9965 9.96877 36.9802 9.87548L36.5692 7.54848C36.4834 7.06234 36.229 6.62197 35.8509 6.30469C35.4727 5.9874 34.9948 5.81349 34.5012 5.81348H31.1172C31.1172 5.86748 31.1172 5.92148 31.1172 5.97548V6.47548H34.3252C34.705 6.47537 35.0728 6.60916 35.3637 6.85332C35.6547 7.09748 35.8503 7.43638 35.9162 7.81048L36.3232 10.1185C36.3571 10.3113 36.4344 10.4938 36.5492 10.6524C36.6641 10.8109 36.8134 10.9413 36.986 11.0337C37.1586 11.1261 37.3499 11.178 37.5456 11.1856C37.7412 11.1932 37.9359 11.1562 38.1152 11.0775L41.5022 9.59248C41.6172 9.54211 41.7151 9.45929 41.7839 9.35415C41.8526 9.249 41.8892 9.1261 41.8892 9.00048V8.87248L37.8412 10.3695Z" fill="#300787"/>
<path d="M37.51 29.1956L38.5 24.8646L37.078 17.0746C36.9963 16.622 37.0584 16.1552 37.2557 15.7398C37.4531 15.3244 37.7756 14.9812 38.178 14.7586L41.447 12.9536C41.656 12.8382 41.8953 12.7894 42.1328 12.8137C42.3703 12.838 42.5947 12.9343 42.776 13.0896C45.4707 15.3968 47.1573 18.6655 47.476 22.1986L48.091 29.0436C48.1068 29.2206 48.0856 29.399 48.0287 29.5673C47.9718 29.7357 47.8805 29.8904 47.7606 30.0215C47.6407 30.1526 47.4947 30.2573 47.3321 30.329C47.1695 30.4006 46.9937 30.4376 46.816 30.4376H38.501C38.3483 30.4377 38.1976 30.4033 38.06 30.3371C37.9225 30.271 37.8016 30.1746 37.7064 30.0553C37.6112 29.9359 37.544 29.7967 37.51 29.6479C37.4761 29.499 37.476 29.3444 37.51 29.1956Z" fill="#59399F"/>
<path d="M42.439 16.1904L42.467 16.2964C42.6368 16.9505 42.6631 17.6336 42.5442 18.2988C42.4252 18.964 42.1639 19.5957 41.778 20.1504L38.5 24.8634L37.834 21.2134L42.439 16.1904Z" fill="#59399F"/>
<path d="M37.8746 13.8789L36.9746 14.3439L37.8746 15.3129L38.1816 14.7589L37.8746 13.8789Z" fill="#59399F"/>
<path d="M36.9715 14.3438L36.7715 15.9997L37.6965 15.1227L36.9715 14.3438Z" fill="#59399F"/>
<path d="M41.9741 12.8068L41.0211 11.9668L37.6211 13.8248L38.0851 15.7908L41.9741 12.8068Z" fill="#59399F"/>
<path d="M22.7826 26.5967H20.2476C20.0208 26.5967 19.8033 26.6868 19.643 26.8471C19.4827 27.0075 19.3926 27.2249 19.3926 27.4517V29.0357C19.3926 29.2624 19.4827 29.4799 19.643 29.6403C19.8033 29.8006 20.0208 29.8907 20.2476 29.8907H22.2996V29.2607C22.9181 29.2606 23.5112 29.0149 23.9486 28.5777L24.2566 28.2697L22.7826 26.5967Z" fill="#1FE29E"/>
<path d="M22.7832 26.5971L24.2572 28.2691L30.5882 26.7971L29.7122 24.4551L22.7832 26.5971Z" fill="#1FE29E"/>
<path d="M29.7117 24.4551L29.4027 24.5551L29.3027 27.1001L30.5877 26.8001L29.7117 24.4551Z" fill="#1FE29E"/>
<path d="M41.8317 15.397C41.4297 15.0817 40.9218 14.9335 40.4134 14.983C39.9049 15.0325 39.4352 15.2761 39.1017 15.663L32.5347 23.28L31.3477 23.68L32.4477 26.629L33.0706 26.494C34.0561 26.2804 34.9547 25.7756 35.6497 25.045L42.0417 18.328C42.2325 18.1277 42.3794 17.8898 42.4729 17.6294C42.5665 17.369 42.6045 17.092 42.5848 16.8161C42.565 16.5401 42.4878 16.2713 42.3581 16.027C42.2284 15.7826 42.0491 15.568 41.8317 15.397Z" fill="#1FE29E"/>
<path d="M32.4867 26.7233L32.4517 26.6293L31.3517 23.6803L31.2428 23.3883C31.2279 23.3486 31.2053 23.3122 31.1763 23.2812C31.1473 23.2502 31.1125 23.2252 31.0739 23.2076C31.0353 23.1901 30.9936 23.1803 30.9512 23.1789C30.9087 23.1775 30.8665 23.1844 30.8267 23.1993L29.7417 23.6053C29.7019 23.6201 29.6654 23.6426 29.6343 23.6716C29.6032 23.7005 29.5781 23.7353 29.5604 23.7739C29.5428 23.8126 29.5329 23.8543 29.5314 23.8968C29.53 23.9392 29.5369 23.9815 29.5517 24.0213L29.6407 24.2573L30.6717 27.0163L30.7988 27.3563C30.8136 27.3961 30.8362 27.4325 30.8652 27.4635C30.8942 27.4945 30.9289 27.5195 30.9676 27.537C31.0062 27.5546 31.0479 27.5643 31.0903 27.5658C31.1328 27.5672 31.175 27.5603 31.2147 27.5453L32.2997 27.1393C32.3796 27.1089 32.4442 27.048 32.4792 26.97C32.5143 26.892 32.517 26.8033 32.4867 26.7233Z" fill="#1FE29E"/>
<path d="M39.5167 15.98C39.813 15.6359 40.2176 15.4029 40.664 15.3193C41.1103 15.2357 41.5719 15.3065 41.9727 15.52C41.9277 15.478 41.8817 15.436 41.8317 15.397C41.4297 15.0817 40.9218 14.9335 40.4134 14.983C39.9049 15.0325 39.4352 15.2761 39.1017 15.663L32.5347 23.28L31.3477 23.68L31.5247 24.153L32.8577 23.704L39.5167 15.98Z" fill="#1FE29E"/>
<path d="M23.1323 29.2558C23.1782 29.1721 23.2401 29.0982 23.3146 29.0384C23.389 28.9786 23.4745 28.9341 23.5662 28.9074C23.6578 28.8806 23.7538 28.8722 23.8487 28.8826C23.9436 28.8929 24.0356 28.9219 24.1193 28.9678C24.1043 28.9578 24.0923 28.9468 24.0763 28.9378L22.4503 28.0468C22.2812 27.954 22.0822 27.9321 21.897 27.986C21.7118 28.0399 21.5556 28.1652 21.4628 28.3343C21.37 28.5034 21.3481 28.7024 21.402 28.8876C21.456 29.0728 21.5812 29.229 21.7503 29.3218L23.3733 30.2108C23.2202 30.1112 23.1104 29.9575 23.0657 29.7805C23.0211 29.6034 23.0448 29.4161 23.1323 29.2558Z" fill="#300787"/>
<path d="M23.7253 30.3062C23.882 30.3065 24.0346 30.2559 24.1602 30.1621C24.2858 30.0683 24.3776 29.9363 24.4219 29.7859C24.4662 29.6356 24.4605 29.4749 24.4058 29.328C24.351 29.1811 24.2501 29.0559 24.1182 28.9712C23.9535 28.8796 23.7595 28.8558 23.5775 28.9048C23.3955 28.9538 23.2397 29.0718 23.1432 29.2337C23.0467 29.3956 23.0171 29.5888 23.0606 29.7722C23.1041 29.9556 23.2173 30.1148 23.3763 30.2162C23.4832 30.275 23.6032 30.3059 23.7253 30.3062Z" fill="#300787"/>
<path d="M85.7579 60.6084H71.8789V61.1304H85.7579V60.6084Z" fill="#0AF5B2"/>
<path d="M87.6593 59.5752H68.6133V60.0972H87.6593V59.5752Z" fill="#0AF5B2"/>
<path d="M85.5343 58.4355H66.4883V58.9575H85.5343V58.4355Z" fill="#0AF5B2"/>
</svg>
