<svg width="18" height="18" viewBox="0 0 18 18" fill="none" xmlns="http://www.w3.org/2000/svg">
<path d="M6 15.75H3C2.80109 15.75 2.61032 15.671 2.46967 15.5303C2.32902 15.3897 2.25 15.1989 2.25 15V12C2.25 11.8011 2.17098 11.6103 2.03033 11.4697C1.88968 11.329 1.69891 11.25 1.5 11.25C1.30109 11.25 1.11032 11.329 0.96967 11.4697C0.829018 11.6103 0.75 11.8011 0.75 12V15C0.75 15.5967 0.987053 16.169 1.40901 16.591C1.83097 17.0129 2.40326 17.25 3 17.25H6C6.19891 17.25 6.38968 17.171 6.53033 17.0303C6.67098 16.8897 6.75 16.6989 6.75 16.5C6.75 16.3011 6.67098 16.1103 6.53033 15.9697C6.38968 15.829 6.19891 15.75 6 15.75V15.75ZM16.5 11.25C16.3011 11.25 16.1103 11.329 15.9697 11.4697C15.829 11.6103 15.75 11.8011 15.75 12V15C15.75 15.1989 15.671 15.3897 15.5303 15.5303C15.3897 15.671 15.1989 15.75 15 15.75H12C11.8011 15.75 11.6103 15.829 11.4697 15.9697C11.329 16.1103 11.25 16.3011 11.25 16.5C11.25 16.6989 11.329 16.8897 11.4697 17.0303C11.6103 17.171 11.8011 17.25 12 17.25H15C15.5967 17.25 16.169 17.0129 16.591 16.591C17.0129 16.169 17.25 15.5967 17.25 15V12C17.25 11.8011 17.171 11.6103 17.0303 11.4697C16.8897 11.329 16.6989 11.25 16.5 11.25ZM15 0.75H12C11.8011 0.75 11.6103 0.829018 11.4697 0.96967C11.329 1.11032 11.25 1.30109 11.25 1.5C11.25 1.69891 11.329 1.88968 11.4697 2.03033C11.6103 2.17098 11.8011 2.25 12 2.25H15C15.1989 2.25 15.3897 2.32902 15.5303 2.46967C15.671 2.61032 15.75 2.80109 15.75 3V6C15.75 6.19891 15.829 6.38968 15.9697 6.53033C16.1103 6.67098 16.3011 6.75 16.5 6.75C16.6989 6.75 16.8897 6.67098 17.0303 6.53033C17.171 6.38968 17.25 6.19891 17.25 6V3C17.25 2.40326 17.0129 1.83097 16.591 1.40901C16.169 0.987053 15.5967 0.75 15 0.75V0.75ZM1.5 6.75C1.69891 6.75 1.88968 6.67098 2.03033 6.53033C2.17098 6.38968 2.25 6.19891 2.25 6V3C2.25 2.80109 2.32902 2.61032 2.46967 2.46967C2.61032 2.32902 2.80109 2.25 3 2.25H6C6.19891 2.25 6.38968 2.17098 6.53033 2.03033C6.67098 1.88968 6.75 1.69891 6.75 1.5C6.75 1.30109 6.67098 1.11032 6.53033 0.96967C6.38968 0.829018 6.19891 0.75 6 0.75H3C2.40326 0.75 1.83097 0.987053 1.40901 1.40901C0.987053 1.83097 0.75 2.40326 0.75 3V6C0.75 6.19891 0.829018 6.38968 0.96967 6.53033C1.11032 6.67098 1.30109 6.75 1.5 6.75ZM7.5 3.75H4.5C4.30109 3.75 4.11032 3.82902 3.96967 3.96967C3.82902 4.11032 3.75 4.30109 3.75 4.5V7.5C3.75 7.69891 3.82902 7.88968 3.96967 8.03033C4.11032 8.17098 4.30109 8.25 4.5 8.25H7.5C7.69891 8.25 7.88968 8.17098 8.03033 8.03033C8.17098 7.88968 8.25 7.69891 8.25 7.5V4.5C8.25 4.30109 8.17098 4.11032 8.03033 3.96967C7.88968 3.82902 7.69891 3.75 7.5 3.75ZM6.75 6.75H5.25V5.25H6.75V6.75ZM10.5 8.25H13.5C13.6989 8.25 13.8897 8.17098 14.0303 8.03033C14.171 7.88968 14.25 7.69891 14.25 7.5V4.5C14.25 4.30109 14.171 4.11032 14.0303 3.96967C13.8897 3.82902 13.6989 3.75 13.5 3.75H10.5C10.3011 3.75 10.1103 3.82902 9.96967 3.96967C9.82902 4.11032 9.75 4.30109 9.75 4.5V7.5C9.75 7.69891 9.82902 7.88968 9.96967 8.03033C10.1103 8.17098 10.3011 8.25 10.5 8.25ZM11.25 5.25H12.75V6.75H11.25V5.25ZM7.5 9.75H4.5C4.30109 9.75 4.11032 9.82902 3.96967 9.96967C3.82902 10.1103 3.75 10.3011 3.75 10.5V13.5C3.75 13.6989 3.82902 13.8897 3.96967 14.0303C4.11032 14.171 4.30109 14.25 4.5 14.25H7.5C7.69891 14.25 7.88968 14.171 8.03033 14.0303C8.17098 13.8897 8.25 13.6989 8.25 13.5V10.5C8.25 10.3011 8.17098 10.1103 8.03033 9.96967C7.88968 9.82902 7.69891 9.75 7.5 9.75ZM6.75 12.75H5.25V11.25H6.75V12.75ZM10.5 12C10.6989 12 10.8897 11.921 11.0303 11.7803C11.171 11.6397 11.25 11.4489 11.25 11.25C11.4489 11.25 11.6397 11.171 11.7803 11.0303C11.921 10.8897 12 10.6989 12 10.5C12 10.3011 11.921 10.1103 11.7803 9.96967C11.6397 9.82902 11.4489 9.75 11.25 9.75H10.5C10.3011 9.75 10.1103 9.82902 9.96967 9.96967C9.82902 10.1103 9.75 10.3011 9.75 10.5V11.25C9.75 11.4489 9.82902 11.6397 9.96967 11.7803C10.1103 11.921 10.3011 12 10.5 12ZM13.5 9.75C13.3011 9.75 13.1103 9.82902 12.9697 9.96967C12.829 10.1103 12.75 10.3011 12.75 10.5V12.75C12.5511 12.75 12.3603 12.829 12.2197 12.9697C12.079 13.1103 12 13.3011 12 13.5C12 13.6989 12.079 13.8897 12.2197 14.0303C12.3603 14.171 12.5511 14.25 12.75 14.25H13.5C13.6989 14.25 13.8897 14.171 14.0303 14.0303C14.171 13.8897 14.25 13.6989 14.25 13.5V10.5C14.25 10.3011 14.171 10.1103 14.0303 9.96967C13.8897 9.82902 13.6989 9.75 13.5 9.75ZM10.5 12.75C10.3517 12.75 10.2067 12.794 10.0833 12.8764C9.95999 12.9588 9.86386 13.0759 9.80709 13.213C9.75032 13.35 9.73547 13.5008 9.76441 13.6463C9.79335 13.7918 9.86478 13.9254 9.96967 14.0303C10.0746 14.1352 10.2082 14.2067 10.3537 14.2356C10.4992 14.2645 10.65 14.2497 10.787 14.1929C10.9241 14.1361 11.0412 14.04 11.1236 13.9167C11.206 13.7933 11.25 13.6483 11.25 13.5C11.25 13.3011 11.171 13.1103 11.0303 12.9697C10.8897 12.829 10.6989 12.75 10.5 12.75Z" fill="#1A1A1A"/>
</svg>
