<svg width="12" height="7" viewBox="0 0 12 7" fill="none" xmlns="http://www.w3.org/2000/svg">
<path fill-rule="evenodd" clip-rule="evenodd" d="M10.1932 0.970213C10.263 0.900481 10.3458 0.845166 10.4369 0.807428C10.528 0.769689 10.6256 0.750265 10.7242 0.750265C10.8229 0.750265 10.9205 0.769689 11.0116 0.807428C11.1027 0.845166 11.1855 0.900481 11.2552 0.970213C11.325 1.03994 11.3803 1.12273 11.418 1.21384C11.4558 1.30495 11.4752 1.4026 11.4752 1.50121C11.4752 1.59983 11.4558 1.69748 11.418 1.78859C11.3803 1.8797 11.325 1.96248 11.2552 2.03221L6.53024 6.75721C6.38959 6.89782 6.19886 6.9768 5.99999 6.9768C5.80112 6.9768 5.61039 6.89782 5.46974 6.75721L0.74474 2.03221C0.60391 1.89128 0.524832 1.70018 0.524902 1.50095C0.524973 1.30171 0.604186 1.11067 0.745115 0.969837C0.886044 0.829008 1.07715 0.74993 1.27638 0.75C1.47561 0.75007 1.66666 0.829283 1.80749 0.970213L5.99999 5.16346L10.1932 0.970213Z" fill="#4F566B"/>
</svg>
