<svg width="60" height="60" viewBox="0 0 60 60" fill="none" xmlns="http://www.w3.org/2000/svg">
<rect width="60" height="60" rx="30" fill="black"/>
<path d="M31.6576 36.9802L38.8099 29.8279C38.8108 29.8267 38.811 29.8254 38.8122 29.8244C38.8475 29.7881 38.8761 29.7454 38.8959 29.6979C38.9155 29.6501 38.9258 29.5996 38.9262 29.5484C38.9262 29.5476 38.9265 29.5467 38.9265 29.5456C38.9265 29.4938 38.9159 29.4421 38.8959 29.3933C38.8755 29.3447 38.8465 29.3005 38.8099 29.2639L31.6577 22.1117C31.5019 21.9562 31.2497 21.9562 31.0942 22.1117C31.016 22.1899 30.9775 22.2917 30.9775 22.3935C30.9773 22.4955 31.016 22.5976 31.0942 22.6752L37.5662 29.1475L20.5634 29.1475C20.3433 29.1475 20.1651 29.3259 20.165 29.5458C20.1648 29.7657 20.3432 29.9441 20.5632 29.9441L37.5665 29.9443L31.0941 36.4167C31.0161 36.4941 30.9775 36.5961 30.9775 36.6984C30.9773 36.8003 31.0161 36.9018 31.0943 36.98C31.2497 37.1354 31.5014 37.1353 31.6576 36.9802Z" fill="white"/>
<path d="M31.6576 36.9802L38.8099 29.8279C38.8108 29.8267 38.811 29.8254 38.8122 29.8244C38.8475 29.7881 38.8761 29.7454 38.8959 29.6979C38.9155 29.6501 38.9258 29.5996 38.9262 29.5484C38.9262 29.5476 38.9265 29.5467 38.9265 29.5456C38.9265 29.4938 38.9159 29.4421 38.8959 29.3933C38.8755 29.3447 38.8465 29.3005 38.8099 29.2639L31.6577 22.1117C31.5019 21.9562 31.2497 21.9562 31.0942 22.1117C31.016 22.1899 30.9775 22.2917 30.9775 22.3935C30.9773 22.4955 31.016 22.5976 31.0942 22.6752L37.5662 29.1475L20.5634 29.1475C20.3433 29.1475 20.1651 29.3259 20.165 29.5458C20.1648 29.7657 20.3432 29.9441 20.5632 29.9441L37.5665 29.9443L31.0941 36.4167C31.0161 36.4941 30.9775 36.5961 30.9775 36.6984C30.9773 36.8003 31.0161 36.9018 31.0943 36.98C31.2497 37.1354 31.5014 37.1353 31.6576 36.9802" stroke="white"/>
</svg>
