<svg width="60" height="60" viewBox="0 0 60 60" fill="none" xmlns="http://www.w3.org/2000/svg">
<rect x="60" y="60" width="60" height="60" rx="30" transform="rotate(-180 60 60)" fill="black"/>
<path d="M28.3424 23.0198L21.1901 30.1721C21.1892 30.1733 21.189 30.1746 21.1878 30.1756C21.1525 30.2119 21.1239 30.2546 21.1041 30.3021C21.0845 30.3499 21.0742 30.4004 21.0738 30.4516C21.0738 30.4524 21.0735 30.4533 21.0735 30.4544C21.0735 30.5062 21.0841 30.5579 21.1041 30.6067C21.1245 30.6553 21.1535 30.6995 21.1901 30.7361L28.3423 37.8883C28.4981 38.0438 28.7503 38.0438 28.9058 37.8883C28.984 37.8101 29.0225 37.7083 29.0225 37.6065C29.0227 37.5045 28.984 37.4024 28.9058 37.3248L22.4338 30.8525L39.4366 30.8525C39.6567 30.8525 39.8349 30.6741 39.835 30.4542C39.8352 30.2343 39.6568 30.0559 39.4368 30.0559L22.4335 30.0557L28.9059 23.5833C28.9839 23.5059 29.0225 23.4039 29.0225 23.3016C29.0227 23.1997 28.9839 23.0982 28.9057 23.02C28.7503 22.8646 28.4986 22.8647 28.3424 23.0198Z" fill="white"/>
<path d="M28.3424 23.0198L21.1901 30.1721C21.1892 30.1733 21.189 30.1746 21.1878 30.1756C21.1525 30.2119 21.1239 30.2546 21.1041 30.3021C21.0845 30.3499 21.0742 30.4004 21.0738 30.4516C21.0738 30.4524 21.0735 30.4533 21.0735 30.4544C21.0735 30.5062 21.0841 30.5579 21.1041 30.6067C21.1245 30.6553 21.1535 30.6995 21.1901 30.7361L28.3423 37.8883C28.4981 38.0438 28.7503 38.0438 28.9058 37.8883C28.984 37.8101 29.0225 37.7083 29.0225 37.6065C29.0227 37.5045 28.984 37.4024 28.9058 37.3248L22.4338 30.8525L39.4366 30.8525C39.6567 30.8525 39.8349 30.6741 39.835 30.4542C39.8352 30.2343 39.6568 30.0559 39.4368 30.0559L22.4335 30.0557L28.9059 23.5833C28.9839 23.5059 29.0225 23.4039 29.0225 23.3016C29.0227 23.1997 28.9839 23.0982 28.9057 23.02C28.7503 22.8646 28.4986 22.8647 28.3424 23.0198" stroke="white"/>
</svg>
