<svg width="40" height="40" viewBox="0 0 40 40" fill="none" xmlns="http://www.w3.org/2000/svg">
<rect width="40" height="40" rx="20" fill="#D4C2FD"/>
<path d="M21.9003 11.9307C21.9258 11.8356 21.9697 11.7463 22.0297 11.6681C22.0897 11.59 22.1644 11.5244 22.2498 11.4751C22.3351 11.4258 22.4293 11.3938 22.527 11.381C22.6246 11.3681 22.7239 11.3746 22.8191 11.4001C24.2094 11.7629 25.478 12.4897 26.494 13.5058C27.5101 14.5218 28.2369 15.7904 28.5997 17.1807C28.6252 17.2759 28.6317 17.3752 28.6189 17.4729C28.606 17.5705 28.574 17.6647 28.5247 17.7501C28.4755 17.8354 28.4099 17.9102 28.3317 17.9701C28.2535 18.0301 28.1643 18.074 28.0691 18.0995C28.0057 18.1161 27.9405 18.1246 27.875 18.1248C27.7097 18.1248 27.5491 18.0702 27.418 17.9695C27.287 17.8688 27.1929 17.7276 27.1503 17.5679C26.8545 16.4329 26.2613 15.3973 25.4319 14.568C24.6025 13.7386 23.5669 13.1454 22.4319 12.8495C22.3366 12.8241 22.2473 12.7802 22.169 12.7203C22.0907 12.6604 22.025 12.5857 21.9756 12.5003C21.9263 12.415 21.8942 12.3208 21.8813 12.223C21.8683 12.1253 21.8748 12.026 21.9003 11.9307ZM21.6819 15.8495C22.9747 16.1945 23.8053 17.0251 24.1503 18.3179C24.1929 18.4776 24.287 18.6188 24.418 18.7195C24.5491 18.8202 24.7097 18.8748 24.875 18.8748C24.9405 18.8746 25.0057 18.8661 25.0691 18.8495C25.1643 18.824 25.2535 18.7801 25.3317 18.7201C25.4099 18.6602 25.4755 18.5854 25.5247 18.5001C25.574 18.4147 25.606 18.3205 25.6189 18.2229C25.6317 18.1252 25.6252 18.0259 25.5997 17.9307C25.1197 16.1345 23.8653 14.8801 22.0691 14.4001C21.9739 14.3747 21.8747 14.3683 21.777 14.3812C21.6794 14.3941 21.5852 14.4262 21.4999 14.4755C21.4147 14.5248 21.3399 14.5904 21.28 14.6686C21.2201 14.7468 21.1762 14.836 21.1508 14.9312C21.1254 15.0264 21.1189 15.1256 21.1319 15.2233C21.1448 15.3209 21.1768 15.4151 21.2262 15.5003C21.2755 15.5856 21.3411 15.6603 21.4193 15.7202C21.4975 15.7802 21.5867 15.8241 21.6819 15.8495ZM29.3638 24.7886C29.1966 26.0589 28.5727 27.225 27.6087 28.0689C26.6446 28.9129 25.4063 29.3771 24.125 29.3748C16.6813 29.3748 10.625 23.3186 10.625 15.8748C10.6227 14.5935 11.0869 13.3552 11.9309 12.3911C12.7749 11.4271 13.9409 10.8032 15.2113 10.6361C15.5325 10.5968 15.8578 10.6626 16.1386 10.8234C16.4194 10.9843 16.6407 11.2316 16.7694 11.5286L18.7494 15.9489V15.9601C18.8479 16.1874 18.8886 16.4356 18.8678 16.6824C18.847 16.9293 18.7654 17.1672 18.6303 17.3748C18.6134 17.4001 18.5956 17.4236 18.5769 17.447L16.625 19.7607C17.3272 21.1876 18.8197 22.667 20.2653 23.3711L22.5472 21.4295C22.5696 21.4107 22.5931 21.3931 22.6175 21.377C22.825 21.2386 23.0637 21.1542 23.312 21.1312C23.5603 21.1083 23.8104 21.1477 24.0397 21.2457L24.0519 21.2514L28.4684 23.2304C28.7659 23.3587 29.0139 23.5797 29.1753 23.8606C29.3366 24.1414 29.4028 24.467 29.3638 24.7886ZM27.875 24.6011C27.875 24.6011 27.8684 24.6011 27.8647 24.6011L23.4584 22.6276L21.1756 24.5692C21.1535 24.5879 21.1303 24.6055 21.1063 24.6217C20.8904 24.7657 20.6409 24.8512 20.3821 24.87C20.1233 24.8887 19.864 24.84 19.6297 24.7286C17.8738 23.8801 16.1234 22.1429 15.2741 20.4057C15.1616 20.1731 15.1111 19.9154 15.1276 19.6575C15.144 19.3996 15.2267 19.1504 15.3678 18.9339C15.3837 18.9085 15.4016 18.8843 15.4213 18.8617L17.375 16.5451L15.4063 12.1389C15.4059 12.1351 15.4059 12.1314 15.4063 12.1276C14.4971 12.2462 13.6624 12.6922 13.0584 13.3819C12.4544 14.0717 12.1226 14.958 12.125 15.8748C12.1285 19.0563 13.3939 22.1066 15.6436 24.3563C17.8932 26.6059 20.9435 27.8713 24.125 27.8748C25.0413 27.878 25.9273 27.5473 26.6175 26.9446C27.3077 26.3419 27.7547 25.5085 27.875 24.6001V24.6011Z" fill="black"/>
</svg>
