<svg width="40" height="40" viewBox="0 0 40 40" fill="none" xmlns="http://www.w3.org/2000/svg">
<rect width="40" height="40" rx="20" fill="#D4C2FD"/>
<path d="M29 12.5H11C10.8011 12.5 10.6103 12.579 10.4697 12.7197C10.329 12.8603 10.25 13.0511 10.25 13.25V26C10.25 26.3978 10.408 26.7794 10.6893 27.0607C10.9706 27.342 11.3522 27.5 11.75 27.5H28.25C28.6478 27.5 29.0294 27.342 29.3107 27.0607C29.592 26.7794 29.75 26.3978 29.75 26V13.25C29.75 13.0511 29.671 12.8603 29.5303 12.7197C29.3897 12.579 29.1989 12.5 29 12.5ZM27.0716 14L20 20.4828L12.9284 14H27.0716ZM28.25 26H11.75V14.9553L19.4928 22.0531C19.6312 22.1801 19.8122 22.2506 20 22.2506C20.1878 22.2506 20.3688 22.1801 20.5072 22.0531L28.25 14.9553V26Z" fill="black"/>
</svg>
