<svg width="24" height="24" viewBox="0 0 24 24" fill="none" xmlns="http://www.w3.org/2000/svg">
<path d="M12 13.125C11.7775 13.125 11.56 13.059 11.375 12.9354C11.19 12.8118 11.0458 12.6361 10.9606 12.4305C10.8755 12.225 10.8532 11.9988 10.8966 11.7805C10.94 11.5623 11.0472 11.3618 11.2045 11.2045C11.3618 11.0472 11.5623 10.94 11.7805 10.8966C11.9988 10.8532 12.225 10.8755 12.4305 10.9606C12.6361 11.0458 12.8118 11.19 12.9354 11.375C13.059 11.56 13.125 11.7775 13.125 12C13.125 12.2984 13.0065 12.5845 12.7955 12.7955C12.5845 13.0065 12.2984 13.125 12 13.125ZM13.125 18.375C13.125 18.1525 13.059 17.935 12.9354 17.75C12.8118 17.565 12.6361 17.4208 12.4305 17.3356C12.225 17.2505 11.9988 17.2282 11.7805 17.2716C11.5623 17.315 11.3618 17.4222 11.2045 17.5795C11.0472 17.7368 10.94 17.9373 10.8966 18.1555C10.8532 18.3738 10.8755 18.6 10.9606 18.8055C11.0458 19.0111 11.19 19.1868 11.375 19.3104C11.56 19.434 11.7775 19.5 12 19.5C12.2984 19.5 12.5845 19.3815 12.7955 19.1705C13.0065 18.9595 13.125 18.6734 13.125 18.375ZM13.125 5.625C13.125 5.4025 13.059 5.18499 12.9354 4.99998C12.8118 4.81498 12.6361 4.67078 12.4305 4.58564C12.225 4.50049 11.9988 4.47821 11.7805 4.52162C11.5623 4.56503 11.3618 4.67217 11.2045 4.82951C11.0472 4.98684 10.94 5.1873 10.8966 5.40552C10.8532 5.62375 10.8755 5.84995 10.9606 6.05552C11.0458 6.26109 11.19 6.43679 11.375 6.5604C11.56 6.68402 11.7775 6.75 12 6.75C12.2984 6.75 12.5845 6.63147 12.7955 6.4205C13.0065 6.20952 13.125 5.92337 13.125 5.625Z" fill="black"/>
</svg>
