<svg width="34" height="34" viewBox="0 0 34 34" fill="none" xmlns="http://www.w3.org/2000/svg">
<rect x="0.936279" width="33.0638" height="33.0638" rx="7.34752" fill="#7459AF"/>
<path d="M16.4683 26.2621C16.7723 26.4377 17.1172 26.5301 17.4683 26.5301C17.8193 26.5301 18.1642 26.4377 18.4683 26.2621L25.4683 22.2621C25.772 22.0868 26.0243 21.8346 26.1998 21.531C26.3753 21.2273 26.4679 20.8829 26.4683 20.5321V12.5321C26.4679 12.1814 26.3753 11.8369 26.1998 11.5333C26.0243 11.2296 25.772 10.9775 25.4683 10.8021L18.4683 6.80213C18.1642 6.62659 17.8193 6.53418 17.4683 6.53418C17.1172 6.53418 16.7723 6.62659 16.4683 6.80213L9.46826 10.8021C9.16452 10.9775 8.91224 11.2296 8.73672 11.5333C8.5612 11.8369 8.46862 12.1814 8.46826 12.5321V20.5321C8.46862 20.8829 8.5612 21.2273 8.73672 21.531C8.91224 21.8346 9.16452 22.0868 9.46826 22.2621L16.4683 26.2621Z" stroke="white" stroke-linecap="round" stroke-linejoin="round"/>
<path d="M17.4683 26.5322V16.5322" stroke="white" stroke-linecap="round" stroke-linejoin="round"/>
<path d="M8.7583 11.5322L17.4683 16.5322L26.1783 11.5322" stroke="white" stroke-linecap="round" stroke-linejoin="round"/>
<path d="M12.9683 8.80176L21.9683 13.9518" stroke="white" stroke-linecap="round" stroke-linejoin="round"/>
</svg>
