<svg width="34" height="34" viewBox="0 0 34 34" fill="none" xmlns="http://www.w3.org/2000/svg">
<rect x="0.936279" y="0.5" width="33.0638" height="33.0638" rx="7.34752" fill="#7459AF"/>
<mask id="mask0_13294_29283" style="mask-type:luminance" maskUnits="userSpaceOnUse" x="14" y="8" width="7" height="8">
<path d="M14.291 8.80664H20.6444V15.1248H14.291V8.80664Z" fill="white"/>
</mask>
<g mask="url(#mask0_13294_29283)">
<path d="M17.471 15.0974C15.7356 15.0974 14.3237 13.6873 14.3237 11.9538C14.3237 10.2203 15.7351 8.81055 17.471 8.81055C19.2066 8.81055 20.6179 10.2209 20.6179 11.9538C20.6179 13.687 19.206 15.0974 17.471 15.0974ZM17.471 9.33802C16.0269 9.33802 14.852 10.5116 14.852 11.9538C14.852 13.396 16.0269 14.5696 17.471 14.5696C18.9148 14.5696 20.0897 13.396 20.0897 11.9538C20.0897 10.5116 18.9148 9.33802 17.471 9.33802Z" fill="white"/>
</g>
<mask id="mask1_13294_29283" style="mask-type:luminance" maskUnits="userSpaceOnUse" x="10" y="15" width="15" height="11">
<path d="M10.8706 15.6133H24.0661V25.257H10.8706V15.6133Z" fill="white"/>
</mask>
<g mask="url(#mask1_13294_29283)">
<path d="M22.7446 25.2625H12.1981C11.8155 25.2625 11.4528 25.0135 11.2032 24.5786C10.9537 24.1446 10.8435 23.5709 10.9013 23.0049C11.1069 20.987 11.7915 19.1365 12.8281 17.7939C13.8754 16.4363 15.2164 15.6895 16.6037 15.6895H18.3401C19.7275 15.6895 21.0685 16.4363 22.1157 17.7939C23.1524 19.1373 23.8364 20.9878 24.0425 23.0049C24.0998 23.5709 23.9902 24.1437 23.7406 24.5786C23.4903 25.0135 23.1273 25.2625 22.7446 25.2625ZM16.6034 16.4791C15.3426 16.4791 14.1249 17.1582 13.1736 18.3909C12.2319 19.611 11.6104 21.2924 11.4233 23.1242C11.3889 23.4623 11.4547 23.8044 11.6036 24.0633C11.7527 24.3234 11.9693 24.4716 12.1981 24.4716H22.7446C22.9735 24.4716 23.19 24.3226 23.3392 24.0633C23.4881 23.8044 23.5538 23.4614 23.5194 23.1242C23.3326 21.2924 22.7108 19.611 21.7696 18.3909C20.8181 17.1582 19.6001 16.4791 18.3396 16.4791H16.6034Z" fill="white"/>
</g>
<path d="M28.3269 23.075H24.9016C24.7434 23.075 24.6159 22.8925 24.6159 22.6683C24.6159 22.4428 24.744 22.261 24.9016 22.261H28.3269C28.4931 22.261 28.6501 22.1584 28.7587 21.9788C28.8664 21.7996 28.9145 21.5631 28.8897 21.3292C28.7398 19.9296 28.241 18.6453 27.4851 17.7135C26.7218 16.7716 25.744 16.2529 24.7328 16.2529H23.316C22.9368 16.2529 22.5595 16.3261 22.1944 16.4691C22.0418 16.5289 21.8848 16.4027 21.8426 16.1856C21.8001 15.969 21.8895 15.7447 22.0418 15.6846C22.4565 15.5214 22.8854 15.4385 23.316 15.4385H24.7328C25.8818 15.4385 26.9925 16.0278 27.8597 17.0972C28.718 18.1565 29.2847 19.6154 29.4553 21.206C29.5054 21.6742 29.4095 22.1496 29.1926 22.5088C28.975 22.8693 28.6598 23.075 28.3269 23.075Z" fill="white"/>
<path d="M24.0379 15.0962C22.5439 15.0962 21.3286 13.8822 21.3286 12.3906C21.3286 10.8991 22.5439 9.68457 24.0379 9.68457C25.5313 9.68457 26.7466 10.8985 26.7466 12.3906C26.7471 13.8817 25.5318 15.0962 24.0379 15.0962ZM24.0379 10.2123C22.8357 10.2123 21.8574 11.1892 21.8574 12.3901C21.8574 13.5909 22.8357 14.5679 24.0379 14.5679C25.24 14.5679 26.2183 13.5909 26.2183 12.3901C26.2183 11.1892 25.2406 10.2123 24.0379 10.2123Z" fill="white"/>
<path d="M10.035 23.075H6.60957C6.27691 23.075 5.96108 22.8685 5.74412 22.5088C5.52717 22.1496 5.43095 21.675 5.48142 21.206C5.65203 19.6154 6.21847 18.1565 7.07683 17.0972C7.94404 16.0278 9.05477 15.4385 10.2039 15.4385H11.621C12.0514 15.4385 12.4802 15.5214 12.895 15.6846C13.047 15.7447 13.1361 15.9681 13.0942 16.1856C13.052 16.4018 12.895 16.5297 12.7424 16.4691C12.3772 16.3253 12 16.2529 11.621 16.2529H10.2039C9.19262 16.2529 8.21471 16.7716 7.4514 17.7135C6.69546 18.6453 6.19662 19.9296 6.04697 21.3301C6.02188 21.5631 6.0694 21.8004 6.17744 21.9788C6.28576 22.1584 6.4428 22.261 6.60898 22.261H10.0344C10.1927 22.261 10.3202 22.4436 10.3202 22.6683C10.3208 22.8925 10.1932 23.075 10.035 23.075Z" fill="white"/>
<path d="M10.9033 15.0962C9.40935 15.0962 8.19409 13.8822 8.19409 12.3906C8.19409 10.8991 9.40935 9.68457 10.9033 9.68457C12.3968 9.68457 13.612 10.8985 13.612 12.3906C13.612 13.8817 12.3968 15.0962 10.9033 15.0962ZM10.9033 10.2123C9.70117 10.2123 8.7229 11.1892 8.7229 12.3901C8.7229 13.5909 9.70117 14.5679 10.9033 14.5679C12.1055 14.5679 13.0838 13.5909 13.0838 12.3901C13.0838 11.1892 12.1055 10.2123 10.9033 10.2123Z" fill="white"/>
</svg>
