<svg width="29" height="29" viewBox="0 0 29 29" fill="none" xmlns="http://www.w3.org/2000/svg">
<path d="M23.25 9.53906C23.25 9.77113 23.1578 9.99369 22.9937 10.1578C22.8296 10.3219 22.6071 10.4141 22.375 10.4141H18.8586C18.8684 10.5584 18.875 10.7039 18.875 10.8516C18.873 12.5914 18.1809 14.2594 16.9507 15.4897C15.7204 16.72 14.0524 17.412 12.3125 17.4141H10.638L18.5884 24.6416C18.6751 24.7184 18.7456 24.8117 18.7959 24.916C18.8462 25.0203 18.8753 25.1335 18.8815 25.2491C18.8877 25.3647 18.8709 25.4804 18.8321 25.5895C18.7933 25.6986 18.7332 25.7989 18.6553 25.8846C18.5774 25.9703 18.4833 26.0397 18.3784 26.0887C18.2736 26.1378 18.16 26.1655 18.0443 26.1704C17.9286 26.1752 17.8131 26.157 17.7045 26.1169C17.5959 26.0767 17.4963 26.0155 17.4116 25.9366L7.78656 17.1866C7.65588 17.0678 7.56419 16.9122 7.52356 16.7404C7.48293 16.5685 7.49526 16.3883 7.55893 16.2236C7.6226 16.0589 7.73462 15.9173 7.88028 15.8174C8.02593 15.7175 8.1984 15.6641 8.375 15.6641H12.3125C13.5884 15.6626 14.8116 15.1551 15.7139 14.2529C16.6161 13.3507 17.1236 12.1275 17.125 10.8516C17.125 10.7039 17.1173 10.5584 17.1042 10.4141H8.375C8.14294 10.4141 7.92038 10.3219 7.75628 10.1578C7.59219 9.99369 7.5 9.77113 7.5 9.53906C7.5 9.307 7.59219 9.08444 7.75628 8.92034C7.92038 8.75625 8.14294 8.66406 8.375 8.66406H16.5967C16.1937 7.87433 15.5804 7.21128 14.8244 6.74807C14.0684 6.28486 13.1991 6.0395 12.3125 6.03906H8.375C8.14294 6.03906 7.92038 5.94688 7.75628 5.78278C7.59219 5.61869 7.5 5.39613 7.5 5.16406C7.5 4.932 7.59219 4.70944 7.75628 4.54534C7.92038 4.38125 8.14294 4.28906 8.375 4.28906H22.375C22.6071 4.28906 22.8296 4.38125 22.9937 4.54534C23.1578 4.70944 23.25 4.932 23.25 5.16406C23.25 5.39613 23.1578 5.61869 22.9937 5.78278C22.8296 5.94688 22.6071 6.03906 22.375 6.03906H16.7684C17.5489 6.76131 18.1427 7.66204 18.4987 8.66406H22.375C22.6071 8.66406 22.8296 8.75625 22.9937 8.92034C23.1578 9.08444 23.25 9.307 23.25 9.53906Z" fill="#59399F"/>
</svg>
