<svg width="24" height="25" viewBox="0 0 24 25" fill="none" xmlns="http://www.w3.org/2000/svg">
<mask id="path-1-inside-1_4802_1234" fill="white">
<path d="M19.5 8C19.5 8.19891 19.421 8.38968 19.2803 8.53033C19.1397 8.67098 18.9489 8.75 18.75 8.75H15.7359C15.7444 8.87375 15.75 8.99844 15.75 9.125C15.7483 10.6163 15.1551 12.046 14.1006 13.1006C13.046 14.1551 11.6163 14.7483 10.125 14.75H8.68969L15.5044 20.945C15.5786 21.0109 15.6391 21.0908 15.6822 21.1802C15.7253 21.2696 15.7502 21.3667 15.7556 21.4658C15.7609 21.5649 15.7465 21.664 15.7132 21.7575C15.68 21.851 15.6284 21.937 15.5617 22.0105C15.4949 22.0839 15.4143 22.1434 15.3244 22.1854C15.2345 22.2275 15.1371 22.2513 15.038 22.2554C14.9388 22.2595 14.8398 22.244 14.7467 22.2096C14.6536 22.1752 14.5683 22.1226 14.4956 22.055L6.24563 14.555C6.13361 14.4532 6.05502 14.3199 6.0202 14.1725C5.98537 14.0252 5.99594 13.8708 6.05051 13.7296C6.10508 13.5884 6.2011 13.467 6.32595 13.3814C6.4508 13.2958 6.59862 13.25 6.75 13.25H10.125C11.2186 13.2488 12.2671 12.8138 13.0404 12.0404C13.8138 11.2671 14.2488 10.2186 14.25 9.125C14.25 8.99844 14.2434 8.87375 14.2322 8.75H6.75C6.55109 8.75 6.36032 8.67098 6.21967 8.53033C6.07902 8.38968 6 8.19891 6 8C6 7.80109 6.07902 7.61032 6.21967 7.46967C6.36032 7.32902 6.55109 7.25 6.75 7.25H13.7972C13.4518 6.57309 12.926 6.00476 12.278 5.60772C11.63 5.21069 10.885 5.00038 10.125 5H6.75C6.55109 5 6.36032 4.92098 6.21967 4.78033C6.07902 4.63968 6 4.44891 6 4.25C6 4.05109 6.07902 3.86032 6.21967 3.71967C6.36032 3.57902 6.55109 3.5 6.75 3.5H18.75C18.9489 3.5 19.1397 3.57902 19.2803 3.71967C19.421 3.86032 19.5 4.05109 19.5 4.25C19.5 4.44891 19.421 4.63968 19.2803 4.78033C19.1397 4.92098 18.9489 5 18.75 5H13.9444C14.6134 5.61907 15.1223 6.39112 15.4275 7.25H18.75C18.9489 7.25 19.1397 7.32902 19.2803 7.46967C19.421 7.61032 19.5 7.80109 19.5 8Z"/>
</mask>
<path d="M19.5 8C19.5 8.19891 19.421 8.38968 19.2803 8.53033C19.1397 8.67098 18.9489 8.75 18.75 8.75H15.7359C15.7444 8.87375 15.75 8.99844 15.75 9.125C15.7483 10.6163 15.1551 12.046 14.1006 13.1006C13.046 14.1551 11.6163 14.7483 10.125 14.75H8.68969L15.5044 20.945C15.5786 21.0109 15.6391 21.0908 15.6822 21.1802C15.7253 21.2696 15.7502 21.3667 15.7556 21.4658C15.7609 21.5649 15.7465 21.664 15.7132 21.7575C15.68 21.851 15.6284 21.937 15.5617 22.0105C15.4949 22.0839 15.4143 22.1434 15.3244 22.1854C15.2345 22.2275 15.1371 22.2513 15.038 22.2554C14.9388 22.2595 14.8398 22.244 14.7467 22.2096C14.6536 22.1752 14.5683 22.1226 14.4956 22.055L6.24563 14.555C6.13361 14.4532 6.05502 14.3199 6.0202 14.1725C5.98537 14.0252 5.99594 13.8708 6.05051 13.7296C6.10508 13.5884 6.2011 13.467 6.32595 13.3814C6.4508 13.2958 6.59862 13.25 6.75 13.25H10.125C11.2186 13.2488 12.2671 12.8138 13.0404 12.0404C13.8138 11.2671 14.2488 10.2186 14.25 9.125C14.25 8.99844 14.2434 8.87375 14.2322 8.75H6.75C6.55109 8.75 6.36032 8.67098 6.21967 8.53033C6.07902 8.38968 6 8.19891 6 8C6 7.80109 6.07902 7.61032 6.21967 7.46967C6.36032 7.32902 6.55109 7.25 6.75 7.25H13.7972C13.4518 6.57309 12.926 6.00476 12.278 5.60772C11.63 5.21069 10.885 5.00038 10.125 5H6.75C6.55109 5 6.36032 4.92098 6.21967 4.78033C6.07902 4.63968 6 4.44891 6 4.25C6 4.05109 6.07902 3.86032 6.21967 3.71967C6.36032 3.57902 6.55109 3.5 6.75 3.5H18.75C18.9489 3.5 19.1397 3.57902 19.2803 3.71967C19.421 3.86032 19.5 4.05109 19.5 4.25C19.5 4.44891 19.421 4.63968 19.2803 4.78033C19.1397 4.92098 18.9489 5 18.75 5H13.9444C14.6134 5.61907 15.1223 6.39112 15.4275 7.25H18.75C18.9489 7.25 19.1397 7.32902 19.2803 7.46967C19.421 7.61032 19.5 7.80109 19.5 8Z" fill="#220560"/>
<path d="M15.7359 8.75V3.75H10.3834L10.7475 9.09012L15.7359 8.75ZM15.75 9.125L20.75 9.13082V9.125H15.75ZM10.125 14.75V19.75L10.1308 19.75L10.125 14.75ZM8.68969 14.75V9.75H-4.24361L5.32637 18.4497L8.68969 14.75ZM15.5044 20.945L12.1411 24.6447L12.1635 24.6652L12.1862 24.6853L15.5044 20.945ZM14.4956 22.055L17.9025 18.3953L17.8809 18.3752L17.859 18.3553L14.4956 22.055ZM6.24563 14.555L9.60899 10.8553L9.60866 10.855L6.24563 14.555ZM6.75 13.25V8.25H6.74947L6.75 13.25ZM10.125 13.25V18.25L10.1307 18.25L10.125 13.25ZM14.25 9.125L19.25 9.13067V9.125H14.25ZM14.2322 8.75L19.2117 8.29732L18.7983 3.75H14.2322V8.75ZM6 8H11H6ZM13.7972 7.25V12.25H21.9622L18.2508 4.97727L13.7972 7.25ZM10.125 5L10.1275 0H10.125V5ZM6 4.25H11H6ZM6.75 3.5V8.5V3.5ZM13.9444 5V0H1.17917L10.5485 8.66986L13.9444 5ZM15.4275 7.25L10.7161 8.92419L11.8979 12.25H15.4275V7.25ZM14.5 8C14.5 6.87284 14.9478 5.79183 15.7448 4.9948L22.8159 12.0659C23.8942 10.9875 24.5 9.52499 24.5 8H14.5ZM15.7448 4.9948C16.5418 4.19777 17.6228 3.75 18.75 3.75V13.75C20.275 13.75 21.7375 13.1442 22.8159 12.0659L15.7448 4.9948ZM18.75 3.75H15.7359V13.75H18.75V3.75ZM10.7475 9.09012C10.7491 9.11388 10.7498 9.12736 10.75 9.13328C10.7502 9.13901 10.75 9.13564 10.75 9.125H20.75C20.75 8.85215 20.7379 8.60852 20.7244 8.40988L10.7475 9.09012ZM10.75 9.11918C10.7498 9.28642 10.6833 9.44676 10.565 9.56502L17.6361 16.6361C19.6269 14.6453 20.7467 11.9462 20.75 9.13082L10.75 9.11918ZM10.565 9.56502C10.4468 9.68328 10.2864 9.74981 10.1192 9.75L10.1308 19.75C12.9462 19.7467 15.6453 18.6269 17.6361 16.6361L10.565 9.56502ZM10.125 9.75H8.68969V19.75H10.125V9.75ZM5.32637 18.4497L12.1411 24.6447L18.8677 17.2453L12.053 11.0503L5.32637 18.4497ZM12.1862 24.6853C11.7655 24.3121 11.4231 23.8591 11.1787 23.3525L20.1856 19.0079C19.855 18.3226 19.3917 17.7096 18.8225 17.2047L12.1862 24.6853ZM11.1787 23.3525C10.9344 22.846 10.793 22.2959 10.7628 21.7344L20.7484 21.1972C20.7075 20.4374 20.5162 19.6932 20.1856 19.0079L11.1787 23.3525ZM10.7628 21.7344C10.7326 21.1728 10.8141 20.6108 11.0027 20.0809L20.4237 23.4342C20.6789 22.7173 20.7892 21.957 20.7484 21.1972L10.7628 21.7344ZM11.0027 20.0809C11.1913 19.5511 11.4832 19.0639 11.8614 18.6477L19.262 25.3732C19.7737 24.8101 20.1686 24.151 20.4237 23.4342L11.0027 20.0809ZM11.8614 18.6477C12.2397 18.2315 12.6968 17.8945 13.2062 17.6563L17.4425 26.7146C18.1318 26.3923 18.7502 25.9363 19.262 25.3732L11.8614 18.6477ZM13.2062 17.6563C13.7156 17.418 14.2673 17.2832 14.8292 17.2598L15.2467 27.251C16.007 27.2193 16.7533 27.0369 17.4425 26.7146L13.2062 17.6563ZM14.8292 17.2598C15.3912 17.2363 15.9522 17.3246 16.4797 17.5195L13.0137 26.8996C13.7274 27.1633 14.4864 27.2828 15.2467 27.251L14.8292 17.2598ZM16.4797 17.5195C17.0072 17.7144 17.4908 18.0121 17.9025 18.3953L11.0888 25.7147C11.6457 26.2332 12.3 26.6359 13.0137 26.8996L16.4797 17.5195ZM17.859 18.3553L9.60899 10.8553L2.88226 18.2547L11.1323 25.7547L17.859 18.3553ZM9.60866 10.855C10.2434 11.432 10.6887 12.1875 10.8861 13.0223L1.1543 15.3228C1.42129 16.4522 2.02379 17.4744 2.88259 18.255L9.60866 10.855ZM10.8861 13.0223C11.0834 13.8571 11.0235 14.732 10.7143 15.5321L1.38673 11.9271C0.968344 13.0096 0.887318 14.1934 1.1543 15.3228L10.8861 13.0223ZM10.7143 15.5321C10.4051 16.3323 9.86092 17.0201 9.15348 17.5052L3.49842 9.25772C2.54128 9.91401 1.80512 10.8446 1.38673 11.9271L10.7143 15.5321ZM9.15348 17.5052C8.44603 17.9902 7.60834 18.2499 6.75053 18.25L6.74947 8.25C5.58891 8.25012 4.45556 8.60143 3.49842 9.25772L9.15348 17.5052ZM6.75 18.25H10.125V8.25H6.75V18.25ZM10.1307 18.25C12.5484 18.2473 14.8664 17.2856 16.576 15.576L9.50491 8.50491C9.66789 8.34194 9.88885 8.25026 10.1193 8.25L10.1307 18.25ZM16.576 15.576C18.2856 13.8664 19.2473 11.5484 19.25 9.13067L9.25 9.11933C9.25026 8.88885 9.34194 8.66789 9.50491 8.50491L16.576 15.576ZM19.25 9.125C19.25 8.82539 19.2344 8.54804 19.2117 8.29732L9.25272 9.20268C9.25243 9.19946 9.25 9.17148 9.25 9.125H19.25ZM14.2322 3.75H6.75V13.75H14.2322V3.75ZM6.75 3.75C7.87717 3.75 8.95818 4.19777 9.7552 4.9948L2.68414 12.0659C3.76247 13.1442 5.225 13.75 6.75 13.75V3.75ZM9.7552 4.9948C10.5522 5.79182 11 6.87283 11 8H1C1 9.525 1.6058 10.9875 2.68414 12.0659L9.7552 4.9948ZM11 8C11 9.12717 10.5522 10.2082 9.7552 11.0052L2.68414 3.93414C1.6058 5.01247 1 6.475 1 8H11ZM9.7552 11.0052C8.95818 11.8022 7.87717 12.25 6.75 12.25V2.25C5.225 2.25 3.76247 2.8558 2.68414 3.93414L9.7552 11.0052ZM6.75 12.25H13.7972V2.25H6.75V12.25ZM18.2508 4.97727C17.4867 3.47986 16.3237 2.22265 14.8903 1.34436L9.66581 9.87109C9.52836 9.78687 9.41684 9.66631 9.34357 9.52273L18.2508 4.97727ZM14.8903 1.34436C13.4568 0.466064 11.8086 0.000834942 10.1275 7.15256e-07L10.1225 10C9.96132 9.99992 9.80327 9.95531 9.66581 9.87109L14.8903 1.34436ZM10.125 0H6.75V10H10.125V0ZM6.75 0C7.87717 0 8.95818 0.447769 9.7552 1.2448L2.68414 8.31586C3.76247 9.3942 5.225 10 6.75 10V0ZM9.7552 1.2448C10.5522 2.04182 11 3.12283 11 4.25H1C1 5.775 1.6058 7.23753 2.68414 8.31586L9.7552 1.2448ZM11 4.25C11 5.37717 10.5522 6.45818 9.7552 7.2552L2.68414 0.184136C1.6058 1.26247 1 2.725 1 4.25H11ZM9.7552 7.2552C8.95818 8.05223 7.87717 8.5 6.75 8.5V-1.5C5.225 -1.5 3.76247 -0.894196 2.68414 0.184136L9.7552 7.2552ZM6.75 8.5H18.75V-1.5H6.75V8.5ZM18.75 8.5C17.6228 8.5 16.5418 8.05223 15.7448 7.2552L22.8159 0.184136C21.7375 -0.894199 20.275 -1.5 18.75 -1.5V8.5ZM15.7448 7.2552C14.9478 6.45817 14.5 5.37716 14.5 4.25H24.5C24.5 2.72501 23.8942 1.26248 22.8159 0.184136L15.7448 7.2552ZM14.5 4.25C14.5 3.12284 14.9478 2.04183 15.7448 1.2448L22.8159 8.31586C23.8942 7.23752 24.5 5.77499 24.5 4.25H14.5ZM15.7448 1.2448C16.5418 0.447765 17.6228 0 18.75 0V10C20.275 10 21.7375 9.3942 22.8159 8.31586L15.7448 1.2448ZM18.75 0H13.9444V10H18.75V0ZM10.5485 8.66986C10.6241 8.73983 10.6816 8.8271 10.7161 8.92419L20.1389 5.57581C19.563 3.95515 18.6027 2.4983 17.3403 1.33014L10.5485 8.66986ZM15.4275 12.25H18.75V2.25H15.4275V12.25ZM18.75 12.25C17.6228 12.25 16.5418 11.8022 15.7448 11.0052L22.8159 3.93414C21.7375 2.8558 20.275 2.25 18.75 2.25V12.25ZM15.7448 11.0052C14.9478 10.2082 14.5 9.12716 14.5 8H24.5C24.5 6.47501 23.8942 5.01248 22.8159 3.93414L15.7448 11.0052Z" fill="#220560" mask="url(#path-1-inside-1_4802_1234)"/>
</svg>
