<svg width="18" height="21" viewBox="0 0 18 21" fill="none" xmlns="http://www.w3.org/2000/svg">
<path d="M15.75 19.5H11.1131C11.892 18.8045 12.6266 18.0608 13.3125 17.2734C15.8859 14.3138 17.25 11.1938 17.25 8.25C17.25 6.06196 16.3808 3.96354 14.8336 2.41637C13.2865 0.869194 11.188 0 9 0C6.81196 0 4.71354 0.869194 3.16637 2.41637C1.61919 3.96354 0.75 6.06196 0.75 8.25C0.75 11.1938 2.11031 14.3138 4.6875 17.2734C5.37338 18.0608 6.10795 18.8045 6.88688 19.5H2.25C2.05109 19.5 1.86032 19.579 1.71967 19.7197C1.57902 19.8603 1.5 20.0511 1.5 20.25C1.5 20.4489 1.57902 20.6397 1.71967 20.7803C1.86032 20.921 2.05109 21 2.25 21H15.75C15.9489 21 16.1397 20.921 16.2803 20.7803C16.421 20.6397 16.5 20.4489 16.5 20.25C16.5 20.0511 16.421 19.8603 16.2803 19.7197C16.1397 19.579 15.9489 19.5 15.75 19.5ZM2.25 8.25C2.25 6.45979 2.96116 4.7429 4.22703 3.47703C5.4929 2.21116 7.20979 1.5 9 1.5C10.7902 1.5 12.5071 2.21116 13.773 3.47703C15.0388 4.7429 15.75 6.45979 15.75 8.25C15.75 13.6153 10.5497 18.0938 9 19.3125C7.45031 18.0938 2.25 13.6153 2.25 8.25ZM12.75 8.25C12.75 7.50832 12.5301 6.7833 12.118 6.16661C11.706 5.54993 11.1203 5.06928 10.4351 4.78545C9.74984 4.50162 8.99584 4.42736 8.26841 4.57205C7.54098 4.71675 6.8728 5.0739 6.34835 5.59835C5.8239 6.1228 5.46675 6.79098 5.32205 7.51841C5.17736 8.24584 5.25162 8.99984 5.53545 9.68506C5.81928 10.3703 6.29993 10.956 6.91661 11.368C7.5333 11.7801 8.25832 12 9 12C9.99456 12 10.9484 11.6049 11.6517 10.9017C12.3549 10.1984 12.75 9.24456 12.75 8.25ZM6.75 8.25C6.75 7.80499 6.88196 7.36998 7.12919 6.99997C7.37643 6.62996 7.72783 6.34157 8.13896 6.17127C8.5501 6.00097 9.0025 5.95642 9.43895 6.04323C9.87541 6.13005 10.2763 6.34434 10.591 6.65901C10.9057 6.97368 11.12 7.37459 11.2068 7.81105C11.2936 8.2475 11.249 8.6999 11.0787 9.11104C10.9084 9.52217 10.62 9.87357 10.25 10.1208C9.88002 10.368 9.44501 10.5 9 10.5C8.40326 10.5 7.83097 10.2629 7.40901 9.84099C6.98705 9.41903 6.75 8.84674 6.75 8.25Z" fill="black"/>
</svg>
