<svg width="41" height="33" viewBox="0 0 41 33" fill="none" xmlns="http://www.w3.org/2000/svg">
<path d="M3.39029 14.1977H7.41225V24.9229H4.73095C4.37538 24.9229 4.03438 25.0642 3.78296 25.3156C3.53154 25.567 3.39029 25.908 3.39029 26.2636C3.39029 26.6191 3.53154 26.9601 3.78296 27.2116C4.03438 27.463 4.37538 27.6042 4.73095 27.6042H36.9066C37.2622 27.6042 37.6032 27.463 37.8546 27.2116C38.106 26.9601 38.2473 26.6191 38.2473 26.2636C38.2473 25.908 38.106 25.567 37.8546 25.3156C37.6032 25.0642 37.2622 24.9229 36.9066 24.9229H34.2253V14.1977H38.2473C38.539 14.1974 38.8226 14.102 39.0552 13.9259C39.2878 13.7498 39.4565 13.5027 39.536 13.222C39.6154 12.9413 39.6011 12.6424 39.4952 12.3706C39.3894 12.0988 39.1978 11.8689 38.9495 11.7158L21.521 0.990581C21.3098 0.860735 21.0667 0.791992 20.8188 0.791992C20.5709 0.791992 20.3278 0.860735 20.1166 0.990581L2.68812 11.7158C2.43981 11.8689 2.2482 12.0988 2.14236 12.3706C2.03652 12.6424 2.02222 12.9413 2.10163 13.222C2.18104 13.5027 2.34982 13.7498 2.58239 13.9259C2.81495 14.102 3.09859 14.1974 3.39029 14.1977ZM10.0936 14.1977H15.4562V24.9229H10.0936V14.1977ZM23.5001 14.1977V24.9229H18.1375V14.1977H23.5001ZM31.544 24.9229H26.1814V14.1977H31.544V24.9229ZM20.8188 3.7054L33.5114 11.5164H8.12615L20.8188 3.7054ZM40.9286 31.6262C40.9286 31.9818 40.7874 32.3228 40.5359 32.5742C40.2845 32.8256 39.9435 32.9669 39.5879 32.9669H2.04964C1.69407 32.9669 1.35307 32.8256 1.10165 32.5742C0.850231 32.3228 0.708984 31.9818 0.708984 31.6262C0.708984 31.2706 0.850231 30.9296 1.10165 30.6782C1.35307 30.4268 1.69407 30.2855 2.04964 30.2855H39.5879C39.9435 30.2855 40.2845 30.4268 40.5359 30.6782C40.7874 30.9296 40.9286 31.2706 40.9286 31.6262Z" fill="#AD6359"/>
</svg>
