<svg width="30" height="30" viewBox="0 0 30 30" fill="none" xmlns="http://www.w3.org/2000/svg">
<rect width="30" height="30" rx="2" fill="#F8F5FF"/>
<path d="M19.6181 10.4162C19.02 9.81211 18.3086 9.33188 17.5246 9.00307C16.7406 8.67425 15.8995 8.5033 15.0494 8.5H15C13.2761 8.5 11.6228 9.18482 10.4038 10.4038C9.18482 11.6228 8.5 13.2761 8.5 15V18.5C8.5 18.8978 8.65804 19.2794 8.93934 19.5607C9.22064 19.842 9.60218 20 10 20H11C11.3978 20 11.7794 19.842 12.0607 19.5607C12.342 19.2794 12.5 18.8978 12.5 18.5V16C12.5 15.6022 12.342 15.2206 12.0607 14.9393C11.7794 14.658 11.3978 14.5 11 14.5H9.5225C9.61893 13.4575 10.0105 12.464 10.6514 11.6361C11.2923 10.8081 12.1558 10.18 13.1409 9.82535C14.126 9.47069 15.1918 9.40416 16.2134 9.63357C17.2349 9.86298 18.1699 10.3788 18.9088 11.1206C19.8118 12.0283 20.3673 13.2244 20.4781 14.5H19C18.6022 14.5 18.2206 14.658 17.9393 14.9393C17.658 15.2206 17.5 15.6022 17.5 16V18.5C17.5 18.8978 17.658 19.2794 17.9393 19.5607C18.2206 19.842 18.6022 20 19 20H20.5C20.5 20.3978 20.342 20.7794 20.0607 21.0607C19.7794 21.342 19.3978 21.5 19 21.5H15.5C15.3674 21.5 15.2402 21.5527 15.1464 21.6464C15.0527 21.7402 15 21.8674 15 22C15 22.1326 15.0527 22.2598 15.1464 22.3536C15.2402 22.4473 15.3674 22.5 15.5 22.5H19C19.663 22.5 20.2989 22.2366 20.7678 21.7678C21.2366 21.2989 21.5 20.663 21.5 20V15C21.5033 14.1497 21.3387 13.3072 21.0158 12.5206C20.6929 11.7341 20.2179 11.0189 19.6181 10.4162ZM11 15.5C11.1326 15.5 11.2598 15.5527 11.3536 15.6464C11.4473 15.7402 11.5 15.8674 11.5 16V18.5C11.5 18.6326 11.4473 18.7598 11.3536 18.8536C11.2598 18.9473 11.1326 19 11 19H10C9.86739 19 9.74022 18.9473 9.64645 18.8536C9.55268 18.7598 9.5 18.6326 9.5 18.5V15.5H11ZM19 19C18.8674 19 18.7402 18.9473 18.6464 18.8536C18.5527 18.7598 18.5 18.6326 18.5 18.5V16C18.5 15.8674 18.5527 15.7402 18.6464 15.6464C18.7402 15.5527 18.8674 15.5 19 15.5H20.5V19H19Z" fill="#2C067B"/>
</svg>
