<svg width="10" height="17" viewBox="0 0 10 17" fill="none" xmlns="http://www.w3.org/2000/svg">
<path d="M8.46896 16.531L0.968958 9.03104C0.899225 8.96139 0.843905 8.87867 0.806162 8.78762C0.768419 8.69657 0.748994 8.59898 0.748994 8.50042C0.748994 8.40186 0.768419 8.30426 0.806162 8.21321C0.843905 8.12216 0.899225 8.03945 0.968958 7.96979L8.46896 0.469792C8.60969 0.329061 8.80056 0.25 8.99958 0.25C9.19861 0.25 9.38948 0.329061 9.53021 0.469792C9.67094 0.610523 9.75 0.801394 9.75 1.00042C9.75 1.19944 9.67094 1.39031 9.53021 1.53104L2.5599 8.50042L9.53021 15.4698C9.59989 15.5395 9.65517 15.6222 9.69288 15.7132C9.73059 15.8043 9.75 15.9019 9.75 16.0004C9.75 16.099 9.73059 16.1965 9.69288 16.2876C9.65517 16.3786 9.59989 16.4614 9.53021 16.531C9.46052 16.6007 9.3778 16.656 9.28675 16.6937C9.19571 16.7314 9.09813 16.7508 8.99958 16.7508C8.90104 16.7508 8.80345 16.7314 8.71241 16.6937C8.62137 16.656 8.53864 16.6007 8.46896 16.531Z" fill="#300787"/>
</svg>
