<svg width="20" height="20" viewBox="0 0 20 20" fill="none" xmlns="http://www.w3.org/2000/svg">
<path d="M19.5318 18.4696L14.8378 13.7765C16.1983 12.1431 16.8767 10.048 16.7319 7.92715C16.5871 5.80629 15.6302 3.82289 14.0603 2.38956C12.4904 0.956234 10.4284 0.183327 8.3031 0.231627C6.17785 0.279927 4.15303 1.14571 2.64986 2.64888C1.14669 4.15205 0.280903 6.17687 0.232603 8.30213C0.184304 10.4274 0.95721 12.4894 2.39054 14.0593C3.82387 15.6293 5.80726 16.5861 7.92813 16.7309C10.049 16.8757 12.144 16.1973 13.7774 14.8368L18.4706 19.5308C18.5403 19.6005 18.623 19.6558 18.714 19.6935C18.8051 19.7312 18.9026 19.7506 19.0012 19.7506C19.0997 19.7506 19.1973 19.7312 19.2884 19.6935C19.3794 19.6558 19.4621 19.6005 19.5318 19.5308C19.6015 19.4612 19.6568 19.3784 19.6945 19.2874C19.7322 19.1963 19.7516 19.0988 19.7516 19.0002C19.7516 18.9017 19.7322 18.8041 19.6945 18.713C19.6568 18.622 19.6015 18.5393 19.5318 18.4696ZM1.75119 8.50021C1.75119 7.16519 2.14707 5.86015 2.88877 4.75011C3.63047 3.64008 4.68468 2.77492 5.91808 2.26403C7.15148 1.75314 8.50868 1.61946 9.81805 1.87991C11.1274 2.14036 12.3302 2.78324 13.2742 3.72724C14.2182 4.67125 14.861 5.87398 15.1215 7.18335C15.3819 8.49273 15.2483 9.84993 14.7374 11.0833C14.2265 12.3167 13.3613 13.3709 12.2513 14.1126C11.1413 14.8543 9.83622 15.2502 8.50119 15.2502C6.71159 15.2482 4.99585 14.5364 3.73041 13.271C2.46497 12.0056 1.75318 10.2898 1.75119 8.50021Z" fill="#72727A"/>
</svg>
