<svg width="18" height="18" viewBox="0 0 18 18" fill="none" xmlns="http://www.w3.org/2000/svg">
<path d="M18 11.2496V16.4996C18 16.8974 17.842 17.279 17.5607 17.5603C17.2794 17.8416 16.8978 17.9996 16.5 17.9996H1.5C1.10218 17.9996 0.720644 17.8416 0.43934 17.5603C0.158035 17.279 0 16.8974 0 16.4996V11.2496C0 11.0507 0.0790178 10.8599 0.21967 10.7193C0.360322 10.5786 0.551088 10.4996 0.75 10.4996C0.948912 10.4996 1.13968 10.5786 1.28033 10.7193C1.42098 10.8599 1.5 11.0507 1.5 11.2496V16.4996H16.5V11.2496C16.5 11.0507 16.579 10.8599 16.7197 10.7193C16.8603 10.5786 17.0511 10.4996 17.25 10.4996C17.4489 10.4996 17.6397 10.5786 17.7803 10.7193C17.921 10.8599 18 11.0507 18 11.2496ZM5.78063 5.03024L8.25 2.55993V11.2496C8.25 11.4485 8.32902 11.6393 8.46967 11.7799C8.61032 11.9206 8.80109 11.9996 9 11.9996C9.19891 11.9996 9.38968 11.9206 9.53033 11.7799C9.67098 11.6393 9.75 11.4485 9.75 11.2496V2.55993L12.2194 5.03024C12.3601 5.17097 12.551 5.25003 12.75 5.25003C12.949 5.25003 13.1399 5.17097 13.2806 5.03024C13.4214 4.88951 13.5004 4.69864 13.5004 4.49961C13.5004 4.30059 13.4214 4.10972 13.2806 3.96899L9.53063 0.218988C9.46097 0.149256 9.37825 0.0939369 9.2872 0.0561936C9.19616 0.0184504 9.09856 -0.000976562 9 -0.000976562C8.90144 -0.000976562 8.80384 0.0184504 8.7128 0.0561936C8.62175 0.0939369 8.53903 0.149256 8.46937 0.218988L4.71937 3.96899C4.57864 4.10972 4.49958 4.30059 4.49958 4.49961C4.49958 4.69864 4.57864 4.88951 4.71937 5.03024C4.86011 5.17097 5.05098 5.25003 5.25 5.25003C5.44902 5.25003 5.63989 5.17097 5.78063 5.03024Z" fill="#F6F6F7"/>
</svg>
