<svg width="291" height="40" viewBox="0 0 291 40" fill="none" xmlns="http://www.w3.org/2000/svg">
<path d="M289.652 33.3511C290.398 32.9913 290.711 32.0947 290.351 31.3485L284.487 19.1885C284.127 18.4423 283.231 18.1291 282.485 18.4889C281.738 18.8487 281.425 19.7454 281.785 20.4916L286.997 31.3004L276.188 36.5127C275.442 36.8726 275.129 37.7692 275.489 38.5154C275.849 39.2616 276.745 39.5748 277.492 39.215L289.652 33.3511ZM148.562 2.00815L148.547 3.50808L148.562 2.00815ZM1 32C1.48889 33.4181 1.48888 33.4181 1.48887 33.4181C1.48888 33.4181 1.48888 33.4181 1.48889 33.4181C1.48891 33.4181 1.48896 33.4181 1.48903 33.418C1.48917 33.418 1.4894 33.4179 1.48973 33.4178C1.4904 33.4176 1.49144 33.4172 1.49287 33.4167C1.49573 33.4157 1.50011 33.4142 1.50601 33.4122C1.51782 33.4081 1.53569 33.402 1.55958 33.3938C1.60735 33.3774 1.67914 33.3529 1.77441 33.3204C1.96496 33.2555 2.24941 33.159 2.6234 33.0331C3.37139 32.7814 4.47749 32.4123 5.90672 31.9442L4.97291 29.0932C3.53559 29.564 2.42178 29.9356 1.66649 30.1898C1.28885 30.3169 1.00083 30.4146 0.806809 30.4807C0.709798 30.5138 0.636286 30.5389 0.58682 30.5559C0.562087 30.5644 0.543366 30.5708 0.530724 30.5752C0.524403 30.5773 0.519602 30.579 0.51633 30.5801C0.514693 30.5807 0.513439 30.5811 0.512568 30.5814C0.512133 30.5816 0.511793 30.5817 0.511549 30.5818C0.511428 30.5818 0.51133 30.5818 0.511256 30.5819C0.511219 30.5819 0.511181 30.5819 0.511163 30.5819C0.511131 30.5819 0.511106 30.5819 1 32ZM14.8843 29.0796C17.5717 28.2425 20.6076 27.3139 23.9402 26.3206L23.0833 23.4456C19.7381 24.4426 16.6904 25.3749 13.9922 26.2153L14.8843 29.0796ZM32.9872 23.6821C35.877 22.8578 38.9131 22.0092 42.0728 21.1484L41.2843 18.2539C38.1125 19.118 35.0648 19.9698 32.1642 20.7972L32.9872 23.6821ZM51.1712 18.7295C54.1457 17.9585 57.1999 17.1865 60.3179 16.4219L59.6033 13.5082C56.4719 14.2762 53.405 15.0513 50.4185 15.8254L51.1712 18.7295ZM69.4945 14.2391C72.5219 13.5419 75.5921 12.858 78.6921 12.1943L78.064 9.26075C74.9481 9.92791 71.8628 10.6151 68.8212 11.3156L69.4945 14.2391ZM87.9262 10.298C91.0009 9.69441 94.0917 9.11643 97.1863 8.57035L96.665 5.61599C93.5503 6.16562 90.4407 6.74713 87.3483 7.35417L87.9262 10.298ZM106.475 7.03332C109.595 6.5527 112.707 6.11106 115.797 5.71485L115.416 2.7392C112.298 3.13886 109.162 3.58409 106.018 4.06829L106.475 7.03332ZM125.133 4.65515C128.3 4.34479 131.43 4.09112 134.509 3.90137L134.324 0.907058C131.207 1.09921 128.041 1.35587 124.84 1.66944L125.133 4.65515ZM143.875 3.5258C145.452 3.4992 147.01 3.49294 148.547 3.50808L148.577 0.508226C147.012 0.492808 145.427 0.499204 143.824 0.52623L143.875 3.5258ZM148.547 3.50808C150.221 3.52457 151.922 3.56698 153.646 3.63379L153.762 0.636043C152.011 0.568182 150.281 0.525021 148.577 0.508226L148.547 3.50808ZM163.84 4.28027C167.181 4.56789 170.581 4.92919 174.019 5.35425L174.387 2.37692C170.915 1.94774 167.479 1.58243 164.097 1.29132L163.84 4.28027ZM184.173 6.77059C187.533 7.28963 190.912 7.8585 194.291 8.46828L194.824 5.51596C191.422 4.90205 188.018 4.32894 184.631 3.80574L184.173 6.77059ZM204.369 10.4027C207.74 11.0868 211.094 11.803 214.413 12.5423L215.065 9.61404C211.729 8.87094 208.356 8.15074 204.965 7.46259L204.369 10.4027ZM224.417 14.8606C227.802 15.6746 231.129 16.5036 234.377 17.3374L235.123 14.4316C231.861 13.5943 228.519 12.7615 225.119 11.9438L224.417 14.8606ZM244.31 19.9622C247.742 20.8948 251.05 21.8196 254.204 22.7218L255.029 19.8374C251.863 18.9318 248.542 18.0035 245.096 17.0671L244.31 19.9622ZM264.08 25.6157C267.685 26.6974 270.98 27.7137 273.902 28.6327L274.802 25.7708C271.868 24.8482 268.561 23.828 264.942 22.7422L264.08 25.6157ZM283.701 31.7932C285.251 32.307 286.454 32.7134 287.268 32.9909C287.676 33.1297 287.986 33.2363 288.194 33.308C288.297 33.3439 288.376 33.3711 288.428 33.3892C288.454 33.3982 288.474 33.405 288.487 33.4095C288.493 33.4118 288.498 33.4135 288.501 33.4146C288.503 33.4151 288.504 33.4155 288.504 33.4158C288.505 33.4159 288.505 33.416 288.505 33.416C288.505 33.4161 288.505 33.4161 288.505 33.4161C288.505 33.4161 288.505 33.4161 288.505 33.4161C288.505 33.4161 288.505 33.4161 289 32C289.495 30.5839 289.495 30.5839 289.495 30.5839C289.495 30.5839 289.495 30.5839 289.495 30.5839C289.494 30.5838 289.494 30.5838 289.494 30.5837C289.494 30.5837 289.494 30.5835 289.493 30.5834C289.492 30.583 289.491 30.5826 289.489 30.5819C289.485 30.5807 289.48 30.5789 289.473 30.5765C289.46 30.5717 289.439 30.5646 289.412 30.5552C289.358 30.5365 289.278 30.5087 289.172 30.4722C288.961 30.3992 288.647 30.2914 288.236 30.1513C287.414 29.8712 286.204 29.4622 284.645 28.9456L283.701 31.7932Z" fill="#69ECBE"/>
</svg>
