<svg width="26" height="23" viewBox="0 0 26 23" fill="none" xmlns="http://www.w3.org/2000/svg">
<g clip-path="url(#clip0_9936_18244)">
<path d="M23.9 0H1.34C0.6 0 0 0.6 0 1.34V20.77C0 21.51 0.6 22.11 1.34 22.11H23.9C24.64 22.11 25.24 21.51 25.24 20.77V1.34C25.24 0.6 24.64 0 23.9 0ZM21.67 2.45C18.53 5.44 15.45 8.37 12.47 11.21C9.73 8.55 6.68 5.57 3.47 2.45C9.64 2.45 15.61 2.45 21.67 2.45ZM1.79 4.26C4.08 6.53 6.41 8.83 8.74 11.14C6.45 13.38 4.12 15.68 1.79 17.96C1.79 13.42 1.79 8.77 1.79 4.26ZM3.6 19.66C5.95 17.37 8.27 15.11 10.6 12.84C11.15 13.24 11.87 14.18 12.62 14.2C13.32 14.22 14.05 13.27 14.77 12.75C17 15 19.29 17.3 21.63 19.66C15.64 19.66 9.64 19.66 3.6 19.66ZM23.45 18.12C21.05 15.75 18.73 13.47 16.51 11.28C18.86 8.96 21.21 6.64 23.45 4.43C23.45 8.76 23.45 13.4 23.45 18.12Z" fill="#20CE91"/>
</g>
<defs>
<clipPath id="clip0_9936_18244">
<rect width="25.24" height="22.11" fill="white"/>
</clipPath>
</defs>
</svg>
