<svg width="24" height="25" viewBox="0 0 24 25" fill="none" xmlns="http://www.w3.org/2000/svg">
<g clip-path="url(#clip0_27_15)">
<path d="M0 18.4998C0 19.2071 0.280952 19.8854 0.781049 20.3855C1.28115 20.8856 1.95942 21.1665 2.66667 21.1665H21.3333C22.0406 21.1665 22.7189 20.8856 23.219 20.3855C23.719 19.8854 24 19.2071 24 18.4998V15.1665H0V18.4998Z" fill="#138808"/>
<path d="M24 9.8335V6.50016C24 5.79292 23.719 5.11464 23.219 4.61454C22.7189 4.11445 22.0406 3.8335 21.3333 3.8335H2.66667C1.95942 3.8335 1.28115 4.11445 0.781049 4.61454C0.280952 5.11464 0 5.79292 0 6.50016L0 9.8335H24Z" fill="#FF9933"/>
<path d="M0 9.61133H24V15.3893H0V9.61133Z" fill="#F7F7F7"/>
<path d="M12 15.1668C13.4728 15.1668 14.6667 13.9729 14.6667 12.5002C14.6667 11.0274 13.4728 9.8335 12 9.8335C10.5273 9.8335 9.33337 11.0274 9.33337 12.5002C9.33337 13.9729 10.5273 15.1668 12 15.1668Z" fill="#000080"/>
<path d="M12 14.75C13.2426 14.75 14.25 13.7426 14.25 12.5C14.25 11.2574 13.2426 10.25 12 10.25C10.7574 10.25 9.75 11.2574 9.75 12.5C9.75 13.7426 10.7574 14.75 12 14.75Z" fill="#F7F7F7"/>
<path d="M12.0667 11.6667L12 12.1L11.9334 11.6667L12 10.3667L12.0667 11.6667ZM11.448 10.4394L11.72 11.712L11.8967 12.1134L11.8487 11.678L11.448 10.4394ZM10.9334 10.6527L11.5254 11.8114L11.8 12.1534L11.6414 11.7447L10.9334 10.6527ZM10.4914 10.9914L11.3634 11.958L11.7174 12.2174L11.458 11.8634L10.4914 10.9914ZM10.1527 11.4334L11.2447 12.1414L11.6534 12.3L11.3114 12.0254L10.1527 11.4334ZM9.93937 11.948L11.178 12.3487L11.6134 12.3967L11.212 12.22L9.93937 11.948ZM9.8667 12.5L11.1667 12.5667L11.6 12.5L11.1667 12.4334L9.8667 12.5ZM9.93937 13.052L11.212 12.78L11.6134 12.6034L11.178 12.6514L9.93937 13.052ZM10.1527 13.5667L11.3114 12.9747L11.6534 12.7L11.2447 12.8587L10.1527 13.5667ZM10.4914 14.0087L11.458 13.1367L11.7174 12.7827L11.3634 13.042L10.4914 14.0087ZM10.9334 14.3474L11.6414 13.2554L11.8 12.8467L11.5254 13.1887L10.9334 14.3474ZM11.448 14.5607L11.8487 13.322L11.8967 12.8867L11.72 13.288L11.448 14.5607ZM12 14.6334L12.0667 13.3334L12 12.9L11.9334 13.3334L12 14.6334ZM12.552 14.5607L12.28 13.288L12.1034 12.8867L12.1514 13.322L12.552 14.5607ZM13.0667 14.3474L12.4747 13.1887L12.2 12.8467L12.3587 13.2554L13.0667 14.3474ZM13.5087 14.0087L12.6367 13.042L12.2827 12.7827L12.542 13.1367L13.5087 14.0087ZM13.8474 13.5667L12.7554 12.8587L12.3467 12.7L12.6887 12.9747L13.8474 13.5667ZM14.0607 13.052L12.822 12.6514L12.3867 12.6034L12.788 12.78L14.0607 13.052ZM14.1334 12.5L12.8334 12.4334L12.4 12.5L12.8334 12.5667L14.1334 12.5ZM14.0607 11.948L12.788 12.22L12.3867 12.3967L12.822 12.3487L14.0607 11.948ZM13.8474 11.4334L12.6887 12.0254L12.3467 12.3L12.7554 12.1414L13.8474 11.4334ZM13.5087 10.9914L12.542 11.8634L12.2827 12.2174L12.6367 11.958L13.5087 10.9914ZM13.0667 10.6527L12.3587 11.7447L12.2 12.1534L12.4747 11.8114L13.0667 10.6527ZM12.552 10.4394L12.1514 11.678L12.1034 12.1134L12.28 11.712L12.552 10.4394Z" fill="#6666B3"/>
<path d="M11.7066 10.4058C11.7802 10.4058 11.8399 10.3461 11.8399 10.2725C11.8399 10.1989 11.7802 10.1392 11.7066 10.1392C11.6329 10.1392 11.5732 10.1989 11.5732 10.2725C11.5732 10.3461 11.6329 10.4058 11.7066 10.4058Z" fill="#000080"/>
<path d="M11.1399 10.5577C11.2136 10.5577 11.2733 10.498 11.2733 10.4243C11.2733 10.3507 11.2136 10.291 11.1399 10.291C11.0663 10.291 11.0066 10.3507 11.0066 10.4243C11.0066 10.498 11.0663 10.5577 11.1399 10.5577Z" fill="#000080"/>
<path d="M10.632 10.8507C10.7056 10.8507 10.7653 10.791 10.7653 10.7173C10.7653 10.6437 10.7056 10.584 10.632 10.584C10.5584 10.584 10.4987 10.6437 10.4987 10.7173C10.4987 10.791 10.5584 10.8507 10.632 10.8507Z" fill="#000080"/>
<path d="M10.2173 11.2652C10.291 11.2652 10.3507 11.2055 10.3507 11.1319C10.3507 11.0582 10.291 10.9985 10.2173 10.9985C10.1437 10.9985 10.084 11.0582 10.084 11.1319C10.084 11.2055 10.1437 11.2652 10.2173 11.2652Z" fill="#000080"/>
<path d="M9.92459 11.773C9.99823 11.773 10.0579 11.7133 10.0579 11.6397C10.0579 11.566 9.99823 11.5063 9.92459 11.5063C9.85096 11.5063 9.79126 11.566 9.79126 11.6397C9.79126 11.7133 9.85096 11.773 9.92459 11.773Z" fill="#000080"/>
<path d="M9.77262 12.3399C9.84625 12.3399 9.90595 12.2802 9.90595 12.2066C9.90595 12.1329 9.84625 12.0732 9.77262 12.0732C9.69898 12.0732 9.63928 12.1329 9.63928 12.2066C9.63928 12.2802 9.69898 12.3399 9.77262 12.3399Z" fill="#000080"/>
<path d="M9.77262 12.9263C9.84625 12.9263 9.90595 12.8666 9.90595 12.793C9.90595 12.7194 9.84625 12.6597 9.77262 12.6597C9.69898 12.6597 9.63928 12.7194 9.63928 12.793C9.63928 12.8666 9.69898 12.9263 9.77262 12.9263Z" fill="#000080"/>
<path d="M9.92459 13.4932C9.99823 13.4932 10.0579 13.4335 10.0579 13.3599C10.0579 13.2863 9.99823 13.2266 9.92459 13.2266C9.85096 13.2266 9.79126 13.2863 9.79126 13.3599C9.79126 13.4335 9.85096 13.4932 9.92459 13.4932Z" fill="#000080"/>
<path d="M10.2173 14.001C10.291 14.001 10.3507 13.9413 10.3507 13.8677C10.3507 13.7941 10.291 13.7344 10.2173 13.7344C10.1437 13.7344 10.084 13.7941 10.084 13.8677C10.084 13.9413 10.1437 14.001 10.2173 14.001Z" fill="#000080"/>
<path d="M10.632 14.4156C10.7056 14.4156 10.7653 14.3559 10.7653 14.2823C10.7653 14.2086 10.7056 14.1489 10.632 14.1489C10.5584 14.1489 10.4987 14.2086 10.4987 14.2823C10.4987 14.3559 10.5584 14.4156 10.632 14.4156Z" fill="#000080"/>
<path d="M11.1399 14.7086C11.2136 14.7086 11.2733 14.6489 11.2733 14.5752C11.2733 14.5016 11.2136 14.4419 11.1399 14.4419C11.0663 14.4419 11.0066 14.5016 11.0066 14.5752C11.0066 14.6489 11.0663 14.7086 11.1399 14.7086Z" fill="#000080"/>
<path d="M11.7066 14.8604C11.7802 14.8604 11.8399 14.8007 11.8399 14.7271C11.8399 14.6534 11.7802 14.5938 11.7066 14.5938C11.6329 14.5938 11.5732 14.6534 11.5732 14.7271C11.5732 14.8007 11.6329 14.8604 11.7066 14.8604Z" fill="#000080"/>
<path d="M12.2932 14.8604C12.3669 14.8604 12.4266 14.8007 12.4266 14.7271C12.4266 14.6534 12.3669 14.5938 12.2932 14.5938C12.2196 14.5938 12.1599 14.6534 12.1599 14.7271C12.1599 14.8007 12.2196 14.8604 12.2932 14.8604Z" fill="#000080"/>
<path d="M12.8599 14.7086C12.9335 14.7086 12.9932 14.6489 12.9932 14.5752C12.9932 14.5016 12.9335 14.4419 12.8599 14.4419C12.7863 14.4419 12.7266 14.5016 12.7266 14.5752C12.7266 14.6489 12.7863 14.7086 12.8599 14.7086Z" fill="#000080"/>
<path d="M13.368 14.4156C13.4416 14.4156 13.5013 14.3559 13.5013 14.2823C13.5013 14.2086 13.4416 14.1489 13.368 14.1489C13.2943 14.1489 13.2346 14.2086 13.2346 14.2823C13.2346 14.3559 13.2943 14.4156 13.368 14.4156Z" fill="#000080"/>
<path d="M13.7826 14.001C13.8563 14.001 13.916 13.9413 13.916 13.8677C13.916 13.7941 13.8563 13.7344 13.7826 13.7344C13.709 13.7344 13.6493 13.7941 13.6493 13.8677C13.6493 13.9413 13.709 14.001 13.7826 14.001Z" fill="#000080"/>
<path d="M14.0752 13.4932C14.1489 13.4932 14.2086 13.4335 14.2086 13.3599C14.2086 13.2863 14.1489 13.2266 14.0752 13.2266C14.0016 13.2266 13.9419 13.2863 13.9419 13.3599C13.9419 13.4335 14.0016 13.4932 14.0752 13.4932Z" fill="#000080"/>
<path d="M14.2273 12.9263C14.301 12.9263 14.3607 12.8666 14.3607 12.793C14.3607 12.7194 14.301 12.6597 14.2273 12.6597C14.1537 12.6597 14.094 12.7194 14.094 12.793C14.094 12.8666 14.1537 12.9263 14.2273 12.9263Z" fill="#000080"/>
<path d="M14.2273 12.3399C14.301 12.3399 14.3607 12.2802 14.3607 12.2066C14.3607 12.1329 14.301 12.0732 14.2273 12.0732C14.1537 12.0732 14.094 12.1329 14.094 12.2066C14.094 12.2802 14.1537 12.3399 14.2273 12.3399Z" fill="#000080"/>
<path d="M14.0752 11.773C14.1489 11.773 14.2086 11.7133 14.2086 11.6397C14.2086 11.566 14.1489 11.5063 14.0752 11.5063C14.0016 11.5063 13.9419 11.566 13.9419 11.6397C13.9419 11.7133 14.0016 11.773 14.0752 11.773Z" fill="#000080"/>
<path d="M13.7826 11.2652C13.8563 11.2652 13.916 11.2055 13.916 11.1319C13.916 11.0582 13.8563 10.9985 13.7826 10.9985C13.709 10.9985 13.6493 11.0582 13.6493 11.1319C13.6493 11.2055 13.709 11.2652 13.7826 11.2652Z" fill="#000080"/>
<path d="M13.368 10.8507C13.4416 10.8507 13.5013 10.791 13.5013 10.7173C13.5013 10.6437 13.4416 10.584 13.368 10.584C13.2943 10.584 13.2346 10.6437 13.2346 10.7173C13.2346 10.791 13.2943 10.8507 13.368 10.8507Z" fill="#000080"/>
<path d="M12.8599 10.5577C12.9335 10.5577 12.9932 10.498 12.9932 10.4243C12.9932 10.3507 12.9335 10.291 12.8599 10.291C12.7863 10.291 12.7266 10.3507 12.7266 10.4243C12.7266 10.498 12.7863 10.5577 12.8599 10.5577Z" fill="#000080"/>
<path d="M12.2932 10.4058C12.3669 10.4058 12.4266 10.3461 12.4266 10.2725C12.4266 10.1989 12.3669 10.1392 12.2932 10.1392C12.2196 10.1392 12.1599 10.1989 12.1599 10.2725C12.1599 10.3461 12.2196 10.4058 12.2932 10.4058Z" fill="#000080"/>
<path d="M11.9999 13.0999C12.3313 13.0999 12.5999 12.8313 12.5999 12.4999C12.5999 12.1685 12.3313 11.8999 11.9999 11.8999C11.6685 11.8999 11.3999 12.1685 11.3999 12.4999C11.3999 12.8313 11.6685 13.0999 11.9999 13.0999Z" fill="#000080"/>
</g>
<defs>
<clipPath id="clip0_27_15">
<rect width="24" height="24" fill="white" transform="translate(0 0.5)"/>
</clipPath>
</defs>
</svg>
