<svg width="33" height="32" viewBox="0 0 33 32" fill="none" xmlns="http://www.w3.org/2000/svg">
<path d="M0.5625 31.9375V0.0625H32.4375V31.9375H0.5625Z" stroke="#EFECE9" stroke-width="0.125"/>
<path d="M20.4247 5C22.1209 5.45522 23.6675 6.34857 24.9093 7.59039C26.1511 8.83221 27.0445 10.3788 27.4997 12.075" stroke="#1CCE90" stroke-width="2" stroke-linecap="round" stroke-linejoin="round"/>
<path d="M19.3878 8.8623C20.408 9.13324 21.3384 9.66903 22.0847 10.4154C22.8311 11.1618 23.3669 12.0922 23.6378 13.1123" stroke="#1CCE90" stroke-width="2" stroke-linecap="round" stroke-linejoin="round"/>
<path d="M12.0625 15.6C13.0915 17.7251 14.8098 19.439 16.9375 20.4625C17.0944 20.5369 17.268 20.569 17.4412 20.5559C17.6143 20.5427 17.7811 20.4847 17.925 20.3875L21.05 18.3C21.1881 18.2064 21.3476 18.1493 21.5137 18.134C21.6799 18.1187 21.8472 18.1457 22 18.2125L27.85 20.725C28.0499 20.8083 28.217 20.9549 28.3254 21.1424C28.4338 21.3298 28.4776 21.5477 28.45 21.7625C28.2646 23.2097 27.5582 24.5397 26.4631 25.5038C25.3679 26.4678 23.959 26.9997 22.5 27C17.9913 27 13.6673 25.209 10.4792 22.0209C7.29107 18.8327 5.5 14.5087 5.5 10C5.50033 8.54104 6.03227 7.13214 6.99628 6.03699C7.9603 4.94183 9.29033 4.23546 10.7375 4.05004C10.9523 4.02245 11.1702 4.06623 11.3577 4.17465C11.5452 4.28307 11.6918 4.4501 11.775 4.65004L14.2875 10.5125C14.3528 10.663 14.3802 10.8272 14.3671 10.9907C14.354 11.1541 14.3009 11.3119 14.2125 11.45L12.125 14.625C12.0321 14.7686 11.9775 14.9337 11.9666 15.1044C11.9556 15.2751 11.9887 15.4457 12.0625 15.6V15.6Z" stroke="#1CCE90" stroke-width="2" stroke-linecap="round" stroke-linejoin="round"/>
</svg>
