<svg width="20" height="21" viewBox="0 0 20 21" fill="none" xmlns="http://www.w3.org/2000/svg">
<path d="M11.6922 4.43295L17.3172 10.058C17.3753 10.116 17.4214 10.1849 17.4529 10.2608C17.4843 10.3367 17.5005 10.418 17.5005 10.5001C17.5005 10.5823 17.4843 10.6636 17.4529 10.7395C17.4214 10.8154 17.3753 10.8843 17.3172 10.9423L11.6922 16.5673C11.5749 16.6846 11.4159 16.7505 11.25 16.7505C11.0841 16.7505 10.9251 16.6846 10.8078 16.5673C10.6905 16.4501 10.6247 16.291 10.6247 16.1251C10.6247 15.9593 10.6905 15.8002 10.8078 15.683L15.3664 11.1251L3.125 11.1251C2.95924 11.1251 2.80027 11.0593 2.68306 10.9421C2.56585 10.8249 2.5 10.6659 2.5 10.5001C2.5 10.3344 2.56585 10.1754 2.68306 10.0582C2.80027 9.94099 2.95924 9.87514 3.125 9.87514L15.3664 9.87514L10.8078 5.31733C10.6905 5.20005 10.6247 5.04099 10.6247 4.87514C10.6247 4.70929 10.6905 4.55023 10.8078 4.43295C10.9251 4.31568 11.0841 4.24979 11.25 4.24979C11.4159 4.24979 11.5749 4.31568 11.6922 4.43295Z" fill="white"/>
</svg>
