<svg width="200" height="200" viewBox="0 0 200 200" fill="none" xmlns="http://www.w3.org/2000/svg">
<path d="M38.452 177.424C72.876 195.424 128.692 195.424 163.116 177.424C197.54 159.424 197.54 130.28 163.116 112.296C128.692 94.312 72.876 94.296 38.452 112.296C4.02797 130.296 4.02797 159.44 38.452 177.424Z" fill="#F5F5F5"/>
<path d="M131.796 163.38C140.829 163.38 148.152 159.152 148.152 153.936C148.152 148.72 140.829 144.492 131.796 144.492C122.763 144.492 115.44 148.72 115.44 153.936C115.44 159.152 122.763 163.38 131.796 163.38Z" fill="#E0E0E0"/>
<path d="M161.684 147.08C169.674 147.08 176.152 143.341 176.152 138.728C176.152 134.115 169.674 130.376 161.684 130.376C153.694 130.376 147.216 134.115 147.216 138.728C147.216 143.341 153.694 147.08 161.684 147.08Z" fill="#E0E0E0"/>
<path d="M148.832 31.5359L151.392 33.0119C151.376 32.8992 151.368 32.7856 151.368 32.6719V31.9319C151.368 30.6119 152.296 30.0799 153.436 30.7319C153.93 31.036 154.351 31.4458 154.668 31.9319C154.856 30.2719 156.156 29.6559 157.736 30.5679C158.636 31.1548 159.385 31.9456 159.922 32.8762C160.46 33.8068 160.77 34.8509 160.828 35.9239V37.0319C160.84 37.4754 160.751 37.9158 160.568 38.3199L162.692 39.5439C163.027 39.7633 163.306 40.0588 163.506 40.4063C163.705 40.7539 163.82 41.1437 163.84 41.5439C163.84 42.2759 163.324 42.5719 162.692 42.2039L148.832 34.2039C148.497 33.9843 148.219 33.6886 148.02 33.3411C147.821 32.9935 147.708 32.6038 147.688 32.2039C147.688 31.4639 148.2 31.1679 148.832 31.5359Z" fill="#EBEBEB"/>
<path d="M137.888 38.988L139.82 40.1C139.807 40.0152 139.801 39.9297 139.8 39.844V39.288C139.8 38.292 140.5 37.888 141.364 38.384C141.733 38.6138 142.049 38.9191 142.292 39.28C142.432 38.028 143.416 37.564 144.608 38.252C145.287 38.6951 145.853 39.2923 146.258 39.9949C146.663 40.6976 146.897 41.486 146.94 42.296V43.132C146.949 43.4654 146.882 43.7965 146.744 44.1L148.344 45.024C148.595 45.1889 148.805 45.4105 148.955 45.6711C149.105 45.9316 149.192 46.2238 149.208 46.524C149.208 47.076 148.808 47.3 148.344 47.024L137.884 40.984C137.632 40.8206 137.422 40.5999 137.272 40.3398C137.122 40.0798 137.036 39.7879 137.02 39.488C137.024 38.936 137.408 38.712 137.888 38.988Z" fill="#EBEBEB"/>
<path d="M31.392 158.312C31.14 158.448 26.428 159.788 24.684 157.48C22.94 155.172 25.836 151.584 24.196 150.26C22.556 148.936 17.976 150.26 16.872 147.48C15.768 144.7 19.04 143.48 17.2 140.68C16.04 138.912 12.8 137.936 12.948 136.28C13.164 133.88 17.592 133.224 21.464 135.804C25.336 138.384 27.136 136.268 28.368 136.096C29.6 135.924 32.244 136.304 32.156 140.616C32.068 144.928 31.392 158.312 31.392 158.312Z" fill="#455A64"/>
<path d="M31.704 152.18C31.6432 152.18 31.5845 152.158 31.5383 152.118C31.4921 152.079 31.4615 152.024 31.452 151.964C30.104 143.78 20.592 137.12 15.644 135.692C15.5791 135.672 15.5246 135.627 15.4918 135.567C15.459 135.508 15.4505 135.438 15.468 135.372C15.4777 135.34 15.4936 135.31 15.5149 135.283C15.5362 135.257 15.5625 135.235 15.5922 135.219C15.622 135.203 15.6546 135.194 15.6882 135.19C15.7218 135.187 15.7557 135.19 15.788 135.2C20.844 136.66 30.588 143.484 31.96 151.88C31.9705 151.947 31.9541 152.016 31.9145 152.071C31.8749 152.127 31.8151 152.164 31.748 152.176L31.704 152.18Z" fill="white"/>
<path d="M20.488 145.328C20.4438 145.328 20.4002 145.317 20.3617 145.295C20.3231 145.273 20.2909 145.242 20.268 145.204C20.2339 145.145 20.2241 145.076 20.2405 145.01C20.2569 144.944 20.2984 144.888 20.356 144.852C20.512 144.76 24.172 142.62 27.776 143.62C27.8087 143.629 27.8393 143.644 27.866 143.665C27.8928 143.685 27.9152 143.711 27.9319 143.741C27.9486 143.77 27.9594 143.802 27.9635 143.836C27.9677 143.869 27.9651 143.903 27.956 143.936C27.9477 143.969 27.9329 144 27.9123 144.027C27.8917 144.054 27.8659 144.077 27.8364 144.093C27.8069 144.11 27.7743 144.121 27.7405 144.125C27.7068 144.129 27.6726 144.126 27.64 144.116C24.248 143.176 20.656 145.272 20.62 145.292C20.5802 145.316 20.5345 145.328 20.488 145.328Z" fill="white"/>
<path d="M168.768 134.8H168.8C168.856 134.789 168.906 134.757 168.938 134.709C168.97 134.662 168.983 134.604 168.972 134.548C168.108 129.976 171.872 121.5 176.908 119.092C176.961 119.067 177.002 119.022 177.022 118.967C177.042 118.912 177.039 118.851 177.014 118.798C176.989 118.745 176.944 118.704 176.889 118.684C176.834 118.664 176.773 118.667 176.72 118.692C171.52 121.172 167.656 129.892 168.544 134.62C168.553 134.672 168.58 134.719 168.622 134.753C168.663 134.786 168.715 134.803 168.768 134.8Z" fill="white"/>
<path d="M168.548 135.664C168.518 135.671 168.486 135.671 168.456 135.664C168.406 135.643 168.367 135.604 168.346 135.555C168.325 135.505 168.324 135.45 168.344 135.4C170.864 129.14 178.904 124.656 183.696 123.168C183.721 123.16 183.748 123.157 183.775 123.16C183.801 123.162 183.827 123.17 183.851 123.183C183.874 123.195 183.895 123.213 183.912 123.233C183.928 123.254 183.941 123.278 183.948 123.304C183.963 123.355 183.958 123.41 183.933 123.457C183.909 123.504 183.866 123.539 183.816 123.556C179.1 125.02 171.188 129.42 168.72 135.556C168.703 135.587 168.678 135.613 168.648 135.632C168.618 135.651 168.584 135.662 168.548 135.664Z" fill="white"/>
<path d="M111.536 124.48C111.578 125.258 111.803 126.016 112.193 126.691C112.583 127.366 113.127 127.939 113.78 128.364C114.16 128.614 114.62 128.711 115.068 128.636C114.996 128.711 114.914 128.776 114.824 128.828L115.364 128.52L115.392 128.5L115.472 128.448C115.508 128.422 115.541 128.392 115.572 128.36L115.632 128.3C115.632 128.28 115.668 128.26 115.684 128.236C115.759 128.132 115.82 128.019 115.868 127.9L115.908 127.792C115.91 127.773 115.91 127.755 115.908 127.736C115.918 127.705 115.926 127.673 115.932 127.64C115.974 127.456 115.994 127.268 115.992 127.08C115.95 126.303 115.725 125.546 115.336 124.872C114.947 124.198 114.404 123.625 113.752 123.2C113.451 123.01 113.104 122.903 112.748 122.892H112.608L112.48 122.916L112.404 122.936H112.356C112.324 122.945 112.293 122.957 112.264 122.972L112.18 123.016L111.712 123.284C111.788 123.245 111.869 123.217 111.952 123.2C111.652 123.556 111.502 124.015 111.536 124.48ZM115.228 128.584H115.268H115.228Z" fill="#5A79C0"/>
<path d="M64.972 150.288L68.136 155.784L68.672 155.472L114.824 128.828C114.914 128.776 114.996 128.711 115.068 128.636C115.358 128.283 115.501 127.832 115.468 127.376C115.425 126.598 115.199 125.841 114.809 125.166C114.419 124.492 113.876 123.918 113.224 123.492C112.922 123.304 112.576 123.2 112.22 123.188C112.124 123.187 112.029 123.197 111.936 123.22C111.853 123.237 111.772 123.265 111.696 123.304L111.656 123.324L64.972 150.288Z" fill="#EBEBEB"/>
<path d="M66.56 150.444C65.32 149.728 64.316 150.308 64.316 151.736C64.358 152.514 64.5831 153.272 64.973 153.947C65.3629 154.622 65.9067 155.195 66.56 155.62C67.796 156.336 68.8 155.756 68.8 154.324C68.7578 153.547 68.5331 152.79 68.1439 152.116C67.7547 151.442 67.212 150.869 66.56 150.444Z" fill="#5A79C0"/>
<path d="M61.74 153.776C61.7554 153.752 61.7743 153.731 61.796 153.712L64.656 150.564L64.68 150.54L64.732 150.484L64.76 150.452C65.16 150.052 65.816 150.028 66.552 150.452C67.204 150.877 67.7467 151.45 68.1359 152.124C68.5251 152.798 68.7498 153.555 68.792 154.332C68.792 155.164 68.452 155.704 67.928 155.876H67.896C67.8422 155.892 67.7874 155.904 67.732 155.912H67.696L63.552 156.816C63.2996 156.858 63.0406 156.802 62.828 156.66C62.4547 156.418 62.1439 156.091 61.9207 155.706C61.6976 155.321 61.5685 154.888 61.544 154.444C61.5306 154.206 61.5999 153.97 61.74 153.776Z" fill="#E0E0E0"/>
<path d="M98.4 133.36L98.476 133.316C98.5625 133.287 98.6547 133.279 98.7451 133.292C98.8355 133.305 98.9214 133.339 98.996 133.392C99.2286 133.543 99.4223 133.746 99.5613 133.986C99.7003 134.226 99.7808 134.495 99.796 134.772C99.8032 134.861 99.79 134.951 99.7574 135.034C99.7248 135.117 99.6737 135.192 99.608 135.252L99.508 135.308L65.44 154.976L63.2 153.68L98.4 133.36Z" fill="#455A64"/>
<path d="M68.6 153.144L65.436 154.972L63.196 153.676L67.48 151.2C67.9846 151.763 68.3661 152.425 68.6 153.144Z" fill="#37474F"/>
<path d="M60.612 155.268L63.2 152.4L63.268 152.324C63.556 152.036 64.02 152.012 64.548 152.324C65.0124 152.623 65.3995 153.027 65.6776 153.504C65.9557 153.981 66.1169 154.517 66.148 155.068C66.148 155.652 65.912 156.032 65.544 156.156H65.52L65.416 156.18L61.6 157.02C61.4605 157.037 61.3193 157.006 61.2 156.932C60.9902 156.794 60.8158 156.609 60.6907 156.392C60.5656 156.174 60.4934 155.93 60.48 155.68C60.4679 155.531 60.5154 155.383 60.612 155.268Z" fill="#5A79C0"/>
<path opacity="0.1" d="M60.612 155.268L63.2 152.4L63.268 152.324C63.556 152.036 64.02 152.012 64.548 152.324C65.0124 152.623 65.3995 153.027 65.6776 153.504C65.9557 153.981 66.1169 154.517 66.148 155.068C66.148 155.652 65.912 156.032 65.544 156.156H65.52L65.416 156.18L61.6 157.02C61.4605 157.037 61.3193 157.006 61.2 156.932C60.9902 156.794 60.8158 156.609 60.6907 156.392C60.5656 156.174 60.4934 155.93 60.48 155.68C60.4679 155.531 60.5154 155.383 60.612 155.268Z" fill="black"/>
<path d="M60.468 155.68C60.4814 155.931 60.5536 156.174 60.6787 156.392C60.8038 156.609 60.9782 156.794 61.188 156.932C61.3067 157.008 61.4489 157.037 61.588 157.016L63.508 156.596C63.812 156.532 64.012 156.248 64.012 155.796C63.9909 155.395 63.8756 155.006 63.6754 154.658C63.4752 154.311 63.1959 154.015 62.86 153.796C62.7288 153.691 62.5659 153.634 62.398 153.634C62.2301 153.634 62.0671 153.691 61.936 153.796L61.884 153.852L60.596 155.268C60.5481 155.325 60.5121 155.39 60.4901 155.461C60.4681 155.532 60.4606 155.606 60.468 155.68Z" fill="#5A79C0"/>
<path opacity="0.1" d="M61.2 155.264C60.8 155.036 60.48 155.22 60.48 155.664C60.4934 155.915 60.5656 156.159 60.6907 156.376C60.8158 156.593 60.9902 156.779 61.2 156.916C61.6 157.144 61.92 156.956 61.92 156.496C61.9035 156.249 61.8299 156.009 61.7049 155.795C61.58 155.582 61.4071 155.4 61.2 155.264Z" fill="black"/>
<path d="M106.868 128.46C106.958 128.418 107.058 128.401 107.158 128.411C107.257 128.421 107.352 128.457 107.432 128.516C107.664 128.666 107.857 128.868 107.996 129.107C108.135 129.345 108.216 129.613 108.232 129.888C108.243 129.987 108.228 130.086 108.187 130.176C108.146 130.266 108.081 130.344 108 130.4L99.6 135.24C99.6658 135.18 99.7169 135.105 99.7494 135.022C99.782 134.939 99.7952 134.849 99.788 134.76C99.7728 134.483 99.6924 134.214 99.5533 133.974C99.4143 133.735 99.2206 133.531 98.988 133.38C98.9134 133.327 98.8275 133.293 98.7371 133.28C98.6468 133.267 98.5546 133.275 98.468 133.304L106.868 128.46Z" fill="#FAFAFA"/>
<path d="M106.636 128.972C106.652 129.248 106.733 129.516 106.872 129.755C107.011 129.994 107.204 130.197 107.436 130.348C107.512 130.417 107.608 130.461 107.71 130.472C107.812 130.484 107.915 130.462 108.004 130.411C108.094 130.36 108.164 130.281 108.206 130.187C108.247 130.093 108.258 129.988 108.236 129.888C108.22 129.613 108.139 129.345 108 129.106C107.861 128.868 107.668 128.666 107.436 128.516C107.36 128.447 107.265 128.404 107.163 128.393C107.062 128.381 106.959 128.403 106.87 128.453C106.781 128.504 106.711 128.581 106.669 128.675C106.627 128.768 106.615 128.872 106.636 128.972Z" fill="#F5F5F5"/>
<path d="M108.4 125.6H108.428L108.46 125.58L111.768 123.672L111.848 123.628C112.072 123.541 112.315 123.511 112.554 123.541C112.793 123.571 113.02 123.66 113.216 123.8C113.8 124.184 114.286 124.7 114.633 125.307C114.981 125.914 115.181 126.594 115.216 127.292C115.243 127.544 115.202 127.799 115.097 128.029C114.992 128.26 114.827 128.459 114.62 128.604L111.272 130.536H111.252C111.025 130.631 110.777 130.667 110.532 130.64C110.287 130.613 110.053 130.523 109.852 130.38C109.268 129.995 108.783 129.478 108.435 128.871C108.088 128.263 107.888 127.583 107.852 126.884C107.827 126.641 107.865 126.396 107.961 126.172C108.056 125.947 108.208 125.75 108.4 125.6Z" fill="#5A79C0"/>
<path opacity="0.05" d="M108.4 125.6H108.428L108.46 125.58L111.768 123.672L111.848 123.628C112.072 123.541 112.315 123.511 112.554 123.541C112.793 123.571 113.02 123.66 113.216 123.8C113.8 124.184 114.286 124.7 114.633 125.307C114.981 125.914 115.181 126.594 115.216 127.292C115.243 127.544 115.202 127.799 115.097 128.029C114.992 128.26 114.827 128.459 114.62 128.604L111.272 130.536H111.252C111.025 130.631 110.777 130.667 110.532 130.64C110.287 130.613 110.053 130.523 109.852 130.38C109.268 129.995 108.783 129.478 108.435 128.871C108.088 128.263 107.888 127.583 107.852 126.884C107.827 126.641 107.865 126.396 107.961 126.172C108.056 125.947 108.208 125.75 108.4 125.6Z" fill="black"/>
<path opacity="0.1" d="M109.876 125.692C108.764 125.048 107.876 125.572 107.876 126.856C107.912 127.555 108.112 128.235 108.459 128.842C108.807 129.45 109.292 129.967 109.876 130.352C110.992 130.996 111.896 130.472 111.896 129.188C111.858 128.488 111.655 127.806 111.304 127.198C110.953 126.591 110.464 126.075 109.876 125.692Z" fill="black"/>
<path d="M59.552 156.472L60.92 155.648C60.9619 155.625 61.0095 155.615 61.057 155.619C61.1045 155.622 61.15 155.639 61.188 155.668C61.297 155.737 61.3878 155.831 61.4525 155.942C61.5173 156.054 61.5542 156.179 61.56 156.308C61.5638 156.354 61.5559 156.4 61.537 156.442C61.5181 156.484 61.4889 156.52 61.452 156.548L60.088 157.372C60.0091 157.414 59.9213 157.436 59.832 157.436C59.6931 157.436 59.5598 157.381 59.4615 157.283C59.3632 157.184 59.308 157.051 59.308 156.912C59.3082 156.824 59.3306 156.738 59.3733 156.661C59.416 156.584 59.4775 156.519 59.552 156.472Z" fill="#455A64"/>
<path d="M59.472 156.532L59.544 156.472C59.5844 156.46 59.627 156.457 59.6686 156.464C59.7102 156.471 59.7497 156.488 59.784 156.512C59.8922 156.581 59.9822 156.676 60.0462 156.787C60.1103 156.898 60.1466 157.024 60.152 157.152C60.1567 157.197 60.1495 157.242 60.1313 157.284C60.1131 157.325 60.0844 157.361 60.048 157.388H60.02H59.992C59.9386 157.409 59.8813 157.419 59.824 157.416C59.685 157.416 59.5517 157.361 59.4535 157.263C59.3552 157.164 59.3 157.031 59.3 156.892C59.3084 156.754 59.3701 156.625 59.472 156.532Z" fill="#263238"/>
<path d="M33.068 160.124L31.672 159.324C31.4396 159.173 31.2461 158.97 31.1071 158.73C30.9681 158.49 30.8876 158.221 30.872 157.944V54.5165C30.8873 54.2397 30.9677 53.9705 31.1067 53.7306C31.2457 53.4908 31.4394 53.2873 31.672 53.1365L95.832 16.0925C96.0796 15.9657 96.3538 15.8997 96.632 15.8997C96.9102 15.8997 97.1844 15.9657 97.432 16.0925L98.828 16.8925C99.0604 17.0435 99.2539 17.2471 99.3929 17.4869C99.5319 17.7266 99.6124 17.9958 99.628 18.2725V121.7C99.6131 121.977 99.5328 122.247 99.3938 122.487C99.2547 122.726 99.0608 122.93 98.828 123.08L34.66 160.124C34.4136 160.251 34.1408 160.316 33.864 160.316C33.5872 160.316 33.3144 160.251 33.068 160.124Z" fill="#7459AF"/>
<path opacity="0.4" d="M99.6 18.148C99.548 17.748 99.2 17.584 98.8 17.816L34.66 54.86C34.426 55.0077 34.2322 55.2111 34.096 55.452L31.104 53.728C31.2402 53.4871 31.434 53.2837 31.668 53.136L95.832 16.092C96.0794 15.9646 96.3537 15.8982 96.632 15.8982C96.9103 15.8982 97.1846 15.9646 97.432 16.092L98.832 16.892C99.0425 17.0341 99.2201 17.2198 99.3526 17.4365C99.4851 17.6532 99.5695 17.8958 99.6 18.148Z" fill="white"/>
<path opacity="0.15" d="M34.5202 160.188C34.5043 160.191 34.488 160.191 34.4722 160.188L34.3922 160.216H34.3602C34.3122 160.216 34.2642 160.24 34.2122 160.252C33.8951 160.312 33.5677 160.286 33.2642 160.176C33.2038 160.153 33.145 160.127 33.0882 160.096L31.6882 159.296C31.4565 159.144 31.2634 158.941 31.1245 158.701C30.9856 158.461 30.9047 158.193 30.8882 157.916V54.5161C30.8973 54.2342 30.9771 53.9591 31.1202 53.7161L34.1122 55.4401C33.9642 55.6812 33.8827 55.9572 33.8762 56.2401V159.668C33.8675 159.818 33.9114 159.967 34.0002 160.088C34.0494 160.15 34.116 160.196 34.1915 160.221C34.267 160.245 34.348 160.246 34.4242 160.224C34.4573 160.215 34.4894 160.203 34.5202 160.188Z" fill="black"/>
<path d="M79.576 35.1359L79.46 35.0639L78.136 34.3039C77.6545 34.0355 77.1312 33.8502 76.588 33.7559C76.36 33.7039 76.156 33.6439 75.976 33.5839C75.7762 33.5186 75.5811 33.4397 75.392 33.3479L75.488 33.2239L74 32.3559C73.8744 32.2859 73.7399 32.2334 73.6 32.1999C73.036 32.0599 72.192 32.3879 71.352 32.2919C71.0463 32.2621 70.7509 32.1652 70.4868 32.0083C70.2227 31.8514 69.9964 31.6382 69.824 31.3839C69.312 30.6959 69.004 29.4919 68.552 28.4919L68.952 27.9119C68.912 27.8869 68.8706 27.8642 68.828 27.8439L67.456 27.0439C67.2245 26.9076 66.9607 26.8358 66.692 26.8359C66.1793 26.863 65.6827 27.0244 65.252 27.3039C61.968 29.2039 61.856 33.7039 60.672 36.6719C59.488 39.6399 57.812 40.5639 56.9 41.8399C55.988 43.1159 55.924 44.0599 53.904 46.8439C51.884 49.6279 51.804 50.3079 51.804 50.8439V54.9919L53.3 55.8559L80.188 40.3239L79.576 35.1359ZM54.92 51.1359C54.572 51.3319 54.284 51.0639 54.284 50.5239C54.2807 50.2657 54.3362 50.0101 54.4464 49.7765C54.5566 49.5429 54.7186 49.3376 54.92 49.1759C55.268 48.9759 55.552 49.2519 55.552 49.7919C55.5549 50.048 55.4995 50.3013 55.39 50.5328C55.2805 50.7642 55.1198 50.9678 54.92 51.1279V51.1359ZM66.732 39.4919C66.5625 39.6156 66.3666 39.6981 66.1597 39.7329C65.9529 39.7677 65.7407 39.7539 65.5401 39.6926C65.3395 39.6313 65.1559 39.5242 65.0038 39.3796C64.8518 39.2351 64.7354 39.0572 64.664 38.8599C63.62 39.0599 62.844 38.0599 62.844 36.3239C62.844 34.2839 63.92 32.0159 65.244 31.2479C65.4138 31.1244 65.6099 31.0421 65.817 31.0075C66.0241 30.9729 66.2364 30.9871 66.4371 31.0488C66.6377 31.1105 66.8213 31.2181 66.9731 31.3631C67.125 31.508 67.241 31.6864 67.312 31.8839C68.356 31.6759 69.128 32.6839 69.128 34.4159C69.128 36.4479 68.06 38.7159 66.732 39.4839V39.4919ZM75.664 39.1559C75.312 39.3599 75.028 39.0879 75.028 38.5479C75.0216 38.2892 75.0758 38.0326 75.1862 37.7985C75.2966 37.5645 75.4603 37.3595 75.664 37.1999C76.016 36.9959 76.3 37.2679 76.3 37.8079C76.3049 38.0653 76.2499 38.3202 76.1396 38.5527C76.0292 38.7852 75.8664 38.989 75.664 39.1479V39.1559Z" fill="#455A64"/>
<path opacity="0.5" d="M54.8 51.868L51.908 50.2C51.8421 50.4082 51.8097 50.6256 51.812 50.844V54.9919L53.308 55.856L54.8 54.9919V51.868Z" fill="#37474F"/>
<path opacity="0.5" d="M57.772 46.6919L59.268 43.2399L56.892 41.8479C56.196 42.8119 55.992 43.5919 55.056 45.1239L57.772 46.6919Z" fill="#37474F"/>
<path opacity="0.5" d="M63.752 39.792L63.944 38.784C63.284 38.508 62.844 37.616 62.844 36.316C62.844 34.584 63.62 32.692 64.664 31.688L62.592 30.488C61.712 32.488 61.392 34.888 60.664 36.676C60.512 37.076 60.348 37.408 60.184 37.728L63.752 39.792Z" fill="#37474F"/>
<path d="M79.576 35.1359L79.46 35.0639C79.0197 34.8596 78.5564 34.7092 78.08 34.6159C77.2981 34.4786 76.5698 34.1268 75.976 33.5999C75.8256 33.4641 75.6622 33.3435 75.488 33.2399C75.3638 33.1662 75.2288 33.1122 75.088 33.0799C74.184 32.8599 72.536 33.8479 71.352 32.3119C71.3378 32.2977 71.3257 32.2815 71.316 32.2639C70.488 31.1519 70.184 28.6639 68.944 27.9319C68.904 27.9069 68.8626 27.8842 68.82 27.8639C68.308 27.6239 67.644 27.6679 66.732 28.1879C63.448 30.0879 63.336 34.5879 62.152 37.5559C60.968 40.5239 59.296 41.4479 58.384 42.7239C57.472 43.9999 57.412 44.9439 55.388 47.7279C53.364 50.5119 53.292 51.1959 53.292 51.7279V55.8799L80.18 40.3479V36.1799C80.2003 35.9647 80.153 35.7485 80.0448 35.5614C79.9365 35.3743 79.7727 35.2256 79.576 35.1359ZM56.4 51.9999C56.048 52.2039 55.764 51.9319 55.764 51.3879C55.7591 51.13 55.814 50.8745 55.9244 50.6414C56.0347 50.4082 56.1975 50.2037 56.4 50.0439C56.752 49.8399 57.032 50.1159 57.032 50.6559C57.0373 50.9135 56.983 51.1688 56.8734 51.402C56.7638 51.6351 56.6018 51.8398 56.4 51.9999ZM66.72 39.4959C66.5505 39.6196 66.3546 39.7021 66.1477 39.7369C65.9408 39.7717 65.7287 39.7579 65.5281 39.6966C65.3275 39.6353 65.1439 39.5282 64.9918 39.3836C64.8398 39.2391 64.7234 39.0612 64.652 38.8639C64.4172 38.3373 64.305 37.7642 64.324 37.1879C64.324 35.1519 65.396 32.8799 66.724 32.1159C66.9034 32.0085 67.0994 31.9314 67.304 31.8879C68.348 31.6799 69.12 32.6879 69.12 34.4199C69.128 36.4479 68.06 38.7159 66.732 39.4839L66.72 39.4959ZM77.156 39.9999C76.804 40.2039 76.52 39.9319 76.52 39.3959C76.5142 39.1379 76.5687 38.8821 76.6791 38.6487C76.7895 38.4154 76.9528 38.2111 77.156 38.0519C77.504 37.8479 77.788 38.1199 77.788 38.6599C77.793 38.9169 77.7386 39.1715 77.6289 39.404C77.5193 39.6364 77.3574 39.8404 77.156 39.9999Z" fill="#37474F"/>
<path d="M69.128 34.4C69.128 36.44 68.06 38.708 66.728 39.476C66.5586 39.5996 66.3626 39.6821 66.1558 39.7169C65.9489 39.7518 65.7368 39.738 65.5361 39.6767C65.3355 39.6153 65.1519 39.5082 64.9999 39.3637C64.8478 39.2191 64.7315 39.0412 64.66 38.844C64.8641 38.7987 65.0598 38.7218 65.24 38.616C66.564 37.848 67.64 35.58 67.64 33.54C67.6574 32.9651 67.5453 32.3937 67.312 31.868C68.356 31.668 69.128 32.672 69.128 34.4Z" fill="#263238"/>
<path d="M56.4 52.0001C56.048 52.2001 55.764 51.9281 55.764 51.3921C55.7592 51.1336 55.814 50.8775 55.9243 50.6437C56.0347 50.4099 56.1974 50.2047 56.4 50.0441C56.748 49.8401 57.032 50.1201 57.032 50.6561C57.0364 50.9135 56.9818 51.1685 56.8722 51.4015C56.7626 51.6345 56.6011 51.8393 56.4 52.0001Z" fill="#263238"/>
<path d="M77.156 39.9999C76.804 40.1999 76.52 39.9319 76.52 39.3919C76.5152 39.1334 76.57 38.8773 76.6803 38.6435C76.7906 38.4097 76.9534 38.2045 77.156 38.0439C77.504 37.8439 77.788 38.1199 77.788 38.6599C77.7921 38.9167 77.7373 39.171 77.6277 39.4033C77.5181 39.6356 77.3568 39.8397 77.156 39.9999Z" fill="#263238"/>
<path d="M38.824 64.5359L94.656 32.2999C94.8042 32.225 94.9679 32.186 95.134 32.186C95.3 32.186 95.4638 32.225 95.612 32.2999L96.152 32.6119C96.2908 32.7028 96.4062 32.8252 96.4889 32.969C96.5717 33.1129 96.6193 33.2742 96.628 33.4399V118.616C96.6199 118.782 96.5726 118.943 96.4898 119.087C96.407 119.231 96.2913 119.353 96.152 119.444L40.32 151.68C40.1718 151.755 40.0081 151.794 39.842 151.794C39.6759 151.794 39.5122 151.755 39.364 151.68L38.824 151.368C38.6842 151.278 38.5678 151.156 38.4844 151.012C38.4009 150.868 38.3528 150.706 38.344 150.54V65.3639C38.3535 65.1979 38.4018 65.0365 38.4852 64.8927C38.5686 64.7488 38.6847 64.6266 38.824 64.5359Z" fill="#F5F5F5"/>
<path d="M96.612 33.2959C96.552 33.0999 96.368 33.0359 96.152 33.1639L40.32 65.3999C40.1762 65.4852 40.0586 65.6083 39.98 65.7559L38.484 64.8959C38.5648 64.7489 38.6818 64.625 38.824 64.5359L94.656 32.2999C94.8042 32.225 94.9679 32.186 95.134 32.186C95.3001 32.186 95.4638 32.225 95.612 32.2999L96.152 32.6119C96.2705 32.6894 96.3722 32.7899 96.4512 32.9074C96.5302 33.0249 96.5849 33.157 96.612 33.2959Z" fill="#FAFAFA"/>
<path d="M40.204 151.732C40.1467 151.753 40.0879 151.769 40.028 151.78H39.936C39.8389 151.79 39.7411 151.79 39.644 151.78C39.5843 151.768 39.5255 151.752 39.468 151.732L39.36 151.68L38.824 151.372C38.6854 151.281 38.5702 151.158 38.4875 151.015C38.4048 150.871 38.357 150.71 38.348 150.544V65.364C38.3509 65.1987 38.3978 65.0371 38.484 64.896L39.98 65.756C39.8949 65.8993 39.8468 66.0615 39.84 66.228V151.404C39.84 151.664 40 151.792 40.204 151.732Z" fill="#E0E0E0"/>
<path d="M84.052 44.3639L82.564 43.5039C82.3305 43.3894 82.0726 43.3336 81.8126 43.3413C81.5526 43.3489 81.2984 43.4199 81.072 43.5479C79.336 44.3119 78.584 44.6599 77.688 45.0359L77.04 45.2959C76.688 45.4359 75.988 45.3159 76.204 44.0959L78.512 37.8839H78.476L77.016 37.0399C76.942 36.9934 76.8587 36.9633 76.772 36.9519C76.728 36.9519 76.672 36.9519 76.612 36.9519C75.668 36.9279 75.412 30.8359 75.392 30.6479L75.324 30.6119L73.88 29.7799C73.6291 29.6376 73.3444 29.5657 73.056 29.5719C72.5734 29.5942 72.103 29.7313 71.684 29.9719C69.416 31.1719 67.124 34.6959 66.564 37.8679C66.212 39.8679 64.2 42.9479 63.036 44.0839C61.872 45.2199 61.792 46.1639 61.792 46.1639L60.888 51.2919L60.596 52.9359C60.384 54.1599 59.128 55.3359 59.128 55.3359L54.444 58.7999C51.512 61.2319 50.684 63.6919 50.124 66.7319V66.7559C50.124 66.8639 50.124 66.9359 50.176 66.9639C50.1838 66.9689 50.1928 66.9716 50.202 66.9716C50.2112 66.9716 50.2203 66.9689 50.228 66.9639L50.828 66.6239L83.052 48.0399C83.1278 47.9882 83.1927 47.922 83.2428 47.8451C83.2929 47.7682 83.3273 47.6821 83.344 47.5919C83.528 46.4839 84.064 44.3919 84.064 44.3919L84.052 44.3639ZM74.736 34.9519C74.388 36.8999 72.984 39.0759 71.588 39.8079C70.624 40.3119 69.92 39.9999 69.684 39.1119C69.5107 39.1797 69.3232 39.2028 69.1386 39.1791C68.9541 39.1553 68.7785 39.0854 68.628 38.9759C68.18 38.6239 72.284 31.5759 72.628 31.7319C72.788 31.8162 72.9268 31.9355 73.0342 32.0809C73.1415 32.2264 73.2146 32.3942 73.248 32.5719C74.4 32.2239 75.044 33.1999 74.736 34.9519Z" fill="#455A64"/>
<path opacity="0.5" d="M54.8 62.2239L52.452 60.8679C51.092 62.6599 50.544 64.5439 50.14 66.7319V66.7559C50.14 66.8639 50.14 66.9359 50.192 66.9639C50.1998 66.9689 50.2088 66.9716 50.218 66.9716C50.2272 66.9716 50.2363 66.9689 50.244 66.9639L52.096 65.4999L54.8 62.2239Z" fill="#37474F"/>
<path opacity="0.5" d="M60.44 53.412L63.752 55.32L65.244 46.692L62.26 44.968C62.0224 45.3092 61.8627 45.6983 61.792 46.108L60.888 51.236L60.596 52.88C60.5631 53.0624 60.5108 53.2408 60.44 53.412Z" fill="#37474F"/>
<path opacity="0.5" d="M68.132 33.6919C67.3773 34.9653 66.8469 36.3589 66.564 37.8119C66.3262 38.8417 65.9323 39.8291 65.396 40.7399L68.232 42.3799L69.644 39.1199C69.4757 39.1806 69.2952 39.1992 69.1181 39.1741C68.941 39.149 68.7727 39.081 68.628 38.9759C68.396 38.7919 69.372 36.8439 70.416 35.0119L68.132 33.6919Z" fill="#37474F"/>
<path d="M84.072 44.376H84.052C83.818 44.2654 83.561 44.212 83.3022 44.2204C83.0435 44.2287 82.7905 44.2985 82.564 44.424C80.436 45.364 79.792 45.672 78.528 46.172C78.192 46.308 77.508 46.2 77.688 45.048C77.6861 45.0213 77.6861 44.9946 77.688 44.968L77.98 43.328L78.78 38.86C78.78 38.86 78.964 38.156 78.5 37.892H78.464C78.3475 37.8381 78.2204 37.8108 78.092 37.812C77.8202 37.7793 77.5593 37.6857 77.3287 37.5382C77.098 37.3906 76.9037 37.193 76.76 36.96C76.5108 36.5886 76.3381 36.1713 76.2523 35.7324C76.1664 35.2935 76.1691 34.8418 76.26 34.404C76.6 32.488 76.228 31.144 75.38 30.644L75.312 30.604C74.764 30.312 74.028 30.36 73.168 30.812C70.896 32.012 68.604 35.536 68.048 38.708C67.692 40.708 65.68 43.792 64.516 44.924C63.352 46.056 63.276 47.004 63.276 47.004L62.4 52.1039L62.112 53.744C61.896 54.968 60.64 56.144 60.64 56.144L55.96 59.656C54.0923 61.1426 52.7437 63.183 52.108 65.484C52.108 65.484 50.352 66.8479 50.244 66.956L50.844 66.6159L83.16 48.04C83.16 48.04 83.528 47.836 83.612 47.784C83.696 47.732 84.996 46.504 84.996 46.504C84.924 45.456 84.612 44.7 84.072 44.376ZM74.736 34.952C74.388 36.9 72.984 39.076 71.588 39.808C70.624 40.312 69.92 40 69.684 39.112C69.5787 38.6135 69.5787 38.0984 69.684 37.6C70.032 35.648 71.44 33.476 72.836 32.748C72.964 32.6778 73.0978 32.6189 73.236 32.572C74.4 32.224 75.044 33.2 74.736 34.952Z" fill="#37474F"/>
<path d="M74.736 34.9521C74.388 36.9001 72.984 39.0761 71.588 39.8081C70.624 40.3121 69.92 40.0001 69.684 39.1121C69.8216 39.0667 69.9553 39.0105 70.084 38.9441C71.484 38.2121 72.884 36.0361 73.232 34.0841C73.337 33.5856 73.337 33.0706 73.232 32.5721C74.4 32.2241 75.044 33.2001 74.736 34.9521Z" fill="#263238"/>
<path d="M73.388 32.6559C73.5188 32.6481 73.6494 32.6741 73.7671 32.7316C73.8849 32.7891 73.9858 32.876 74.06 32.9839C74.64 33.8079 74.084 35.9039 73.844 36.5839C73.512 37.5159 71.344 39.7079 70.748 39.7079C70.5505 39.6754 70.3618 39.6029 70.1933 39.4949C70.0248 39.3869 69.8801 39.2457 69.768 39.0799C69.6696 38.5996 69.6696 38.1043 69.768 37.6239C70.108 35.6959 71.5 33.5519 72.872 32.8239C72.9942 32.7595 73.1213 32.7046 73.252 32.6599H73.384L73.388 32.6559ZM73.384 32.5679H73.236C73.0978 32.6149 72.964 32.6738 72.836 32.7439C71.44 33.4719 70.036 35.6439 69.684 37.5959C69.5786 38.0944 69.5786 38.6094 69.684 39.1079C69.8044 39.2881 69.9607 39.4414 70.1431 39.5584C70.3255 39.6754 70.5301 39.7536 70.744 39.7879C71.392 39.7879 73.572 37.5759 73.92 36.5879C74.268 35.5999 75.024 32.5439 73.376 32.5439L73.384 32.5679Z" fill="#263238"/>
<path d="M50.228 66.968L83.14 48.048L83.596 47.796C83.676 47.748 84.976 46.512 84.976 46.512L52.088 65.496C52.088 65.496 50.096 67.04 50.228 66.968Z" fill="#263238"/>
<path d="M45.816 80.2359V80.9839C45.816 81.3839 46.104 81.5559 46.456 81.3519L90 56.2079C90.1857 56.0868 90.3403 55.9239 90.4515 55.7321C90.5626 55.5404 90.6272 55.3252 90.64 55.1039V54.3519C90.64 53.9519 90.352 53.7799 90 53.9839L46.456 79.1319C46.2702 79.2528 46.1154 79.4157 46.0042 79.6075C45.893 79.7993 45.8286 80.0146 45.816 80.2359Z" fill="#E0E0E0"/>
<path d="M45.816 84.7599V85.5079C45.816 85.9079 46.104 86.0799 46.456 85.8759L90 60.7279C90.1859 60.6071 90.3407 60.4441 90.4519 60.2523C90.5631 60.0605 90.6275 59.8453 90.64 59.6239V58.8719C90.64 58.4719 90.352 58.3039 90 58.5039L46.456 83.6559C46.2702 83.7768 46.1154 83.9397 46.0042 84.1315C45.893 84.3233 45.8286 84.5386 45.816 84.7599Z" fill="#E0E0E0"/>
<path d="M45.816 89.256V90C45.816 90.4 46.104 90.572 46.456 90.368L90 65.228C90.1857 65.1069 90.3403 64.9439 90.4515 64.7521C90.5626 64.5604 90.6272 64.3452 90.64 64.124V63.372C90.64 62.972 90.352 62.8 90 63.004L46.456 88.152C46.2702 88.2728 46.1154 88.4357 46.0042 88.6275C45.893 88.8193 45.8286 89.0346 45.816 89.256Z" fill="#E0E0E0"/>
<path d="M45.816 99.2201V99.9681C45.816 100.368 46.104 100.54 46.456 100.336L90 75.2001C90.1859 75.0792 90.3407 74.9163 90.4519 74.7245C90.5631 74.5327 90.6275 74.3174 90.64 74.0961V73.3441C90.64 72.9441 90.352 72.7761 90 72.9761L46.456 98.1161C46.2702 98.2369 46.1154 98.3999 46.0042 98.5917C45.893 98.7835 45.8286 98.9987 45.816 99.2201Z" fill="#E0E0E0"/>
<path d="M45.816 103.74V104.492C45.816 104.892 46.104 105.06 46.456 104.86L90 79.7121C90.1859 79.5912 90.3407 79.4283 90.4519 79.2365C90.5631 79.0447 90.6275 78.8294 90.64 78.6081V77.8561C90.64 77.4561 90.352 77.2841 90 77.4881L46.456 102.636C46.2704 102.757 46.1158 102.92 46.0046 103.112C45.8935 103.304 45.8289 103.519 45.816 103.74Z" fill="#E0E0E0"/>
<path d="M45.816 108.24V108.988C45.816 109.388 46.104 109.56 46.456 109.356L90 84.2079C90.1859 84.087 90.3407 83.9241 90.4519 83.7323C90.5631 83.5405 90.6275 83.3252 90.64 83.1039V82.3519C90.64 81.9519 90.352 81.7839 90 81.9839L46.456 107.136C46.2702 107.257 46.1154 107.42 46.0042 107.611C45.893 107.803 45.8286 108.019 45.816 108.24Z" fill="#E0E0E0"/>
<path d="M45.816 118.2V118.952C45.816 119.352 46.104 119.52 46.456 119.32L90 94.172C90.1859 94.0512 90.3407 93.8883 90.4519 93.6965C90.5631 93.5047 90.6275 93.2894 90.64 93.068V92.316C90.64 91.916 90.352 91.744 90 91.948L46.456 117.096C46.2704 117.217 46.1158 117.38 46.0046 117.572C45.8935 117.764 45.8289 117.979 45.816 118.2Z" fill="#E0E0E0"/>
<path d="M45.816 122.724V123.472C45.816 123.872 46.104 124.044 46.456 123.84L90 98.692C90.1858 98.572 90.3406 98.4098 90.4518 98.2187C90.563 98.0275 90.6275 97.8128 90.64 97.592V96.84C90.64 96.44 90.352 96.268 90 96.472L46.456 121.62C46.2702 121.741 46.1154 121.904 46.0042 122.096C45.893 122.287 45.8286 122.503 45.816 122.724Z" fill="#E0E0E0"/>
<path d="M45.816 127.22V127.972C45.816 128.372 46.104 128.54 46.456 128.34L90 103.2C90.1859 103.079 90.3407 102.916 90.4519 102.725C90.5631 102.533 90.6275 102.317 90.64 102.096V101.344C90.64 100.944 90.352 100.772 90 100.976L46.456 126.116C46.2704 126.237 46.1158 126.4 46.0046 126.592C45.8935 126.784 45.8289 126.999 45.816 127.22Z" fill="#E0E0E0"/>
<path d="M68.232 127.824L90.652 114.884V115.316L68.232 128.256V127.824Z" fill="#E0E0E0"/>
<path d="M73.448 121.104C74.38 120.48 75.42 119.428 75.252 118.184C75.152 117.428 74.536 117.136 73.84 117.404C72.476 117.928 71.616 119.98 71.14 121.22C70.74 122.304 70.192 124.348 71.82 124.696C73.728 125.096 75.204 122.296 75.636 120.84C75.696 120.636 75.364 120.524 75.268 120.708C75.1 121.04 73.976 123.232 75.212 122.956C75.652 122.86 75.904 122.176 76.064 121.828C76.344 121.204 76.484 120.336 76.924 119.8L76.6 119.652C76.62 120.228 76.6 120.62 77 121.068C77.0304 121.11 77.076 121.138 77.127 121.146C77.1779 121.154 77.23 121.142 77.272 121.112C77.904 120.524 77.948 119.568 78.644 119.036L78.36 118.9C78.36 119.084 78.276 119.608 78.264 119.852C78.264 119.968 78.42 120.044 78.512 120.008C78.6024 119.989 78.6865 119.948 78.7565 119.888C78.8265 119.827 78.88 119.75 78.912 119.664L78.608 119.552C78.872 120.964 80.076 119.552 80.488 119.016C81.688 117.416 82.544 115.7 82.576 113.652C82.576 113.488 82.268 113.404 82.264 113.6C82.236 115.176 81.548 116.62 81.104 118.108C80.628 119.708 80.232 121.344 79.904 122.992L80.188 123.096C80.2782 121.93 80.5762 120.789 81.068 119.728C81.3782 118.783 81.8962 117.919 82.584 117.2L82.32 117.1C82.3898 117.511 82.3687 117.933 82.2581 118.335C82.1475 118.737 81.9502 119.11 81.68 119.428C81.596 119.536 81.784 119.74 81.868 119.632C82.308 119.08 83.032 118.904 83.504 118.368C83.9476 117.766 84.3422 117.129 84.684 116.464L84.468 116.356C84.44 117.7 85.708 115.604 85.88 115.38L85.672 115.3C85.756 115.576 85.868 115.76 86.18 115.764C86.8 115.764 87.032 114.86 87.5 114.756C87.5 114.756 87.704 114.928 87.776 114.936C88.034 114.974 88.2972 114.924 88.524 114.796C89.0471 114.458 89.4698 113.985 89.748 113.428C89.82 113.3 89.576 113.14 89.496 113.28C89.188 113.8 88.228 115.18 87.532 114.504C87.488 114.464 87.396 114.424 87.348 114.48C87.16 114.712 86.084 115.944 85.884 115.28C85.86 115.2 85.744 115.112 85.68 115.2C85.516 115.416 85.384 115.656 85.232 115.884C85.148 116.008 84.68 116.796 84.696 116.396C84.696 116.3 84.548 116.188 84.48 116.288C84.044 116.956 83.724 117.832 83.116 118.376C82.664 118.776 82.072 118.928 81.68 119.412L81.868 119.616C82.1702 119.275 82.3926 118.872 82.5193 118.435C82.6459 117.997 82.6735 117.537 82.6 117.088C82.5941 117.06 82.5814 117.035 82.5631 117.014C82.5448 116.992 82.5215 116.976 82.4952 116.966C82.469 116.956 82.4406 116.953 82.4128 116.957C82.385 116.961 82.3586 116.971 82.336 116.988C81.588 117.676 81.168 118.644 80.796 119.572C80.2969 120.655 79.9936 121.819 79.9 123.008C79.9 123.132 80.152 123.272 80.184 123.112C80.5221 121.334 80.9615 119.576 81.5 117.848C81.94 116.456 82.536 115.116 82.564 113.636L82.252 113.584C82.2224 115.116 81.7394 116.606 80.864 117.864C80.64 118.212 80.404 118.56 80.148 118.888C80.036 119.036 79.044 120.332 78.916 119.58C78.896 119.472 78.684 119.32 78.612 119.468L78.324 119.724L78.572 119.876C78.592 119.552 78.656 119.248 78.672 118.92C78.672 118.796 78.48 118.716 78.388 118.788C77.68 119.328 77.628 120.284 76.992 120.872L77.264 120.916C77.048 120.554 76.9423 120.137 76.96 119.716C76.96 119.576 76.744 119.44 76.636 119.568C76.148 120.152 75.996 121.084 75.676 121.764C75.5 122.136 74.876 123.128 75.076 122.072C75.2085 121.634 75.3981 121.216 75.64 120.828L75.272 120.696C74.896 121.968 73.892 123.896 72.52 124.296C70.768 124.82 71.072 122.648 71.392 121.68C71.7727 120.552 72.3377 119.495 73.064 118.552C73.1971 118.364 73.3485 118.19 73.516 118.032C73.872 117.712 73.976 117.632 74.472 117.916C74.968 118.2 74.992 118.356 74.872 118.892C74.7986 119.158 74.6882 119.413 74.544 119.648C74.2272 120.131 73.8294 120.556 73.368 120.904C73.304 120.956 73.396 121.128 73.468 121.076L73.448 121.104Z" fill="#455A64"/>
<path d="M127.2 96.1519C125.752 95.8079 124.156 96.8399 123.224 99.1119C122.292 101.384 120.424 107.192 120.024 108.712C119.848 109.392 125.016 115.416 124.824 115.328C124.768 115.3 126.508 112.388 126.508 112.388L124 108.528L125.6 104.34L127.2 96.1519Z" fill="#B16668"/>
<path d="M123.848 150.072C123.652 150.148 123.6 150.52 123.572 151.272C123.548 151.836 123.428 152.816 124.088 153.012C124.748 153.208 125.712 153.108 126.136 152.58C126.646 151.869 127.192 151.184 127.772 150.528C128.424 149.824 129.128 149.172 129.392 148.188C129.632 147.3 129.432 146.916 128.828 146.656C127.992 146.304 126.684 147.456 126.028 147.644C125.472 147.796 124.044 150 123.848 150.072Z" fill="#263238"/>
<path d="M123.848 149.384V150.296C124.191 150.515 124.586 150.637 124.993 150.648C125.4 150.659 125.802 150.56 126.156 150.36C126.196 150.272 126.396 149.052 126.396 149.052L123.848 149.384Z" fill="#B16668"/>
<path d="M130.64 154.924C130.482 155.413 130.348 155.91 130.24 156.412C130.124 156.964 129.964 157.888 130.16 158.3C130.356 158.712 131.104 158.984 132.276 158.976C133.032 158.976 134.212 159.484 135.02 159.936C135.832 160.334 136.75 160.462 137.64 160.3C138.68 160.176 139.76 159.572 139.928 159.144C140.096 158.716 139.88 158.504 137.428 157.46C137.404 157.46 134.844 156.292 133.656 154.984L130.64 154.924Z" fill="#263238"/>
<path d="M130.64 153.936C130.64 153.936 130.64 154.612 130.64 155C130.64 155.388 131.096 155.964 132.28 155.924C133.112 155.892 133.692 155.668 133.656 154.984V154L130.64 153.936Z" fill="#B16668"/>
<path d="M122.948 136.728C123.144 135.126 123.518 133.551 124.064 132.032C124.064 132.032 123.548 127.992 123.264 124.112C122.732 117.156 123.16 114.884 124.528 111.764C124.528 111.764 136.196 110.564 136.552 115.432C136.996 121.472 136.408 133.144 136.248 135.276C136.088 137.408 135.888 138.372 135.136 142.828C134.56 146.22 133.672 154 133.672 154C133.203 154.238 132.682 154.357 132.156 154.346C131.63 154.334 131.115 154.194 130.656 153.936C130.656 153.936 129.704 144.224 129.804 141.764C129.874 139.944 130.182 138.14 130.72 136.4C130.72 136.4 129.996 126.556 129.788 124.988C129.788 124.988 129.42 128.112 129.26 130.244C129.1 132.376 128.46 134.416 127.852 138.38C127.316 141.816 126.32 149.5 126.32 149.5C124.772 150.34 123.848 149.392 123.848 149.392C123.848 149.392 122.532 139.708 122.948 136.728Z" fill="#5A79C0"/>
<g opacity="0.35">
<path d="M122.948 136.728C123.144 135.126 123.518 133.551 124.064 132.032C124.064 132.032 123.548 127.992 123.264 124.112C122.732 117.156 123.16 114.884 124.528 111.764C124.528 111.764 136.196 110.564 136.552 115.432C136.996 121.472 136.408 133.144 136.248 135.276C136.088 137.408 135.888 138.372 135.136 142.828C134.56 146.22 133.672 154 133.672 154C133.203 154.238 132.682 154.357 132.156 154.346C131.63 154.334 131.115 154.194 130.656 153.936C130.656 153.936 129.704 144.224 129.804 141.764C129.874 139.944 130.182 138.14 130.72 136.4C130.72 136.4 129.996 126.556 129.788 124.988C129.788 124.988 129.42 128.112 129.26 130.244C129.1 132.376 128.46 134.416 127.852 138.38C127.316 141.816 126.32 149.5 126.32 149.5C124.772 150.34 123.848 149.392 123.848 149.392C123.848 149.392 122.532 139.708 122.948 136.728Z" fill="black"/>
</g>
<path d="M133.164 94.58L132.616 99.088L128.652 98.732L129.104 93.728L133.164 94.58Z" fill="#B16668"/>
<path d="M124.3 98.4C124.736 97.2 126.22 95.892 127.744 96.176L128.864 96.38C128.896 97.42 130.864 97.956 132.808 97.328C133.392 97.496 133.932 97.668 134.408 97.84C135.804 98.34 136.364 100.64 136.408 104.536C136.452 108.432 136.852 118.084 136.852 118.084L135.2 118.608L134.44 115.78L134.132 119.168C132.277 119.601 130.346 119.591 128.496 119.14C124.304 118.224 123 115.964 123 115.964C123.513 113.348 124.532 110.857 126 108.632C123.904 103.044 123.656 100.172 124.3 98.4Z" fill="#EBEBEB"/>
<path d="M136.112 88.8521C136.349 88.3135 136.446 87.7236 136.394 87.1374C136.341 86.5513 136.141 85.988 135.812 85.5001C134.48 83.4121 131.916 83.0561 128.876 83.8721C127.815 84.197 126.88 84.8418 126.199 85.7181C125.518 86.5944 125.125 87.6596 125.072 88.7681C124.924 90.9961 131.144 92.6401 131 94.1681L136.112 88.8521Z" fill="#263238"/>
<path d="M136.244 89.7C136.244 89.7 137.088 91.0519 136.968 91.1919C136.759 91.3216 136.529 91.4137 136.288 91.464L136.244 89.7Z" fill="#9A4A4D"/>
<path d="M133.672 85.4161C134.512 85.8801 135.968 86.7361 136.264 89.8961C136.568 93.1361 135.816 94.2401 135.364 94.6521C135.06 94.9321 133.52 94.9921 132.728 94.7241C131.736 94.3841 129.592 93.2561 128.62 91.5601C127.476 89.5601 127.3 86.9401 128.708 85.9601C129.422 85.4564 130.251 85.1422 131.12 85.047C131.988 84.9519 132.866 85.0789 133.672 85.4161Z" fill="#B16668"/>
<path d="M133.92 85.556C133.92 85.556 134.584 88.524 133.64 90.356C133.64 90.356 133.152 89.192 132.152 89.496C131.152 89.8 131.204 91.132 131.968 91.832C132.163 92.0321 132.411 92.1729 132.683 92.238C132.955 92.3031 133.239 92.2899 133.504 92.2C133.167 93.0399 132.662 93.8022 132.02 94.44C132.02 94.44 129.064 95.756 126.508 92.868C124.184 90.248 124.616 85.668 128.172 84.6C131.728 83.532 133.92 85.556 133.92 85.556Z" fill="#263238"/>
<path d="M125.492 85.8641C125.632 85.9841 125.718 86.1547 125.733 86.3384C125.747 86.5221 125.688 86.704 125.568 86.8441L124.512 85.9361C124.571 85.8667 124.644 85.8097 124.725 85.7685C124.807 85.7273 124.896 85.7026 124.987 85.696C125.078 85.6893 125.17 85.7007 125.256 85.7295C125.343 85.7584 125.423 85.8041 125.492 85.8641Z" fill="#263238"/>
<path d="M144.452 104.996C145.028 104.34 145.252 102.876 146.012 101.876C146.772 100.876 147.06 100.144 147.364 100.58C147.764 101.16 146.86 102.316 147.06 102.432C147.26 102.548 148.012 104.072 148.088 104.92C148.164 105.768 145.92 107.896 145.92 107.896L144.452 104.996Z" fill="#B16668"/>
<path d="M146.996 102.3C146.996 102.3 149.708 102.068 150.104 102.3C150.5 102.532 150.38 103.708 150.104 104.428C149.828 105.148 148.444 105.628 147.16 106.484C147.16 106.356 146.996 102.3 146.996 102.3Z" fill="#B16668"/>
<path d="M134.072 97.7319C135.236 98.1319 136.256 98.6079 137.344 100.652C138.74 103.28 141.284 108.424 141.284 108.424L144.452 104.996C144.452 104.996 144.912 104.348 145.768 105.764C146.624 107.18 146.248 107.572 146.248 107.572C146.248 107.572 142.564 112.508 141.888 113.136C141.212 113.764 140.1 113.276 139.372 112.288C138.644 111.3 134.072 105.576 134.072 105.576C134.072 105.576 131.572 102.288 134.072 97.7319Z" fill="#B16668"/>
<path opacity="0.2" d="M129.788 124.98L129.564 122.624C128.294 122.435 127.08 121.975 126.004 121.276C126.004 121.276 126.764 122.476 128.844 123.044L129.06 126.044L129.188 130.964L129.788 124.98Z" fill="black"/>
<path d="M121.48 97.1079C122.02 97.1095 122.555 97.0045 123.055 96.799C123.554 96.5935 124.008 96.2915 124.391 95.9103C124.774 95.5291 125.078 95.0762 125.285 94.5775C125.492 94.0788 125.599 93.544 125.6 93.0039V86.7679C125.129 86.6151 124.629 86.5759 124.14 86.6535C123.652 86.7311 123.188 86.9233 122.788 87.2143C122.387 87.5054 122.062 87.887 121.837 88.328C121.613 88.7691 121.496 89.257 121.496 89.7519L121.48 97.1079Z" fill="#263238"/>
<path d="M136.496 108.62C136.496 108.62 134.22 105.684 133.492 104.504L136.576 111.016L136.496 108.62Z" fill="#E0E0E0"/>
<path d="M156.452 84.5079C155.588 87.0559 153.744 94.6559 153.744 94.6559C153.744 94.6559 150.228 99.3319 149.26 100.224C148.724 100.72 147.512 101.612 147.512 101.612L148.52 102.356C148.52 102.356 150.2 101.844 150.34 102.756C152.092 101.347 153.749 99.8232 155.3 98.1959C155.691 97.7873 155.967 97.2821 156.1 96.7319L157.6 90.2799C157.6 90.2799 157.6 85.0799 158.4 84.3999C159.2 83.7199 158.884 82.1799 158.884 82.1799C158.336 82.1959 157.132 82.5119 156.452 84.5079Z" fill="#FFA8A7"/>
<path d="M158.912 81.9241C159.157 82.6122 159.454 83.2808 159.8 83.9241C160.152 84.5281 157.46 95.3881 157.28 96.1961C157.1 97.0041 151.88 101.712 151.88 101.712C150.937 101.313 150.188 100.561 149.792 99.6161L153.56 94.7121C153.56 94.7121 154.732 89.5681 155.348 87.2081C155.964 84.8481 156.62 82.1801 158.912 81.9241Z" fill="#5A79C0"/>
<path opacity="0.1" d="M158.912 81.9241C159.157 82.6122 159.454 83.2808 159.8 83.9241C160.152 84.5281 157.46 95.3881 157.28 96.1961C157.1 97.0041 151.88 101.712 151.88 101.712C150.937 101.313 150.188 100.561 149.792 99.6161L153.56 94.7121C153.56 94.7121 154.732 89.5681 155.348 87.2081C155.964 84.8481 156.62 82.1801 158.912 81.9241Z" fill="#455A64"/>
<path d="M169.936 132.96H167.336V137.416H169.936V132.96Z" fill="#FFA8A7"/>
<path d="M159.296 134.04L156.696 134.132L156.568 129.416L159.296 129.328V134.04Z" fill="#FFA8A7"/>
<path d="M169.572 101.164C169.572 103.648 169.744 118.096 169.744 118.096C169.804 118.808 170.492 120.096 170.544 122.656C170.62 126.392 170.044 135.188 170.044 135.188C169.595 135.408 169.103 135.528 168.602 135.537C168.102 135.547 167.605 135.447 167.148 135.244C167.148 135.244 165.104 122.804 164.64 119.104C164.24 115.88 162.828 107.268 162.828 107.268L160.828 118.172C161.13 119.529 161.239 120.921 161.152 122.308C161.028 124.016 159.444 132.58 159.444 132.58C158.991 132.837 158.487 132.99 157.968 133.03C157.449 133.07 156.927 132.996 156.44 132.812C156.44 132.812 156.284 119.368 156.256 117.8C156.22 116.012 157 100.624 157 100.624L169.572 101.164Z" fill="#37474F"/>
<path d="M167.336 136.132V135.76C167.196 135.76 167.112 135.896 167.056 136.228C167.019 136.476 166.968 136.722 166.904 136.964C166.789 137.419 166.638 137.865 166.452 138.296C166.084 139.204 165.776 139.54 164.932 140.6C164.646 140.894 164.379 141.205 164.132 141.532C163.976 141.812 163.92 142.588 164.188 142.768C165.168 143.424 166.66 143.44 167.716 143.132C168.109 143.022 168.462 142.801 168.734 142.496C169.005 142.191 169.184 141.815 169.248 141.412C169.288 141.172 169.272 140.924 169.3 140.684C169.393 140.135 169.617 139.616 169.952 139.172C170.147 138.915 170.314 138.639 170.452 138.348C170.668 137.816 170.496 137.212 170.356 136.68C170.236 136.22 170.104 135.716 169.956 135.76V136.04C169.585 136.333 169.124 136.489 168.652 136.48C168.256 136.496 167.332 136.42 167.336 136.132Z" fill="#263238"/>
<path d="M156.668 133.328C156.532 133.328 156.424 133.524 156.124 133.848C155.679 134.296 155.162 134.668 154.596 134.948C153.62 135.436 151.728 136.184 150.868 136.572C150.332 136.812 150.36 137.46 150.912 137.828C151.464 138.196 152.804 138.46 154.408 138.104C155.28 137.908 156.408 137.1 157.14 137.144C157.872 137.188 159.208 137.176 159.74 136.808C160.272 136.44 160.06 135.66 159.908 134.988C159.744 134.256 159.54 133.108 159.296 133.16V133.412C158.984 133.888 157.368 134.08 156.684 133.732L156.668 133.328Z" fill="#263238"/>
<path d="M162.832 107.268C161.485 106.852 160.245 106.146 159.2 105.2C159.2 105.2 159.9 106.512 162 107.728L160.992 117.428L162.832 107.268Z" fill="#263238"/>
<path d="M165.06 82.0999C165.948 82.3159 167.732 82.6079 168.132 84.3719C168.612 86.4879 168.768 91.0999 168.768 91.0999L168.932 101.364C167.14 102.668 160.56 103.364 156.788 100.624C156.788 100.624 157.252 88.3039 157.252 86.3839C157.252 84.4639 158.316 82.1599 161.252 81.9839L165.06 82.0999Z" fill="#F5F5F5"/>
<path d="M161.3 81.7919C160.491 82.4696 159.905 83.3758 159.62 84.3919C159.26 85.9439 159.22 103.276 159.22 103.276C159.22 103.276 157.38 102.936 156.52 102.26C156.52 102.26 156.628 88.5799 156.804 86.3159C157.072 82.8879 157.044 81.9159 161.312 81.5359L161.3 81.7919Z" fill="#455A64"/>
<path d="M165.836 81.5359C165.836 81.5359 163.384 83.0439 163.356 89.0479C163.332 94.2479 163.16 103.276 163.16 103.276C163.16 103.276 167.22 103.872 169.792 102.336C169.792 102.336 170.1 89.7519 170.048 87.8039C169.992 85.5719 169.472 82.6879 168.756 82.3999C167.805 82.0397 166.829 81.7509 165.836 81.5359Z" fill="#455A64"/>
<path d="M174.956 95.32C172.516 85.344 170.712 82.016 167.756 82.056C166.888 83.088 167.128 86.216 168.496 88.112C168.496 88.112 171.548 94.544 172.032 96.832C172.46 98.832 172.944 101.372 172.916 103.1C172.906 103.406 172.785 103.697 172.576 103.92C172.02 104.524 172.016 105.012 171.656 105.68C171.372 106.2 171.064 106.396 171.152 106.516C171.269 106.64 171.427 106.715 171.597 106.728C171.766 106.741 171.934 106.689 172.068 106.584C172.328 106.394 172.561 106.17 172.76 105.916C172.664 106.556 172.48 107.179 172.212 107.768C171.584 109.18 171.736 109.9 173.644 109.396C174.844 109.08 175.588 108.088 175.764 105.216C175.852 104.16 175.863 103.098 175.796 102.04C175.536 99.32 175.352 96.928 174.956 95.32Z" fill="#FFA8A7"/>
<path d="M167.24 81.8921C167.24 81.8921 169.204 81.8041 170.268 82.8801C171.332 83.9561 172.768 86.2201 174.16 91.1681C175.552 96.1161 175.98 99.7321 176.048 102.516C176.048 102.516 174.304 103.316 172.696 102.404C172.696 102.404 171.984 98.0961 171.352 95.8041C170.72 93.5121 168.364 88.6841 168.364 88.6841C168.364 88.6841 166.112 85.3361 167.24 81.8921Z" fill="#5A79C0"/>
<path opacity="0.1" d="M167.24 81.8921C167.24 81.8921 169.204 81.8041 170.268 82.8801C171.332 83.9561 172.768 86.2201 174.16 91.1681C175.552 96.1161 175.98 99.7321 176.048 102.516C176.048 102.516 174.304 103.316 172.696 102.404C172.696 102.404 171.984 98.0961 171.352 95.8041C170.72 93.5121 168.364 88.6841 168.364 88.6841C168.364 88.6841 166.112 85.3361 167.24 81.8921Z" fill="#455A64"/>
<path opacity="0.1" d="M166.112 84.8201L164.988 86.2081L165.552 87.7921L164.076 91.5761L165.852 87.7921L165.232 86.2961L166.112 84.8201Z" fill="black"/>
<path opacity="0.1" d="M158.192 84.3721L158.436 85.8081L157.464 87.0761L158.816 91.3321L157.768 87.1241L158.664 85.9401L158.192 84.3721Z" fill="black"/>
<path d="M164.384 74.1274C164.701 72.1779 163.377 70.341 161.427 70.0246C159.478 69.7082 157.641 71.032 157.325 72.9814C157.008 74.9309 158.332 76.7678 160.281 77.0842C162.231 77.4006 164.068 76.0768 164.384 74.1274Z" fill="#263238"/>
<path d="M167.032 76.092C167.032 76.092 166.452 78.816 166.232 79.264C166.076 79.5386 165.822 79.7433 165.52 79.836L165.56 77.92L167.032 76.092Z" fill="#263238"/>
<path d="M166.304 72.1919C166.508 72.1691 166.714 72.1933 166.906 72.2627C167.099 72.332 167.274 72.4447 167.416 72.5919C167.892 73.0799 167.628 74.5919 167.016 76.0999L165.924 76.2239L166.304 72.1919Z" fill="#263238"/>
<path d="M165.6 76.2201C165.82 76.3481 166.132 75.9281 166.4 75.6481C166.505 75.5241 166.641 75.4293 166.794 75.3729C166.947 75.3165 167.111 75.3004 167.272 75.3261C167.433 75.3518 167.584 75.4185 167.712 75.5198C167.839 75.621 167.938 75.7534 168 75.9041C168.448 76.8481 167.6 78.0961 166.92 78.3041C165.72 78.6801 165.544 77.9041 165.544 77.9041L165.456 82.3481C164.628 83.4081 162.772 84.6561 161.772 84.4761C160.972 84.3361 160.8 82.9881 161.564 82.1041V80.8001C161.035 80.8843 160.499 80.9111 159.964 80.8801C159.084 80.7441 158.532 80.0521 158.264 79.1001C157.836 77.5721 157.672 76.3401 158.036 73.3321C158.436 70.0361 162.268 70.0041 164.336 71.3041C166.404 72.6041 165.6 76.2201 165.6 76.2201Z" fill="#FFA8A7"/>
<path d="M165.6 76.5881C165.712 76.5881 166.132 75.8961 166.4 75.6481C166.776 75.3041 166.288 72.1921 166.288 72.1921C166.419 71.9184 166.464 71.6117 166.417 71.312C166.371 71.0123 166.235 70.7335 166.028 70.5121C165.512 69.9441 164.792 69.2481 162.428 69.5281C160.756 69.7241 158.936 70.2441 157.464 69.5281C157.328 70.0079 157.338 70.5174 157.494 70.9913C157.649 71.4652 157.942 71.882 158.336 72.1881C158.939 72.4874 159.596 72.6615 160.268 72.7001C161.561 72.7978 162.86 72.7737 164.148 72.6281C164.548 72.5721 164.64 72.9641 164.86 74.0401C165.084 74.9801 165.244 76.5801 165.6 76.5881Z" fill="#263238"/>
<path d="M166.304 72.436L167.628 71.724C167.586 71.6348 167.525 71.5551 167.451 71.4897C167.377 71.4244 167.291 71.3747 167.197 71.3437C167.103 71.3126 167.004 71.3009 166.906 71.3092C166.807 71.3175 166.711 71.3457 166.624 71.392C166.448 71.4931 166.318 71.6571 166.258 71.8509C166.199 72.0447 166.215 72.2538 166.304 72.436Z" fill="#263238"/>
<path d="M161.572 80.8001C162.476 80.6277 163.362 80.3733 164.22 80.0401C164.624 79.8296 164.954 79.5019 165.168 79.1001C165.065 79.5022 164.881 79.8791 164.628 80.2081C164.128 80.8481 161.572 81.3201 161.572 81.3201V80.8001Z" fill="#F28F8F"/>
<path d="M162.044 75.7281C162.044 75.8342 162.086 75.9359 162.161 76.011C162.236 76.086 162.338 76.1281 162.444 76.1281C162.55 76.1281 162.652 76.086 162.727 76.011C162.802 75.9359 162.844 75.8342 162.844 75.7281C162.844 75.622 162.802 75.5203 162.727 75.4453C162.652 75.3703 162.55 75.3281 162.444 75.3281C162.338 75.3281 162.236 75.3703 162.161 75.4453C162.086 75.5203 162.044 75.622 162.044 75.7281Z" fill="#263238"/>
<path d="M162.46 74.2441L163.3 74.7081C163.36 74.5923 163.373 74.458 163.336 74.3329C163.3 74.2079 163.217 74.1016 163.104 74.0361C163.048 74.006 162.987 73.9875 162.924 73.9817C162.861 73.9759 162.798 73.983 162.737 74.0024C162.677 74.0218 162.622 74.0533 162.574 74.0948C162.526 74.1364 162.487 74.1871 162.46 74.2441Z" fill="#263238"/>
<path d="M161.748 78.4441L160.852 78.7801C160.871 78.8406 160.902 78.8967 160.943 78.9449C160.984 78.9931 161.035 79.0324 161.092 79.0604C161.149 79.0885 161.211 79.1047 161.274 79.1081C161.337 79.1115 161.4 79.1019 161.46 79.0801C161.581 79.0318 161.678 78.9386 161.732 78.82C161.786 78.7015 161.791 78.5668 161.748 78.4441Z" fill="#F28F8F"/>
<path d="M158.536 74.572L159.304 73.98C159.268 73.9282 159.222 73.8842 159.168 73.8508C159.114 73.8173 159.055 73.7951 158.992 73.7854C158.93 73.7756 158.866 73.7787 158.805 73.7942C158.744 73.8098 158.686 73.8376 158.636 73.876C158.534 73.9573 158.466 74.0747 158.448 74.2041C158.429 74.3335 158.461 74.4651 158.536 74.572Z" fill="#263238"/>
<path d="M158.772 75.6C158.772 75.706 158.814 75.8078 158.889 75.8828C158.964 75.9578 159.066 76 159.172 76C159.278 76 159.38 75.9578 159.455 75.8828C159.53 75.8078 159.572 75.706 159.572 75.6C159.572 75.4939 159.53 75.3921 159.455 75.3171C159.38 75.2421 159.278 75.2 159.172 75.2C159.066 75.2 158.964 75.2421 158.889 75.3171C158.814 75.3921 158.772 75.4939 158.772 75.6Z" fill="#263238"/>
<path d="M160.776 75.2439L160.648 77.6079L159.412 77.1879L160.776 75.2439Z" fill="#F28F8F"/>
<path d="M160.348 84.2199C160.588 84.7959 161.036 85.0199 161.84 85.1199C162.247 85.145 162.655 85.087 163.038 84.9494C163.422 84.8119 163.774 84.5977 164.072 84.3199L163.072 83.3239L161.796 84.2799L161.688 83.2119L160.348 84.2199Z" fill="#5A79C0"/>
<path opacity="0.1" d="M160.348 84.2199C160.588 84.7959 161.036 85.0199 161.84 85.1199C162.247 85.145 162.655 85.087 163.038 84.9494C163.422 84.8119 163.774 84.5977 164.072 84.3199L163.072 83.3239L161.796 84.2799L161.688 83.2119L160.348 84.2199Z" fill="black"/>
<path d="M160.98 83.908C160.862 84.2536 160.817 84.62 160.848 84.984C160.886 85.3081 161.01 85.6161 161.208 85.876C161.335 85.9576 161.479 86.0088 161.629 86.0255C161.779 86.0421 161.93 86.0238 162.072 85.972C162.331 85.7496 162.539 85.4741 162.682 85.1642C162.825 84.8543 162.899 84.5172 162.9 84.176L161.796 84.3L160.98 83.908Z" fill="#5A79C0"/>
<path d="M161.2 85.876C161.2 85.876 159.892 93.076 159.84 93.668C159.788 94.26 160.588 96.316 161.088 96.332C161.588 96.348 162.564 94.48 162.576 93.932C162.588 93.384 162.064 85.952 162.064 85.952L161.2 85.876Z" fill="#5A79C0"/>
<path opacity="0.1" d="M162.072 85.972C161.932 86.0338 161.779 86.0574 161.627 86.0406C161.475 86.0237 161.331 85.9669 161.208 85.876V85.992C161.333 86.0916 161.48 86.1596 161.636 86.1902C161.793 86.2209 161.955 86.2132 162.108 86.168L162.072 85.972Z" fill="black"/>
<path d="M161.796 84.3L165.476 81.5V80.668C165.476 80.668 166.332 80.992 166.524 82.5C165.934 83.8077 164.925 84.8816 163.656 85.552L162.884 84.176L161.796 84.3Z" fill="#E0E0E0"/>
<path d="M161.572 81.0481C161.091 81.1241 160.66 81.3872 160.372 81.7801C160.004 82.3841 160.088 84.7081 160.088 84.7081L160.968 83.9081L161.768 84.3081C161.692 83.5361 161.54 82.1281 161.54 82.1281L161.572 81.0481Z" fill="#E0E0E0"/>
<path d="M147.2 106.508C147.544 106.025 147.745 105.456 147.78 104.864C147.884 104.108 149.956 103.296 150.024 103.86C150.092 104.424 150.28 104.892 149.624 105.576C148.968 106.26 148.164 107.016 147.2 106.508Z" fill="#FFA8A7"/>
<path d="M147.308 101.624C146.812 102.264 146.508 103.508 146.244 103.928C145.98 104.348 145.668 104.728 146.244 104.788C146.82 104.848 147.656 103.744 147.968 103.064C148.089 102.795 148.273 102.559 148.504 102.376C148.595 102.303 148.696 102.244 148.804 102.2C148.536 102.108 148.676 101.028 148.488 100.88C148.488 100.88 147.512 101.28 147.308 101.624Z" fill="#FFA8A7"/>
</svg>
