<svg width="274" height="40" viewBox="0 0 274 40" fill="none" xmlns="http://www.w3.org/2000/svg">
<path d="M272.625 6.63651C273.378 6.9818 273.709 7.87218 273.363 8.62521L267.737 20.8966C267.391 21.6497 266.501 21.9802 265.748 21.6349C264.995 21.2896 264.664 20.3992 265.01 19.6462L270.011 8.73828L259.103 3.73658C258.35 3.39128 258.02 2.50091 258.365 1.74788C258.71 0.994843 259.601 0.664303 260.354 1.0096L272.625 6.63651ZM139.852 37.9918L139.836 36.4919L139.852 37.9918ZM1 8C1.51603 6.59155 1.51601 6.59155 1.516 6.59155C1.51601 6.59155 1.51601 6.59155 1.51602 6.59155C1.51604 6.59156 1.51609 6.59158 1.51616 6.59161C1.51631 6.59166 1.51657 6.59175 1.51692 6.59188C1.51763 6.59214 1.51875 6.59255 1.52028 6.59311C1.52335 6.59423 1.52805 6.59595 1.53439 6.59827C1.54706 6.6029 1.56627 6.60991 1.59192 6.61925C1.64322 6.63793 1.72033 6.66595 1.8226 6.70295C2.02715 6.77696 2.33238 6.88692 2.73325 7.03004C3.535 7.31629 4.71931 7.73518 6.24594 8.26445L5.26325 11.0989C3.72746 10.5665 2.53447 10.1445 1.72453 9.85537C1.31956 9.71078 1.01034 9.59939 0.801903 9.52397C0.697686 9.48627 0.618664 9.45755 0.565466 9.43818C0.538867 9.4285 0.518724 9.42115 0.505115 9.41618C0.498311 9.41369 0.49314 9.4118 0.489613 9.41051C0.48785 9.40986 0.486497 9.40937 0.485556 9.40902C0.485086 9.40885 0.484719 9.40872 0.484455 9.40862C0.484323 9.40857 0.484216 9.40853 0.484136 9.4085C0.484096 9.40849 0.484055 9.40847 0.484034 9.40847C0.484 9.40845 0.483972 9.40844 1 8ZM15.9058 11.518C18.7866 12.4627 22.0345 13.5063 25.5886 14.6152L24.695 17.479C21.1262 16.3655 17.8645 15.3175 14.971 14.3687L15.9058 11.518ZM35.3377 17.5814C38.4515 18.5046 41.7166 19.4496 45.1051 20.4007L44.2943 23.2891C40.8909 22.3338 37.6118 21.3847 34.4849 20.4576L35.3377 17.5814ZM54.9116 23.0727C58.1222 23.9204 61.4101 24.7616 64.7553 25.585L64.0382 28.498C60.6757 27.6703 57.3715 26.825 54.1457 25.9732L54.9116 23.0727ZM74.6465 27.9241C77.9297 28.6677 81.2471 29.3854 84.5816 30.0675L83.9803 33.0066C80.6239 32.32 77.2859 31.5979 73.9838 30.85L74.6465 27.9241ZM94.5536 31.9859C97.8988 32.5868 101.243 33.1428 104.569 33.6442L104.122 36.6107C100.766 36.1047 97.3938 35.5442 94.0231 34.9386L94.5536 31.9859ZM114.623 34.9925C118.028 35.3892 121.394 35.7162 124.701 35.9631L124.478 38.9548C121.126 38.7045 117.718 38.3733 114.275 37.9724L114.623 34.9925ZM134.792 36.4613C136.498 36.4985 138.18 36.5093 139.836 36.4919L139.867 39.4918C138.177 39.5095 136.463 39.4985 134.727 39.4605L134.792 36.4613ZM139.836 36.4919C141.414 36.4754 143.018 36.4328 144.644 36.3657L144.767 39.3632C143.113 39.4315 141.478 39.4749 139.867 39.4918L139.836 36.4919ZM154.256 35.7164C157.405 35.4277 160.61 35.065 163.851 34.6384L164.243 37.6127C160.966 38.044 157.722 38.4112 154.53 38.7039L154.256 35.7164ZM173.418 33.2176C176.584 32.6972 179.766 32.1269 182.949 31.5157L183.514 34.4619C180.308 35.0777 177.099 35.6528 173.905 36.1778L173.418 33.2176ZM192.436 29.5779C195.609 28.8929 198.765 28.1759 201.888 27.4359L202.58 30.3551C199.438 31.0994 196.263 31.8208 193.069 32.5103L192.436 29.5779ZM211.298 25.1163C214.481 24.3023 217.609 23.4732 220.663 22.6395L221.453 25.5336C218.385 26.3713 215.241 27.2045 212.042 28.0227L211.298 25.1163ZM229.995 20.0172C233.22 19.0856 236.326 18.162 239.289 17.2611L240.162 20.1313C237.187 21.0361 234.066 21.9637 230.828 22.8994L229.995 20.0172ZM248.565 14.3713C251.948 13.2923 255.04 12.2786 257.782 11.3621L258.733 14.2073C255.979 15.1279 252.874 16.1459 249.477 17.2295L248.565 14.3713ZM266.975 8.21035C268.429 7.69833 269.556 7.29354 270.319 7.01707C270.701 6.87883 270.991 6.77268 271.186 6.70125C271.284 6.66554 271.357 6.63851 271.406 6.62048C271.43 6.61147 271.448 6.60471 271.46 6.60025C271.467 6.59801 271.471 6.59636 271.474 6.59527C271.475 6.59473 271.476 6.59434 271.477 6.59409C271.477 6.59396 271.478 6.59387 271.478 6.59382C271.478 6.5938 271.478 6.59378 271.478 6.59377C271.478 6.59377 271.478 6.59377 271.478 6.59377C271.478 6.59377 271.478 6.59377 272 8C272.522 9.40623 272.522 9.40624 272.522 9.40625C272.522 9.40626 272.522 9.40627 272.522 9.40628C272.522 9.40631 272.522 9.40635 272.522 9.4064C272.521 9.40649 272.521 9.40662 272.521 9.40679C272.52 9.40712 272.518 9.4076 272.517 9.40822C272.513 9.40946 272.508 9.41129 272.502 9.41369C272.489 9.41848 272.47 9.42557 272.444 9.43492C272.394 9.45361 272.319 9.48132 272.219 9.51772C272.021 9.59051 271.727 9.69805 271.341 9.83771C270.57 10.117 269.434 10.5248 267.972 11.0399L266.975 8.21035Z" fill="#69ECBE"/>
</svg>
