<svg width="200" height="200" viewBox="0 0 200 200" fill="none" xmlns="http://www.w3.org/2000/svg">
<path d="M100 186.476C139.851 186.476 172.156 182.122 172.156 176.752C172.156 171.382 139.851 167.028 100 167.028C60.1493 167.028 27.844 171.382 27.844 176.752C27.844 182.122 60.1493 186.476 100 186.476Z" fill="#EBEBEB"/>
<path d="M57.74 93.5881H37.552V146.56H57.74V93.5881Z" fill="#A08DC8"/>
<path opacity="0.2" d="M57.74 93.5881H37.552V146.56H57.74V93.5881Z" fill="#A08DC8"/>
<path d="M162.452 93.5881H142.264V146.56H162.452V93.5881Z" fill="#A08DC8"/>
<path opacity="0.2" d="M162.452 93.5881H142.264V146.56H162.452V93.5881Z" fill="#A08DC8"/>
<path d="M142.268 56.3H57.736V146.56H142.268V56.3Z" fill="#A08DC8"/>
<path opacity="0.2" d="M142.268 56.3H57.736V146.56H142.268V56.3Z" fill="#A08DC8"/>
<g opacity="0.2">
<path d="M142.756 93.5881H142.276V146.556H142.756V93.5881Z" fill="#A08DC8"/>
<path d="M57.976 93.5881H57.496V146.556H57.976V93.5881Z" fill="#A08DC8"/>
<path d="M142.764 131.2H57.496V114.756H142.764V131.2ZM58 130.692H142.268V115.248H58V130.692Z" fill="#A08DC8"/>
</g>
<g opacity="0.2">
<path d="M63.0001 85.2642C62.9178 85.2732 62.8417 85.3123 62.7865 85.3739C62.7312 85.4355 62.7007 85.5154 62.7007 85.5982C62.7007 85.6809 62.7312 85.7608 62.7865 85.8224C62.8417 85.8841 62.9178 85.9231 63.0001 85.9322C63.0824 85.9231 63.1584 85.8841 63.2137 85.8224C63.2689 85.7608 63.2995 85.6809 63.2995 85.5982C63.2995 85.5154 63.2689 85.4355 63.2137 85.3739C63.1584 85.3123 63.0824 85.2732 63.0001 85.2642Z" fill="#A08DC8"/>
<path d="M63.572 126.164C63.4897 126.173 63.4136 126.212 63.3584 126.274C63.3031 126.335 63.2726 126.415 63.2726 126.498C63.2726 126.581 63.3031 126.661 63.3584 126.722C63.4136 126.784 63.4897 126.823 63.572 126.832C63.6543 126.823 63.7303 126.784 63.7856 126.722C63.8408 126.661 63.8714 126.581 63.8714 126.498C63.8714 126.415 63.8408 126.335 63.7856 126.274C63.7303 126.212 63.6543 126.173 63.572 126.164Z" fill="#A08DC8"/>
<path d="M86.42 119.776C86.42 119.74 86.384 119.708 86.368 119.676C86.3545 119.654 86.3354 119.635 86.3126 119.623C86.2898 119.61 86.2641 119.603 86.238 119.603C86.2119 119.603 86.1862 119.61 86.1634 119.623C86.1406 119.635 86.1215 119.654 86.108 119.676C86.0883 119.708 86.071 119.742 86.056 119.776C85.864 120.172 86.608 120.172 86.42 119.776Z" fill="#A08DC8"/>
<path d="M53.048 127.004C53.048 126.972 53.016 126.936 52.996 126.904C52.9825 126.882 52.9634 126.863 52.9407 126.85C52.9179 126.838 52.8922 126.831 52.866 126.831C52.8399 126.831 52.8142 126.838 52.7914 126.85C52.7687 126.863 52.7496 126.882 52.736 126.904C52.716 126.936 52.7 126.972 52.684 127.004C52.496 127.4 53.24 127.4 53.048 127.004Z" fill="#A08DC8"/>
<path d="M65.876 87.3042C65.8081 87.3042 65.743 87.3312 65.695 87.3792C65.647 87.4272 65.62 87.4923 65.62 87.5602C65.62 87.6281 65.647 87.6932 65.695 87.7412C65.743 87.7892 65.8081 87.8162 65.876 87.8162C65.9439 87.8162 66.009 87.7892 66.057 87.7412C66.105 87.6932 66.132 87.6281 66.132 87.5602C66.132 87.4923 66.105 87.4272 66.057 87.3792C66.009 87.3312 65.9439 87.3042 65.876 87.3042Z" fill="#A08DC8"/>
<path d="M48.08 113.228C48.0181 113.236 47.9612 113.266 47.92 113.313C47.8787 113.36 47.856 113.42 47.856 113.482C47.856 113.545 47.8787 113.605 47.92 113.652C47.9612 113.698 48.0181 113.728 48.08 113.736C48.1419 113.728 48.1988 113.698 48.2401 113.652C48.2813 113.605 48.3041 113.545 48.3041 113.482C48.3041 113.42 48.2813 113.36 48.2401 113.313C48.1988 113.266 48.1419 113.236 48.08 113.228Z" fill="#A08DC8"/>
<path d="M81.6 73.0562C81.5334 72.9905 81.4436 72.9536 81.35 72.9536C81.2565 72.9536 81.1666 72.9905 81.1 73.0562C81.0394 73.1193 80.9964 73.1972 80.9754 73.2821C80.9543 73.3671 80.9559 73.456 80.98 73.5402C81.0095 73.6148 81.0608 73.6788 81.1271 73.7239C81.1934 73.769 81.2718 73.7931 81.352 73.7931C81.4323 73.7931 81.5106 73.769 81.577 73.7239C81.6433 73.6788 81.6945 73.6148 81.724 73.5402C81.748 73.4557 81.7492 73.3664 81.7274 73.2814C81.7056 73.1964 81.6617 73.1187 81.6 73.0562Z" fill="#A08DC8"/>
<path d="M66.372 124.272C66.3053 124.207 66.2155 124.17 66.122 124.17C66.0284 124.17 65.9386 124.207 65.872 124.272C65.8113 124.335 65.7683 124.412 65.7472 124.496C65.7262 124.58 65.7278 124.669 65.752 124.752C65.7821 124.826 65.8334 124.888 65.8992 124.933C65.9651 124.977 66.0426 125 66.122 125C66.2013 125 66.2788 124.977 66.3447 124.933C66.4106 124.888 66.4618 124.826 66.492 124.752C66.517 124.669 66.519 124.58 66.4979 124.496C66.4768 124.411 66.4333 124.334 66.372 124.272Z" fill="#A08DC8"/>
<path d="M136.604 127.72C136.693 127.72 136.779 127.685 136.842 127.622C136.905 127.559 136.94 127.473 136.94 127.384C136.94 127.295 136.905 127.21 136.842 127.147C136.779 127.083 136.693 127.048 136.604 127.048C136.515 127.048 136.429 127.083 136.366 127.147C136.303 127.21 136.268 127.295 136.268 127.384C136.268 127.473 136.303 127.559 136.366 127.622C136.429 127.685 136.515 127.72 136.604 127.72Z" fill="#A08DC8"/>
<path d="M116.308 83.0962C116.39 83.0872 116.466 83.0481 116.522 82.9865C116.577 82.9249 116.607 82.845 116.607 82.7622C116.607 82.6794 116.577 82.5996 116.522 82.5379C116.466 82.4763 116.39 82.4372 116.308 82.4282C116.226 82.4372 116.15 82.4763 116.094 82.5379C116.039 82.5996 116.009 82.6794 116.009 82.7622C116.009 82.845 116.039 82.9249 116.094 82.9865C116.15 83.0481 116.226 83.0872 116.308 83.0962Z" fill="#A08DC8"/>
<path d="M147.432 124.564C147.432 124.596 147.464 124.632 147.484 124.664C147.498 124.686 147.517 124.705 147.539 124.718C147.562 124.731 147.588 124.737 147.614 124.737C147.64 124.737 147.666 124.731 147.689 124.718C147.711 124.705 147.731 124.686 147.744 124.664C147.764 124.632 147.78 124.596 147.796 124.564C148 124.168 147.244 124.168 147.432 124.564Z" fill="#A08DC8"/>
<path d="M106.108 104.424C106.175 104.49 106.264 104.527 106.358 104.527C106.452 104.527 106.541 104.49 106.608 104.424C106.669 104.361 106.713 104.284 106.734 104.198C106.755 104.113 106.753 104.024 106.728 103.94C106.698 103.867 106.647 103.804 106.581 103.76C106.515 103.716 106.437 103.692 106.358 103.692C106.279 103.692 106.201 103.716 106.135 103.76C106.069 103.804 106.018 103.867 105.988 103.94C105.964 104.024 105.963 104.113 105.984 104.198C106.005 104.283 106.048 104.361 106.108 104.424Z" fill="#A08DC8"/>
</g>
<g opacity="0.2">
<path d="M58 131.2C58 131.2 79.288 135.352 100.12 135.352C120.952 135.352 142.264 131.2 142.264 131.2H58Z" fill="#A08DC8"/>
</g>
<path d="M162.448 141.9H37.552V146.556H162.448V141.9Z" fill="#A08DC8"/>
<path d="M64.592 146.56L59.46 157.068L54.304 167.632H49.812L51.48 157.068L53.14 146.56H64.592Z" fill="#A08DC8"/>
<path d="M53.14 146.56H64.596L61.48 152.932H52.136L53.14 146.56Z" fill="#A08DC8"/>
<path d="M148.264 167.632H143.776L138.62 157.068L133.484 146.56H144.94L146.596 157.068L148.264 167.632Z" fill="#A08DC8"/>
<path d="M145.944 152.932H136.6L133.484 146.56H144.936L145.944 152.932Z" fill="#A08DC8"/>
<path d="M149.32 123.852C148.952 122.744 129.34 96.8281 128 96.3321C127.848 96.2641 119.08 102.504 119.08 102.504C118.72 102.988 102.056 99.4641 102.056 99.4641L101.888 119.568L132.244 118.924C132.244 118.924 136.344 121.324 140.096 123.296C142.404 124.496 144.448 125.536 145.032 125.696C146.56 126.08 149.692 124.952 149.32 123.852Z" fill="#AD6359"/>
<path d="M145.044 125.692C144.456 125.54 142.416 124.516 140.112 123.292C136.364 121.328 132.264 118.912 132.264 118.912L125.508 119.06L114.912 102C117.236 102.4 118.968 102.656 119.084 102.504C119.084 102.504 127.844 96.2641 128 96.3321C129.34 96.8281 148.952 122.732 149.32 123.848C149.688 124.964 146.56 126.084 145.044 125.692Z" fill="white"/>
<path d="M149.496 123.884C149.096 122.748 129.412 96.8519 128.036 96.3399C127.516 96.1399 123.236 98.7919 119.08 102.504L131.804 119.2C131.804 119.2 143.54 125.42 145.108 125.82C146.676 126.22 149.884 125.02 149.496 123.884Z" fill="#5A79C0"/>
<path d="M148.18 124.3C144.772 120.04 131.424 102.536 128.376 98.0681C128.352 98.0281 128.376 98.0121 128.404 98.0441C131.876 102.196 145.08 119.808 148.252 124.248C148.316 124.34 148.252 124.4 148.18 124.3Z" fill="#263238"/>
<path d="M142.908 124.848C142.529 124.374 142.252 123.828 142.094 123.242C141.937 122.656 141.902 122.044 141.992 121.444C142.148 120.363 142.714 119.383 143.572 118.708C143.6 118.708 143.636 118.736 143.612 118.76C142.865 119.561 142.399 120.583 142.282 121.672C142.165 122.761 142.404 123.859 142.964 124.8C142.97 124.807 142.974 124.817 142.973 124.827C142.972 124.837 142.967 124.846 142.96 124.852C142.953 124.858 142.943 124.862 142.933 124.861C142.923 124.86 142.914 124.855 142.908 124.848Z" fill="#263238"/>
<path d="M133.272 120.216C131.928 118.496 131.008 116.016 131.608 113.856C131.632 113.772 131.748 113.804 131.764 113.876C132.122 116.002 132.708 118.083 133.512 120.084C133.521 120.115 133.52 120.148 133.508 120.177C133.496 120.207 133.474 120.232 133.445 120.247C133.417 120.263 133.385 120.268 133.353 120.262C133.322 120.257 133.293 120.24 133.272 120.216Z" fill="#263238"/>
<path d="M134.8 121.16C133.456 119.44 132.536 116.96 133.136 114.8C133.16 114.716 133.276 114.748 133.288 114.82C133.65 116.945 134.236 119.026 135.036 121.028C135.049 121.059 135.05 121.094 135.04 121.125C135.029 121.157 135.007 121.184 134.977 121.2C134.948 121.216 134.914 121.221 134.881 121.214C134.848 121.207 134.82 121.187 134.8 121.16Z" fill="#263238"/>
<path d="M136.36 122.104C135.016 120.384 134.096 117.904 134.696 115.744C134.716 115.66 134.836 115.692 134.848 115.764C135.21 117.889 135.796 119.97 136.596 121.972C136.609 122.003 136.61 122.037 136.6 122.069C136.589 122.101 136.567 122.127 136.537 122.144C136.508 122.16 136.474 122.165 136.441 122.158C136.408 122.15 136.379 122.131 136.36 122.104Z" fill="#263238"/>
<path d="M137.904 123.048C136.556 121.328 135.64 118.848 136.24 116.684C136.24 116.604 136.38 116.636 136.392 116.708C136.752 118.834 137.338 120.915 138.14 122.916C138.153 122.947 138.154 122.982 138.144 123.013C138.133 123.045 138.111 123.072 138.081 123.088C138.052 123.104 138.018 123.109 137.985 123.102C137.952 123.095 137.923 123.075 137.904 123.048Z" fill="#263238"/>
<path d="M125.096 102.308C123.616 100.356 126.652 98.056 128.132 100.012C129.612 101.968 126.576 104.264 125.096 102.308Z" fill="#263238"/>
<path d="M132.508 123.544C133.004 121.688 132.676 119.68 132.592 117.792C132.586 117.751 132.571 117.711 132.548 117.677C132.524 117.642 132.493 117.614 132.456 117.594C132.42 117.574 132.379 117.562 132.337 117.561C132.296 117.559 132.254 117.567 132.216 117.584C132.21 117.577 132.203 117.572 132.195 117.568C132.187 117.565 132.179 117.563 132.17 117.563C132.161 117.563 132.153 117.565 132.145 117.568C132.137 117.572 132.13 117.577 132.124 117.584C130.627 118.925 129.508 120.635 128.88 122.544C128.536 123.664 128.668 125.312 130.08 125.636C131.388 125.928 132.216 124.628 132.508 123.544ZM131.128 124.72C129.108 125.984 129.26 123.176 129.548 122.36C129.744 121.838 129.973 121.328 130.236 120.836C130.797 119.826 131.408 118.845 132.068 117.896C132.068 118.828 132.116 119.752 132.136 120.696C132.16 121.788 132.244 124.024 131.128 124.72Z" fill="#263238"/>
<path d="M126.32 112.24C125.292 113.24 126.032 114.72 126.9 115.504C128.422 116.816 130.262 117.704 132.236 118.08C132.245 118.082 132.254 118.082 132.262 118.08C132.271 118.077 132.279 118.073 132.285 118.067C132.292 118.062 132.297 118.054 132.3 118.046C132.304 118.038 132.305 118.029 132.304 118.02C132.346 118.016 132.386 118.002 132.422 117.979C132.457 117.957 132.487 117.926 132.508 117.89C132.53 117.854 132.542 117.813 132.545 117.771C132.548 117.729 132.541 117.687 132.524 117.648C131.624 115.988 130.868 114.096 129.484 112.76C128.676 112 127.296 111.296 126.32 112.24ZM130.644 115.408C131.108 116.208 131.528 117.04 132.02 117.828C130.965 117.356 129.936 116.83 128.936 116.252C128.455 115.968 127.995 115.65 127.56 115.3C126.892 114.752 125.312 112.424 127.696 112.464C129.012 112.488 130.092 114.448 130.644 115.408Z" fill="#263238"/>
<path d="M101.136 93.3H87.512C87.512 93.3 73.26 86.452 61.78 89.2C48.62 92.364 46.936 108.892 56.772 114.736C69.236 122.144 124.7 120.708 124.7 120.708L112.7 100.388C112.7 100.388 94.256 96.504 77.532 97.068L101.132 100.268L101.136 93.3Z" fill="#4A5D6B"/>
<path d="M113.508 101.712C113.494 101.679 113.486 101.644 113.484 101.608L113.46 101.52C113.46 101.456 113.428 101.392 113.408 101.324C113.369 101.188 113.323 101.054 113.268 100.924C113.22 100.792 113.16 100.664 113.1 100.524C113.034 100.399 112.96 100.278 112.876 100.164C112.876 100.164 112.856 100.164 112.844 100.164C112.837 100.162 112.831 100.162 112.824 100.164C112.824 100.164 112.804 100.164 112.792 100.164C112.783 100.162 112.773 100.162 112.764 100.164C110.736 99.7639 96.952 97.8119 94.904 97.5799C92.856 97.3479 90.764 97.1519 88.692 96.9799C84.5569 96.6207 80.4063 96.4712 76.256 96.5319C75.856 96.5319 75.48 96.5519 75.092 96.5679C75.008 96.5399 74.92 96.5239 74.836 96.5039C74.636 96.4559 74.436 96.4079 74.236 96.3679C73.864 96.2959 73.484 96.2399 73.108 96.1839C72.308 96.0639 71.536 95.9799 70.756 95.8359C70.7465 95.8359 70.7373 95.8397 70.7306 95.8465C70.7238 95.8532 70.72 95.8624 70.72 95.8719C70.72 95.8815 70.7238 95.8906 70.7306 95.8974C70.7373 95.9041 70.7465 95.9079 70.756 95.9079C71.556 96.0799 72.316 96.3079 73.1 96.4799C73.328 96.5279 73.552 96.5799 73.78 96.6239C72.26 96.7039 70.74 96.8199 69.224 96.9599C69.216 96.9626 69.2091 96.9677 69.2041 96.9745C69.1992 96.9813 69.1965 96.9895 69.1965 96.9979C69.1965 97.0064 69.1992 97.0146 69.2041 97.0214C69.2091 97.0282 69.216 97.0333 69.224 97.0359C71.288 96.9119 73.368 96.8959 75.44 96.9319C77.512 96.9679 79.544 97.0119 81.596 97.1319C85.748 97.3679 89.892 97.7399 94.028 98.1719C96.348 98.4159 110.4 100.468 112.728 100.572H112.756C112.776 100.624 112.796 100.68 112.82 100.732C112.884 100.856 112.948 100.984 113.02 101.104C113.083 101.225 113.153 101.342 113.228 101.456C113.264 101.512 113.3 101.568 113.34 101.624L113.4 101.708C113.424 101.735 113.444 101.764 113.46 101.796C113.456 101.792 113.536 101.76 113.508 101.712Z" fill="#455A64"/>
<path d="M120.376 119.484C119.632 118.284 119 117.032 118.32 115.808C117.64 114.584 116.956 113.352 116.272 112.124C114.908 109.676 110.012 101.444 109.528 100.868C109.496 100.832 109.436 100.868 109.448 100.916C109.68 101.552 112.736 107.004 113.448 108.216C114.856 110.648 116.332 113.016 117.792 115.416C118.192 116.1 118.636 116.776 119.06 117.46C119.484 118.144 119.932 118.808 120.316 119.508C120.332 119.568 120.4 119.528 120.376 119.484Z" fill="#455A64"/>
<path d="M109.388 102.916C108.164 102.62 106.912 102.432 105.676 102.196C104.44 101.96 103.196 101.728 101.956 101.5C99.476 101.039 96.9907 100.597 94.5 100.176C89.54 99.344 84.556 98.648 79.544 98.176C76.716 97.904 73.884 97.728 71.048 97.52C70.988 97.52 70.992 97.608 71.048 97.612C76.092 97.84 81.132 98.524 86.128 99.24C91.124 99.956 96.016 100.732 100.928 101.564C102.32 101.799 103.712 102.037 105.104 102.28C106.516 102.524 107.928 102.824 109.348 103.004C109.42 103.004 109.444 102.928 109.388 102.916Z" fill="#455A64"/>
<path d="M123.484 189.976C122.284 189.856 92.58 176.504 91.768 175.276C91.456 174.816 93.148 170.372 95.368 165.064C95.84 163.92 96.34 162.74 96.852 161.544C100.16 153.772 103.856 145.604 103.856 145.604L123.756 154.48L116.204 170.172L114.548 173.62C114.548 173.62 123.636 183.82 124.384 185.26C125.132 186.7 124.68 190.096 123.484 189.976Z" fill="#AD6359"/>
<path d="M123.484 189.976C122.284 189.856 92.5801 176.504 91.7681 175.276C91.3921 174.712 93.9681 168.272 96.8321 161.544L116.184 170.172L114.528 173.62C114.528 173.62 123.616 183.82 124.364 185.26C125.112 186.7 124.68 190.096 123.484 189.976Z" fill="white"/>
<path d="M123.484 189.976C122.284 189.856 92.58 176.504 91.768 175.276C91.456 174.816 93.148 170.372 95.368 165.064L114.548 173.62C114.548 173.62 123.636 183.82 124.384 185.26C125.132 186.7 124.68 190.096 123.484 189.976Z" fill="#5A79C0"/>
<path d="M123.6 188.596C118.676 186.236 98.584 177.176 93.536 175.22C93.496 175.22 93.484 175.22 93.536 175.248C98.368 177.696 118.528 186.592 123.576 188.68C123.664 188.72 123.696 188.648 123.6 188.596Z" fill="#263238"/>
<path d="M122.932 183.332C122.384 183.07 121.788 182.923 121.181 182.903C120.573 182.882 119.969 182.987 119.404 183.212C118.387 183.608 117.56 184.38 117.096 185.368C117.096 185.4 117.14 185.424 117.156 185.396C117.769 184.486 118.661 183.8 119.697 183.439C120.733 183.078 121.859 183.063 122.904 183.396C122.912 183.397 122.92 183.396 122.927 183.392C122.934 183.388 122.94 183.382 122.943 183.375C122.946 183.368 122.947 183.359 122.945 183.352C122.943 183.344 122.938 183.337 122.932 183.332Z" fill="#263238"/>
<path d="M116.236 174.984C114.256 174.06 111.628 173.724 109.656 174.8C109.58 174.84 109.656 174.948 109.716 174.944C111.869 174.814 114.029 174.915 116.16 175.244C116.193 175.251 116.228 175.244 116.257 175.227C116.286 175.209 116.307 175.181 116.317 175.149C116.326 175.116 116.323 175.081 116.308 175.051C116.293 175.02 116.268 174.997 116.236 174.984Z" fill="#263238"/>
<path d="M117.508 176.276C115.508 175.352 112.9 175.016 110.928 176.092C110.852 176.132 110.928 176.24 110.984 176.236C113.138 176.106 115.3 176.206 117.432 176.536C117.465 176.543 117.5 176.536 117.529 176.519C117.558 176.501 117.579 176.473 117.589 176.441C117.598 176.408 117.595 176.373 117.58 176.343C117.565 176.312 117.54 176.289 117.508 176.276Z" fill="#263238"/>
<path d="M118.776 177.568C116.796 176.644 114.168 176.308 112.196 177.38C112.12 177.424 112.196 177.532 112.252 177.528C114.406 177.398 116.568 177.498 118.7 177.828C118.733 177.835 118.768 177.828 118.797 177.811C118.826 177.793 118.847 177.765 118.857 177.733C118.866 177.7 118.863 177.665 118.848 177.635C118.833 177.604 118.808 177.58 118.776 177.568Z" fill="#263238"/>
<path d="M120.044 178.86C118.064 177.936 115.436 177.6 113.464 178.672C113.388 178.716 113.464 178.824 113.524 178.82C115.677 178.69 117.837 178.791 119.968 179.12C120.001 179.127 120.036 179.12 120.065 179.103C120.094 179.085 120.115 179.057 120.125 179.025C120.134 178.992 120.131 178.957 120.116 178.927C120.101 178.896 120.076 178.872 120.044 178.86Z" fill="#263238"/>
<path d="M96.9241 171.06C94.6841 170.06 93.1281 173.54 95.3721 174.54C97.6161 175.54 99.1681 172.06 96.9241 171.06Z" fill="#263238"/>
<path d="M120.8 170.632C120.164 169.344 118.528 169.588 117.516 170.18C115.796 171.222 114.381 172.698 113.412 174.46C113.407 174.468 113.405 174.477 113.404 174.486C113.403 174.495 113.405 174.505 113.408 174.513C113.412 174.522 113.417 174.529 113.424 174.535C113.431 174.541 113.439 174.546 113.448 174.548C113.428 174.708 113.54 174.904 113.736 174.868C115.596 174.524 117.628 174.388 119.336 173.484C120.304 172.956 121.38 171.852 120.8 170.632ZM116.448 173.772C115.536 173.96 114.624 174.108 113.72 174.332C114.495 173.475 115.313 172.658 116.172 171.884C116.592 171.514 117.037 171.173 117.504 170.864C118.232 170.4 120.936 169.616 120.16 171.872C119.716 173.12 117.52 173.544 116.432 173.772H116.448Z" fill="#263238"/>
<path d="M108.112 172.976C109.712 174.02 111.74 174.332 113.564 174.832C113.752 174.884 113.884 174.7 113.876 174.536C113.885 174.535 113.893 174.532 113.901 174.527C113.908 174.522 113.914 174.515 113.919 174.507C113.923 174.5 113.925 174.491 113.926 174.482C113.926 174.473 113.924 174.464 113.92 174.456C113.106 172.617 111.824 171.023 110.2 169.836C109.24 169.164 107.628 168.776 106.888 170.008C106.188 171.172 107.168 172.364 108.112 172.976ZM107.416 171.3C106.836 168.984 109.464 170 110.152 170.524C110.591 170.871 111.005 171.248 111.392 171.652C112.181 172.496 112.926 173.38 113.624 174.3C112.744 174 111.844 173.776 110.952 173.5C109.892 173.2 107.736 172.576 107.416 171.3Z" fill="#263238"/>
<path d="M97.2841 159.72L119.684 169.84C119.684 169.84 146.328 118.704 147.024 103.04C147.616 89.7199 138.344 84.5799 108.364 93.1959L101.02 93.2879V98.3559C104.244 98.7799 112.844 100.132 112.844 100.132C119.1 102.492 121.116 103.468 121.016 103.672C105.392 135.2 97.2841 159.72 97.2841 159.72Z" fill="#455A64"/>
<path d="M124.664 98.0641C123.76 99.2641 122.924 100.52 122.124 101.8C117.324 99.6601 112.08 98.4241 106.872 97.7801C105.4 97.6015 103.921 97.4681 102.436 97.3801C102.376 97.3801 102.38 97.4721 102.436 97.4761C107.706 97.8451 112.915 98.836 117.952 100.428C119.348 100.86 120.712 101.356 122.088 101.848C121.128 103.384 120.22 104.96 119.352 106.544C117.729 109.508 116.268 112.558 114.976 115.68C114.256 117.408 113.556 119.148 112.936 120.916C112.936 120.968 113.004 121 113.024 120.952C115.76 114.853 118.745 108.885 121.98 103.048C122.892 101.4 123.844 99.7761 124.736 98.1161C124.768 98.0721 124.696 98.0001 124.664 98.0641Z" fill="#455A64"/>
<path d="M120.156 164.428C118.848 163.92 117.584 163.284 116.308 162.708L112.464 160.984C109.904 159.84 101.056 156.184 100.324 156C100.276 156 100.252 156.06 100.288 156.084C100.856 156.456 106.564 158.996 107.856 159.548C110.44 160.656 113.056 161.68 115.652 162.748C116.396 163.048 117.144 163.332 117.892 163.624C118.64 163.916 119.396 164.184 120.128 164.516C120.172 164.52 120.2 164.444 120.156 164.428Z" fill="#455A64"/>
<path d="M124.552 100.372C122.788 103.728 121.284 107.24 119.752 110.708C118.22 114.176 116.74 117.632 115.296 121.108C112.424 128.057 109.749 135.084 107.272 142.188C105.864 146.188 104.548 150.252 103.272 154.308C103.252 154.368 103.344 154.388 103.364 154.332C105.736 147.156 108.304 140.044 110.984 132.98C113.664 125.916 116.504 118.948 119.512 112.032C120.357 110.091 121.215 108.156 122.084 106.228C122.956 104.296 123.864 102.376 124.68 100.424C124.704 100.36 124.596 100.292 124.552 100.372Z" fill="#455A64"/>
<path d="M86.832 92.8761C87.324 93.3961 118.432 94.1081 118.592 93.9121C119.016 93.3761 114.992 73.6321 111.748 66.0841C107.6 56.4001 105.236 55.5401 103.84 54.9641C102.056 54.2281 98.808 54.4001 98.024 54.7281C97.132 55.0921 93.272 59.4241 92.112 62.9241C89.788 69.9601 86.4 92.4201 86.832 92.8761Z" fill="#455A64"/>
<path d="M106.376 56.6881H95.9561C96.1481 56.4641 96.3561 56.2521 96.5161 56.0601H105.716C105.92 56.2361 106.14 56.4441 106.376 56.6881ZM107.688 58.3281H94.6561L94.2121 58.9521H108.108C107.964 58.7334 107.824 58.5254 107.688 58.3281ZM109.092 60.5921H93.2001C93.0801 60.8001 92.9681 60.9921 92.8601 61.2161H109.448L109.092 60.5921ZM110.272 62.8601H92.1361L92.1121 62.9241C92.0521 63.1001 91.9961 63.2881 91.9361 63.4841H110.572C110.472 63.2681 110.372 63.0641 110.272 62.8601ZM111.328 65.1241H91.4761C91.4241 65.3241 91.3681 65.5241 91.3161 65.7481H111.6L111.328 65.1241ZM112.272 67.3881H90.9201C90.8761 67.5961 90.8281 67.7881 90.7801 68.0161H112.504C112.428 67.8001 112.348 67.6001 112.272 67.3881ZM113.072 69.6561H90.4321C90.3841 69.8641 90.3401 70.0721 90.3001 70.2801H113.276L113.072 69.6561ZM113.78 71.9201H89.9641C89.9241 72.1281 89.8801 72.3201 89.8401 72.5441H113.964C113.9 72.3321 113.84 72.1241 113.776 71.9201H113.78ZM114.432 74.1881H89.5281C89.4881 74.3961 89.4521 74.5881 89.4121 74.8121H114.612C114.544 74.6041 114.488 74.4001 114.428 74.1881H114.432ZM115.044 76.4521H89.1161C89.0761 76.6601 89.0401 76.8521 89.0041 77.0761H115.2C115.148 76.8681 115.096 76.6601 115.04 76.4521H115.044ZM115.624 78.7161H88.7201L88.6121 79.3441H115.772C115.72 79.1361 115.668 78.9241 115.62 78.7161H115.624ZM116.172 80.9841H88.3401C88.3081 81.1921 88.2721 81.3841 88.2401 81.6081H116.312L116.172 80.9841ZM116.692 83.2481H88.0001L87.9041 83.8721H116.848C116.8 83.6641 116.736 83.4561 116.688 83.2481H116.692ZM117.192 85.5121H87.6361C87.6041 85.7241 87.5761 85.9361 87.5441 86.1401H117.32L117.192 85.5121ZM117.664 87.7801H87.3161C87.2841 87.9961 87.2561 88.2041 87.2321 88.4041H117.78C117.744 88.2001 117.7 88.0001 117.66 87.7801H117.664ZM118.1 90.0441H87.0201C86.9961 90.2641 86.9721 90.4761 86.9521 90.6721H118.208C118.172 90.4721 118.136 90.2601 118.096 90.0441H118.1ZM118.5 92.3121H86.8001C86.7704 92.5 86.78 92.692 86.8281 92.8761C86.8857 92.9092 86.9498 92.9296 87.0161 92.9361H118.56C118.54 92.7521 118.512 92.5441 118.48 92.3121H118.5Z" fill="#263238"/>
<path d="M108.996 57.6001C122.412 67.6801 134.012 81.6721 132.9 86.1041C131.72 90.7881 122.448 96.0281 114.256 97.0961C112.58 97.3161 107.392 85.0161 109.108 84.4521C110.448 84.0121 116.536 82.2801 117.264 81.4481C117.768 80.8681 108.324 67.5801 105.264 60.6481C102.032 53.3641 105.404 54.8841 108.996 57.6001Z" fill="#AD6359"/>
<path d="M112.568 84.064C112.568 84.064 107.448 84.576 104.116 85.072C102.256 85.348 99.112 86.104 97.84 86.932C95.936 88.168 88.76 94.56 90.272 96.332C91.64 97.932 93.708 95.396 93.708 95.396C93.708 95.396 91.188 97.96 93.036 99.136C94.884 100.312 97.268 96.736 97.268 96.736C97.268 96.736 94.404 99.272 96.496 100.336C98.312 101.26 101.488 97.444 101.488 97.444C101.488 97.444 98.188 99.78 99.956 100.908C101.908 102.156 107.388 97.036 107.388 97.036C111.768 97.524 114.468 97.224 117.556 96.36C118.12 96.216 112.568 84.064 112.568 84.064Z" fill="#AD6359"/>
<path d="M96.5 97.6001C96.696 97.3281 96.9 97.0601 97.1 96.8001C97.4778 96.2647 97.8865 95.7519 98.324 95.2641C98.76 94.7961 99.216 94.3481 99.684 93.9121C100.152 93.4761 100.728 93.0441 101.208 92.5721C101.211 92.5666 101.215 92.562 101.221 92.5586C101.226 92.5551 101.232 92.553 101.238 92.5523C101.244 92.5516 101.251 92.5523 101.257 92.5545C101.262 92.5567 101.268 92.5602 101.272 92.5648C101.276 92.5694 101.279 92.5749 101.281 92.5809C101.283 92.5869 101.283 92.5933 101.282 92.5994C101.281 92.6056 101.278 92.6114 101.274 92.6164C101.271 92.6213 101.266 92.6253 101.26 92.6281C100.777 93.0883 100.32 93.5757 99.892 94.0881C99.456 94.5761 99.028 95.0681 98.596 95.5601C98.164 96.0521 97.728 96.4921 97.292 96.9601C97.076 97.1961 96.892 97.4401 96.664 97.6801C96.4834 97.9244 96.2827 98.1532 96.064 98.3641C96.0586 98.3664 96.0527 98.3672 96.0469 98.3664C96.041 98.3656 96.0356 98.3632 96.031 98.3594C96.0265 98.3557 96.023 98.3508 96.0211 98.3453C96.0192 98.3398 96.0188 98.3338 96.02 98.3281C96.1535 98.0689 96.3144 97.8248 96.5 97.6001Z" fill="#263238"/>
<path d="M93.2001 95.9401C93.8703 94.924 94.6093 93.9551 95.4121 93.0401C96.2277 92.1309 97.1322 91.3054 98.1121 90.5761C98.1481 90.5521 98.1921 90.6001 98.1641 90.6321C97.3641 91.5441 96.52 92.4401 95.692 93.3401C95.292 93.7801 93.512 95.8321 93.292 96.0241C93.24 96.0721 93.1681 96.0001 93.2001 95.9401Z" fill="#263238"/>
<path d="M99.564 99.2521C100.213 98.3086 100.924 97.4093 101.692 96.5601C102.554 95.774 103.472 95.052 104.44 94.4001C104.476 94.4001 104.524 94.4241 104.492 94.4561C103.632 95.2561 102.764 96.0241 101.948 96.8561C101.548 97.2561 100.052 98.9761 99.636 99.3321C99.6 99.3481 99.54 99.2961 99.564 99.2521Z" fill="#263238"/>
<path d="M123.912 70L113.696 76.624C113.696 76.624 106.116 64.888 104.152 59.328C102.188 53.768 104.476 53.756 109.84 57.784C115.204 61.812 123.912 70 123.912 70Z" fill="#455A64"/>
<path d="M108.288 56.6881H103.488C103.467 56.4793 103.467 56.2688 103.488 56.0601H107.332C107.6 56.2441 107.944 56.4561 108.288 56.6881ZM110.536 58.3281H103.824C103.88 58.5281 103.944 58.7281 104.02 58.9521H111.332L110.536 58.3281ZM113.336 60.5921H104.644C104.728 60.7921 104.82 60.9921 104.916 61.2161H114.076C113.828 61.0041 113.6 60.8001 113.332 60.5921H113.336ZM115.996 62.8601H105.696L106.008 63.4841H116.708L115.996 62.8601ZM118.568 65.1241H106.86C106.972 65.3281 107.084 65.5241 107.2 65.7481H119.256L118.568 65.1241ZM121.076 67.3881H108.108L108.464 68.0161H121.756L121.076 67.3881ZM123.536 69.6561H109.416C109.54 69.8681 109.66 70.0761 109.784 70.2801H123.5L123.9 70.0121L123.536 69.6561ZM110.768 71.9201L111.144 72.5441H120L120.96 71.9201H110.768ZM112.156 74.1881L112.556 74.8121H116.524L117.488 74.1881H112.156ZM113.584 76.4521L113.7 76.6361L113.984 76.4521H113.584Z" fill="#263238"/>
<path d="M121.6 68.548C117.704 71.648 113.856 73.748 113.092 74.288C113.056 74.312 113.024 74.252 113.06 74.228C113.836 73.756 118 70.692 121.56 68.484C121.6 68.456 121.628 68.52 121.6 68.548Z" fill="#263238"/>
<path d="M114.352 76.1839C114.138 76.2764 113.931 76.3833 113.732 76.5039C112.596 74.5439 111.372 72.5599 110.216 70.6079L108.52 67.7439C107.936 66.7479 107.4 65.7079 106.76 64.7479C106.758 64.745 106.756 64.7425 106.754 64.7404C106.751 64.7384 106.748 64.7368 106.745 64.7359C106.742 64.735 106.739 64.7347 106.735 64.735C106.732 64.7354 106.729 64.7363 106.726 64.7379C106.723 64.7395 106.721 64.7416 106.719 64.7442C106.716 64.7468 106.715 64.7497 106.714 64.7529C106.713 64.756 106.713 64.7593 106.713 64.7626C106.714 64.7659 106.714 64.769 106.716 64.7719C107.133 65.7203 107.597 66.6468 108.108 67.5479C108.004 67.4119 107.904 67.2679 107.792 67.1479C107.54 66.8479 107.292 66.5479 107.068 66.2279C107.032 66.1799 106.948 66.2279 106.984 66.2759C107.2 66.5799 107.384 66.8959 107.588 67.2159C107.792 67.5359 107.988 67.8399 108.208 68.1479C108.428 68.4559 108.644 68.7239 108.872 68.9999C108.896 69.0363 108.923 69.071 108.952 69.1039C109.264 69.6759 109.568 70.2479 109.892 70.8119C111.028 72.7839 113.608 76.7559 113.644 76.7439C113.904 76.601 114.152 76.4365 114.384 76.2519C114.4 76.2159 114.4 76.1759 114.352 76.1839Z" fill="#263238"/>
<path d="M92.188 57.2C81.3 62.856 71.076 69.736 69.156 74.516C67.956 77.524 69.4401 82.976 70.6521 86.252C71.2441 87.852 86.3041 81.636 85.0521 80.312C81.9561 77.04 81.452 75.728 81.792 75.064C82.004 74.64 93.9201 64.296 97.2641 59.632C101.928 53.136 96.952 54.724 92.188 57.2Z" fill="#AD6359"/>
<path d="M90.744 95.0839C89.32 95.8839 87.648 92.2079 87.648 92.2079C87.5958 92.9099 87.2984 93.5711 86.808 94.0759C85.904 94.9239 84.18 93.8759 84.18 93.8759C83.9719 94.5916 83.5539 95.2284 82.98 95.7039C82.032 96.4279 80.14 95.6239 80.14 95.6239C79.5865 96.1763 78.8521 96.5101 78.072 96.5639C75.984 96.6279 74.212 93.9759 73.064 92.3039C71.916 90.6319 70.24 84.8039 69.808 83.7279L80.492 76.2839C80.492 76.2839 87.764 82.3319 88.832 84.4919C89.728 86.3119 92.916 93.8639 90.744 95.0839Z" fill="#AD6359"/>
<path d="M87.672 92.156C87.2 90 86.172 87.952 85.2 86C85.176 85.956 85.108 86 85.132 86.032C86.144 87.972 86.66 90.228 87.596 92.2C87.6038 92.204 87.6124 92.2061 87.6212 92.2059C87.63 92.2057 87.6385 92.2033 87.6461 92.1989C87.6537 92.1945 87.66 92.1883 87.6646 92.1808C87.6691 92.1733 87.6716 92.1647 87.672 92.156Z" fill="#263238"/>
<path d="M84.2961 93.744C84.1358 93.2641 83.9139 92.8069 83.6361 92.384C83.3681 91.92 83.0961 91.46 82.8161 91C82.2521 90.088 81.6681 89.188 81.0561 88.304C81.0281 88.264 80.9641 88.304 80.9881 88.34C81.5481 89.252 82.0961 90.172 82.6161 91.104C82.8761 91.572 83.1321 92.044 83.3881 92.512C83.5979 92.9727 83.8582 93.4087 84.1641 93.812C84.1751 93.8254 84.1904 93.8346 84.2074 93.838C84.2244 93.8415 84.242 93.8391 84.2574 93.8311C84.2728 93.8232 84.2851 93.8102 84.2921 93.7944C84.2991 93.7785 84.3005 93.7608 84.2961 93.744Z" fill="#263238"/>
<path d="M80.116 95.5999C79.9667 95.1658 79.7449 94.76 79.46 94.3999C79.192 93.9999 78.932 93.5759 78.66 93.1639C78.136 92.3359 77.616 91.5079 77.124 90.6639C77.118 90.6577 77.1101 90.6535 77.1015 90.6521C77.093 90.6507 77.0841 90.6522 77.0765 90.6563C77.0688 90.6603 77.0626 90.6668 77.0589 90.6747C77.0553 90.6826 77.0542 90.6914 77.0561 90.6999C77.5521 91.5599 78.0361 92.4279 78.5401 93.2839C78.7881 93.6839 79.0361 94.1239 79.2881 94.5439C79.48 94.9474 79.7429 95.3132 80.0641 95.6239C80.0961 95.6239 80.124 95.5999 80.116 95.5999Z" fill="#263238"/>
<path d="M76.46 65.6759L84.432 73.4959C84.432 73.4959 94.916 64.2119 97.952 59.1559C100.988 54.0999 98.752 53.6279 92.684 56.5079C86.616 59.3879 76.46 65.6759 76.46 65.6759Z" fill="#5A79C0"/>
<path d="M76.46 65.6759L84.432 73.4959C84.432 73.4959 94.916 64.2119 97.952 59.1559C100.988 54.0999 98.752 53.6279 92.684 56.5079C86.616 59.3879 76.46 65.6759 76.46 65.6759Z" fill="#455A64"/>
<path d="M99.28 56.0601C99.2536 56.2734 99.2067 56.4837 99.14 56.6881H92.312L92.684 56.5081C93.02 56.3481 93.344 56.2001 93.656 56.0601H99.28ZM89.116 58.3281L87.964 58.9521H98.072C98.2 58.7361 98.32 58.5241 98.428 58.3281H89.116ZM85.036 60.5921L83.944 61.2001H96.508C96.672 60.9881 96.828 60.8001 96.98 60.5761L85.036 60.5921ZM81.128 62.8601L80.084 63.4841H94.6C94.784 63.2761 94.968 63.0841 95.144 62.8601H81.128ZM77.36 65.1241L76.46 65.6761L76.532 65.7481H92.5L93.092 65.1241H77.36ZM78.204 67.3881L78.844 68.0161H90.264L90.892 67.3881H78.204ZM80.516 69.6561L81.152 70.2801H87.92L88.58 69.6561H80.516ZM82.824 71.9201L83.46 72.5441H85.488L86.168 71.9201H82.824Z" fill="#263238"/>
<path d="M86.088 71.452C82.408 68.324 79.688 65.072 79.056 64.448C79.028 64.416 79.08 64.372 79.108 64.404C79.7 65.052 83.392 68.44 86.148 71.404C86.18 71.44 86.124 71.484 86.088 71.452Z" fill="#263238"/>
<path d="M93.14 61.0561C92.74 61.9121 92.34 62.7641 92 63.6441C92 63.5841 92 63.5281 92 63.4681C92.0431 62.9297 92.1246 62.395 92.244 61.8681C92.244 61.8081 92.168 61.7801 92.152 61.8401C92.032 62.3721 91.924 62.9121 91.84 63.4401C91.796 63.7001 91.772 63.9601 91.752 64.2201C91.7538 64.2521 91.7538 64.2841 91.752 64.3161C91.7497 64.3267 91.7497 64.3376 91.752 64.3481C91.352 65.5201 91.12 66.7201 90.788 67.9041C90.7864 67.9099 90.786 67.9159 90.7867 67.9219C90.7875 67.9278 90.7894 67.9335 90.7924 67.9387C90.7954 67.9439 90.7993 67.9485 90.8041 67.9522C90.8088 67.9558 90.8142 67.9585 90.82 67.9601C90.8258 67.9617 90.8318 67.9621 90.8377 67.9614C90.8437 67.9606 90.8494 67.9587 90.8546 67.9557C90.8598 67.9527 90.8644 67.9488 90.868 67.944C90.8717 67.9393 90.8744 67.9339 90.876 67.9281C91.204 66.7681 91.676 65.6441 92.076 64.5121C92.476 63.3801 92.82 62.2241 93.212 61.0841C93.224 61.0481 93.156 61.0161 93.14 61.0561Z" fill="#263238"/>
<path d="M98.748 60.1241C100.5 60.6041 103.632 58.0201 104.908 55.8761C104.996 55.7281 104.824 54.1401 104.708 52.2001C104.64 51.0001 104.592 49.7081 104.636 48.5081C104.636 48.2601 97.036 50.0601 97.036 50.0601C97.4109 51.5782 97.599 53.1364 97.596 54.7001C97.5853 54.8644 97.5612 55.0276 97.524 55.1881C97.5215 55.216 97.5215 55.2441 97.524 55.2721C97.324 56.2001 97.056 59.6561 98.748 60.1241Z" fill="#AD6359"/>
<path d="M104.172 48.52C103.748 50.52 102.304 55.4 98.28 55.32C98.0225 55.3214 97.7654 55.2986 97.512 55.252C97.5092 55.2241 97.5092 55.1959 97.512 55.168C97.5492 55.0076 97.5733 54.8444 97.5841 54.68C97.5867 53.115 97.3987 51.5555 97.024 50.036C97.024 50.036 102.528 48.76 104.172 48.52Z" fill="#263238"/>
<path d="M104.248 38.5321C105.492 41.0361 105.372 48.8841 103.78 50.8961C101.472 53.8121 97.06 54.7881 94.42 51.8721C91.864 49.0401 92.204 38.8161 94.044 36.9241C96.748 34.1361 102.4 34.8361 104.248 38.5321Z" fill="#AD6359"/>
<path d="M98.064 45.3521C98.064 45.3521 98.104 45.3761 98.104 45.4001C98.08 45.9281 98.144 46.5361 98.62 46.7161V46.7481C98.036 46.6601 97.96 45.8481 98.064 45.3521Z" fill="#263238"/>
<path d="M98.544 44.7999C99.392 44.7439 99.44 46.4519 98.652 46.5039C97.864 46.5559 97.828 44.8519 98.544 44.7999Z" fill="#263238"/>
<path d="M95.108 45.4521C95.108 45.4521 95.064 45.4801 95.068 45.5001C95.1 46.0281 95.044 46.6361 94.572 46.8281C94.572 46.8281 94.572 46.8601 94.572 46.8561C95.16 46.7561 95.22 45.9481 95.108 45.4521Z" fill="#263238"/>
<path d="M94.62 44.9121C93.768 44.8721 93.748 46.5801 94.536 46.6161C95.324 46.6521 95.332 44.9481 94.62 44.9121Z" fill="#263238"/>
<path d="M99.292 43.4322C99.0584 43.4155 98.826 43.3848 98.596 43.3402C98.3462 43.3405 98.1032 43.259 97.904 43.1082C97.851 43.0494 97.819 42.9746 97.8132 42.8956C97.8074 42.8167 97.8281 42.738 97.872 42.6722C97.9785 42.5534 98.1146 42.4653 98.2665 42.4168C98.4184 42.3682 98.5805 42.3611 98.736 42.3962C99.0628 42.4164 99.37 42.5593 99.596 42.7962C99.6388 42.8545 99.6649 42.9233 99.6716 42.9953C99.6784 43.0674 99.6655 43.1398 99.6343 43.2051C99.6031 43.2704 99.5548 43.3259 99.4945 43.3659C99.4342 43.4059 99.3643 43.4288 99.292 43.4322Z" fill="#263238"/>
<path d="M93.8 43.6922C94.036 43.6442 94.244 43.5642 94.472 43.4962C94.7185 43.4593 94.9461 43.3427 95.12 43.1642C95.1643 43.0977 95.1851 43.0183 95.1793 42.9387C95.1735 42.859 95.1414 42.7836 95.088 42.7242C94.965 42.6225 94.8169 42.5558 94.6592 42.5312C94.5016 42.5065 94.3402 42.5248 94.192 42.5842C93.8688 42.6516 93.583 42.8388 93.392 43.1082C93.3574 43.1732 93.3415 43.2466 93.3459 43.3201C93.3504 43.3937 93.3751 43.4646 93.4173 43.525C93.4595 43.5854 93.5176 43.633 93.5851 43.6625C93.6527 43.692 93.727 43.7023 93.8 43.6922Z" fill="#263238"/>
<path d="M99.088 50.2402C98.964 50.3642 98.84 50.5402 98.652 50.5602C98.4554 50.5619 98.2605 50.5223 98.08 50.4442C98.08 50.4442 98.044 50.4442 98.056 50.4722C98.1349 50.5738 98.2396 50.6523 98.3593 50.6995C98.4789 50.7466 98.6091 50.7607 98.736 50.7402C98.8426 50.7085 98.9374 50.646 99.0086 50.5606C99.0798 50.4752 99.1241 50.3707 99.136 50.2602C99.144 50.2282 99.104 50.2202 99.088 50.2402Z" fill="#263238"/>
<path d="M96.896 49.34C97.1269 49.6246 97.4272 49.845 97.768 49.98C97.958 50.0404 98.162 50.0404 98.352 49.98C98.772 49.856 98.772 49.468 98.684 49.14C98.6353 48.9648 98.5669 48.7957 98.48 48.636C98.0415 49.0349 97.486 49.2818 96.896 49.34Z" fill="#263238"/>
<path d="M97.7681 50.0002C97.9581 50.0605 98.1621 50.0605 98.3521 50.0002C98.7721 49.8762 98.7721 49.4882 98.6841 49.1602C98.4588 49.1756 98.2454 49.2671 98.079 49.4198C97.9125 49.5724 97.8029 49.777 97.7681 50.0002Z" fill="#FF98B9"/>
<path opacity="0.2" d="M105.084 44.1002C104.572 44.0042 103.388 42.2322 102.88 41.5282C102.372 40.8242 102.172 37.1042 102.144 36.2642C103.046 36.8062 103.775 37.5926 104.248 38.5322C104.8 39.6522 105.084 41.8402 105.084 44.1002Z" fill="#263238"/>
<path d="M95.684 39.1561C95.9805 39.4987 96.3593 39.76 96.7849 39.9154C97.2104 40.0708 97.6686 40.1151 98.116 40.0441C98.5739 39.9707 99.0052 39.781 99.3687 39.4931C99.7322 39.2053 100.016 38.8289 100.192 38.4001C100.192 38.3761 100.24 38.4001 100.232 38.4001C100.085 38.8653 99.813 39.2814 99.4464 39.6035C99.0799 39.9257 98.6323 40.1416 98.152 40.2281C97.6763 40.2883 97.1931 40.2225 96.7508 40.0372C96.3085 39.8518 95.9227 39.5535 95.632 39.1721C95.6 39.1641 95.656 39.1241 95.684 39.1561Z" fill="#263238"/>
<path d="M98.4001 32.58C99.9401 32.608 101.356 33.452 101.928 34.496C102.244 35.0905 102.349 35.774 102.228 36.436C102.228 36.464 102.168 36.46 102.172 36.436C102.2 35.85 102.07 35.2672 101.795 34.7487C101.521 34.2301 101.112 33.7947 100.612 33.488C100.065 33.1322 99.4428 32.9082 98.7945 32.834C98.1461 32.7597 97.4894 32.8371 96.8761 33.06C96.2788 33.2673 95.7733 33.6779 95.4481 34.22C95.4201 34.276 95.3041 34.22 95.3281 34.18C95.7361 33.2 97.0001 32.56 98.4001 32.58Z" fill="#263238"/>
<path d="M89.4721 35.9721C89.7179 35.2092 90.2268 34.5585 90.9081 34.1361C91.8481 33.5481 92.9081 33.6281 93.9761 33.7361C94.0081 33.7361 94.0041 33.7841 93.9761 33.7801C93.0721 33.6961 92.1521 33.6641 91.3241 34.0961C90.638 34.4451 90.0949 35.0222 89.7881 35.7281C89.4936 36.4528 89.4702 37.2594 89.7222 38C89.9742 38.7405 90.4847 39.3654 91.1601 39.7601C91.5545 39.978 91.9894 40.1127 92.438 40.156C92.8865 40.1994 93.3392 40.1504 93.7681 40.0121C93.8001 40.0121 93.8241 40.0481 93.7921 40.0641C93.2122 40.277 92.5845 40.3238 91.9794 40.1995C91.3744 40.0751 90.8161 39.7844 90.3672 39.36C89.9184 38.9357 89.5968 38.3946 89.4387 37.7975C89.2805 37.2004 89.2921 36.571 89.4721 35.9801V35.9721Z" fill="#263238"/>
<path d="M104.768 40.06C104.768 40.06 106.2 37.292 104.964 35.708C104.26 34.812 101.964 34.956 101.964 34.956C101.341 34.0483 100.383 33.4253 99.3 33.224C97.372 32.824 95.096 33.952 95.096 33.952C95.096 33.952 93.26 32.924 91.56 33.92C89.188 35.308 89.524 38.94 91.936 40.084C93.632 40.884 95.908 39.368 95.908 39.368C96.128 39.396 98.396 40.732 100.08 38.704C100.08 38.704 101.476 39.904 102.712 39.044C102.909 39.4038 103.212 39.6942 103.58 39.876C103.948 40.0577 104.362 40.122 104.768 40.06Z" fill="#263238"/>
<path d="M103.656 45.0121C103.656 45.0121 105.02 42.2881 106.232 42.7401C107.444 43.1921 106.668 46.9641 105.432 47.6481C105.278 47.7469 105.107 47.8136 104.926 47.8442C104.746 47.8748 104.562 47.8686 104.385 47.826C104.207 47.7834 104.04 47.7052 103.893 47.5963C103.747 47.4873 103.624 47.3498 103.532 47.1921L103.656 45.0121Z" fill="#AD6359"/>
<path d="M106 43.8162C106.02 43.8162 106.028 43.8402 106 43.8522C105.132 44.3602 104.772 45.2882 104.56 46.2242C104.6 46.124 104.662 46.0338 104.74 45.9597C104.819 45.8856 104.912 45.8293 105.014 45.7947C105.117 45.7601 105.225 45.7481 105.332 45.7594C105.44 45.7707 105.543 45.8051 105.636 45.8602C105.664 45.8602 105.636 45.9162 105.636 45.9122C105.468 45.8824 105.296 45.9048 105.141 45.9764C104.987 46.0479 104.858 46.1651 104.772 46.3122C104.634 46.5659 104.524 46.8342 104.444 47.1122C104.412 47.2042 104.256 47.1802 104.276 47.0802C104.064 45.9002 104.736 44.1202 106 43.8162Z" fill="#263238"/>
<path d="M105.82 56.4319C104.998 57.455 104.119 58.4312 103.188 59.3559C102.288 60.1959 101.188 60.9559 99.988 61.0759C98.788 61.1959 97.588 60.9639 97.144 59.5079C96.784 58.3519 96.832 57.1599 97.024 55.6719C97.024 55.6603 97.0194 55.6491 97.0112 55.6408C97.0029 55.6326 96.9917 55.6279 96.98 55.6279C96.9684 55.6279 96.9572 55.6326 96.9489 55.6408C96.9407 55.6491 96.936 55.6603 96.936 55.6719C96.68 57.5839 96.424 60.5479 98.164 61.1919C100.116 61.9159 102.012 60.8959 103.364 59.5439C104.307 58.6147 105.147 57.5861 105.868 56.4759C105.868 56.4399 105.836 56.3999 105.82 56.4319Z" fill="#263238"/>
<path d="M115.844 100.224H80.272V101.82H115.844V100.224Z" fill="#C7C7C7"/>
<path d="M108.228 100.224L109.448 101.82H80.272V100.224H108.228Z" fill="#A6A6A6"/>
<path d="M106.708 101.82H72.04L69.156 78.2759H103.824L106.708 101.82Z" fill="#C7C7C7"/>
<path d="M90.044 90.0478C90.0494 90.3234 89.9995 90.5973 89.8975 90.8534C89.7955 91.1094 89.6433 91.3425 89.4498 91.5389C89.2564 91.7353 89.0257 91.8911 88.7712 91.997C88.5168 92.1029 88.2437 92.1569 87.968 92.1558C87.4062 92.1539 86.8674 91.9323 86.4668 91.5384C86.0662 91.1445 85.8355 90.6095 85.824 90.0478C85.8171 89.7719 85.8656 89.4975 85.9667 89.2407C86.0679 88.984 86.2196 88.7501 86.4129 88.5531C86.6061 88.3562 86.837 88.2 87.0918 88.0939C87.3466 87.9879 87.6201 87.9341 87.896 87.9358C88.4586 87.9388 88.9978 88.1612 89.3989 88.5556C89.8001 88.95 90.0315 89.4854 90.044 90.0478Z" fill="white"/>
</svg>
