<svg width="100" height="100" viewBox="0 0 100 100" fill="none" xmlns="http://www.w3.org/2000/svg">
<path d="M19.2259 88.7119C36.4379 97.7119 64.3459 97.7119 81.5579 88.7119C98.7699 79.7119 98.7699 65.1399 81.5579 56.1479C64.3459 47.1559 36.4379 47.1479 19.2259 56.1479C2.0139 65.1479 2.0139 79.7199 19.2259 88.7119Z" fill="#F5F5F5"/>
<path d="M65.898 81.6901C70.4146 81.6901 74.076 79.576 74.076 76.9681C74.076 74.3602 70.4146 72.2461 65.898 72.2461C61.3814 72.2461 57.72 74.3602 57.72 76.9681C57.72 79.576 61.3814 81.6901 65.898 81.6901Z" fill="#E0E0E0"/>
<path d="M80.8419 73.54C84.8371 73.54 88.0759 71.6703 88.0759 69.364C88.0759 67.0576 84.8371 65.188 80.8419 65.188C76.8467 65.188 73.6079 67.0576 73.6079 69.364C73.6079 71.6703 76.8467 73.54 80.8419 73.54Z" fill="#E0E0E0"/>
<path d="M74.416 15.7678L75.696 16.5058C75.6881 16.4495 75.6841 16.3927 75.684 16.3358V15.9658C75.684 15.3058 76.148 15.0398 76.718 15.3658C76.9651 15.5179 77.1755 15.7228 77.334 15.9658C77.428 15.1358 78.078 14.8278 78.868 15.2838C79.318 15.5773 79.6925 15.9727 79.9612 16.438C80.2298 16.9033 80.3849 17.4253 80.414 17.9618V18.5158C80.42 18.7376 80.3756 18.9578 80.284 19.1598L81.346 19.7718C81.5137 19.8815 81.6531 20.0293 81.7528 20.203C81.8526 20.3768 81.9098 20.5717 81.92 20.7718C81.92 21.1378 81.662 21.2858 81.346 21.1018L74.416 17.1018C74.2486 16.992 74.1095 16.8442 74.0101 16.6704C73.9107 16.4966 73.8538 16.3018 73.844 16.1018C73.844 15.7318 74.1 15.5838 74.416 15.7678Z" fill="#EBEBEB"/>
<path d="M68.944 19.4936L69.91 20.0496C69.9037 20.0072 69.9004 19.9645 69.9 19.9216V19.6436C69.9 19.1456 70.25 18.9436 70.682 19.1916C70.8666 19.3065 71.0247 19.4592 71.146 19.6396C71.216 19.0136 71.708 18.7816 72.304 19.1256C72.6437 19.3472 72.9264 19.6458 73.129 19.9971C73.3316 20.3484 73.4484 20.7426 73.47 21.1476V21.5656C73.4747 21.7323 73.4412 21.8979 73.372 22.0496L74.172 22.5116C74.2977 22.5941 74.4023 22.7049 74.4773 22.8352C74.5524 22.9654 74.5958 23.1115 74.604 23.2616C74.604 23.5376 74.404 23.6496 74.172 23.5116L68.942 20.4916C68.816 20.4099 68.7112 20.2996 68.6361 20.1696C68.561 20.0395 68.5178 19.8936 68.51 19.7436C68.512 19.4676 68.704 19.3556 68.944 19.4936Z" fill="#EBEBEB"/>
<path d="M15.6959 79.1559C15.5699 79.2239 13.2139 79.8939 12.3419 78.7399C11.4699 77.5859 12.9179 75.7919 12.0979 75.1299C11.2779 74.4679 8.98789 75.1299 8.43589 73.7399C7.88389 72.3499 9.51989 71.7399 8.59989 70.3399C8.01989 69.4559 6.39989 68.9679 6.47389 68.1399C6.58189 66.9399 8.79589 66.6119 10.7319 67.9019C12.6679 69.1919 13.5679 68.1339 14.1839 68.0479C14.7999 67.9619 16.1219 68.1519 16.0779 70.3079C16.0339 72.4639 15.6959 79.1559 15.6959 79.1559Z" fill="#455A64"/>
<path d="M15.852 76.0898C15.8216 76.0897 15.7922 76.0788 15.7691 76.059C15.746 76.0392 15.7307 76.0118 15.726 75.9818C15.052 71.8898 10.296 68.5598 7.82196 67.8458C7.7895 67.8356 7.76223 67.8133 7.74583 67.7835C7.72944 67.7537 7.72518 67.7187 7.73396 67.6858C7.73877 67.6696 7.74673 67.6545 7.75739 67.6414C7.76805 67.6283 7.78119 67.6175 7.79606 67.6095C7.81094 67.6015 7.82724 67.5965 7.84404 67.5949C7.86085 67.5932 7.87781 67.5949 7.89396 67.5998C10.422 68.3298 15.294 71.7418 15.98 75.9398C15.9852 75.9734 15.977 76.0078 15.9572 76.0354C15.9374 76.0631 15.9075 76.0819 15.874 76.0878L15.852 76.0898Z" fill="white"/>
<path d="M10.2439 72.664C10.2217 72.6641 10.2 72.6584 10.1807 72.6475C10.1614 72.6367 10.1453 72.621 10.1339 72.602C10.1168 72.5727 10.1119 72.5379 10.1201 72.5051C10.1283 72.4722 10.149 72.4438 10.1779 72.426C10.2559 72.38 12.0859 71.31 13.8879 71.81C13.9042 71.8144 13.9195 71.822 13.9329 71.8323C13.9462 71.8427 13.9574 71.8556 13.9658 71.8703C13.9742 71.8849 13.9795 71.9012 13.9816 71.9179C13.9837 71.9347 13.9824 71.9517 13.9779 71.968C13.9737 71.9845 13.9663 71.9999 13.956 72.0135C13.9457 72.027 13.9328 72.0383 13.9181 72.0467C13.9033 72.0551 13.887 72.0604 13.8701 72.0624C13.8532 72.0643 13.8362 72.0628 13.8199 72.058C12.1239 71.588 10.3279 72.636 10.3099 72.646C10.2899 72.658 10.2671 72.6642 10.2439 72.664Z" fill="white"/>
<path d="M84.384 67.3999H84.4C84.428 67.3946 84.4529 67.3783 84.469 67.3547C84.4851 67.3311 84.4912 67.3021 84.4859 67.2739C84.0539 64.9879 85.9359 60.7499 88.4539 59.5459C88.4805 59.5335 88.501 59.511 88.5109 59.4834C88.5208 59.4559 88.5194 59.4255 88.507 59.3989C88.4945 59.3724 88.472 59.3519 88.4444 59.342C88.4169 59.3321 88.3865 59.3335 88.3599 59.3459C85.7599 60.5859 83.8279 64.9459 84.2719 67.3099C84.2763 67.3361 84.2902 67.3597 84.3108 67.3763C84.3315 67.3929 84.3575 67.4013 84.384 67.3999Z" fill="white"/>
<path d="M84.274 67.8321C84.2589 67.836 84.2431 67.836 84.228 67.8321C84.2032 67.8219 84.1834 67.8024 84.1729 67.7776C84.1624 67.7529 84.1621 67.7251 84.172 67.7001C85.432 64.5701 89.452 62.3282 91.848 61.5842C91.8607 61.5802 91.8741 61.5788 91.8874 61.58C91.9007 61.5813 91.9136 61.5853 91.9253 61.5916C91.9371 61.5979 91.9474 61.6066 91.9558 61.617C91.9641 61.6274 91.9703 61.6393 91.974 61.6521C91.9816 61.6776 91.9789 61.705 91.9666 61.7285C91.9543 61.7521 91.9332 61.7699 91.908 61.7782C89.55 62.5102 85.594 64.7102 84.36 67.7782C84.3515 67.7938 84.3391 67.8069 84.324 67.8164C84.309 67.8258 84.2918 67.8312 84.274 67.8321Z" fill="white"/>
<path d="M55.768 62.2398C55.789 62.629 55.9015 63.0077 56.0965 63.3451C56.2914 63.6826 56.5633 63.9692 56.89 64.1818C57.0798 64.3066 57.3098 64.3552 57.534 64.3178C57.4979 64.3553 57.4569 64.3876 57.412 64.4138L57.682 64.2598L57.696 64.2498L57.736 64.2238C57.754 64.2107 57.7707 64.196 57.786 64.1798L57.816 64.1498C57.816 64.1398 57.834 64.1298 57.842 64.1178C57.8793 64.0657 57.9101 64.0093 57.934 63.9498L57.954 63.8958C57.9549 63.8865 57.9549 63.8771 57.954 63.8678C57.9589 63.852 57.9629 63.836 57.966 63.8198C57.9868 63.7279 57.9969 63.634 57.996 63.5398C57.9749 63.1512 57.8625 62.773 57.6679 62.4359C57.4733 62.0988 57.202 61.8124 56.876 61.5998C56.7253 61.5047 56.552 61.4515 56.374 61.4458H56.304L56.24 61.4578L56.202 61.4678H56.178C56.162 61.472 56.1466 61.4781 56.132 61.4858L56.09 61.5078L55.856 61.6418C55.8939 61.6225 55.9343 61.6083 55.976 61.5998C55.8257 61.7778 55.7511 62.0075 55.768 62.2398ZM57.614 64.2918H57.634H57.614Z" fill="#5A79C0"/>
<path d="M32.4858 75.1438L34.0678 77.8918L34.3358 77.7358L57.4118 64.4138C57.4568 64.3876 57.4978 64.3553 57.5338 64.3178C57.6787 64.1412 57.7503 63.9157 57.7338 63.6878C57.7122 63.2988 57.5994 62.9203 57.4045 62.583C57.2096 62.2456 56.9381 61.9588 56.6118 61.7458C56.4607 61.652 56.2876 61.5996 56.1098 61.5938C56.062 61.5931 56.0143 61.5985 55.9678 61.6098C55.9261 61.6184 55.8858 61.6325 55.8478 61.6518L55.8278 61.6618L32.4858 75.1438Z" fill="#EBEBEB"/>
<path d="M33.28 75.2218C32.66 74.8638 32.158 75.1538 32.158 75.8678C32.1789 76.257 32.2915 76.6357 32.4865 76.9731C32.6814 77.3106 32.9533 77.5972 33.28 77.8098C33.898 78.1678 34.4 77.8778 34.4 77.1618C34.3789 76.7732 34.2665 76.395 34.0719 76.0579C33.8773 75.7208 33.606 75.4344 33.28 75.2218Z" fill="#5A79C0"/>
<path d="M30.8698 76.8878C30.8775 76.8758 30.887 76.8651 30.8978 76.8558L32.3278 75.2818L32.3398 75.2698L32.3658 75.2418L32.3798 75.2258C32.5798 75.0258 32.9078 75.0138 33.2758 75.2258C33.6018 75.4384 33.8731 75.7248 34.0677 76.0619C34.2623 76.399 34.3747 76.7772 34.3958 77.1658C34.3958 77.5818 34.2258 77.8518 33.9638 77.9378H33.9478C33.9209 77.9457 33.8935 77.9517 33.8658 77.9558H33.8478L31.7758 78.4078C31.6496 78.4289 31.5201 78.401 31.4138 78.3298C31.2272 78.2087 31.0717 78.0452 30.9602 77.8527C30.8486 77.6601 30.7841 77.444 30.7718 77.2218C30.7651 77.1025 30.7997 76.9846 30.8698 76.8878Z" fill="#E0E0E0"/>
<path d="M49.1999 66.6798L49.2379 66.6578C49.2811 66.6432 49.3272 66.639 49.3724 66.6456C49.4176 66.6522 49.4606 66.6694 49.4979 66.6958C49.6142 66.7712 49.711 66.8729 49.7805 66.9928C49.85 67.1128 49.8902 67.2474 49.8979 67.3858C49.9014 67.4303 49.8948 67.475 49.8786 67.5166C49.8623 67.5582 49.8367 67.5955 49.8039 67.6258L49.7539 67.6538L32.7199 77.4878L31.5999 76.8398L49.1999 66.6798Z" fill="#455A64"/>
<path d="M34.2999 76.5716L32.7179 77.4856L31.5979 76.8376L33.7399 75.5996C33.9922 75.8811 34.183 76.2121 34.2999 76.5716Z" fill="#37474F"/>
<path d="M30.3059 77.6339L31.5999 76.1999L31.6339 76.1619C31.7779 76.0179 32.0099 76.0059 32.2739 76.1619C32.5061 76.3111 32.6997 76.5133 32.8388 76.7518C32.9778 76.9902 33.0584 77.2583 33.0739 77.5339C33.0739 77.8259 32.9559 78.0159 32.7719 78.0779H32.7599L32.7079 78.0899L30.7999 78.5099C30.7302 78.5186 30.6596 78.5031 30.5999 78.4659C30.4951 78.397 30.4078 78.3045 30.3453 78.1958C30.2828 78.087 30.2467 77.9651 30.2399 77.8399C30.2339 77.7652 30.2576 77.6911 30.3059 77.6339Z" fill="#5A79C0"/>
<path opacity="0.1" d="M30.3059 77.6339L31.5999 76.1999L31.6339 76.1619C31.7779 76.0179 32.0099 76.0059 32.2739 76.1619C32.5061 76.3111 32.6997 76.5133 32.8388 76.7518C32.9778 76.9902 33.0584 77.2583 33.0739 77.5339C33.0739 77.8259 32.9559 78.0159 32.7719 78.0779H32.7599L32.7079 78.0899L30.7999 78.5099C30.7302 78.5186 30.6596 78.5031 30.5999 78.4659C30.4951 78.397 30.4078 78.3045 30.3453 78.1958C30.2828 78.087 30.2467 77.9651 30.2399 77.8399C30.2339 77.7652 30.2576 77.6911 30.3059 77.6339Z" fill="black"/>
<path d="M30.2338 77.8399C30.2405 77.9651 30.2766 78.0871 30.3392 78.1958C30.4017 78.3045 30.4889 78.397 30.5938 78.4659C30.6532 78.5037 30.7243 78.5186 30.7938 78.5079L31.7538 78.2979C31.9058 78.2659 32.0058 78.1239 32.0058 77.8979C31.9953 77.6976 31.9376 77.5027 31.8375 77.3289C31.7374 77.1551 31.5977 77.0075 31.4298 76.8979C31.3642 76.8454 31.2828 76.8169 31.1988 76.8169C31.1149 76.8169 31.0334 76.8454 30.9678 76.8979L30.9418 76.9259L30.2978 77.6339C30.2739 77.6621 30.2558 77.695 30.2448 77.7304C30.2339 77.7657 30.2301 77.803 30.2338 77.8399Z" fill="#5A79C0"/>
<path opacity="0.1" d="M30.6 77.6316C30.4 77.5176 30.24 77.6096 30.24 77.8316C30.2467 77.9568 30.2828 78.0788 30.3453 78.1875C30.4079 78.2963 30.4951 78.3888 30.6 78.4576C30.8 78.5716 30.96 78.4776 30.96 78.2476C30.9517 78.124 30.9149 78.0041 30.8525 77.8972C30.79 77.7903 30.7036 77.6994 30.6 77.6316Z" fill="black"/>
<path d="M53.4339 64.2296C53.4791 64.2086 53.5291 64.2 53.5787 64.205C53.6283 64.2099 53.6757 64.2281 53.7159 64.2576C53.8318 64.3325 53.9284 64.4336 53.9979 64.5528C54.0674 64.672 54.1078 64.8059 54.1159 64.9436C54.1215 64.9928 54.1136 65.0425 54.0932 65.0876C54.0728 65.1327 54.0405 65.1714 53.9999 65.1996L49.7999 67.6196C49.8328 67.5894 49.8583 67.552 49.8746 67.5105C49.8909 67.4689 49.8975 67.4241 49.8939 67.3796C49.8863 67.2412 49.8461 67.1066 49.7765 66.9867C49.707 66.8668 49.6102 66.765 49.4939 66.6896C49.4566 66.6633 49.4136 66.6461 49.3684 66.6395C49.3233 66.6329 49.2772 66.637 49.2339 66.6516L53.4339 64.2296Z" fill="#FAFAFA"/>
<path d="M53.3178 64.486C53.3259 64.624 53.3663 64.7582 53.4358 64.8777C53.5053 64.9972 53.6019 65.0987 53.7178 65.174C53.7557 65.2087 53.8037 65.2305 53.8548 65.2362C53.9059 65.2418 53.9574 65.2311 54.002 65.2054C54.0466 65.1798 54.0818 65.1407 54.1026 65.0936C54.1235 65.0466 54.1288 64.9942 54.1178 64.944C54.1097 64.8063 54.0693 64.6724 53.9998 64.5532C53.9303 64.434 53.8337 64.3329 53.7178 64.258C53.68 64.2235 53.6323 64.2019 53.5815 64.1963C53.5306 64.1907 53.4793 64.2013 53.4349 64.2266C53.3905 64.2519 53.3552 64.2906 53.3342 64.3373C53.3131 64.3839 53.3074 64.4359 53.3178 64.486Z" fill="#F5F5F5"/>
<path d="M54.1998 62.7999H54.2138L54.2298 62.7899L55.8838 61.8359L55.9238 61.8139C56.036 61.7703 56.1573 61.7553 56.2767 61.7703C56.3961 61.7853 56.5099 61.8299 56.6078 61.8999C56.9 62.0919 57.1428 62.35 57.3166 62.6534C57.4903 62.9567 57.5901 63.2968 57.6078 63.6459C57.6212 63.7719 57.6006 63.8992 57.5482 64.0146C57.4958 64.1299 57.4135 64.2291 57.3098 64.3019L55.6358 65.2679H55.6258C55.5121 65.3156 55.3882 65.3335 55.2657 65.3198C55.1432 65.3062 55.0262 65.2615 54.9258 65.1899C54.6338 64.9973 54.3912 64.7388 54.2175 64.4351C54.0438 64.1315 53.9439 63.7913 53.9258 63.4419C53.9135 63.3205 53.9322 63.1979 53.9801 63.0856C54.028 62.9734 54.1036 62.8751 54.1998 62.7999Z" fill="#5A79C0"/>
<path opacity="0.05" d="M54.1998 62.7999H54.2138L54.2298 62.7899L55.8838 61.8359L55.9238 61.8139C56.036 61.7703 56.1573 61.7553 56.2767 61.7703C56.3961 61.7853 56.5099 61.8299 56.6078 61.8999C56.9 62.0919 57.1428 62.35 57.3166 62.6534C57.4903 62.9567 57.5901 63.2968 57.6078 63.6459C57.6212 63.7719 57.6006 63.8992 57.5482 64.0146C57.4958 64.1299 57.4135 64.2291 57.3098 64.3019L55.6358 65.2679H55.6258C55.5121 65.3156 55.3882 65.3335 55.2657 65.3198C55.1432 65.3062 55.0262 65.2615 54.9258 65.1899C54.6338 64.9973 54.3912 64.7388 54.2175 64.4351C54.0438 64.1315 53.9439 63.7913 53.9258 63.4419C53.9135 63.3205 53.9322 63.1979 53.9801 63.0856C54.028 62.9734 54.1036 62.8751 54.1998 62.7999Z" fill="black"/>
<path opacity="0.1" d="M54.938 62.8458C54.382 62.5238 53.938 62.7858 53.938 63.4278C53.956 63.7771 54.0559 64.1173 54.2296 64.421C54.4033 64.7246 54.646 64.9832 54.938 65.1758C55.496 65.4978 55.948 65.2358 55.948 64.5938C55.929 64.2435 55.8276 63.9027 55.6521 63.5989C55.4766 63.2952 55.232 63.0372 54.938 62.8458Z" fill="black"/>
<path d="M29.7761 78.2357L30.4601 77.8237C30.481 77.8123 30.5048 77.8072 30.5285 77.8089C30.5523 77.8107 30.575 77.8193 30.5941 77.8337C30.6485 77.8681 30.6939 77.9151 30.7263 77.9709C30.7587 78.0266 30.7771 78.0893 30.7801 78.1537C30.7819 78.1766 30.778 78.1996 30.7685 78.2206C30.7591 78.2416 30.7445 78.2599 30.7261 78.2737L30.0441 78.6857C30.0046 78.7065 29.9607 78.7175 29.9161 78.7177C29.8466 78.7177 29.7799 78.6901 29.7308 78.6409C29.6817 78.5918 29.6541 78.5251 29.6541 78.4557C29.6541 78.4117 29.6653 78.3684 29.6867 78.3299C29.708 78.2914 29.7388 78.259 29.7761 78.2357Z" fill="#455A64"/>
<path d="M29.7359 78.2658L29.7719 78.2358C29.7921 78.2297 29.8134 78.2284 29.8342 78.2319C29.855 78.2353 29.8748 78.2435 29.8919 78.2558C29.946 78.2904 29.991 78.3376 30.023 78.3933C30.0551 78.449 30.0732 78.5116 30.0759 78.5758C30.0782 78.5983 30.0747 78.621 30.0656 78.6417C30.0564 78.6624 30.0421 78.6803 30.0239 78.6938H30.0099H29.9959C29.9692 78.7044 29.9406 78.7092 29.9119 78.7078C29.8424 78.7078 29.7758 78.6802 29.7266 78.6311C29.6775 78.5819 29.6499 78.5153 29.6499 78.4458C29.6541 78.3769 29.685 78.3124 29.7359 78.2658Z" fill="#263238"/>
<path d="M16.534 80.0626L15.836 79.6626C15.7198 79.5871 15.6231 79.4853 15.5536 79.3654C15.4841 79.2455 15.4438 79.111 15.436 78.9726V27.2586C15.4437 27.1202 15.4839 26.9856 15.5534 26.8657C15.6229 26.7458 15.7197 26.644 15.836 26.5686L47.916 8.0466C48.0398 7.98324 48.1769 7.9502 48.316 7.9502C48.4551 7.9502 48.5922 7.98324 48.716 8.0466L49.414 8.4466C49.5302 8.52211 49.627 8.62393 49.6965 8.74381C49.766 8.86369 49.8063 8.99826 49.814 9.1366V60.8506C49.8066 60.989 49.7664 61.1237 49.6969 61.2437C49.6274 61.3636 49.5304 61.4653 49.414 61.5406L17.33 80.0626C17.2068 80.1256 17.0704 80.1585 16.932 80.1585C16.7936 80.1585 16.6572 80.1256 16.534 80.0626Z" fill="#7459AF"/>
<path opacity="0.4" d="M49.8 9.07412C49.774 8.87412 49.6 8.79212 49.4 8.90812L17.33 27.4301C17.213 27.504 17.1161 27.6057 17.048 27.7261L15.552 26.8641C15.6201 26.7437 15.717 26.642 15.834 26.5681L47.916 8.04612C48.0397 7.98244 48.1769 7.94922 48.316 7.94922C48.4551 7.94922 48.5923 7.98244 48.716 8.04612L49.416 8.44612C49.5213 8.51716 49.61 8.61001 49.6763 8.71836C49.7426 8.82671 49.7847 8.94804 49.8 9.07412Z" fill="white"/>
<path opacity="0.15" d="M17.2601 80.0939C17.2522 80.0955 17.244 80.0955 17.2361 80.0939L17.1961 80.1079H17.1801C17.1561 80.1079 17.1321 80.1199 17.1061 80.1259C16.9475 80.1559 16.7838 80.1427 16.6321 80.0879C16.6019 80.0766 16.5725 80.0632 16.5441 80.0479L15.8441 79.6479C15.7282 79.5721 15.6317 79.4701 15.5623 79.3503C15.4928 79.2305 15.4523 79.0961 15.4441 78.9579V27.2579C15.4487 27.117 15.4885 26.9794 15.5601 26.8579L17.0561 27.7199C16.9821 27.8405 16.9414 27.9785 16.9381 28.1199V79.8339C16.9338 79.909 16.9557 79.9832 17.0001 80.0439C17.0247 80.075 17.058 80.098 17.0958 80.1101C17.1335 80.1222 17.174 80.1229 17.2121 80.1119C17.2286 80.1075 17.2447 80.1015 17.2601 80.0939Z" fill="black"/>
<path d="M39.7881 17.568L39.7301 17.532L39.0681 17.152C38.8273 17.0177 38.5657 16.9251 38.2941 16.878C38.1801 16.852 38.0781 16.822 37.9881 16.792C37.8882 16.7593 37.7907 16.7199 37.6961 16.674L37.7441 16.612L37.0001 16.178C36.9373 16.1429 36.87 16.1167 36.8001 16.1C36.5181 16.03 36.0961 16.194 35.6761 16.146C35.5232 16.131 35.3755 16.0826 35.2435 16.0041C35.1114 15.9257 34.9983 15.8191 34.9121 15.692C34.6561 15.348 34.5021 14.746 34.2761 14.246L34.4761 13.956C34.4561 13.9435 34.4354 13.9321 34.4141 13.922L33.7281 13.522C33.6123 13.4538 33.4804 13.4179 33.3461 13.418C33.0897 13.4315 32.8414 13.5122 32.6261 13.652C30.9841 14.602 30.9281 16.852 30.3361 18.336C29.7441 19.82 28.9061 20.282 28.4501 20.92C27.9941 21.558 27.9621 22.03 26.9521 23.422C25.9421 24.814 25.9021 25.154 25.9021 25.422V27.496L26.6501 27.928L40.0941 20.162L39.7881 17.568ZM27.4601 25.568C27.2861 25.666 27.1421 25.532 27.1421 25.262C27.1404 25.1328 27.1682 25.005 27.2233 24.8883C27.2784 24.7715 27.3594 24.6688 27.4601 24.588C27.6341 24.488 27.7761 24.626 27.7761 24.896C27.7775 25.024 27.7498 25.1507 27.6951 25.2664C27.6403 25.3821 27.56 25.4839 27.4601 25.564V25.568ZM33.3661 19.746C33.2814 19.8078 33.1834 19.849 33.08 19.8664C32.9765 19.8839 32.8705 19.877 32.7701 19.8463C32.6698 19.8157 32.578 19.7621 32.502 19.6898C32.426 19.6176 32.3678 19.5286 32.3321 19.43C31.8101 19.53 31.4221 19.03 31.4221 18.162C31.4221 17.142 31.9601 16.008 32.6221 15.624C32.707 15.5622 32.8051 15.521 32.9086 15.5038C33.0121 15.4865 33.1183 15.4935 33.2186 15.5244C33.319 15.5552 33.4107 15.609 33.4867 15.6815C33.5626 15.754 33.6206 15.8432 33.6561 15.942C34.1781 15.838 34.5641 16.342 34.5641 17.208C34.5641 18.224 34.0301 19.358 33.3661 19.742V19.746ZM37.8321 19.578C37.6561 19.68 37.5141 19.544 37.5141 19.274C37.5109 19.1446 37.538 19.0163 37.5932 18.8993C37.6484 18.7822 37.7302 18.6798 37.8321 18.6C38.0081 18.498 38.1501 18.634 38.1501 18.904C38.1525 19.0326 38.1251 19.1601 38.0699 19.2764C38.0147 19.3926 37.9333 19.4945 37.8321 19.574V19.578Z" fill="#455A64"/>
<path opacity="0.5" d="M27.4001 25.9341L25.9541 25.1001C25.9211 25.2042 25.9049 25.3129 25.9061 25.4221V27.4961L26.6541 27.9281L27.4001 27.4961V25.9341Z" fill="#37474F"/>
<path opacity="0.5" d="M28.8861 23.3463L29.6341 21.6203L28.4461 20.9243C28.0981 21.4063 27.9961 21.7963 27.5281 22.5623L28.8861 23.3463Z" fill="#37474F"/>
<path opacity="0.5" d="M31.876 19.8961L31.972 19.3921C31.642 19.2541 31.422 18.8081 31.422 18.1581C31.422 17.2921 31.81 16.3461 32.332 15.8441L31.296 15.2441C30.856 16.2441 30.696 17.4441 30.332 18.3381C30.256 18.5381 30.174 18.7041 30.092 18.8641L31.876 19.8961Z" fill="#37474F"/>
<path d="M39.788 17.5683L39.73 17.5323C39.5099 17.4302 39.2782 17.3549 39.04 17.3083C38.6491 17.2396 38.2849 17.0638 37.988 16.8003C37.9128 16.7324 37.8311 16.6721 37.744 16.6203C37.6819 16.5835 37.6144 16.5565 37.544 16.5403C37.092 16.4303 36.268 16.9243 35.676 16.1563C35.6689 16.1492 35.6628 16.1411 35.658 16.1323C35.244 15.5763 35.092 14.3323 34.472 13.9663C34.452 13.9538 34.4313 13.9425 34.41 13.9323C34.154 13.8123 33.822 13.8343 33.366 14.0943C31.724 15.0443 31.668 17.2943 31.076 18.7783C30.484 20.2623 29.648 20.7243 29.192 21.3623C28.736 22.0003 28.706 22.4723 27.694 23.8643C26.682 25.2563 26.646 25.5983 26.646 25.8643V27.9403L40.09 20.1743V18.0903C40.1001 17.9827 40.0765 17.8746 40.0224 17.7811C39.9683 17.6875 39.8863 17.6132 39.788 17.5683ZM28.2 26.0003C28.024 26.1023 27.882 25.9663 27.882 25.6943C27.8796 25.5654 27.907 25.4376 27.9622 25.321C28.0174 25.2045 28.0987 25.1022 28.2 25.0223C28.376 24.9203 28.516 25.0583 28.516 25.3283C28.5187 25.4571 28.4915 25.5848 28.4367 25.7014C28.3819 25.8179 28.3009 25.9202 28.2 26.0003ZM33.36 19.7483C33.2753 19.8102 33.1773 19.8514 33.0739 19.8688C32.9704 19.8862 32.8644 19.8793 32.764 19.8487C32.6637 19.818 32.5719 19.7644 32.4959 19.6922C32.4199 19.6199 32.3617 19.531 32.326 19.4323C32.2086 19.169 32.1525 18.8825 32.162 18.5943C32.162 17.5763 32.698 16.4403 33.362 16.0583C33.4517 16.0046 33.5497 15.9661 33.652 15.9443C34.174 15.8403 34.56 16.3443 34.56 17.2103C34.564 18.2243 34.03 19.3583 33.366 19.7423L33.36 19.7483ZM38.578 20.0003C38.402 20.1023 38.26 19.9663 38.26 19.6983C38.2571 19.5693 38.2843 19.4414 38.3396 19.3247C38.3948 19.2081 38.4764 19.1059 38.578 19.0263C38.752 18.9243 38.894 19.0603 38.894 19.3303C38.8965 19.4588 38.8693 19.5861 38.8145 19.7023C38.7597 19.8186 38.6787 19.9205 38.578 20.0003Z" fill="#37474F"/>
<path d="M34.5641 17.2C34.5641 18.22 34.0301 19.354 33.3641 19.738C33.2793 19.7998 33.1814 19.841 33.0779 19.8585C32.9745 19.8759 32.8684 19.869 32.7681 19.8383C32.6678 19.8077 32.576 19.7541 32.5 19.6818C32.424 19.6096 32.3658 19.5206 32.3301 19.422C32.4321 19.3994 32.53 19.3609 32.6201 19.308C33.2821 18.924 33.8201 17.79 33.8201 16.77C33.8288 16.4825 33.7727 16.1968 33.6561 15.934C34.1781 15.834 34.5641 16.336 34.5641 17.2Z" fill="#263238"/>
<path d="M28.2 26.0002C28.024 26.1002 27.882 25.9642 27.882 25.6962C27.8796 25.5669 27.907 25.4389 27.9621 25.322C28.0173 25.2051 28.0987 25.1025 28.2 25.0222C28.374 24.9202 28.516 25.0602 28.516 25.3282C28.5182 25.4569 28.4908 25.5844 28.4361 25.7009C28.3813 25.8174 28.3005 25.9198 28.2 26.0002Z" fill="#263238"/>
<path d="M38.5779 20.0003C38.4019 20.1003 38.2599 19.9663 38.2599 19.6963C38.2575 19.5671 38.2849 19.439 38.3401 19.3221C38.3952 19.2052 38.4766 19.1026 38.5779 19.0223C38.7519 18.9223 38.8939 19.0603 38.8939 19.3303C38.896 19.4587 38.8685 19.5859 38.8138 19.702C38.759 19.8182 38.6783 19.9202 38.5779 20.0003Z" fill="#263238"/>
<path d="M19.4121 32.2682L47.3281 16.1502C47.4022 16.1128 47.4841 16.0933 47.5671 16.0933C47.6501 16.0933 47.732 16.1128 47.8061 16.1502L48.0761 16.3062C48.1455 16.3517 48.2032 16.4128 48.2446 16.4848C48.2859 16.5567 48.3098 16.6374 48.3141 16.7202V59.3082C48.3101 59.3911 48.2864 59.4719 48.245 59.5439C48.2036 59.6159 48.1458 59.677 48.0761 59.7222L20.1601 75.8402C20.086 75.8777 20.0041 75.8972 19.9211 75.8972C19.8381 75.8972 19.7562 75.8777 19.6821 75.8402L19.4121 75.6842C19.3422 75.6391 19.284 75.578 19.2423 75.5061C19.2006 75.4341 19.1765 75.3533 19.1721 75.2702V32.6822C19.1769 32.5992 19.201 32.5185 19.2427 32.4466C19.2844 32.3747 19.3424 32.3136 19.4121 32.2682Z" fill="#F5F5F5"/>
<path d="M48.3059 16.6482C48.2759 16.5502 48.1839 16.5182 48.0759 16.5822L20.1599 32.7002C20.088 32.7428 20.0292 32.8044 19.9899 32.8782L19.2419 32.4482C19.2823 32.3747 19.3409 32.3127 19.4119 32.2682L47.3279 16.1502C47.402 16.1128 47.4839 16.0933 47.5669 16.0933C47.65 16.0933 47.7318 16.1128 47.8059 16.1502L48.0759 16.3062C48.1352 16.345 48.186 16.3952 48.2255 16.4539C48.2651 16.5127 48.2924 16.5787 48.3059 16.6482Z" fill="#FAFAFA"/>
<path d="M20.1021 75.8662C20.0734 75.8766 20.044 75.8846 20.0141 75.8902H19.9681C19.9195 75.8952 19.8706 75.8952 19.8221 75.8902C19.7922 75.8844 19.7628 75.8763 19.7341 75.8662L19.6801 75.8402L19.4121 75.6862C19.3428 75.6407 19.2851 75.5795 19.2438 75.5076C19.2025 75.4357 19.1786 75.3551 19.1741 75.2722V32.6822C19.1755 32.5996 19.199 32.5188 19.2421 32.4482L19.9901 32.8782C19.9475 32.9499 19.9235 33.031 19.9201 33.1142V75.7022C19.9201 75.8322 20.0001 75.8962 20.1021 75.8662Z" fill="#E0E0E0"/>
<path d="M42.026 22.1823L41.282 21.7523C41.1652 21.6951 41.0363 21.6672 40.9063 21.671C40.7763 21.6748 40.6492 21.7103 40.536 21.7743C39.668 22.1563 39.292 22.3303 38.844 22.5183L38.52 22.6483C38.344 22.7183 37.994 22.6583 38.102 22.0483L39.256 18.9423H39.238L38.508 18.5203C38.471 18.497 38.4294 18.482 38.386 18.4763C38.364 18.4763 38.336 18.4763 38.306 18.4763C37.834 18.4643 37.706 15.4183 37.696 15.3243L37.662 15.3063L36.94 14.8903C36.8146 14.8191 36.6722 14.7832 36.528 14.7863C36.2867 14.7974 36.0515 14.866 35.842 14.9863C34.708 15.5863 33.562 17.3483 33.282 18.9343C33.106 19.9343 32.1 21.4743 31.518 22.0423C30.936 22.6103 30.896 23.0823 30.896 23.0823L30.444 25.6463L30.298 26.4683C30.192 27.0803 29.564 27.6683 29.564 27.6683L27.222 29.4003C25.756 30.6163 25.342 31.8463 25.062 33.3663V33.3783C25.062 33.4323 25.062 33.4683 25.088 33.4823C25.0919 33.4848 25.0964 33.4861 25.101 33.4861C25.1056 33.4861 25.1101 33.4848 25.114 33.4823L25.414 33.3123L41.526 24.0203C41.5639 23.9945 41.5963 23.9613 41.6214 23.9229C41.6464 23.8845 41.6636 23.8414 41.672 23.7963C41.764 23.2423 42.032 22.1963 42.032 22.1963L42.026 22.1823ZM37.368 17.4763C37.194 18.4503 36.492 19.5383 35.794 19.9043C35.312 20.1563 34.96 20.0003 34.842 19.5563C34.7554 19.5902 34.6616 19.6018 34.5693 19.5899C34.477 19.578 34.3892 19.5431 34.314 19.4883C34.09 19.3123 36.142 15.7883 36.314 15.8663C36.394 15.9085 36.4634 15.9681 36.5171 16.0408C36.5708 16.1136 36.6073 16.1975 36.624 16.2863C37.2 16.1123 37.522 16.6003 37.368 17.4763Z" fill="#455A64"/>
<path opacity="0.5" d="M27.4001 31.1121L26.2261 30.4341C25.5461 31.3301 25.2721 32.2721 25.0701 33.3661V33.3781C25.0701 33.4321 25.0701 33.4681 25.0961 33.4821C25.0999 33.4846 25.1045 33.4859 25.1091 33.4859C25.1137 33.4859 25.1182 33.4846 25.1221 33.4821L26.0481 32.7501L27.4001 31.1121Z" fill="#37474F"/>
<path opacity="0.5" d="M30.22 26.7059L31.876 27.6599L32.622 23.3459L31.13 22.4839C31.0112 22.6545 30.9313 22.849 30.896 23.0539L30.444 25.6179L30.298 26.4399C30.2815 26.5311 30.2554 26.6203 30.22 26.7059Z" fill="#37474F"/>
<path opacity="0.5" d="M34.066 16.8462C33.6887 17.4829 33.4235 18.1797 33.282 18.9062C33.1631 19.4211 32.9661 19.9148 32.698 20.3702L34.116 21.1902L34.822 19.5602C34.7379 19.5906 34.6476 19.5999 34.5591 19.5873C34.4705 19.5748 34.3864 19.5407 34.314 19.4882C34.198 19.3962 34.686 18.4222 35.208 17.5062L34.066 16.8462Z" fill="#37474F"/>
<path d="M42.0361 22.1881H42.0261C41.909 22.1328 41.7805 22.1061 41.6512 22.1103C41.5218 22.1145 41.3953 22.1494 41.2821 22.2121C40.2181 22.6821 39.8961 22.8361 39.2641 23.0861C39.0961 23.1541 38.7541 23.1001 38.8441 22.5241C38.8431 22.5108 38.8431 22.4974 38.8441 22.4841L38.9901 21.6641L39.3901 19.4301C39.3901 19.4301 39.4821 19.0781 39.2501 18.9461H39.2321C39.1738 18.9192 39.1103 18.9055 39.0461 18.9061C38.9102 18.8898 38.7797 18.843 38.6644 18.7692C38.5491 18.6954 38.4519 18.5966 38.3801 18.4801C38.2554 18.2944 38.1691 18.0858 38.1262 17.8663C38.0833 17.6469 38.0846 17.421 38.1301 17.2021C38.3001 16.2441 38.1141 15.5721 37.6901 15.3221L37.6561 15.3021C37.3821 15.1561 37.0141 15.1801 36.5841 15.4061C35.4481 16.0061 34.3021 17.7681 34.0241 19.3541C33.8461 20.3541 32.8401 21.8961 32.2581 22.4621C31.6761 23.0281 31.6381 23.5021 31.6381 23.5021L31.2001 26.0521L31.0561 26.8721C30.9481 27.4841 30.3201 28.0721 30.3201 28.0721L27.9801 29.8281C27.0462 30.5714 26.3719 31.5916 26.0541 32.7421C26.0541 32.7421 25.1761 33.4241 25.1221 33.4781L25.4221 33.3081L41.5801 24.0201C41.5801 24.0201 41.7641 23.9181 41.8061 23.8921C41.8481 23.8661 42.4981 23.2521 42.4981 23.2521C42.4621 22.7281 42.3061 22.3501 42.0361 22.1881ZM37.3681 17.4761C37.1941 18.4501 36.4921 19.5381 35.7941 19.9041C35.3121 20.1561 34.9601 20.0001 34.8421 19.5561C34.7894 19.3069 34.7894 19.0493 34.8421 18.8001C35.0161 17.8241 35.7201 16.7381 36.4181 16.3741C36.4821 16.339 36.549 16.3096 36.6181 16.2861C37.2001 16.1121 37.5221 16.6001 37.3681 17.4761Z" fill="#37474F"/>
<path d="M37.368 17.4759C37.194 18.4499 36.492 19.5379 35.794 19.9039C35.312 20.1559 34.96 19.9999 34.842 19.5559C34.9108 19.5332 34.9777 19.5051 35.042 19.4719C35.742 19.1059 36.442 18.0179 36.616 17.0419C36.6685 16.7927 36.6685 16.5352 36.616 16.2859C37.2 16.1119 37.522 16.5999 37.368 17.4759Z" fill="#263238"/>
<path d="M36.694 16.328C36.7594 16.324 36.8247 16.3371 36.8836 16.3658C36.9424 16.3945 36.9929 16.438 37.03 16.492C37.32 16.904 37.042 17.952 36.922 18.292C36.756 18.758 35.672 19.854 35.374 19.854C35.2753 19.8377 35.1809 19.8014 35.0966 19.7475C35.0124 19.6935 34.94 19.6229 34.884 19.54C34.8348 19.2998 34.8348 19.0521 34.884 18.812C35.054 17.848 35.75 16.776 36.436 16.412C36.4971 16.3797 36.5606 16.3523 36.626 16.33H36.692L36.694 16.328ZM36.692 16.284H36.618C36.5489 16.3074 36.482 16.3369 36.418 16.372C35.72 16.736 35.018 17.822 34.842 18.798C34.7893 19.0472 34.7893 19.3047 34.842 19.554C34.9022 19.644 34.9804 19.7207 35.0716 19.7792C35.1628 19.8377 35.265 19.8768 35.372 19.894C35.696 19.894 36.786 18.788 36.96 18.294C37.134 17.8 37.512 16.272 36.688 16.272L36.692 16.284Z" fill="#263238"/>
<path d="M25.114 33.4843L41.57 24.0243L41.798 23.8983C41.838 23.8743 42.488 23.2563 42.488 23.2563L26.044 32.7483C26.044 32.7483 25.048 33.5203 25.114 33.4843Z" fill="#263238"/>
<path d="M22.908 40.1183V40.4923C22.908 40.6923 23.052 40.7783 23.228 40.6763L45 28.1043C45.0928 28.0438 45.1701 27.9623 45.2257 27.8664C45.2812 27.7706 45.3135 27.663 45.32 27.5523V27.1763C45.32 26.9763 45.176 26.8903 45 26.9923L23.228 39.5663C23.135 39.6268 23.0576 39.7082 23.002 39.8041C22.9464 39.9 22.9142 40.0077 22.908 40.1183Z" fill="#E0E0E0"/>
<path d="M22.908 42.3802V42.7542C22.908 42.9542 23.052 43.0402 23.228 42.9382L45 30.3642C45.0929 30.3038 45.1703 30.2223 45.2259 30.1264C45.2815 30.0305 45.3137 29.9229 45.32 29.8122V29.4362C45.32 29.2362 45.176 29.1522 45 29.2522L23.228 41.8282C23.135 41.8886 23.0576 41.9701 23.002 42.066C22.9464 42.1619 22.9142 42.2695 22.908 42.3802Z" fill="#E0E0E0"/>
<path d="M22.908 44.6281V45.0001C22.908 45.2001 23.052 45.2861 23.228 45.1841L45 32.6141C45.0928 32.5536 45.1701 32.4721 45.2257 32.3762C45.2812 32.2803 45.3135 32.1727 45.32 32.0621V31.6861C45.32 31.4861 45.176 31.4001 45 31.5021L23.228 44.0761C23.135 44.1365 23.0576 44.218 23.002 44.3139C22.9464 44.4098 22.9142 44.5174 22.908 44.6281Z" fill="#E0E0E0"/>
<path d="M22.908 49.61V49.984C22.908 50.184 23.052 50.27 23.228 50.168L45 37.6C45.0929 37.5396 45.1703 37.4582 45.2259 37.3623C45.2815 37.2664 45.3137 37.1587 45.32 37.048V36.672C45.32 36.472 45.176 36.388 45 36.488L23.228 49.058C23.135 49.1185 23.0576 49.1999 23.002 49.2958C22.9464 49.3917 22.9142 49.4994 22.908 49.61Z" fill="#E0E0E0"/>
<path d="M22.908 51.8703V52.2463C22.908 52.4463 23.052 52.5303 23.228 52.4303L45 39.8563C45.0929 39.7959 45.1703 39.7144 45.2259 39.6185C45.2815 39.5226 45.3137 39.415 45.32 39.3043V38.9283C45.32 38.7283 45.176 38.6423 45 38.7443L23.228 51.3183C23.1351 51.3788 23.0578 51.4603 23.0023 51.5562C22.9467 51.6521 22.9144 51.7597 22.908 51.8703Z" fill="#E0E0E0"/>
<path d="M22.908 54.1199V54.4939C22.908 54.6939 23.052 54.7799 23.228 54.6779L45 42.1039C45.0929 42.0435 45.1703 41.9621 45.2259 41.8662C45.2815 41.7703 45.3137 41.6626 45.32 41.5519V41.1759C45.32 40.9759 45.176 40.8919 45 40.9919L23.228 53.5679C23.135 53.6284 23.0576 53.7098 23.002 53.8057C22.9464 53.9016 22.9142 54.0093 22.908 54.1199Z" fill="#E0E0E0"/>
<path d="M22.908 59.1003V59.4763C22.908 59.6763 23.052 59.7603 23.228 59.6603L45 47.0863C45.0929 47.0258 45.1703 46.9444 45.2259 46.8485C45.2815 46.7526 45.3137 46.6449 45.32 46.5343V46.1583C45.32 45.9583 45.176 45.8723 45 45.9743L23.228 58.5483C23.1351 58.6088 23.0578 58.6903 23.0023 58.7862C22.9467 58.882 22.9144 58.9896 22.908 59.1003Z" fill="#E0E0E0"/>
<path d="M22.908 61.362V61.736C22.908 61.936 23.052 62.022 23.228 61.92L45 49.346C45.0928 49.286 45.1702 49.2049 45.2258 49.1093C45.2815 49.0137 45.3137 48.9064 45.32 48.796V48.42C45.32 48.22 45.176 48.134 45 48.236L23.228 60.81C23.135 60.8704 23.0576 60.9519 23.002 61.0478C22.9464 61.1437 22.9142 61.2513 22.908 61.362Z" fill="#E0E0E0"/>
<path d="M22.908 63.6099V63.9859C22.908 64.1859 23.052 64.2699 23.228 64.1699L45 51.5999C45.0929 51.5395 45.1703 51.4581 45.2259 51.3622C45.2815 51.2663 45.3137 51.1586 45.32 51.0479V50.6719C45.32 50.4719 45.176 50.3859 45 50.4879L23.228 63.0579C23.1351 63.1185 23.0578 63.2 23.0023 63.2958C22.9467 63.3917 22.9144 63.4993 22.908 63.6099Z" fill="#E0E0E0"/>
<path d="M34.116 63.9119L45.326 57.4419V57.6579L34.116 64.1279V63.9119Z" fill="#E0E0E0"/>
<path d="M36.724 60.552C37.19 60.24 37.71 59.714 37.626 59.092C37.576 58.714 37.268 58.568 36.92 58.702C36.238 58.964 35.808 59.99 35.57 60.61C35.37 61.152 35.096 62.174 35.91 62.348C36.864 62.548 37.602 61.148 37.818 60.42C37.848 60.318 37.682 60.262 37.634 60.354C37.55 60.52 36.988 61.616 37.606 61.478C37.826 61.43 37.952 61.088 38.032 60.914C38.172 60.602 38.242 60.168 38.462 59.9L38.3 59.826C38.31 60.114 38.3 60.31 38.5 60.534C38.5152 60.5548 38.5381 60.5688 38.5635 60.5729C38.589 60.577 38.615 60.5709 38.636 60.556C38.952 60.262 38.974 59.784 39.322 59.518L39.18 59.45C39.18 59.542 39.138 59.804 39.132 59.926C39.132 59.984 39.21 60.022 39.256 60.004C39.3012 59.9946 39.3433 59.9739 39.3783 59.9438C39.4133 59.9137 39.44 59.8752 39.456 59.832L39.304 59.776C39.436 60.482 40.038 59.776 40.244 59.508C40.844 58.708 41.272 57.85 41.288 56.826C41.288 56.744 41.134 56.702 41.132 56.8C41.118 57.588 40.774 58.31 40.552 59.054C40.314 59.854 40.116 60.672 39.952 61.496L40.094 61.548C40.1391 60.9649 40.2881 60.3946 40.534 59.864C40.6891 59.3913 40.9481 58.9594 41.292 58.6L41.16 58.55C41.1949 58.7556 41.1844 58.9663 41.1291 59.1674C41.0738 59.3685 40.9751 59.5551 40.84 59.714C40.798 59.768 40.892 59.87 40.934 59.816C41.154 59.54 41.516 59.452 41.752 59.184C41.9738 58.8829 42.1711 58.5645 42.342 58.232L42.234 58.178C42.22 58.85 42.854 57.802 42.94 57.69L42.836 57.65C42.878 57.788 42.934 57.88 43.09 57.882C43.4 57.882 43.516 57.43 43.75 57.378C43.75 57.378 43.852 57.464 43.888 57.468C44.017 57.4869 44.1486 57.4622 44.262 57.398C44.5236 57.2288 44.7349 56.9926 44.874 56.714C44.91 56.65 44.788 56.57 44.748 56.64C44.594 56.9 44.114 57.59 43.766 57.252C43.744 57.232 43.698 57.212 43.674 57.24C43.58 57.356 43.042 57.972 42.942 57.64C42.93 57.6 42.872 57.556 42.84 57.6C42.758 57.708 42.692 57.828 42.616 57.942C42.574 58.004 42.34 58.398 42.348 58.198C42.348 58.15 42.274 58.094 42.24 58.144C42.022 58.478 41.862 58.916 41.558 59.188C41.332 59.388 41.036 59.464 40.84 59.706L40.934 59.808C41.0851 59.6377 41.1963 59.4359 41.2597 59.2173C41.323 58.9986 41.3368 58.7686 41.3 58.544C41.2971 58.5302 41.2908 58.5175 41.2816 58.5068C41.2725 58.4962 41.2608 58.488 41.2477 58.483C41.2345 58.478 41.2204 58.4764 41.2064 58.4783C41.1925 58.4803 41.1793 58.4856 41.168 58.494C40.794 58.838 40.584 59.322 40.398 59.786C40.1485 60.3277 39.9968 60.9093 39.95 61.504C39.95 61.566 40.076 61.636 40.092 61.556C40.2611 60.6668 40.4808 59.788 40.75 58.924C40.97 58.228 41.268 57.558 41.282 56.818L41.126 56.792C41.1112 57.5582 40.8697 58.3029 40.432 58.932C40.32 59.106 40.202 59.28 40.074 59.444C40.018 59.518 39.522 60.166 39.458 59.79C39.448 59.736 39.342 59.66 39.306 59.734L39.162 59.862L39.286 59.938C39.296 59.776 39.328 59.624 39.336 59.46C39.336 59.398 39.24 59.358 39.194 59.394C38.84 59.664 38.814 60.142 38.496 60.436L38.632 60.458C38.524 60.277 38.4712 60.0685 38.48 59.858C38.48 59.788 38.372 59.72 38.318 59.784C38.074 60.076 37.998 60.542 37.838 60.882C37.75 61.068 37.438 61.564 37.538 61.036C37.6043 60.8171 37.6991 60.608 37.82 60.414L37.636 60.348C37.448 60.984 36.946 61.948 36.26 62.148C35.384 62.41 35.536 61.324 35.696 60.84C35.8864 60.276 36.1689 59.7475 36.532 59.276C36.5986 59.182 36.6743 59.0949 36.758 59.016C36.936 58.856 36.988 58.816 37.236 58.958C37.484 59.1 37.496 59.178 37.436 59.446C37.3993 59.579 37.3441 59.7063 37.272 59.824C37.1136 60.0656 36.9147 60.278 36.684 60.452C36.652 60.478 36.698 60.564 36.734 60.538L36.724 60.552Z" fill="#455A64"/>
<path d="M63.6 48.0758C62.876 47.9038 62.078 48.4198 61.612 49.5558C61.146 50.6918 60.212 53.5958 60.012 54.3558C59.924 54.6958 62.508 57.7078 62.412 57.6638C62.384 57.6498 63.254 56.1938 63.254 56.1938L62 54.2638L62.8 52.1698L63.6 48.0758Z" fill="#B16668"/>
<path d="M61.9239 75.0357C61.8259 75.0737 61.7999 75.2597 61.7859 75.6357C61.7739 75.9177 61.7139 76.4077 62.0439 76.5057C62.3739 76.6037 62.8559 76.5537 63.0679 76.2897C63.3231 75.9341 63.5961 75.5917 63.8859 75.2637C64.2119 74.9117 64.5639 74.5857 64.6959 74.0937C64.8159 73.6497 64.7159 73.4577 64.4139 73.3277C63.9959 73.1517 63.3419 73.7277 63.0139 73.8217C62.7359 73.8977 62.0219 74.9997 61.9239 75.0357Z" fill="#263238"/>
<path d="M61.9238 74.6914V75.1474C62.0951 75.257 62.2931 75.3179 62.4964 75.3235C62.6997 75.3292 62.9007 75.2793 63.0778 75.1794C63.0978 75.1354 63.1978 74.5254 63.1978 74.5254L61.9238 74.6914Z" fill="#B16668"/>
<path d="M65.32 77.4619C65.2409 77.7064 65.1742 77.9547 65.12 78.2059C65.062 78.4819 64.982 78.9439 65.08 79.1499C65.178 79.3559 65.552 79.4919 66.138 79.4879C66.516 79.4879 67.106 79.7419 67.51 79.9679C67.916 80.167 68.3751 80.2308 68.82 80.1499C69.34 80.0879 69.88 79.7859 69.964 79.5719C70.048 79.3579 69.94 79.2519 68.714 78.7299C68.702 78.7299 67.422 78.1459 66.828 77.4919L65.32 77.4619Z" fill="#263238"/>
<path d="M65.3201 76.9678C65.3201 76.9678 65.3201 77.3058 65.3201 77.4998C65.3201 77.6938 65.5481 77.9818 66.1401 77.9618C66.5561 77.9458 66.8461 77.8338 66.8281 77.4918V76.9998L65.3201 76.9678Z" fill="#B16668"/>
<path d="M61.474 68.3638C61.5721 67.5628 61.7592 66.7753 62.032 66.0158C62.032 66.0158 61.774 63.9958 61.632 62.0558C61.366 58.5778 61.58 57.4418 62.264 55.8818C62.264 55.8818 68.098 55.2818 68.276 57.7158C68.498 60.7358 68.204 66.5718 68.124 67.6378C68.044 68.7038 67.944 69.1858 67.568 71.4138C67.28 73.1098 66.836 76.9998 66.836 76.9998C66.6014 77.1189 66.341 77.1783 66.078 77.1727C65.8149 77.1671 65.5574 77.0967 65.328 76.9678C65.328 76.9678 64.852 72.1118 64.902 70.8818C64.9372 69.9717 65.0912 69.0701 65.36 68.1998C65.36 68.1998 64.998 63.2778 64.894 62.4938C64.894 62.4938 64.71 64.0558 64.63 65.1218C64.55 66.1878 64.23 67.2078 63.926 69.1898C63.658 70.9078 63.16 74.7498 63.16 74.7498C62.386 75.1698 61.924 74.6958 61.924 74.6958C61.924 74.6958 61.266 69.8538 61.474 68.3638Z" fill="#5A79C0"/>
<g opacity="0.35">
<path d="M61.474 68.3638C61.5721 67.5628 61.7592 66.7753 62.032 66.0158C62.032 66.0158 61.774 63.9958 61.632 62.0558C61.366 58.5778 61.58 57.4418 62.264 55.8818C62.264 55.8818 68.098 55.2818 68.276 57.7158C68.498 60.7358 68.204 66.5718 68.124 67.6378C68.044 68.7038 67.944 69.1858 67.568 71.4138C67.28 73.1098 66.836 76.9998 66.836 76.9998C66.6014 77.1189 66.341 77.1783 66.078 77.1727C65.8149 77.1671 65.5574 77.0967 65.328 76.9678C65.328 76.9678 64.852 72.1118 64.902 70.8818C64.9372 69.9717 65.0912 69.0701 65.36 68.1998C65.36 68.1998 64.998 63.2778 64.894 62.4938C64.894 62.4938 64.71 64.0558 64.63 65.1218C64.55 66.1878 64.23 67.2078 63.926 69.1898C63.658 70.9078 63.16 74.7498 63.16 74.7498C62.386 75.1698 61.924 74.6958 61.924 74.6958C61.924 74.6958 61.266 69.8538 61.474 68.3638Z" fill="black"/>
</g>
<path d="M66.5819 47.2898L66.3079 49.5438L64.3259 49.3658L64.5519 46.8638L66.5819 47.2898Z" fill="#B16668"/>
<path d="M62.15 49.1995C62.368 48.5995 63.11 47.9455 63.872 48.0875L64.432 48.1895C64.448 48.7095 65.432 48.9775 66.404 48.6635C66.696 48.7475 66.966 48.8335 67.204 48.9195C67.902 49.1695 68.182 50.3195 68.204 52.2675C68.226 54.2155 68.426 59.0415 68.426 59.0415L67.6 59.3035L67.22 57.8895L67.066 59.5835C66.1386 59.7998 65.1732 59.795 64.248 59.5695C62.152 59.1115 61.5 57.9815 61.5 57.9815C61.7564 56.6735 62.2659 55.4281 63 54.3155C61.952 51.5215 61.828 50.0855 62.15 49.1995Z" fill="#EBEBEB"/>
<path d="M68.056 44.4259C68.1746 44.1566 68.223 43.8617 68.1968 43.5686C68.1705 43.2755 68.0705 42.9939 67.906 42.7499C67.24 41.7059 65.958 41.5279 64.438 41.9359C63.9074 42.0984 63.44 42.4208 63.0996 42.8589C62.7591 43.2971 62.5623 43.8297 62.536 44.3839C62.462 45.4979 65.572 46.3199 65.5 47.0839L68.056 44.4259Z" fill="#263238"/>
<path d="M68.1221 44.8496C68.1221 44.8496 68.5441 45.5256 68.4841 45.5956C68.3795 45.6604 68.2645 45.7065 68.1441 45.7316L68.1221 44.8496Z" fill="#9A4A4D"/>
<path d="M66.8359 42.7077C67.2559 42.9397 67.9839 43.3677 68.1319 44.9477C68.2839 46.5677 67.9079 47.1197 67.6819 47.3257C67.5299 47.4657 66.7599 47.4957 66.3639 47.3617C65.8679 47.1917 64.7959 46.6277 64.3099 45.7797C63.7379 44.7797 63.6499 43.4697 64.3539 42.9797C64.7107 42.7278 65.1257 42.5707 65.5598 42.5232C65.9939 42.4756 66.433 42.5391 66.8359 42.7077Z" fill="#B16668"/>
<path d="M66.9599 42.7776C66.9599 42.7776 67.2919 44.2616 66.8199 45.1776C66.8199 45.1776 66.5759 44.5956 66.0759 44.7476C65.5759 44.8996 65.6019 45.5656 65.9839 45.9156C66.0815 46.0157 66.2054 46.0861 66.3413 46.1186C66.4772 46.1512 66.6196 46.1446 66.7519 46.0996C66.5834 46.5196 66.3309 46.9007 66.0099 47.2196C66.0099 47.2196 64.5319 47.8776 63.2539 46.4336C62.0919 45.1236 62.3079 42.8336 64.0859 42.2996C65.8639 41.7656 66.9599 42.7776 66.9599 42.7776Z" fill="#263238"/>
<path d="M62.7459 42.9317C62.8158 42.9917 62.859 43.077 62.8661 43.1688C62.8733 43.2607 62.8437 43.3516 62.7839 43.4217L62.2559 42.9677C62.2856 42.933 62.3218 42.9045 62.3626 42.8839C62.4034 42.8633 62.4478 42.851 62.4934 42.8476C62.5389 42.8443 62.5847 42.85 62.628 42.8644C62.6714 42.8788 62.7114 42.9017 62.7459 42.9317Z" fill="#263238"/>
<path d="M72.2261 52.4979C72.5141 52.1699 72.6261 51.4379 73.0061 50.9379C73.3861 50.4379 73.5301 50.0719 73.6821 50.2899C73.8821 50.5799 73.4301 51.1579 73.5301 51.2159C73.6301 51.2739 74.0061 52.0359 74.0441 52.4599C74.0821 52.8839 72.9601 53.9479 72.9601 53.9479L72.2261 52.4979Z" fill="#B16668"/>
<path d="M73.498 51.1497C73.498 51.1497 74.8541 51.0337 75.0521 51.1497C75.2501 51.2657 75.1901 51.8537 75.0521 52.2137C74.9141 52.5737 74.222 52.8137 73.58 53.2417C73.58 53.1777 73.498 51.1497 73.498 51.1497Z" fill="#B16668"/>
<path d="M67.036 48.8657C67.618 49.0657 68.128 49.3037 68.672 50.3257C69.37 51.6397 70.642 54.2117 70.642 54.2117L72.226 52.4977C72.226 52.4977 72.456 52.1737 72.884 52.8817C73.312 53.5897 73.124 53.7857 73.124 53.7857C73.124 53.7857 71.282 56.2537 70.944 56.5677C70.606 56.8817 70.05 56.6377 69.686 56.1437C69.322 55.6497 67.036 52.7877 67.036 52.7877C67.036 52.7877 65.786 51.1437 67.036 48.8657Z" fill="#B16668"/>
<path opacity="0.2" d="M64.894 62.4897L64.782 61.3117C64.1472 61.2172 63.5401 60.9874 63.002 60.6377C63.002 60.6377 63.3819 61.2377 64.4219 61.5217L64.53 63.0217L64.594 65.4817L64.894 62.4897Z" fill="black"/>
<path d="M60.74 48.5537C61.0101 48.5545 61.2776 48.502 61.5274 48.3993C61.7772 48.2965 62.0042 48.1455 62.1956 47.9549C62.3869 47.7643 62.5388 47.5379 62.6425 47.2885C62.7462 47.0391 62.7997 46.7718 62.8 46.5017V43.3837C62.5646 43.3073 62.3145 43.2877 62.0701 43.3265C61.8258 43.3653 61.594 43.4614 61.3939 43.6069C61.1937 43.7524 61.0309 43.9433 60.9186 44.1638C60.8064 44.3843 60.7479 44.6283 60.748 44.8757L60.74 48.5537Z" fill="#263238"/>
<path d="M68.2478 54.3099C68.2478 54.3099 67.1098 52.842 66.7458 52.252L68.2878 55.508L68.2478 54.3099Z" fill="#E0E0E0"/>
<path d="M78.2259 42.2538C77.7939 43.5278 76.8719 47.3278 76.8719 47.3278C76.8719 47.3278 75.1139 49.6658 74.6299 50.1118C74.3619 50.3598 73.7559 50.8058 73.7559 50.8058L74.2599 51.1778C74.2599 51.1778 75.0999 50.9218 75.1699 51.3778C76.0457 50.6732 76.8742 49.9115 77.6499 49.0978C77.8456 48.8935 77.9836 48.6409 78.0499 48.3658L78.7999 45.1398C78.7999 45.1398 78.7999 42.5398 79.1999 42.1998C79.5999 41.8598 79.4419 41.0898 79.4419 41.0898C79.1679 41.0978 78.5659 41.2558 78.2259 42.2538Z" fill="#FFA8A7"/>
<path d="M79.456 40.9619C79.5785 41.306 79.7269 41.6403 79.9 41.9619C80.076 42.2639 78.73 47.6939 78.64 48.0979C78.55 48.5019 75.94 50.8559 75.94 50.8559C75.4685 50.6564 75.0938 50.2802 74.896 49.8079L76.78 47.3559C76.78 47.3559 77.366 44.7839 77.674 43.6039C77.982 42.4239 78.31 41.0899 79.456 40.9619Z" fill="#5A79C0"/>
<path opacity="0.1" d="M79.456 40.9619C79.5785 41.306 79.7269 41.6403 79.9 41.9619C80.076 42.2639 78.73 47.6939 78.64 48.0979C78.55 48.5019 75.94 50.8559 75.94 50.8559C75.4685 50.6564 75.0938 50.2802 74.896 49.8079L76.78 47.3559C76.78 47.3559 77.366 44.7839 77.674 43.6039C77.982 42.4239 78.31 41.0899 79.456 40.9619Z" fill="#455A64"/>
<path d="M84.968 66.48H83.668V68.708H84.968V66.48Z" fill="#FFA8A7"/>
<path d="M79.6479 67.0196L78.3479 67.0656L78.2839 64.7076L79.6479 64.6636V67.0196Z" fill="#FFA8A7"/>
<path d="M84.786 50.5815C84.786 51.8235 84.872 59.0475 84.872 59.0475C84.902 59.4035 85.246 60.0475 85.272 61.3275C85.31 63.1955 85.022 67.5935 85.022 67.5935C84.7974 67.7037 84.5513 67.7633 84.3011 67.7682C84.051 67.773 83.8028 67.723 83.574 67.6215C83.574 67.6215 82.552 61.4015 82.32 59.5515C82.12 57.9395 81.414 53.6335 81.414 53.6335L80.414 59.0855C80.5649 59.7638 80.6194 60.46 80.576 61.1535C80.514 62.0075 79.722 66.2895 79.722 66.2895C79.4955 66.4178 79.2435 66.4946 78.984 66.5147C78.7244 66.5347 78.4636 66.4975 78.22 66.4055C78.22 66.4055 78.142 59.6835 78.128 58.8995C78.11 58.0055 78.5 50.3115 78.5 50.3115L84.786 50.5815Z" fill="#37474F"/>
<path d="M83.668 68.0658V67.8798C83.598 67.8798 83.556 67.9478 83.528 68.1138C83.5095 68.2377 83.4841 68.3606 83.452 68.4818C83.3947 68.7095 83.3191 68.9322 83.226 69.1478C83.042 69.6018 82.888 69.7698 82.466 70.2998C82.3231 70.4466 82.1895 70.6022 82.066 70.7658C81.988 70.9058 81.96 71.2938 82.094 71.3838C82.584 71.7118 83.33 71.7198 83.858 71.5658C84.0545 71.5106 84.2311 71.4003 84.3668 71.2479C84.5026 71.0954 84.5918 70.9073 84.624 70.7058C84.644 70.5858 84.636 70.4618 84.65 70.3418C84.6965 70.0673 84.8083 69.808 84.976 69.5858C85.0733 69.4574 85.1571 69.3194 85.226 69.1738C85.334 68.9078 85.248 68.6058 85.178 68.3398C85.118 68.1098 85.052 67.8578 84.978 67.8798V68.0198C84.7927 68.1664 84.5622 68.2442 84.326 68.2398C84.128 68.2478 83.666 68.2098 83.668 68.0658Z" fill="#263238"/>
<path d="M78.3339 66.664C78.2659 66.664 78.2119 66.762 78.0619 66.924C77.8392 67.148 77.5811 67.3339 77.2979 67.474C76.8099 67.718 75.8639 68.092 75.4339 68.286C75.1659 68.406 75.1799 68.73 75.4559 68.914C75.7319 69.098 76.4019 69.23 77.2039 69.052C77.6399 68.954 78.2039 68.55 78.5699 68.572C78.9359 68.594 79.6039 68.588 79.8699 68.404C80.1359 68.22 80.0299 67.83 79.9539 67.494C79.8719 67.128 79.7699 66.554 79.6479 66.58V66.706C79.4919 66.944 78.6839 67.04 78.3419 66.866L78.3339 66.664Z" fill="#263238"/>
<path d="M81.4159 53.6336C80.7423 53.4256 80.1225 53.0727 79.5999 52.5996C79.5999 52.5996 79.9499 53.2556 80.9999 53.8636L80.4959 58.7136L81.4159 53.6336Z" fill="#263238"/>
<path d="M82.53 41.0497C82.974 41.1577 83.866 41.3037 84.066 42.1857C84.306 43.2437 84.384 45.5497 84.384 45.5497L84.466 50.6817C83.57 51.3337 80.28 51.6817 78.394 50.3117C78.394 50.3117 78.626 44.1517 78.626 43.1917C78.626 42.2317 79.158 41.0797 80.626 40.9917L82.53 41.0497Z" fill="#F5F5F5"/>
<path d="M80.65 40.8956C80.2455 41.2344 79.9527 41.6875 79.81 42.1956C79.63 42.9716 79.61 51.6376 79.61 51.6376C79.61 51.6376 78.69 51.4676 78.26 51.1296C78.26 51.1296 78.314 44.2896 78.402 43.1576C78.536 41.4436 78.522 40.9576 80.656 40.7676L80.65 40.8956Z" fill="#455A64"/>
<path d="M82.9181 40.7676C82.9181 40.7676 81.6921 41.5216 81.6781 44.5236C81.6661 47.1236 81.5801 51.6376 81.5801 51.6376C81.5801 51.6376 83.6101 51.9356 84.8961 51.1676C84.8961 51.1676 85.0501 44.8756 85.0241 43.9016C84.9961 42.7856 84.7361 41.3436 84.3781 41.1996C83.9028 41.0195 83.4148 40.8751 82.9181 40.7676Z" fill="#455A64"/>
<path d="M87.4779 47.6595C86.2579 42.6715 85.3559 41.0075 83.8779 41.0275C83.4439 41.5435 83.5639 43.1075 84.2479 44.0555C84.2479 44.0555 85.7739 47.2715 86.0159 48.4155C86.2299 49.4155 86.4719 50.6855 86.4579 51.5495C86.4529 51.7023 86.3925 51.848 86.2879 51.9595C86.0099 52.2615 86.0079 52.5055 85.8279 52.8395C85.6859 53.0995 85.5319 53.1975 85.5759 53.2575C85.6342 53.3194 85.7135 53.3572 85.7983 53.3635C85.8831 53.3698 85.9672 53.3441 86.0339 53.2915C86.1641 53.1967 86.2805 53.0843 86.3799 52.9575C86.332 53.2774 86.2398 53.5891 86.1059 53.8835C85.7919 54.5895 85.8679 54.9495 86.8219 54.6975C87.4219 54.5395 87.7939 54.0435 87.8819 52.6075C87.9259 52.0793 87.9313 51.5485 87.8979 51.0195C87.7679 49.6595 87.6759 48.4635 87.4779 47.6595Z" fill="#FFA8A7"/>
<path d="M83.62 40.9457C83.62 40.9457 84.602 40.9017 85.134 41.4397C85.666 41.9777 86.384 43.1097 87.08 45.5837C87.776 48.0577 87.99 49.8657 88.024 51.2577C88.024 51.2577 87.152 51.6577 86.348 51.2017C86.348 51.2017 85.992 49.0477 85.676 47.9017C85.36 46.7557 84.182 44.3417 84.182 44.3417C84.182 44.3417 83.056 42.6677 83.62 40.9457Z" fill="#5A79C0"/>
<path opacity="0.1" d="M83.62 40.9457C83.62 40.9457 84.602 40.9017 85.134 41.4397C85.666 41.9777 86.384 43.1097 87.08 45.5837C87.776 48.0577 87.99 49.8657 88.024 51.2577C88.024 51.2577 87.152 51.6577 86.348 51.2017C86.348 51.2017 85.992 49.0477 85.676 47.9017C85.36 46.7557 84.182 44.3417 84.182 44.3417C84.182 44.3417 83.056 42.6677 83.62 40.9457Z" fill="#455A64"/>
<path opacity="0.1" d="M83.0558 42.4097L82.4938 43.1037L82.7758 43.8957L82.0378 45.7877L82.9258 43.8957L82.6158 43.1477L83.0558 42.4097Z" fill="black"/>
<path opacity="0.1" d="M79.0959 42.1855L79.2179 42.9035L78.7319 43.5375L79.4079 45.6655L78.8839 43.5615L79.3319 42.9695L79.0959 42.1855Z" fill="black"/>
<path d="M82.192 37.0634C82.3502 36.0887 81.6883 35.1703 80.7136 35.0121C79.7389 34.8538 78.8204 35.5157 78.6622 36.4905C78.504 37.4652 79.1659 38.3836 80.1406 38.5419C81.1154 38.7001 82.0338 38.0382 82.192 37.0634Z" fill="#263238"/>
<path d="M83.516 38.0459C83.516 38.0459 83.226 39.4079 83.116 39.6319C83.0382 39.7692 82.9108 39.8715 82.76 39.9179L82.78 38.9599L83.516 38.0459Z" fill="#263238"/>
<path d="M83.1519 36.0959C83.2537 36.0846 83.3568 36.0967 83.4532 36.1313C83.5495 36.166 83.6367 36.2223 83.7079 36.2959C83.9459 36.5399 83.8139 37.2959 83.5079 38.0499L82.9619 38.1119L83.1519 36.0959Z" fill="#263238"/>
<path d="M82.7998 38.1099C82.9098 38.1739 83.0658 37.9639 83.1998 37.8239C83.2526 37.7619 83.3204 37.7145 83.3968 37.6863C83.4731 37.6581 83.5555 37.6501 83.6358 37.6629C83.7162 37.6758 83.7919 37.7091 83.8557 37.7598C83.9194 37.8104 83.9691 37.8766 83.9998 37.9519C84.2238 38.4239 83.7998 39.0479 83.4598 39.1519C82.8598 39.3399 82.7718 38.9519 82.7718 38.9519L82.7278 41.1739C82.3138 41.7039 81.3858 42.3279 80.8858 42.2379C80.4858 42.1679 80.3998 41.4939 80.7818 41.0519V40.3999C80.5174 40.442 80.2492 40.4554 79.9818 40.4399C79.5418 40.3719 79.2658 40.0259 79.1318 39.5499C78.9178 38.7859 78.8358 38.1699 79.0178 36.6659C79.2178 35.0179 81.1338 35.0019 82.1678 35.6519C83.2018 36.3019 82.7998 38.1099 82.7998 38.1099Z" fill="#FFA8A7"/>
<path d="M82.8001 38.2939C82.8561 38.2939 83.0661 37.9479 83.2001 37.8239C83.3881 37.6519 83.1441 36.0959 83.1441 36.0959C83.2094 35.9591 83.2319 35.8057 83.2087 35.6559C83.1855 35.506 83.1177 35.3666 83.0141 35.2559C82.7561 34.9719 82.3961 34.6239 81.2141 34.7639C80.3781 34.8619 79.4681 35.1219 78.7321 34.7639C78.664 35.0038 78.6692 35.2586 78.7469 35.4955C78.8245 35.7325 78.9712 35.9409 79.1681 36.0939C79.4695 36.2436 79.7981 36.3306 80.1341 36.3499C80.7804 36.3988 81.43 36.3867 82.0741 36.3139C82.2741 36.2859 82.3201 36.4819 82.4301 37.0199C82.5421 37.4899 82.6221 38.2899 82.8001 38.2939Z" fill="#263238"/>
<path d="M83.152 36.2175L83.814 35.8615C83.7928 35.8169 83.7628 35.7771 83.7257 35.7444C83.6887 35.7117 83.6454 35.6868 83.5985 35.6713C83.5516 35.6558 83.502 35.65 83.4528 35.6541C83.4036 35.6583 83.3557 35.6724 83.312 35.6955C83.2242 35.7461 83.1588 35.8281 83.1291 35.925C83.0994 36.0219 83.1076 36.1264 83.152 36.2175Z" fill="#263238"/>
<path d="M80.7859 40.3998C81.2378 40.3136 81.681 40.1864 82.1099 40.0198C82.3117 39.9145 82.4769 39.7507 82.5839 39.5498C82.5323 39.7508 82.4404 39.9393 82.3139 40.1038C82.0639 40.4238 80.7859 40.6598 80.7859 40.6598V40.3998Z" fill="#F28F8F"/>
<path d="M81.022 37.8636C81.022 37.9166 81.043 37.9675 81.0806 38.005C81.1181 38.0425 81.1689 38.0636 81.222 38.0636C81.275 38.0636 81.3259 38.0425 81.3634 38.005C81.4009 37.9675 81.422 37.9166 81.422 37.8636C81.422 37.8105 81.4009 37.7597 81.3634 37.7222C81.3259 37.6846 81.275 37.6636 81.222 37.6636C81.1689 37.6636 81.1181 37.6846 81.0806 37.7222C81.043 37.7597 81.022 37.8105 81.022 37.8636Z" fill="#263238"/>
<path d="M81.23 37.1219L81.65 37.3539C81.6798 37.296 81.6863 37.2289 81.6681 37.1663C81.6499 37.1038 81.6083 37.0507 81.552 37.0179C81.5242 37.0029 81.4936 36.9936 81.4621 36.9907C81.4306 36.9878 81.3988 36.9914 81.3687 37.0011C81.3386 37.0108 81.3108 37.0265 81.287 37.0473C81.2631 37.0681 81.2437 37.0934 81.23 37.1219Z" fill="#263238"/>
<path d="M80.874 39.2217L80.426 39.3897C80.4355 39.4199 80.451 39.448 80.4716 39.4721C80.4922 39.4962 80.5174 39.5158 80.5459 39.5298C80.5743 39.5439 80.6053 39.552 80.6369 39.5537C80.6686 39.5554 80.7003 39.5506 80.73 39.5397C80.7904 39.5155 80.8392 39.4689 80.866 39.4097C80.8928 39.3504 80.8957 39.283 80.874 39.2217Z" fill="#F28F8F"/>
<path d="M79.268 37.2857L79.652 36.9897C79.6339 36.9638 79.6108 36.9419 79.584 36.9251C79.5572 36.9084 79.5273 36.8973 79.4961 36.8924C79.4649 36.8876 79.433 36.8891 79.4024 36.8969C79.3718 36.9047 79.3431 36.9186 79.318 36.9377C79.2668 36.9784 79.2331 37.0371 79.2238 37.1018C79.2145 37.1665 79.2303 37.2323 79.268 37.2857Z" fill="#263238"/>
<path d="M79.386 37.7996C79.386 37.8527 79.4071 37.9035 79.4446 37.941C79.4821 37.9785 79.5329 37.9996 79.586 37.9996C79.639 37.9996 79.6899 37.9785 79.7274 37.941C79.7649 37.9035 79.786 37.8527 79.786 37.7996C79.786 37.7466 79.7649 37.6957 79.7274 37.6582C79.6899 37.6207 79.639 37.5996 79.586 37.5996C79.5329 37.5996 79.4821 37.6207 79.4446 37.6582C79.4071 37.6957 79.386 37.7466 79.386 37.7996Z" fill="#263238"/>
<path d="M80.3881 37.6216L80.3241 38.8036L79.7061 38.5936L80.3881 37.6216Z" fill="#F28F8F"/>
<path d="M80.1741 42.11C80.2941 42.398 80.5181 42.51 80.9201 42.56C81.1235 42.5725 81.3273 42.5435 81.5192 42.4747C81.7111 42.406 81.8869 42.2989 82.0361 42.16L81.5361 41.662L80.8981 42.14L80.8441 41.606L80.1741 42.11Z" fill="#5A79C0"/>
<path opacity="0.1" d="M80.1741 42.11C80.2941 42.398 80.5181 42.51 80.9201 42.56C81.1235 42.5725 81.3273 42.5435 81.5192 42.4747C81.7111 42.406 81.8869 42.2989 82.0361 42.16L81.5361 41.662L80.8981 42.14L80.8441 41.606L80.1741 42.11Z" fill="black"/>
<path d="M80.4899 41.9536C80.4309 42.1265 80.4085 42.3096 80.4239 42.4916C80.443 42.6537 80.5052 42.8077 80.6039 42.9376C80.6673 42.9785 80.7393 43.004 80.8143 43.0124C80.8892 43.0207 80.9651 43.0115 81.0359 42.9856C81.1654 42.8744 81.2694 42.7367 81.3408 42.5817C81.4122 42.4268 81.4495 42.2582 81.4499 42.0876L80.8979 42.1496L80.4899 41.9536Z" fill="#5A79C0"/>
<path d="M80.5999 42.938C80.5999 42.938 79.9459 46.538 79.9199 46.834C79.8939 47.13 80.2939 48.158 80.5439 48.166C80.7939 48.174 81.2819 47.24 81.2879 46.966C81.2939 46.692 81.0319 42.976 81.0319 42.976L80.5999 42.938Z" fill="#5A79C0"/>
<path opacity="0.1" d="M81.036 42.986C80.9662 43.0169 80.8894 43.0287 80.8135 43.0203C80.7376 43.0118 80.6653 42.9835 80.604 42.938V42.996C80.6664 43.0458 80.7399 43.0798 80.8182 43.0951C80.8966 43.1104 80.9775 43.1066 81.054 43.084L81.036 42.986Z" fill="black"/>
<path d="M80.8979 42.15L82.738 40.75V40.334C82.738 40.334 83.166 40.496 83.262 41.25C82.9668 41.9039 82.4622 42.4408 81.828 42.776L81.4419 42.088L80.8979 42.15Z" fill="#E0E0E0"/>
<path d="M80.7859 40.5239C80.5454 40.5619 80.3298 40.6935 80.1859 40.8899C80.0019 41.1919 80.0439 42.3539 80.0439 42.3539L80.4839 41.9539L80.8839 42.1539C80.8459 41.7679 80.7699 41.0639 80.7699 41.0639L80.7859 40.5239Z" fill="#E0E0E0"/>
<path d="M73.5999 53.2536C73.7717 53.0122 73.8722 52.7273 73.8899 52.4316C73.9419 52.0536 74.9779 51.6476 75.0119 51.9296C75.0459 52.2116 75.1399 52.4456 74.8119 52.7876C74.4839 53.1296 74.0819 53.5076 73.5999 53.2536Z" fill="#FFA8A7"/>
<path d="M73.6541 50.8119C73.4061 51.1319 73.2541 51.7539 73.1221 51.9639C72.9901 52.1739 72.8341 52.3639 73.1221 52.3939C73.4101 52.4239 73.8281 51.8719 73.9841 51.5319C74.0446 51.3975 74.1365 51.2795 74.2521 51.1879C74.2975 51.1515 74.3481 51.1218 74.4021 51.0999C74.2681 51.0539 74.3381 50.5139 74.2441 50.4399C74.2441 50.4399 73.7561 50.6399 73.6541 50.8119Z" fill="#FFA8A7"/>
</svg>
