<svg width="100" height="100" viewBox="0 0 100 100" fill="none" xmlns="http://www.w3.org/2000/svg">
<path d="M50.0001 93.2379C69.9254 93.2379 86.0781 91.0611 86.0781 88.3759C86.0781 85.6907 69.9254 83.5139 50.0001 83.5139C30.0748 83.5139 13.9221 85.6907 13.9221 88.3759C13.9221 91.0611 30.0748 93.2379 50.0001 93.2379Z" fill="#EBEBEB"/>
<path d="M28.8699 46.7939H18.7759V73.2799H28.8699V46.7939Z" fill="#A08DC8"/>
<path opacity="0.2" d="M28.8699 46.7939H18.7759V73.2799H28.8699V46.7939Z" fill="#A08DC8"/>
<path d="M81.2258 46.7939H71.1318V73.2799H81.2258V46.7939Z" fill="#A08DC8"/>
<path opacity="0.2" d="M81.2258 46.7939H71.1318V73.2799H81.2258V46.7939Z" fill="#A08DC8"/>
<path d="M71.1339 28.1499H28.8679V73.2799H71.1339V28.1499Z" fill="#A08DC8"/>
<path opacity="0.2" d="M71.1339 28.1499H28.8679V73.2799H71.1339V28.1499Z" fill="#A08DC8"/>
<g opacity="0.2">
<path d="M71.3777 46.7939H71.1377V73.278H71.3777V46.7939Z" fill="#A08DC8"/>
<path d="M28.9878 46.7939H28.7478V73.278H28.9878V46.7939Z" fill="#A08DC8"/>
<path d="M71.3818 65.5999H28.7478V57.3779H71.3818V65.5999ZM28.9998 65.3459H71.1338V57.6239H28.9998V65.3459Z" fill="#A08DC8"/>
</g>
<g opacity="0.2">
<path d="M31.4998 42.6318C31.4587 42.6363 31.4206 42.6559 31.393 42.6867C31.3654 42.7175 31.3501 42.7574 31.3501 42.7988C31.3501 42.8402 31.3654 42.8802 31.393 42.911C31.4206 42.9418 31.4587 42.9613 31.4998 42.9658C31.5409 42.9613 31.579 42.9418 31.6066 42.911C31.6342 42.8802 31.6495 42.8402 31.6495 42.7988C31.6495 42.7574 31.6342 42.7175 31.6066 42.6867C31.579 42.6559 31.5409 42.6363 31.4998 42.6318Z" fill="#A08DC8"/>
<path d="M31.7857 63.0818C31.7445 63.0863 31.7065 63.1058 31.6789 63.1367C31.6513 63.1675 31.636 63.2074 31.636 63.2488C31.636 63.2902 31.6513 63.3301 31.6789 63.3609C31.7065 63.3917 31.7445 63.4113 31.7857 63.4158C31.8268 63.4113 31.8649 63.3917 31.8925 63.3609C31.9201 63.3301 31.9354 63.2902 31.9354 63.2488C31.9354 63.2074 31.9201 63.1675 31.8925 63.1367C31.8649 63.1058 31.8268 63.0863 31.7857 63.0818Z" fill="#A08DC8"/>
<path d="M43.2097 59.8879C43.2097 59.8699 43.1917 59.8539 43.1837 59.8379C43.1769 59.8267 43.1674 59.8175 43.156 59.8111C43.1446 59.8046 43.1318 59.8013 43.1187 59.8013C43.1056 59.8013 43.0928 59.8046 43.0814 59.8111C43.07 59.8175 43.0605 59.8267 43.0537 59.8379C43.0439 59.8539 43.0352 59.8706 43.0277 59.8879C42.9317 60.0859 43.3037 60.0859 43.2097 59.8879Z" fill="#A08DC8"/>
<path d="M26.5238 63.5019C26.5238 63.4859 26.5078 63.4679 26.4978 63.4519C26.491 63.4407 26.4815 63.4315 26.4701 63.4251C26.4587 63.4187 26.4458 63.4153 26.4328 63.4153C26.4197 63.4153 26.4069 63.4187 26.3955 63.4251C26.3841 63.4315 26.3745 63.4407 26.3678 63.4519C26.3578 63.4679 26.3498 63.4859 26.3418 63.5019C26.2478 63.6999 26.6198 63.6999 26.5238 63.5019Z" fill="#A08DC8"/>
<path d="M32.9378 43.6519C32.9039 43.6519 32.8713 43.6653 32.8473 43.6893C32.8233 43.7134 32.8098 43.7459 32.8098 43.7799C32.8098 43.8138 32.8233 43.8464 32.8473 43.8704C32.8713 43.8944 32.9039 43.9079 32.9378 43.9079C32.9718 43.9079 33.0043 43.8944 33.0283 43.8704C33.0523 43.8464 33.0658 43.8138 33.0658 43.7799C33.0658 43.7459 33.0523 43.7134 33.0283 43.6893C33.0043 43.6653 32.9718 43.6519 32.9378 43.6519Z" fill="#A08DC8"/>
<path d="M24.0398 56.6138C24.0088 56.6177 23.9804 56.6327 23.9597 56.6561C23.9391 56.6795 23.9277 56.7096 23.9277 56.7408C23.9277 56.7719 23.9391 56.8021 23.9597 56.8254C23.9804 56.8488 24.0088 56.8639 24.0398 56.8678C24.0707 56.8639 24.0992 56.8488 24.1198 56.8254C24.1404 56.8021 24.1518 56.7719 24.1518 56.7408C24.1518 56.7096 24.1404 56.6795 24.1198 56.6561C24.0992 56.6327 24.0707 56.6177 24.0398 56.6138Z" fill="#A08DC8"/>
<path d="M40.7996 36.5278C40.7663 36.495 40.7214 36.4766 40.6746 36.4766C40.6279 36.4766 40.583 36.495 40.5496 36.5278C40.5193 36.5594 40.4979 36.5984 40.4873 36.6408C40.4768 36.6833 40.4776 36.7278 40.4896 36.7698C40.5044 36.8071 40.53 36.8392 40.5632 36.8617C40.5964 36.8843 40.6355 36.8963 40.6756 36.8963C40.7158 36.8963 40.7549 36.8843 40.7881 36.8617C40.8213 36.8392 40.8469 36.8071 40.8616 36.7698C40.8737 36.7276 40.8742 36.683 40.8633 36.6405C40.8525 36.5979 40.8305 36.5591 40.7996 36.5278Z" fill="#A08DC8"/>
<path d="M33.1857 62.1357C33.1524 62.1029 33.1075 62.0845 33.0607 62.0845C33.0139 62.0845 32.969 62.1029 32.9357 62.1357C32.9054 62.1669 32.8839 62.2055 32.8733 62.2477C32.8628 62.2898 32.8636 62.334 32.8757 62.3758C32.8907 62.4124 32.9164 62.4438 32.9493 62.4659C32.9823 62.488 33.021 62.4998 33.0607 62.4998C33.1003 62.4998 33.1391 62.488 33.172 62.4659C33.205 62.4438 33.2306 62.4124 33.2457 62.3758C33.2582 62.334 33.2592 62.2897 33.2487 62.2475C33.2381 62.2053 33.2163 62.1667 33.1857 62.1357Z" fill="#A08DC8"/>
<path d="M68.3018 63.8599C68.3463 63.8599 68.3891 63.8422 68.4206 63.8107C68.4521 63.7792 68.4698 63.7365 68.4698 63.6919C68.4698 63.6474 68.4521 63.6046 68.4206 63.5731C68.3891 63.5416 68.3463 63.5239 68.3018 63.5239C68.2572 63.5239 68.2145 63.5416 68.183 63.5731C68.1515 63.6046 68.1338 63.6474 68.1338 63.6919C68.1338 63.7365 68.1515 63.7792 68.183 63.8107C68.2145 63.8422 68.2572 63.8599 68.3018 63.8599Z" fill="#A08DC8"/>
<path d="M58.1538 41.5479C58.195 41.5434 58.233 41.5238 58.2606 41.493C58.2883 41.4622 58.3035 41.4223 58.3035 41.3809C58.3035 41.3395 58.2883 41.2995 58.2606 41.2687C58.233 41.2379 58.195 41.2184 58.1538 41.2139C58.1127 41.2184 58.0747 41.2379 58.0471 41.2687C58.0194 41.2995 58.0042 41.3395 58.0042 41.3809C58.0042 41.4223 58.0194 41.4622 58.0471 41.493C58.0747 41.5238 58.1127 41.5434 58.1538 41.5479Z" fill="#A08DC8"/>
<path d="M73.7158 62.2818C73.7158 62.2978 73.7318 62.3158 73.7418 62.3318C73.7486 62.343 73.7582 62.3522 73.7695 62.3586C73.7809 62.365 73.7938 62.3684 73.8068 62.3684C73.8199 62.3684 73.8328 62.365 73.8441 62.3586C73.8555 62.3522 73.8651 62.343 73.8718 62.3318C73.8818 62.3158 73.8898 62.2978 73.8978 62.2818C73.9998 62.0838 73.6218 62.0838 73.7158 62.2818Z" fill="#A08DC8"/>
<path d="M53.0538 52.212C53.0871 52.2448 53.132 52.2632 53.1788 52.2632C53.2256 52.2632 53.2705 52.2448 53.3038 52.212C53.3345 52.1806 53.3562 52.1417 53.3667 52.0991C53.3773 52.0566 53.3763 52.012 53.3638 51.97C53.3487 51.9333 53.3231 51.9019 53.2902 51.8798C53.2572 51.8577 53.2185 51.8459 53.1788 51.8459C53.1391 51.8459 53.1004 51.8577 53.0674 51.8798C53.0345 51.9019 53.0089 51.9333 52.9938 51.97C52.982 52.012 52.9813 52.0565 52.9918 52.0989C53.0023 52.1413 53.0237 52.1803 53.0538 52.212Z" fill="#A08DC8"/>
</g>
<g opacity="0.2">
<path d="M29 65.5999C29 65.5999 39.644 67.6759 50.06 67.6759C60.476 67.6759 71.132 65.5999 71.132 65.5999H29Z" fill="#A08DC8"/>
</g>
<path d="M81.2239 70.95H18.7759V73.278H81.2239V70.95Z" fill="#A08DC8"/>
<path d="M32.2958 73.2798L29.7298 78.5338L27.1518 83.8158H24.9058L25.7398 78.5338L26.5698 73.2798H32.2958Z" fill="#A08DC8"/>
<path d="M26.5699 73.2798H32.2979L30.7399 76.4658H26.0679L26.5699 73.2798Z" fill="#A08DC8"/>
<path d="M74.1319 83.8158H71.8879L69.3099 78.5338L66.7419 73.2798H72.4699L73.2979 78.5338L74.1319 83.8158Z" fill="#A08DC8"/>
<path d="M72.9719 76.4658H68.2999L66.7419 73.2798H72.4679L72.9719 76.4658Z" fill="#A08DC8"/>
<path d="M74.6598 61.926C74.4758 61.372 64.6698 48.414 63.9998 48.166C63.9238 48.132 59.5399 51.252 59.5399 51.252C59.3598 51.494 51.0278 49.732 51.0278 49.732L50.9438 59.784L66.1218 59.462C66.1218 59.462 68.1718 60.662 70.0478 61.648C71.2018 62.248 72.2238 62.768 72.5158 62.848C73.2798 63.04 74.8458 62.476 74.6598 61.926Z" fill="#AD6359"/>
<path d="M72.5218 62.846C72.2278 62.77 71.2078 62.258 70.0558 61.646C68.1818 60.664 66.1318 59.456 66.1318 59.456L62.7538 59.53L57.4558 51C58.6178 51.2 59.4838 51.328 59.5418 51.252C59.5418 51.252 63.9218 48.132 63.9998 48.166C64.6698 48.414 74.4758 61.366 74.6598 61.924C74.8438 62.482 73.2798 63.042 72.5218 62.846Z" fill="white"/>
<path d="M74.7478 61.9421C74.5478 61.3741 64.7058 48.4261 64.0178 48.1701C63.7578 48.0701 61.6178 49.3961 59.5398 51.2521L65.9018 59.6001C65.9018 59.6001 71.7698 62.7101 72.5538 62.9101C73.3378 63.1101 74.9418 62.5101 74.7478 61.9421Z" fill="#5A79C0"/>
<path d="M74.0898 62.1499C72.3858 60.0199 65.7118 51.2679 64.1878 49.0339C64.1758 49.0139 64.1878 49.0059 64.2018 49.0219C65.9378 51.0979 72.5398 59.9039 74.1258 62.1239C74.1578 62.1699 74.1258 62.1999 74.0898 62.1499Z" fill="#263238"/>
<path d="M71.4539 62.424C71.2644 62.1872 71.1258 61.9138 71.047 61.6209C70.9682 61.328 70.9508 61.0219 70.9959 60.722C71.074 60.1815 71.3568 59.6917 71.7859 59.354C71.7999 59.354 71.8179 59.368 71.8059 59.38C71.4326 59.7807 71.1992 60.2915 71.1408 60.836C71.0824 61.3805 71.2021 61.9293 71.4819 62.4C71.4851 62.4037 71.4867 62.4085 71.4863 62.4134C71.4859 62.4183 71.4836 62.4228 71.4799 62.426C71.4762 62.4292 71.4714 62.4308 71.4665 62.4304C71.4616 62.43 71.4571 62.4277 71.4539 62.424Z" fill="#263238"/>
<path d="M66.636 60.1081C65.964 59.2481 65.504 58.0081 65.804 56.9281C65.816 56.8861 65.874 56.9021 65.882 56.9381C66.061 58.0012 66.354 59.0419 66.756 60.0421C66.7607 60.0575 66.7599 60.074 66.7538 60.0888C66.7478 60.1037 66.7368 60.116 66.7227 60.1237C66.7087 60.1315 66.6924 60.1341 66.6766 60.1313C66.6608 60.1284 66.6465 60.1203 66.636 60.1081Z" fill="#263238"/>
<path d="M67.3999 60.58C66.7279 59.72 66.2679 58.48 66.5679 57.4C66.5799 57.358 66.6379 57.374 66.6439 57.41C66.8247 58.4727 67.1177 59.5132 67.5179 60.514C67.5245 60.5295 67.5251 60.5468 67.5197 60.5626C67.5142 60.5785 67.5032 60.5918 67.4885 60.6C67.4739 60.6082 67.4568 60.6106 67.4404 60.607C67.4241 60.6033 67.4096 60.5937 67.3999 60.58Z" fill="#263238"/>
<path d="M68.18 61.052C67.508 60.192 67.048 58.952 67.348 57.872C67.358 57.83 67.418 57.846 67.424 57.882C67.6047 58.9446 67.8977 59.9851 68.298 60.986C68.3045 61.0014 68.3051 61.0187 68.2997 61.0346C68.2943 61.0504 68.2832 61.0637 68.2686 61.0719C68.2539 61.0801 68.2368 61.0826 68.2204 61.0789C68.2041 61.0752 68.1897 61.0656 68.18 61.052Z" fill="#263238"/>
<path d="M68.9519 61.524C68.2779 60.664 67.8199 59.424 68.1199 58.342C68.1199 58.302 68.1899 58.318 68.1959 58.354C68.3757 59.4169 68.6687 60.4575 69.0699 61.458C69.0764 61.4735 69.0771 61.4908 69.0716 61.5066C69.0662 61.5225 69.0551 61.5358 69.0405 61.544C69.0259 61.5522 69.0087 61.5547 68.9924 61.551C68.976 61.5473 68.9616 61.5377 68.9519 61.524Z" fill="#263238"/>
<path d="M62.548 51.1541C61.808 50.1781 63.326 49.0281 64.066 50.0061C64.806 50.9841 63.288 52.1321 62.548 51.1541Z" fill="#263238"/>
<path d="M66.2539 61.7719C66.5019 60.8439 66.3379 59.8399 66.2959 58.8959C66.2931 58.8753 66.2855 58.8555 66.2737 58.8383C66.2619 58.8211 66.2462 58.8069 66.228 58.7968C66.2097 58.7867 66.1894 58.781 66.1685 58.7801C66.1477 58.7793 66.1269 58.7833 66.1079 58.7919C66.1051 58.7886 66.1016 58.7859 66.0976 58.784C66.0936 58.7822 66.0893 58.7812 66.0849 58.7812C66.0805 58.7812 66.0762 58.7822 66.0722 58.784C66.0682 58.7859 66.0647 58.7886 66.0619 58.7919C65.3133 59.4623 64.754 60.3175 64.4399 61.2719C64.2679 61.8319 64.3339 62.6559 65.0399 62.8179C65.6939 62.9639 66.1079 62.3139 66.2539 61.7719ZM65.5639 62.3599C64.5539 62.9919 64.6299 61.5879 64.7739 61.1799C64.8717 60.9187 64.9866 60.6641 65.1179 60.4179C65.3983 59.9128 65.704 59.4222 66.0339 58.9479C66.0339 59.4139 66.0579 59.8759 66.0679 60.3479C66.0799 60.8939 66.1219 62.0119 65.5639 62.3599Z" fill="#263238"/>
<path d="M63.1599 56.12C62.6459 56.62 63.0159 57.36 63.4499 57.752C64.2109 58.408 65.131 58.8522 66.1179 59.04C66.1222 59.041 66.1267 59.0409 66.131 59.0398C66.1353 59.0387 66.1393 59.0366 66.1426 59.0337C66.1459 59.0308 66.1485 59.0271 66.1501 59.023C66.1517 59.0189 66.1524 59.0144 66.1519 59.01C66.1729 59.008 66.193 59.001 66.2108 58.9897C66.2285 58.9784 66.2433 58.963 66.254 58.9449C66.2648 58.9268 66.271 58.9064 66.2724 58.8854C66.2738 58.8644 66.2702 58.8434 66.2619 58.824C65.8119 57.994 65.4339 57.048 64.7419 56.38C64.3379 56 63.6479 55.648 63.1599 56.12ZM65.3219 57.704C65.5539 58.104 65.7639 58.52 66.0099 58.914C65.4826 58.6782 64.9679 58.4152 64.4679 58.126C64.2274 57.9842 63.9974 57.8251 63.7799 57.65C63.4459 57.376 62.6559 56.212 63.8479 56.232C64.5059 56.244 65.0459 57.224 65.3219 57.704Z" fill="#263238"/>
<path d="M50.5679 46.6501H43.7559C43.7559 46.6501 36.6299 43.2261 30.8899 44.6001C24.3099 46.1821 23.4679 54.4461 28.3859 57.3681C34.6179 61.0721 62.3499 60.3541 62.3499 60.3541L56.3499 50.1941C56.3499 50.1941 47.1279 48.2521 38.7659 48.5341L50.5659 50.1341L50.5679 46.6501Z" fill="#4A5D6B"/>
<path d="M56.7539 50.856C56.7471 50.8394 56.743 50.8218 56.7419 50.804L56.7299 50.76C56.7299 50.728 56.7139 50.696 56.7039 50.662C56.6845 50.594 56.6611 50.5272 56.6339 50.462C56.6099 50.396 56.5799 50.332 56.5499 50.262C56.5171 50.1993 56.4797 50.1391 56.4379 50.082C56.4379 50.082 56.4279 50.082 56.4219 50.082C56.4186 50.0811 56.4152 50.0811 56.4119 50.082C56.4119 50.082 56.4019 50.082 56.3959 50.082C56.3913 50.0809 56.3865 50.0809 56.3819 50.082C55.3679 49.882 48.4759 48.906 47.4519 48.79C46.4279 48.674 45.3819 48.576 44.3459 48.49C42.2783 48.3103 40.203 48.2356 38.1279 48.266C37.9279 48.266 37.7399 48.276 37.5459 48.284C37.5039 48.27 37.4599 48.262 37.4179 48.252C37.3179 48.228 37.2179 48.204 37.1179 48.184C36.9319 48.148 36.7419 48.12 36.5539 48.092C36.1539 48.032 35.7679 47.99 35.3779 47.918C35.3731 47.918 35.3685 47.9199 35.3652 47.9232C35.3618 47.9266 35.3599 47.9312 35.3599 47.936C35.3599 47.9407 35.3618 47.9453 35.3652 47.9487C35.3685 47.9521 35.3731 47.954 35.3779 47.954C35.7779 48.04 36.1579 48.154 36.5499 48.24C36.6639 48.264 36.7759 48.29 36.8899 48.312C36.1299 48.352 35.3699 48.41 34.6119 48.48C34.6079 48.4813 34.6044 48.4838 34.6019 48.4872C34.5995 48.4907 34.5981 48.4948 34.5981 48.499C34.5981 48.5032 34.5995 48.5073 34.6019 48.5107C34.6044 48.5141 34.6079 48.5167 34.6119 48.518C35.6439 48.456 36.6839 48.448 37.7199 48.466C38.7559 48.484 39.7719 48.506 40.7979 48.566C42.8739 48.684 44.9459 48.87 47.0139 49.086C48.1739 49.208 55.1999 50.234 56.3639 50.286H56.3779C56.3879 50.312 56.3979 50.34 56.4099 50.366C56.4419 50.428 56.4739 50.492 56.5099 50.552C56.5414 50.6124 56.5762 50.6712 56.6139 50.728C56.6319 50.756 56.6499 50.784 56.6699 50.812L56.6999 50.854C56.7117 50.8673 56.7218 50.8821 56.7299 50.898C56.7279 50.896 56.7679 50.88 56.7539 50.856Z" fill="#455A64"/>
<path d="M60.1879 59.7421C59.8159 59.1421 59.4999 58.5161 59.1599 57.9041C58.8199 57.2921 58.4779 56.6761 58.1359 56.0621C57.4539 54.8381 55.0059 50.7221 54.7639 50.4341C54.7479 50.4161 54.7179 50.4341 54.7239 50.4581C54.8399 50.7761 56.3679 53.5021 56.7239 54.1081C57.4279 55.3241 58.1659 56.5081 58.8959 57.7081C59.0959 58.0501 59.3179 58.3881 59.5299 58.7301C59.7419 59.0721 59.9659 59.4041 60.1579 59.7541C60.1659 59.7841 60.1999 59.7641 60.1879 59.7421Z" fill="#455A64"/>
<path d="M54.694 51.458C54.082 51.31 53.456 51.216 52.838 51.098C52.22 50.98 51.598 50.864 50.978 50.75C49.738 50.5193 48.4953 50.2987 47.25 50.088C44.77 49.672 42.278 49.324 39.772 49.088C38.358 48.952 36.942 48.864 35.524 48.76C35.494 48.76 35.496 48.804 35.524 48.806C38.046 48.92 40.566 49.262 43.064 49.62C45.562 49.978 48.008 50.366 50.464 50.782C51.16 50.8993 51.856 51.0187 52.552 51.14C53.258 51.262 53.964 51.412 54.674 51.502C54.71 51.502 54.722 51.464 54.694 51.458Z" fill="#455A64"/>
<path d="M61.7418 94.988C61.1418 94.928 46.2898 88.252 45.8838 87.638C45.7278 87.408 46.5738 85.186 47.6838 82.532C47.9198 81.96 48.1698 81.37 48.4258 80.772C50.0798 76.886 51.9278 72.802 51.9278 72.802L61.8778 77.24L58.1018 85.086L57.2738 86.81C57.2738 86.81 61.8178 91.91 62.1918 92.63C62.5658 93.35 62.3398 95.048 61.7418 94.988Z" fill="#AD6359"/>
<path d="M61.7418 94.988C61.1418 94.928 46.2898 88.252 45.8838 87.638C45.6958 87.356 46.9838 84.136 48.4158 80.772L58.0918 85.086L57.2638 86.81C57.2638 86.81 61.8078 91.91 62.1818 92.63C62.5558 93.35 62.3398 95.048 61.7418 94.988Z" fill="white"/>
<path d="M61.7418 94.988C61.1418 94.928 46.2898 88.252 45.8838 87.638C45.7278 87.408 46.5738 85.186 47.6838 82.532L57.2738 86.81C57.2738 86.81 61.8178 91.91 62.1918 92.63C62.5658 93.35 62.3398 95.048 61.7418 94.988Z" fill="#5A79C0"/>
<path d="M61.7998 94.2981C59.3378 93.1181 49.2918 88.5881 46.7678 87.6101C46.7478 87.6101 46.7418 87.6101 46.7678 87.6241C49.1838 88.8481 59.2638 93.2961 61.7878 94.3401C61.8318 94.3601 61.8478 94.3241 61.7998 94.2981Z" fill="#263238"/>
<path d="M61.4659 91.6661C61.1919 91.5349 60.8937 91.4618 60.5901 91.4515C60.2865 91.4411 59.9841 91.4938 59.7019 91.6061C59.1932 91.8041 58.78 92.1901 58.5479 92.6841C58.5479 92.7001 58.5699 92.7121 58.5779 92.6981C58.8845 92.2432 59.3302 91.8999 59.8484 91.7196C60.3665 91.5394 60.9291 91.5318 61.4519 91.6981C61.4558 91.6988 61.4599 91.6981 61.4634 91.6962C61.4669 91.6943 61.4697 91.6913 61.4714 91.6876C61.473 91.6839 61.4733 91.6798 61.4723 91.6759C61.4713 91.672 61.469 91.6686 61.4659 91.6661Z" fill="#263238"/>
<path d="M58.118 87.4919C57.128 87.0299 55.814 86.8619 54.828 87.3999C54.79 87.4199 54.828 87.4739 54.858 87.4719C55.9342 87.4069 57.0144 87.4571 58.08 87.6219C58.0966 87.6252 58.1139 87.6221 58.1284 87.6133C58.1429 87.6045 58.1535 87.5906 58.1583 87.5743C58.1631 87.558 58.1616 87.5405 58.1541 87.5253C58.1466 87.51 58.1337 87.4981 58.118 87.4919Z" fill="#263238"/>
<path d="M58.754 88.1379C57.754 87.6759 56.45 87.5079 55.464 88.0459C55.426 88.0659 55.464 88.1199 55.492 88.1179C56.5689 88.0528 57.6498 88.1031 58.716 88.2679C58.7326 88.2712 58.7499 88.2681 58.7644 88.2593C58.7789 88.2505 58.7896 88.2366 58.7944 88.2203C58.7991 88.204 58.7976 88.1865 58.7901 88.1713C58.7827 88.156 58.7698 88.1441 58.754 88.1379Z" fill="#263238"/>
<path d="M59.3878 88.784C58.3978 88.322 57.0838 88.154 56.0978 88.69C56.0598 88.712 56.0978 88.766 56.1258 88.764C57.2027 88.699 58.2835 88.7492 59.3498 88.914C59.3664 88.9173 59.3837 88.9142 59.3982 88.9054C59.4127 88.8966 59.4234 88.8827 59.4281 88.8664C59.4329 88.8501 59.4314 88.8326 59.4239 88.8174C59.4165 88.8021 59.4036 88.7902 59.3878 88.784Z" fill="#263238"/>
<path d="M60.0218 89.43C59.0318 88.968 57.7178 88.8 56.7318 89.336C56.6938 89.358 56.7318 89.412 56.7618 89.41C57.838 89.345 58.9182 89.3953 59.9838 89.56C60.0004 89.5633 60.0177 89.5602 60.0322 89.5514C60.0467 89.5426 60.0574 89.5287 60.0621 89.5124C60.0669 89.4961 60.0654 89.4786 60.0579 89.4634C60.0504 89.4481 60.0376 89.4362 60.0218 89.43Z" fill="#263238"/>
<path d="M48.462 85.53C47.342 85.03 46.564 86.77 47.686 87.27C48.808 87.77 49.584 86.03 48.462 85.53Z" fill="#263238"/>
<path d="M60.4 85.316C60.082 84.672 59.264 84.794 58.758 85.09C57.8979 85.6108 57.1902 86.3488 56.706 87.23C56.7037 87.2339 56.7023 87.2384 56.702 87.243C56.7017 87.2475 56.7024 87.2521 56.7041 87.2564C56.7059 87.2606 56.7086 87.2644 56.712 87.2675C56.7154 87.2705 56.7195 87.2727 56.724 87.274C56.714 87.354 56.77 87.452 56.868 87.434C57.798 87.262 58.814 87.194 59.668 86.742C60.152 86.478 60.69 85.926 60.4 85.316ZM58.224 86.886C57.768 86.98 57.312 87.054 56.86 87.166C57.2474 86.7372 57.6566 86.3287 58.086 85.942C58.296 85.7569 58.5185 85.5865 58.752 85.432C59.116 85.2 60.468 84.808 60.08 85.936C59.858 86.56 58.76 86.772 58.216 86.886H58.224Z" fill="#263238"/>
<path d="M54.0559 86.4879C54.8559 87.0099 55.8699 87.1659 56.7819 87.4159C56.8759 87.4419 56.9419 87.3499 56.9379 87.2679C56.9424 87.2674 56.9466 87.2658 56.9503 87.2633C56.954 87.2609 56.9571 87.2575 56.9592 87.2536C56.9614 87.2497 56.9626 87.2453 56.9627 87.2408C56.9628 87.2364 56.9619 87.2319 56.9599 87.2279C56.5531 86.3082 55.9116 85.5116 55.0999 84.9179C54.6199 84.5819 53.8139 84.3879 53.4439 85.0039C53.0939 85.5859 53.5839 86.1819 54.0559 86.4879ZM53.7079 85.6499C53.4179 84.4919 54.7319 84.9999 55.0759 85.2619C55.2952 85.4355 55.5024 85.624 55.6959 85.8259C56.0905 86.2477 56.463 86.6897 56.8119 87.1499C56.3719 86.9999 55.9219 86.8879 55.4759 86.7499C54.9459 86.5999 53.8679 86.2879 53.7079 85.6499Z" fill="#263238"/>
<path d="M48.6418 79.86L59.8418 84.92C59.8418 84.92 73.1638 59.352 73.5118 51.52C73.8078 44.86 69.1718 42.29 54.1818 46.598L50.5098 46.644V49.178C52.1218 49.39 56.4218 50.066 56.4218 50.066C59.5498 51.246 60.5578 51.734 60.5078 51.836C52.6958 67.6 48.6418 79.86 48.6418 79.86Z" fill="#455A64"/>
<path d="M62.3318 49.0319C61.8798 49.6319 61.4618 50.2599 61.0618 50.8999C58.6618 49.8299 56.0398 49.2119 53.4358 48.8899C52.6998 48.8006 51.9605 48.7339 51.2178 48.6899C51.1878 48.6899 51.1898 48.7359 51.2178 48.7379C53.8529 48.9224 56.457 49.4179 58.9758 50.2139C59.6738 50.4299 60.3558 50.6779 61.0438 50.9239C60.5638 51.6919 60.1098 52.4799 59.6758 53.2719C58.8643 54.7539 58.1339 56.2788 57.4878 57.8399C57.1278 58.7039 56.7778 59.5739 56.4678 60.4579C56.4678 60.4839 56.5018 60.4999 56.5118 60.4759C57.8798 57.4266 59.3725 54.4426 60.9898 51.5239C61.4458 50.6999 61.9218 49.8879 62.3678 49.0579C62.3838 49.0359 62.3478 48.9999 62.3318 49.0319Z" fill="#455A64"/>
<path d="M60.0779 82.214C59.4239 81.96 58.7919 81.642 58.1539 81.354L56.2319 80.492C54.9519 79.92 50.5279 78.092 50.1619 78C50.1379 78 50.1259 78.03 50.1439 78.042C50.4279 78.228 53.2819 79.498 53.9279 79.774C55.2199 80.328 56.5279 80.84 57.8259 81.374C58.1979 81.524 58.5719 81.666 58.9459 81.812C59.3199 81.958 59.6979 82.092 60.0639 82.258C60.0859 82.26 60.0999 82.222 60.0779 82.214Z" fill="#455A64"/>
<path d="M62.2759 50.1861C61.3939 51.8641 60.6419 53.6201 59.8759 55.3541C59.1099 57.0881 58.3699 58.8161 57.6479 60.5541C56.2119 64.0288 54.8746 67.5421 53.6359 71.0941C52.9319 73.0941 52.2739 75.1261 51.6359 77.1541C51.6259 77.1841 51.6719 77.1941 51.6819 77.1661C52.8679 73.5781 54.1519 70.0221 55.4919 66.4901C56.8319 62.9581 58.2519 59.4741 59.7559 56.0161C60.1786 55.0455 60.6073 54.0781 61.0419 53.1141C61.4779 52.1481 61.9319 51.1881 62.3399 50.2121C62.3519 50.1801 62.2979 50.1461 62.2759 50.1861Z" fill="#455A64"/>
<path d="M43.416 46.4381C43.662 46.6981 59.216 47.0541 59.296 46.9561C59.508 46.6881 57.496 36.8161 55.874 33.0421C53.8 28.2001 52.618 27.7701 51.92 27.4821C51.028 27.1141 49.404 27.2001 49.012 27.3641C48.566 27.5461 46.636 29.7121 46.056 31.4621C44.894 34.9801 43.2 46.2101 43.416 46.4381Z" fill="#455A64"/>
<path d="M53.1878 28.344H47.9778C48.0738 28.232 48.1778 28.126 48.2578 28.03H52.8578C52.9598 28.118 53.0698 28.222 53.1878 28.344ZM53.8438 29.164H47.3278L47.1058 29.476H54.0538C53.9818 29.3667 53.9118 29.2627 53.8438 29.164ZM54.5458 30.296H46.5998C46.5398 30.4 46.4838 30.496 46.4298 30.608H54.7238L54.5458 30.296ZM55.1358 31.43H46.0678L46.0558 31.462C46.0258 31.55 45.9978 31.644 45.9678 31.742H55.2858C55.2358 31.634 55.1858 31.532 55.1358 31.43ZM55.6638 32.562H45.7378C45.7118 32.662 45.6838 32.762 45.6578 32.874H55.7998L55.6638 32.562ZM56.1358 33.694H45.4598C45.4378 33.798 45.4138 33.894 45.3898 34.008H56.2518C56.2138 33.9 56.1738 33.8 56.1358 33.694ZM56.5358 34.828H45.2158C45.1918 34.932 45.1698 35.036 45.1498 35.14H56.6378L56.5358 34.828ZM56.8898 35.96H44.9818C44.9618 36.064 44.9398 36.16 44.9198 36.272H56.9818C56.9498 36.166 56.9198 36.062 56.8878 35.96H56.8898ZM57.2158 37.094H44.7638C44.7438 37.198 44.7258 37.294 44.7058 37.406H57.3058C57.2718 37.302 57.2438 37.2 57.2138 37.094H57.2158ZM57.5218 38.226H44.5578C44.5378 38.33 44.5198 38.426 44.5018 38.538H57.5998C57.5738 38.434 57.5478 38.33 57.5198 38.226H57.5218ZM57.8118 39.358H44.3598L44.3058 39.672H57.8858C57.8598 39.568 57.8338 39.462 57.8098 39.358H57.8118ZM58.0858 40.492H44.1698C44.1538 40.596 44.1358 40.692 44.1198 40.804H58.1558L58.0858 40.492ZM58.3458 41.624H43.9998L43.9518 41.936H58.4238C58.3998 41.832 58.3678 41.728 58.3438 41.624H58.3458ZM58.5958 42.756H43.8178C43.8018 42.862 43.7878 42.968 43.7718 43.07H58.6598L58.5958 42.756ZM58.8318 43.89H43.6578C43.6418 43.998 43.6278 44.102 43.6158 44.202H58.8898C58.8718 44.1 58.8498 44 58.8298 43.89H58.8318ZM59.0498 45.022H43.5098C43.4978 45.132 43.4858 45.238 43.4758 45.336H59.1038C59.0858 45.236 59.0678 45.13 59.0478 45.022H59.0498ZM59.2498 46.156H43.3998C43.385 46.25 43.3897 46.346 43.4138 46.438C43.4426 46.4546 43.4747 46.4648 43.5078 46.468H59.2798C59.2698 46.376 59.2558 46.272 59.2398 46.156H59.2498Z" fill="#263238"/>
<path d="M54.4979 28.7999C61.2059 33.8399 67.0059 40.8359 66.4499 43.0519C65.8599 45.3939 61.2239 48.014 57.1279 48.548C56.2899 48.658 53.6959 42.508 54.5539 42.226C55.2239 42.0059 58.2679 41.1399 58.6319 40.7239C58.8839 40.4339 54.1619 33.7899 52.6319 30.3239C51.0159 26.6819 52.7019 27.4419 54.4979 28.7999Z" fill="#AD6359"/>
<path d="M56.2838 42.032C56.2838 42.032 53.7238 42.288 52.0578 42.536C51.1278 42.674 49.5558 43.052 48.9198 43.466C47.9678 44.084 44.3798 47.28 45.1358 48.166C45.8198 48.966 46.8538 47.698 46.8538 47.698C46.8538 47.698 45.5938 48.98 46.5178 49.568C47.4418 50.156 48.6338 48.368 48.6338 48.368C48.6338 48.368 47.2018 49.636 48.2478 50.168C49.1558 50.63 50.7438 48.722 50.7438 48.722C50.7438 48.722 49.0938 49.89 49.9778 50.454C50.9538 51.078 53.6938 48.518 53.6938 48.518C55.8838 48.762 57.2338 48.612 58.7778 48.18C59.0598 48.108 56.2838 42.032 56.2838 42.032Z" fill="#AD6359"/>
<path d="M48.2499 48.7999C48.3479 48.6639 48.4499 48.5299 48.5499 48.3999C48.7388 48.1322 48.9431 47.8758 49.1619 47.6319C49.3799 47.3979 49.6079 47.1739 49.8419 46.9559C50.0759 46.7379 50.3639 46.5219 50.6039 46.2859C50.6054 46.2832 50.6076 46.2809 50.6102 46.2792C50.6128 46.2774 50.6158 46.2764 50.6189 46.276C50.6221 46.2757 50.6252 46.276 50.6281 46.2771C50.6311 46.2782 50.6337 46.28 50.6359 46.2823C50.638 46.2846 50.6396 46.2873 50.6404 46.2903C50.6413 46.2934 50.6414 46.2965 50.6409 46.2996C50.6403 46.3027 50.639 46.3056 50.6371 46.3081C50.6352 46.3105 50.6327 46.3125 50.6299 46.3139C50.3881 46.544 50.1598 46.7877 49.9459 47.0439C49.7279 47.2879 49.5139 47.5339 49.2979 47.7799C49.0819 48.0259 48.8639 48.2459 48.6459 48.4799C48.5379 48.5979 48.4459 48.7199 48.3319 48.8399C48.2416 48.9621 48.1412 49.0765 48.0319 49.1819C48.0292 49.1831 48.0262 49.1835 48.0233 49.1831C48.0204 49.1827 48.0177 49.1815 48.0154 49.1796C48.0131 49.1777 48.0114 49.1753 48.0104 49.1725C48.0095 49.1698 48.0093 49.1668 48.0099 49.1639C48.0766 49.0343 48.1571 48.9123 48.2499 48.7999Z" fill="#263238"/>
<path d="M46.5999 47.9699C46.935 47.4619 47.3045 46.9774 47.7059 46.5199C48.1137 46.0653 48.566 45.6526 49.0559 45.2879C49.0739 45.2759 49.0959 45.2999 49.0819 45.3159C48.6819 45.7719 48.2599 46.2199 47.8459 46.6699C47.6459 46.8899 46.7559 47.9159 46.6459 48.0119C46.6199 48.0359 46.5839 47.9999 46.5999 47.9699Z" fill="#263238"/>
<path d="M49.7818 49.626C50.1062 49.1542 50.4617 48.7045 50.8458 48.2799C51.2768 47.8869 51.736 47.5259 52.2198 47.2C52.2378 47.2 52.2618 47.212 52.2458 47.228C51.8158 47.628 51.3818 48.012 50.9738 48.428C50.7738 48.628 50.0258 49.488 49.8178 49.666C49.7998 49.674 49.7698 49.648 49.7818 49.626Z" fill="#263238"/>
<path d="M61.9558 35.0001L56.8478 38.3121C56.8478 38.3121 53.0578 32.4441 52.0758 29.6641C51.0938 26.8841 52.2378 26.8781 54.9198 28.8921C57.6018 30.9061 61.9558 35.0001 61.9558 35.0001Z" fill="#455A64"/>
<path d="M54.1439 28.344H51.7439C51.7332 28.2396 51.7332 28.1344 51.7439 28.03H53.6659C53.7999 28.122 53.9719 28.228 54.1439 28.344ZM55.2679 29.164H51.9119C51.9399 29.264 51.9719 29.364 52.0099 29.476H55.6659L55.2679 29.164ZM56.6679 30.296H52.3219C52.3639 30.396 52.4099 30.496 52.4579 30.608H57.0379C56.9139 30.502 56.7999 30.4 56.6659 30.296H56.6679ZM57.9979 31.43H52.8479L53.0039 31.742H58.3539L57.9979 31.43ZM59.2839 32.562H53.4299C53.4859 32.664 53.5419 32.762 53.5999 32.874H59.6279L59.2839 32.562ZM60.5379 33.694H54.0539L54.2319 34.008H60.8779L60.5379 33.694ZM61.7679 34.828H54.7079C54.7699 34.934 54.8299 35.038 54.8919 35.14H61.7499L61.9499 35.006L61.7679 34.828ZM55.3839 35.96L55.5719 36.272H59.9999L60.4799 35.96H55.3839ZM56.0779 37.094L56.2779 37.406H58.2619L58.7439 37.094H56.0779ZM56.7919 38.226L56.8499 38.318L56.9919 38.226H56.7919Z" fill="#263238"/>
<path d="M60.7999 34.274C58.8519 35.824 56.9279 36.874 56.5459 37.144C56.5279 37.156 56.5119 37.126 56.5299 37.114C56.9179 36.878 58.9999 35.346 60.7799 34.242C60.7999 34.228 60.8139 34.26 60.7999 34.274Z" fill="#263238"/>
<path d="M57.176 38.092C57.0691 38.1382 56.9655 38.1916 56.866 38.252C56.298 37.272 55.686 36.28 55.108 35.304L54.26 33.872C53.968 33.374 53.7 32.854 53.38 32.374C53.3792 32.3725 53.3781 32.3712 53.3768 32.3702C53.3756 32.3692 53.3741 32.3684 53.3725 32.3679C53.3709 32.3675 53.3693 32.3673 53.3676 32.3675C53.366 32.3677 53.3644 32.3682 53.363 32.369C53.3615 32.3697 53.3603 32.3708 53.3592 32.3721C53.3582 32.3734 53.3574 32.3748 53.357 32.3764C53.3565 32.378 53.3563 32.3797 53.3565 32.3813C53.3567 32.3829 53.3572 32.3845 53.358 32.386C53.5662 32.8602 53.7985 33.3234 54.054 33.774C54.002 33.706 53.952 33.634 53.896 33.574C53.77 33.424 53.646 33.274 53.534 33.114C53.516 33.09 53.474 33.114 53.492 33.138C53.6 33.29 53.692 33.448 53.794 33.608C53.896 33.768 53.994 33.92 54.104 34.074C54.214 34.228 54.322 34.362 54.436 34.5C54.4482 34.5181 54.4615 34.5355 54.476 34.552C54.632 34.838 54.784 35.124 54.946 35.406C55.514 36.392 56.804 38.378 56.822 38.372C56.952 38.3005 57.0758 38.2182 57.192 38.126C57.2 38.108 57.2 38.088 57.176 38.092Z" fill="#263238"/>
<path d="M46.0938 28.6C40.6498 31.428 35.5378 34.868 34.5778 37.258C33.9778 38.762 34.7198 41.488 35.3258 43.126C35.6218 43.926 43.1518 40.818 42.5258 40.156C40.9778 38.52 40.7258 37.864 40.8958 37.532C41.0018 37.32 46.9598 32.148 48.6318 29.816C50.9638 26.568 48.4758 27.362 46.0938 28.6Z" fill="#AD6359"/>
<path d="M45.3718 47.5421C44.6598 47.9421 43.8238 46.1041 43.8238 46.1041C43.7977 46.4551 43.649 46.7857 43.4038 47.0381C42.9518 47.4621 42.0898 46.9381 42.0898 46.9381C41.9858 47.2959 41.7768 47.6143 41.4898 47.8521C41.0158 48.2141 40.0698 47.8121 40.0698 47.8121C39.7931 48.0883 39.4259 48.2552 39.0358 48.2821C37.9918 48.3141 37.1058 46.9881 36.5318 46.1521C35.9578 45.3161 35.1198 42.4021 34.9038 41.8641L40.2458 38.1421C40.2458 38.1421 43.8818 41.1661 44.4158 42.2461C44.8638 43.1561 46.4578 46.9321 45.3718 47.5421Z" fill="#AD6359"/>
<path d="M43.836 46.078C43.6 45 43.086 43.976 42.6 43C42.588 42.978 42.554 43 42.566 43.016C43.072 43.986 43.33 45.114 43.798 46.1C43.8019 46.102 43.8062 46.103 43.8106 46.1029C43.815 46.1028 43.8193 46.1016 43.823 46.0994C43.8268 46.0972 43.83 46.0941 43.8323 46.0904C43.8345 46.0866 43.8358 46.0824 43.836 46.078Z" fill="#263238"/>
<path d="M42.1479 46.8721C42.0677 46.6322 41.9568 46.4036 41.8178 46.1921C41.6839 45.9601 41.5478 45.7301 41.4078 45.5001C41.1258 45.0441 40.8339 44.5941 40.5279 44.1521C40.5139 44.1321 40.4819 44.1521 40.4939 44.1701C40.7739 44.6261 41.0478 45.0861 41.3078 45.5521C41.4378 45.7861 41.5659 46.0221 41.6939 46.2561C41.7988 46.4865 41.9289 46.7045 42.0819 46.9061C42.0874 46.9128 42.095 46.9174 42.1035 46.9191C42.112 46.9209 42.1208 46.9197 42.1285 46.9157C42.1362 46.9117 42.1424 46.9052 42.1459 46.8973C42.1494 46.8894 42.1501 46.8805 42.1479 46.8721Z" fill="#263238"/>
<path d="M40.0578 47.8001C39.9831 47.583 39.8722 47.3801 39.7298 47.2001C39.5958 47.0001 39.4658 46.7881 39.3298 46.5821C39.0678 46.1681 38.8078 45.7541 38.5618 45.3321C38.5588 45.3289 38.5548 45.3269 38.5505 45.3262C38.5462 45.3255 38.5418 45.3262 38.538 45.3283C38.5341 45.3303 38.5311 45.3335 38.5292 45.3375C38.5274 45.3414 38.5269 45.3458 38.5278 45.3501C38.7758 45.7801 39.0178 46.2141 39.2698 46.6421C39.3938 46.8421 39.5178 47.0621 39.6438 47.2721C39.7398 47.4738 39.8712 47.6567 40.0318 47.8121C40.0478 47.8121 40.0618 47.8001 40.0578 47.8001Z" fill="#263238"/>
<path d="M38.23 32.838L42.216 36.748C42.216 36.748 47.458 32.106 48.976 29.578C50.494 27.05 49.376 26.814 46.342 28.254C43.308 29.694 38.23 32.838 38.23 32.838Z" fill="#5A79C0"/>
<path d="M38.23 32.838L42.216 36.748C42.216 36.748 47.458 32.106 48.976 29.578C50.494 27.05 49.376 26.814 46.342 28.254C43.308 29.694 38.23 32.838 38.23 32.838Z" fill="#455A64"/>
<path d="M49.64 28.03C49.6268 28.1367 49.6034 28.2419 49.57 28.344H46.156L46.342 28.254C46.51 28.174 46.672 28.1 46.828 28.03H49.64ZM44.558 29.164L43.982 29.476H49.036C49.1 29.368 49.16 29.262 49.214 29.164H44.558ZM42.518 30.296L41.972 30.6H48.254C48.336 30.494 48.414 30.4 48.49 30.288L42.518 30.296ZM40.564 31.43L40.042 31.742H47.3C47.392 31.638 47.484 31.542 47.572 31.43H40.564ZM38.68 32.562L38.23 32.838L38.266 32.874H46.25L46.546 32.562H38.68ZM39.102 33.694L39.422 34.008H45.132L45.446 33.694H39.102ZM40.258 34.828L40.576 35.14H43.96L44.29 34.828H40.258ZM41.412 35.96L41.73 36.272H42.744L43.084 35.96H41.412Z" fill="#263238"/>
<path d="M43.0439 35.7261C41.2039 34.1621 39.8439 32.5361 39.5279 32.2241C39.5139 32.2081 39.5399 32.1861 39.5539 32.2021C39.8499 32.5261 41.6959 34.2201 43.0739 35.7021C43.0899 35.7201 43.0619 35.7421 43.0439 35.7261Z" fill="#263238"/>
<path d="M46.5699 30.5281C46.3699 30.9561 46.1699 31.3821 45.9999 31.8221C45.9999 31.7921 45.9999 31.7641 45.9999 31.7341C46.0214 31.4648 46.0622 31.1975 46.1219 30.9341C46.1219 30.9041 46.0839 30.8901 46.0759 30.9201C46.0159 31.1861 45.9619 31.4561 45.9199 31.7201C45.8979 31.8501 45.8859 31.9801 45.8759 32.1101C45.8768 32.126 45.8768 32.1421 45.8759 32.1581C45.8747 32.1633 45.8747 32.1688 45.8759 32.1741C45.6759 32.7601 45.5599 33.3601 45.3939 33.9521C45.3931 33.9549 45.3929 33.958 45.3932 33.9609C45.3936 33.9639 45.3946 33.9668 45.3961 33.9694C45.3976 33.972 45.3995 33.9743 45.4019 33.9761C45.4043 33.9779 45.407 33.9793 45.4099 33.9801C45.4128 33.9808 45.4158 33.9811 45.4187 33.9807C45.4217 33.9803 45.4246 33.9793 45.4272 33.9779C45.4298 33.9764 45.4321 33.9744 45.4339 33.972C45.4357 33.9697 45.4371 33.967 45.4379 33.9641C45.6019 33.3841 45.8379 32.8221 46.0379 32.2561C46.2379 31.6901 46.4099 31.1121 46.6059 30.5421C46.6119 30.5241 46.5779 30.5081 46.5699 30.5281Z" fill="#263238"/>
<path d="M49.3738 30.0619C50.2498 30.3019 51.8158 29.0099 52.4538 27.9379C52.4978 27.8639 52.4118 27.0699 52.3538 26.0999C52.3198 25.4999 52.2958 24.8539 52.3178 24.2539C52.3178 24.1299 48.5178 25.0299 48.5178 25.0299C48.7053 25.789 48.7993 26.5681 48.7978 27.3499C48.7924 27.4321 48.7804 27.5137 48.7618 27.5939C48.7606 27.6079 48.7606 27.6219 48.7618 27.6359C48.6618 28.0999 48.5278 29.8279 49.3738 30.0619Z" fill="#AD6359"/>
<path d="M52.086 24.26C51.874 25.26 51.152 27.7 49.14 27.66C49.0112 27.6607 48.8826 27.6493 48.756 27.626C48.7546 27.612 48.7546 27.598 48.756 27.584C48.7745 27.5038 48.7866 27.4222 48.792 27.34C48.7933 26.5575 48.6993 25.7778 48.512 25.018C48.512 25.018 51.264 24.38 52.086 24.26Z" fill="#263238"/>
<path d="M52.1238 19.266C52.7458 20.518 52.6858 24.442 51.8898 25.448C50.7358 26.906 48.5298 27.3939 47.2098 25.9359C45.9318 24.5199 46.1018 19.408 47.0218 18.462C48.3738 17.068 51.1998 17.418 52.1238 19.266Z" fill="#AD6359"/>
<path d="M49.0318 22.676C49.0318 22.676 49.0518 22.688 49.0518 22.7C49.0398 22.964 49.0718 23.268 49.3098 23.358V23.374C49.0178 23.33 48.9798 22.924 49.0318 22.676Z" fill="#263238"/>
<path d="M49.272 22.4001C49.696 22.3721 49.72 23.2261 49.326 23.2521C48.932 23.2781 48.914 22.4261 49.272 22.4001Z" fill="#263238"/>
<path d="M47.5541 22.7258C47.5541 22.7258 47.5321 22.7398 47.5341 22.7498C47.5501 23.0138 47.5221 23.3178 47.2861 23.4138C47.2861 23.4138 47.2861 23.4298 47.2861 23.4278C47.5801 23.3778 47.6101 22.9738 47.5541 22.7258Z" fill="#263238"/>
<path d="M47.31 22.4559C46.884 22.4359 46.874 23.2899 47.268 23.3079C47.662 23.3259 47.666 22.4739 47.31 22.4559Z" fill="#263238"/>
<path d="M49.6459 21.716C49.5291 21.7076 49.4129 21.6923 49.2979 21.67C49.173 21.6701 49.0515 21.6294 48.9519 21.554C48.9254 21.5246 48.9094 21.4872 48.9065 21.4477C48.9036 21.4082 48.9139 21.3689 48.9359 21.336C48.9891 21.2766 49.0572 21.2325 49.1331 21.2083C49.2091 21.184 49.2901 21.1804 49.3679 21.198C49.5313 21.2081 49.6849 21.2795 49.7979 21.398C49.8193 21.4271 49.8323 21.4615 49.8357 21.4976C49.8391 21.5336 49.8326 21.5698 49.817 21.6024C49.8014 21.6351 49.7773 21.6628 49.7471 21.6828C49.717 21.7028 49.682 21.7143 49.6459 21.716Z" fill="#263238"/>
<path d="M46.8998 21.8461C47.0178 21.8221 47.1218 21.7821 47.2358 21.7481C47.359 21.7296 47.4728 21.6713 47.5598 21.5821C47.5819 21.5488 47.5923 21.5092 47.5894 21.4693C47.5865 21.4295 47.5705 21.3918 47.5438 21.3621C47.4823 21.3112 47.4082 21.2779 47.3294 21.2656C47.2505 21.2533 47.1698 21.2624 47.0958 21.2921C46.9341 21.3258 46.7913 21.4194 46.6958 21.5541C46.6785 21.5866 46.6705 21.6233 46.6727 21.6601C46.675 21.6969 46.6873 21.7323 46.7084 21.7625C46.7295 21.7927 46.7585 21.8165 46.7923 21.8312C46.8261 21.846 46.8633 21.8511 46.8998 21.8461Z" fill="#263238"/>
<path d="M49.5438 25.12C49.4818 25.182 49.4198 25.27 49.3258 25.28C49.2275 25.2808 49.1301 25.2611 49.0398 25.222C49.0398 25.222 49.0218 25.222 49.0278 25.236C49.0672 25.2868 49.1196 25.326 49.1795 25.3496C49.2393 25.3732 49.3044 25.3802 49.3678 25.37C49.4211 25.3541 49.4685 25.3229 49.5041 25.2802C49.5397 25.2375 49.5619 25.1852 49.5678 25.13C49.5718 25.114 49.5518 25.11 49.5438 25.12Z" fill="#263238"/>
<path d="M48.448 24.6701C48.5635 24.8124 48.7136 24.9226 48.884 24.9901C48.979 25.0203 49.081 25.0203 49.176 24.9901C49.386 24.9281 49.386 24.7341 49.342 24.5701C49.3177 24.4825 49.2834 24.398 49.24 24.3181C49.0207 24.5176 48.743 24.641 48.448 24.6701Z" fill="#263238"/>
<path d="M48.8838 25.0001C48.9788 25.0303 49.0808 25.0303 49.1758 25.0001C49.3858 24.9381 49.3858 24.7441 49.3418 24.5801C49.2291 24.5878 49.1225 24.6336 49.0392 24.7099C48.956 24.7862 48.9012 24.8885 48.8838 25.0001Z" fill="#FF98B9"/>
<path opacity="0.2" d="M52.5418 22.0501C52.2858 22.0021 51.6938 21.1161 51.4398 20.7641C51.1858 20.4121 51.0858 18.5521 51.0718 18.1321C51.5225 18.4031 51.8873 18.7963 52.1238 19.2661C52.3998 19.8261 52.5418 20.9201 52.5418 22.0501Z" fill="#263238"/>
<path d="M47.8418 19.5779C47.99 19.7492 48.1795 19.8799 48.3923 19.9576C48.605 20.0353 48.8341 20.0574 49.0578 20.0219C49.2867 19.9852 49.5024 19.8904 49.6842 19.7464C49.8659 19.6025 50.0077 19.4143 50.0958 19.1999C50.0958 19.1879 50.1198 19.1999 50.1158 19.1999C50.0421 19.4325 49.9063 19.6406 49.723 19.8016C49.5397 19.9627 49.316 20.0707 49.0758 20.1139C48.838 20.144 48.5963 20.1111 48.3752 20.0185C48.1541 19.9258 47.9612 19.7766 47.8158 19.5859C47.7998 19.5819 47.8278 19.5619 47.8418 19.5779Z" fill="#263238"/>
<path d="M49.2 16.29C49.97 16.304 50.678 16.726 50.964 17.248C51.1218 17.5452 51.1746 17.887 51.114 18.218C51.114 18.232 51.084 18.23 51.086 18.218C51.0999 17.925 51.0348 17.6336 50.8976 17.3743C50.7604 17.115 50.5561 16.8974 50.306 16.744C50.0325 16.5661 49.7214 16.4541 49.3972 16.417C49.073 16.3798 48.7446 16.4185 48.438 16.53C48.1393 16.6337 47.8866 16.839 47.724 17.11C47.71 17.138 47.652 17.11 47.664 17.09C47.868 16.6 48.5 16.28 49.2 16.29Z" fill="#263238"/>
<path d="M44.7358 17.9861C44.8588 17.6046 45.1132 17.2792 45.4538 17.0681C45.9238 16.7741 46.4538 16.8141 46.9878 16.8681C47.0038 16.8681 47.0018 16.8921 46.9878 16.8901C46.5358 16.8481 46.0758 16.8321 45.6618 17.0481C45.3188 17.2225 45.0472 17.5111 44.8938 17.8641C44.7466 18.2264 44.7349 18.6297 44.8609 19C44.9869 19.3703 45.2421 19.6827 45.5798 19.8801C45.7771 19.989 45.9945 20.0564 46.2188 20.078C46.4431 20.0997 46.6694 20.0752 46.8838 20.0061C46.8998 20.0061 46.9118 20.0241 46.8958 20.0321C46.6059 20.1385 46.2921 20.1619 45.9895 20.0997C45.687 20.0375 45.4079 19.8922 45.1834 19.68C44.959 19.4678 44.7982 19.1973 44.7191 18.8987C44.6401 18.6002 44.6459 18.2855 44.7358 17.9901V17.9861Z" fill="#263238"/>
<path d="M52.3839 20.03C52.3839 20.03 53.0999 18.646 52.4819 17.854C52.1299 17.406 50.9819 17.478 50.9819 17.478C50.6703 17.0241 50.1911 16.7126 49.6499 16.612C48.6859 16.412 47.5479 16.976 47.5479 16.976C47.5479 16.976 46.6299 16.462 45.7799 16.96C44.5939 17.654 44.7619 19.47 45.9679 20.042C46.8159 20.442 47.9539 19.684 47.9539 19.684C48.0639 19.698 49.1979 20.366 50.0399 19.352C50.0399 19.352 50.7379 19.952 51.3559 19.522C51.4544 19.7019 51.6059 19.8471 51.7898 19.938C51.9737 20.0289 52.1811 20.061 52.3839 20.03Z" fill="#263238"/>
<path d="M51.8279 22.506C51.8279 22.506 52.5099 21.144 53.1159 21.37C53.7219 21.596 53.3339 23.482 52.7159 23.824C52.6391 23.8735 52.5531 23.9068 52.4631 23.9221C52.3731 23.9374 52.2809 23.9343 52.1922 23.913C52.1034 23.8917 52.0198 23.8526 51.9466 23.7981C51.8733 23.7437 51.8118 23.6749 51.7659 23.596L51.8279 22.506Z" fill="#AD6359"/>
<path d="M53 21.908C53.01 21.908 53.014 21.92 53 21.926C52.566 22.18 52.386 22.644 52.28 23.112C52.3001 23.0619 52.3308 23.0168 52.37 22.9797C52.4092 22.9427 52.456 22.9145 52.5071 22.8972C52.5582 22.8799 52.6125 22.8739 52.6661 22.8796C52.7198 22.8852 52.7716 22.9024 52.818 22.93C52.832 22.93 52.818 22.958 52.818 22.956C52.7342 22.9411 52.6478 22.9523 52.5705 22.9881C52.4933 23.0238 52.4289 23.0824 52.386 23.156C52.3168 23.2829 52.2618 23.417 52.222 23.556C52.206 23.602 52.128 23.59 52.138 23.54C52.032 22.95 52.368 22.06 53 21.908Z" fill="#263238"/>
<path d="M52.9099 28.216C52.4989 28.7275 52.0595 29.2156 51.5939 29.678C51.1439 30.098 50.5939 30.478 49.9939 30.538C49.3939 30.598 48.7939 30.482 48.5719 29.754C48.3919 29.176 48.4159 28.58 48.5119 27.836C48.5119 27.8301 48.5096 27.8245 48.5055 27.8204C48.5013 27.8163 48.4957 27.814 48.4899 27.814C48.4841 27.814 48.4785 27.8163 48.4743 27.8204C48.4702 27.8245 48.4679 27.8301 48.4679 27.836C48.3399 28.792 48.2119 30.274 49.0819 30.596C50.0579 30.958 51.0059 30.448 51.6819 29.772C52.1534 29.3074 52.5732 28.793 52.9339 28.238C52.9339 28.22 52.9179 28.2 52.9099 28.216Z" fill="#263238"/>
<path d="M57.922 50.1121H40.136V50.9101H57.922V50.1121Z" fill="#C7C7C7"/>
<path d="M54.114 50.1121L54.724 50.9101H40.136V50.1121H54.114Z" fill="#A6A6A6"/>
<path d="M53.3539 50.9099H36.0199L34.5779 39.1379H51.9119L53.3539 50.9099Z" fill="#C7C7C7"/>
<path d="M45.022 45.024C45.0246 45.1618 44.9997 45.2988 44.9487 45.4268C44.8977 45.5548 44.8216 45.6714 44.7249 45.7696C44.6282 45.8678 44.5128 45.9457 44.3856 45.9986C44.2583 46.0516 44.1218 46.0786 43.9839 46.078C43.703 46.0771 43.4337 45.9663 43.2333 45.7693C43.033 45.5724 42.9177 45.3049 42.9119 45.024C42.9085 44.8861 42.9327 44.7489 42.9833 44.6205C43.0339 44.4921 43.1097 44.3752 43.2064 44.2767C43.303 44.1782 43.4184 44.1001 43.5458 44.0471C43.6732 43.9941 43.81 43.9672 43.948 43.968C44.2292 43.9695 44.4988 44.0807 44.6994 44.2779C44.9 44.4751 45.0157 44.7428 45.022 45.024Z" fill="white"/>
</svg>
